<?xml version="1.0" encoding="utf-8" standalone="no"?>
<!DOCTYPE svg PUBLIC "-//W3C//DTD SVG 1.1//EN"
  "http://www.w3.org/Graphics/SVG/1.1/DTD/svg11.dtd">
<svg xmlns:xlink="http://www.w3.org/1999/xlink" width="422.613625pt" height="327.930058pt" viewBox="0 0 422.613625 327.930058" xmlns="http://www.w3.org/2000/svg" version="1.1">
 <metadata>
  <rdf:RDF xmlns:dc="http://purl.org/dc/elements/1.1/" xmlns:cc="http://creativecommons.org/ns#" xmlns:rdf="http://www.w3.org/1999/02/22-rdf-syntax-ns#">
   <cc:Work>
    <dc:type rdf:resource="http://purl.org/dc/dcmitype/StillImage"/>
    <dc:date>2022-02-09T21:10:42.086046</dc:date>
    <dc:format>image/svg+xml</dc:format>
    <dc:creator>
     <cc:Agent>
      <dc:title>Matplotlib v3.5.1, https://matplotlib.org/</dc:title>
     </cc:Agent>
    </dc:creator>
   </cc:Work>
  </rdf:RDF>
 </metadata>
 <defs>
  <style type="text/css">*{stroke-linejoin: round; stroke-linecap: butt}</style>
 </defs>
 <g id="figure_1">
  <g id="patch_1">
   <path d="M 0 327.930058 
L 422.613625 327.930058 
L 422.613625 0 
L 0 0 
z
" style="fill: #ffffff; stroke: #ffffff; stroke-linejoin: miter"/>
  </g>
  <g id="axes_1">
   <g id="patch_2">
    <path d="M 58.293625 292.217371 
L 415.413625 292.217371 
L 415.413625 26.105371 
L 58.293625 26.105371 
z
" style="fill: #ebebeb"/>
   </g>
   <g id="matplotlib.axis_1">
    <g id="xtick_1">
     <g id="line2d_1">
      <path d="M 152.572751 292.217371 
L 152.572751 26.105371 
" clip-path="url(#p67070a9fa5)" style="fill: none; stroke: #ffffff"/>
     </g>
     <g id="line2d_2">
      <path d="M 152.572751 292.217371 
" style="fill: none; stroke: #333333; stroke-width: 1.5"/>
      <defs>
       <path id="m49de208a77" d="M 0 0 
L 0 2.75 
" style="stroke: #000000"/>
      </defs>
      <g>
       <use xlink:href="#m49de208a77" x="152.572751" y="292.217371" style="fill: #333333; stroke: #000000"/>
      </g>
     </g>
     <g id="text_1">
      <!-- 0.001 -->
      <g style="fill: #4d4d4d" transform="translate(139.976376 303.853996)scale(0.088 -0.088)">
       <defs>
        <path id="DejaVuSans-30" d="M 2034 4250 
Q 1547 4250 1301 3770 
Q 1056 3291 1056 2328 
Q 1056 1369 1301 889 
Q 1547 409 2034 409 
Q 2525 409 2770 889 
Q 3016 1369 3016 2328 
Q 3016 3291 2770 3770 
Q 2525 4250 2034 4250 
z
M 2034 4750 
Q 2819 4750 3233 4129 
Q 3647 3509 3647 2328 
Q 3647 1150 3233 529 
Q 2819 -91 2034 -91 
Q 1250 -91 836 529 
Q 422 1150 422 2328 
Q 422 3509 836 4129 
Q 1250 4750 2034 4750 
z
" transform="scale(0.015625)"/>
        <path id="DejaVuSans-2e" d="M 684 794 
L 1344 794 
L 1344 0 
L 684 0 
L 684 794 
z
" transform="scale(0.015625)"/>
        <path id="DejaVuSans-31" d="M 794 531 
L 1825 531 
L 1825 4091 
L 703 3866 
L 703 4441 
L 1819 4666 
L 2450 4666 
L 2450 531 
L 3481 531 
L 3481 0 
L 794 0 
L 794 531 
z
" transform="scale(0.015625)"/>
       </defs>
       <use xlink:href="#DejaVuSans-30"/>
       <use xlink:href="#DejaVuSans-2e" x="63.623047"/>
       <use xlink:href="#DejaVuSans-30" x="95.410156"/>
       <use xlink:href="#DejaVuSans-30" x="159.033203"/>
       <use xlink:href="#DejaVuSans-31" x="222.65625"/>
      </g>
     </g>
    </g>
    <g id="xtick_2">
     <g id="line2d_3">
      <path d="M 268.026003 292.217371 
L 268.026003 26.105371 
" clip-path="url(#p67070a9fa5)" style="fill: none; stroke: #ffffff"/>
     </g>
     <g id="line2d_4">
      <path d="M 268.026003 292.217371 
" style="fill: none; stroke: #333333; stroke-width: 1.5"/>
      <g>
       <use xlink:href="#m49de208a77" x="268.026003" y="292.217371" style="fill: #333333; stroke: #000000"/>
      </g>
     </g>
     <g id="text_2">
      <!-- 0.002 -->
      <g style="fill: #4d4d4d" transform="translate(255.429628 303.853996)scale(0.088 -0.088)">
       <defs>
        <path id="DejaVuSans-32" d="M 1228 531 
L 3431 531 
L 3431 0 
L 469 0 
L 469 531 
Q 828 903 1448 1529 
Q 2069 2156 2228 2338 
Q 2531 2678 2651 2914 
Q 2772 3150 2772 3378 
Q 2772 3750 2511 3984 
Q 2250 4219 1831 4219 
Q 1534 4219 1204 4116 
Q 875 4013 500 3803 
L 500 4441 
Q 881 4594 1212 4672 
Q 1544 4750 1819 4750 
Q 2544 4750 2975 4387 
Q 3406 4025 3406 3419 
Q 3406 3131 3298 2873 
Q 3191 2616 2906 2266 
Q 2828 2175 2409 1742 
Q 1991 1309 1228 531 
z
" transform="scale(0.015625)"/>
       </defs>
       <use xlink:href="#DejaVuSans-30"/>
       <use xlink:href="#DejaVuSans-2e" x="63.623047"/>
       <use xlink:href="#DejaVuSans-30" x="95.410156"/>
       <use xlink:href="#DejaVuSans-30" x="159.033203"/>
       <use xlink:href="#DejaVuSans-32" x="222.65625"/>
      </g>
     </g>
    </g>
    <g id="xtick_3">
     <g id="line2d_5">
      <path d="M 383.479255 292.217371 
L 383.479255 26.105371 
" clip-path="url(#p67070a9fa5)" style="fill: none; stroke: #ffffff"/>
     </g>
     <g id="line2d_6">
      <path d="M 383.479255 292.217371 
" style="fill: none; stroke: #333333; stroke-width: 1.5"/>
      <g>
       <use xlink:href="#m49de208a77" x="383.479255" y="292.217371" style="fill: #333333; stroke: #000000"/>
      </g>
     </g>
     <g id="text_3">
      <!-- 0.003 -->
      <g style="fill: #4d4d4d" transform="translate(370.88288 303.853996)scale(0.088 -0.088)">
       <defs>
        <path id="DejaVuSans-33" d="M 2597 2516 
Q 3050 2419 3304 2112 
Q 3559 1806 3559 1356 
Q 3559 666 3084 287 
Q 2609 -91 1734 -91 
Q 1441 -91 1130 -33 
Q 819 25 488 141 
L 488 750 
Q 750 597 1062 519 
Q 1375 441 1716 441 
Q 2309 441 2620 675 
Q 2931 909 2931 1356 
Q 2931 1769 2642 2001 
Q 2353 2234 1838 2234 
L 1294 2234 
L 1294 2753 
L 1863 2753 
Q 2328 2753 2575 2939 
Q 2822 3125 2822 3475 
Q 2822 3834 2567 4026 
Q 2313 4219 1838 4219 
Q 1578 4219 1281 4162 
Q 984 4106 628 3988 
L 628 4550 
Q 988 4650 1302 4700 
Q 1616 4750 1894 4750 
Q 2613 4750 3031 4423 
Q 3450 4097 3450 3541 
Q 3450 3153 3228 2886 
Q 3006 2619 2597 2516 
z
" transform="scale(0.015625)"/>
       </defs>
       <use xlink:href="#DejaVuSans-30"/>
       <use xlink:href="#DejaVuSans-2e" x="63.623047"/>
       <use xlink:href="#DejaVuSans-30" x="95.410156"/>
       <use xlink:href="#DejaVuSans-30" x="159.033203"/>
       <use xlink:href="#DejaVuSans-33" x="222.65625"/>
      </g>
     </g>
    </g>
    <g id="xtick_4">
     <g id="line2d_7">
      <path d="M 94.846125 292.217371 
L 94.846125 26.105371 
" clip-path="url(#p67070a9fa5)" style="fill: none; stroke: #ffffff; stroke-width: 0.5"/>
     </g>
    </g>
    <g id="xtick_5">
     <g id="line2d_8">
      <path d="M 210.299377 292.217371 
L 210.299377 26.105371 
" clip-path="url(#p67070a9fa5)" style="fill: none; stroke: #ffffff; stroke-width: 0.5"/>
     </g>
    </g>
    <g id="xtick_6">
     <g id="line2d_9">
      <path d="M 325.752629 292.217371 
L 325.752629 26.105371 
" clip-path="url(#p67070a9fa5)" style="fill: none; stroke: #ffffff; stroke-width: 0.5"/>
     </g>
    </g>
    <g id="text_4">
     <!-- gauge_sq -->
     <g transform="translate(204.763234 318.136464)scale(0.11 -0.11)">
      <defs>
       <path id="DejaVuSans-67" d="M 2906 1791 
Q 2906 2416 2648 2759 
Q 2391 3103 1925 3103 
Q 1463 3103 1205 2759 
Q 947 2416 947 1791 
Q 947 1169 1205 825 
Q 1463 481 1925 481 
Q 2391 481 2648 825 
Q 2906 1169 2906 1791 
z
M 3481 434 
Q 3481 -459 3084 -895 
Q 2688 -1331 1869 -1331 
Q 1566 -1331 1297 -1286 
Q 1028 -1241 775 -1147 
L 775 -588 
Q 1028 -725 1275 -790 
Q 1522 -856 1778 -856 
Q 2344 -856 2625 -561 
Q 2906 -266 2906 331 
L 2906 616 
Q 2728 306 2450 153 
Q 2172 0 1784 0 
Q 1141 0 747 490 
Q 353 981 353 1791 
Q 353 2603 747 3093 
Q 1141 3584 1784 3584 
Q 2172 3584 2450 3431 
Q 2728 3278 2906 2969 
L 2906 3500 
L 3481 3500 
L 3481 434 
z
" transform="scale(0.015625)"/>
       <path id="DejaVuSans-61" d="M 2194 1759 
Q 1497 1759 1228 1600 
Q 959 1441 959 1056 
Q 959 750 1161 570 
Q 1363 391 1709 391 
Q 2188 391 2477 730 
Q 2766 1069 2766 1631 
L 2766 1759 
L 2194 1759 
z
M 3341 1997 
L 3341 0 
L 2766 0 
L 2766 531 
Q 2569 213 2275 61 
Q 1981 -91 1556 -91 
Q 1019 -91 701 211 
Q 384 513 384 1019 
Q 384 1609 779 1909 
Q 1175 2209 1959 2209 
L 2766 2209 
L 2766 2266 
Q 2766 2663 2505 2880 
Q 2244 3097 1772 3097 
Q 1472 3097 1187 3025 
Q 903 2953 641 2809 
L 641 3341 
Q 956 3463 1253 3523 
Q 1550 3584 1831 3584 
Q 2591 3584 2966 3190 
Q 3341 2797 3341 1997 
z
" transform="scale(0.015625)"/>
       <path id="DejaVuSans-75" d="M 544 1381 
L 544 3500 
L 1119 3500 
L 1119 1403 
Q 1119 906 1312 657 
Q 1506 409 1894 409 
Q 2359 409 2629 706 
Q 2900 1003 2900 1516 
L 2900 3500 
L 3475 3500 
L 3475 0 
L 2900 0 
L 2900 538 
Q 2691 219 2414 64 
Q 2138 -91 1772 -91 
Q 1169 -91 856 284 
Q 544 659 544 1381 
z
M 1991 3584 
L 1991 3584 
z
" transform="scale(0.015625)"/>
       <path id="DejaVuSans-65" d="M 3597 1894 
L 3597 1613 
L 953 1613 
Q 991 1019 1311 708 
Q 1631 397 2203 397 
Q 2534 397 2845 478 
Q 3156 559 3463 722 
L 3463 178 
Q 3153 47 2828 -22 
Q 2503 -91 2169 -91 
Q 1331 -91 842 396 
Q 353 884 353 1716 
Q 353 2575 817 3079 
Q 1281 3584 2069 3584 
Q 2775 3584 3186 3129 
Q 3597 2675 3597 1894 
z
M 3022 2063 
Q 3016 2534 2758 2815 
Q 2500 3097 2075 3097 
Q 1594 3097 1305 2825 
Q 1016 2553 972 2059 
L 3022 2063 
z
" transform="scale(0.015625)"/>
       <path id="DejaVuSans-5f" d="M 3263 -1063 
L 3263 -1509 
L -63 -1509 
L -63 -1063 
L 3263 -1063 
z
" transform="scale(0.015625)"/>
       <path id="DejaVuSans-73" d="M 2834 3397 
L 2834 2853 
Q 2591 2978 2328 3040 
Q 2066 3103 1784 3103 
Q 1356 3103 1142 2972 
Q 928 2841 928 2578 
Q 928 2378 1081 2264 
Q 1234 2150 1697 2047 
L 1894 2003 
Q 2506 1872 2764 1633 
Q 3022 1394 3022 966 
Q 3022 478 2636 193 
Q 2250 -91 1575 -91 
Q 1294 -91 989 -36 
Q 684 19 347 128 
L 347 722 
Q 666 556 975 473 
Q 1284 391 1588 391 
Q 1994 391 2212 530 
Q 2431 669 2431 922 
Q 2431 1156 2273 1281 
Q 2116 1406 1581 1522 
L 1381 1569 
Q 847 1681 609 1914 
Q 372 2147 372 2553 
Q 372 3047 722 3315 
Q 1072 3584 1716 3584 
Q 2034 3584 2315 3537 
Q 2597 3491 2834 3397 
z
" transform="scale(0.015625)"/>
       <path id="DejaVuSans-71" d="M 947 1747 
Q 947 1113 1208 752 
Q 1469 391 1925 391 
Q 2381 391 2643 752 
Q 2906 1113 2906 1747 
Q 2906 2381 2643 2742 
Q 2381 3103 1925 3103 
Q 1469 3103 1208 2742 
Q 947 2381 947 1747 
z
M 2906 525 
Q 2725 213 2448 61 
Q 2172 -91 1784 -91 
Q 1150 -91 751 415 
Q 353 922 353 1747 
Q 353 2572 751 3078 
Q 1150 3584 1784 3584 
Q 2172 3584 2448 3432 
Q 2725 3281 2906 2969 
L 2906 3500 
L 3481 3500 
L 3481 -1331 
L 2906 -1331 
L 2906 525 
z
" transform="scale(0.015625)"/>
      </defs>
      <use xlink:href="#DejaVuSans-67"/>
      <use xlink:href="#DejaVuSans-61" x="63.476562"/>
      <use xlink:href="#DejaVuSans-75" x="124.755859"/>
      <use xlink:href="#DejaVuSans-67" x="188.134766"/>
      <use xlink:href="#DejaVuSans-65" x="251.611328"/>
      <use xlink:href="#DejaVuSans-5f" x="313.134766"/>
      <use xlink:href="#DejaVuSans-73" x="363.134766"/>
      <use xlink:href="#DejaVuSans-71" x="415.234375"/>
     </g>
    </g>
   </g>
   <g id="matplotlib.axis_2">
    <g id="ytick_1">
     <g id="line2d_10">
      <path d="M 58.293625 222.056518 
L 415.413625 222.056518 
" clip-path="url(#p67070a9fa5)" style="fill: none; stroke: #ffffff"/>
     </g>
     <g id="line2d_11">
      <path d="M 58.293625 222.056518 
" style="fill: none; stroke: #333333; stroke-width: 1.5"/>
      <defs>
       <path id="m49abc38028" d="M 0 0 
L -2.75 0 
" style="stroke: #000000"/>
      </defs>
      <g>
       <use xlink:href="#m49abc38028" x="58.293625" y="222.056518" style="fill: #333333; stroke: #000000"/>
      </g>
     </g>
     <g id="text_5">
      <!-- 0.0002 -->
      <g style="fill: #4d4d4d" transform="translate(22.551875 224.484768)scale(0.088 -0.088)">
       <use xlink:href="#DejaVuSans-30"/>
       <use xlink:href="#DejaVuSans-2e" x="63.623047"/>
       <use xlink:href="#DejaVuSans-30" x="95.410156"/>
       <use xlink:href="#DejaVuSans-30" x="159.033203"/>
       <use xlink:href="#DejaVuSans-30" x="222.65625"/>
       <use xlink:href="#DejaVuSans-32" x="286.279297"/>
      </g>
     </g>
    </g>
    <g id="ytick_2">
     <g id="line2d_12">
      <path d="M 58.293625 133.933379 
L 415.413625 133.933379 
" clip-path="url(#p67070a9fa5)" style="fill: none; stroke: #ffffff"/>
     </g>
     <g id="line2d_13">
      <path d="M 58.293625 133.933379 
" style="fill: none; stroke: #333333; stroke-width: 1.5"/>
      <g>
       <use xlink:href="#m49abc38028" x="58.293625" y="133.933379" style="fill: #333333; stroke: #000000"/>
      </g>
     </g>
     <g id="text_6">
      <!-- 0.0004 -->
      <g style="fill: #4d4d4d" transform="translate(22.551875 136.361629)scale(0.088 -0.088)">
       <defs>
        <path id="DejaVuSans-34" d="M 2419 4116 
L 825 1625 
L 2419 1625 
L 2419 4116 
z
M 2253 4666 
L 3047 4666 
L 3047 1625 
L 3713 1625 
L 3713 1100 
L 3047 1100 
L 3047 0 
L 2419 0 
L 2419 1100 
L 313 1100 
L 313 1709 
L 2253 4666 
z
" transform="scale(0.015625)"/>
       </defs>
       <use xlink:href="#DejaVuSans-30"/>
       <use xlink:href="#DejaVuSans-2e" x="63.623047"/>
       <use xlink:href="#DejaVuSans-30" x="95.410156"/>
       <use xlink:href="#DejaVuSans-30" x="159.033203"/>
       <use xlink:href="#DejaVuSans-30" x="222.65625"/>
       <use xlink:href="#DejaVuSans-34" x="286.279297"/>
      </g>
     </g>
    </g>
    <g id="ytick_3">
     <g id="line2d_14">
      <path d="M 58.293625 45.810239 
L 415.413625 45.810239 
" clip-path="url(#p67070a9fa5)" style="fill: none; stroke: #ffffff"/>
     </g>
     <g id="line2d_15">
      <path d="M 58.293625 45.810239 
" style="fill: none; stroke: #333333; stroke-width: 1.5"/>
      <g>
       <use xlink:href="#m49abc38028" x="58.293625" y="45.810239" style="fill: #333333; stroke: #000000"/>
      </g>
     </g>
     <g id="text_7">
      <!-- 0.0006 -->
      <g style="fill: #4d4d4d" transform="translate(22.551875 48.238489)scale(0.088 -0.088)">
       <defs>
        <path id="DejaVuSans-36" d="M 2113 2584 
Q 1688 2584 1439 2293 
Q 1191 2003 1191 1497 
Q 1191 994 1439 701 
Q 1688 409 2113 409 
Q 2538 409 2786 701 
Q 3034 994 3034 1497 
Q 3034 2003 2786 2293 
Q 2538 2584 2113 2584 
z
M 3366 4563 
L 3366 3988 
Q 3128 4100 2886 4159 
Q 2644 4219 2406 4219 
Q 1781 4219 1451 3797 
Q 1122 3375 1075 2522 
Q 1259 2794 1537 2939 
Q 1816 3084 2150 3084 
Q 2853 3084 3261 2657 
Q 3669 2231 3669 1497 
Q 3669 778 3244 343 
Q 2819 -91 2113 -91 
Q 1303 -91 875 529 
Q 447 1150 447 2328 
Q 447 3434 972 4092 
Q 1497 4750 2381 4750 
Q 2619 4750 2861 4703 
Q 3103 4656 3366 4563 
z
" transform="scale(0.015625)"/>
       </defs>
       <use xlink:href="#DejaVuSans-30"/>
       <use xlink:href="#DejaVuSans-2e" x="63.623047"/>
       <use xlink:href="#DejaVuSans-30" x="95.410156"/>
       <use xlink:href="#DejaVuSans-30" x="159.033203"/>
       <use xlink:href="#DejaVuSans-30" x="222.65625"/>
       <use xlink:href="#DejaVuSans-36" x="286.279297"/>
      </g>
     </g>
    </g>
    <g id="ytick_4">
     <g id="line2d_16">
      <path d="M 58.293625 266.118087 
L 415.413625 266.118087 
" clip-path="url(#p67070a9fa5)" style="fill: none; stroke: #ffffff; stroke-width: 0.5"/>
     </g>
    </g>
    <g id="ytick_5">
     <g id="line2d_17">
      <path d="M 58.293625 177.994948 
L 415.413625 177.994948 
" clip-path="url(#p67070a9fa5)" style="fill: none; stroke: #ffffff; stroke-width: 0.5"/>
     </g>
    </g>
    <g id="ytick_6">
     <g id="line2d_18">
      <path d="M 58.293625 89.871809 
L 415.413625 89.871809 
" clip-path="url(#p67070a9fa5)" style="fill: none; stroke: #ffffff; stroke-width: 0.5"/>
     </g>
    </g>
    <g id="text_8">
     <!-- unit_weight -->
     <g transform="translate(15.558281 189.382355)rotate(-90)scale(0.11 -0.11)">
      <defs>
       <path id="DejaVuSans-6e" d="M 3513 2113 
L 3513 0 
L 2938 0 
L 2938 2094 
Q 2938 2591 2744 2837 
Q 2550 3084 2163 3084 
Q 1697 3084 1428 2787 
Q 1159 2491 1159 1978 
L 1159 0 
L 581 0 
L 581 3500 
L 1159 3500 
L 1159 2956 
Q 1366 3272 1645 3428 
Q 1925 3584 2291 3584 
Q 2894 3584 3203 3211 
Q 3513 2838 3513 2113 
z
" transform="scale(0.015625)"/>
       <path id="DejaVuSans-69" d="M 603 3500 
L 1178 3500 
L 1178 0 
L 603 0 
L 603 3500 
z
M 603 4863 
L 1178 4863 
L 1178 4134 
L 603 4134 
L 603 4863 
z
" transform="scale(0.015625)"/>
       <path id="DejaVuSans-74" d="M 1172 4494 
L 1172 3500 
L 2356 3500 
L 2356 3053 
L 1172 3053 
L 1172 1153 
Q 1172 725 1289 603 
Q 1406 481 1766 481 
L 2356 481 
L 2356 0 
L 1766 0 
Q 1100 0 847 248 
Q 594 497 594 1153 
L 594 3053 
L 172 3053 
L 172 3500 
L 594 3500 
L 594 4494 
L 1172 4494 
z
" transform="scale(0.015625)"/>
       <path id="DejaVuSans-77" d="M 269 3500 
L 844 3500 
L 1563 769 
L 2278 3500 
L 2956 3500 
L 3675 769 
L 4391 3500 
L 4966 3500 
L 4050 0 
L 3372 0 
L 2619 2869 
L 1863 0 
L 1184 0 
L 269 3500 
z
" transform="scale(0.015625)"/>
       <path id="DejaVuSans-68" d="M 3513 2113 
L 3513 0 
L 2938 0 
L 2938 2094 
Q 2938 2591 2744 2837 
Q 2550 3084 2163 3084 
Q 1697 3084 1428 2787 
Q 1159 2491 1159 1978 
L 1159 0 
L 581 0 
L 581 4863 
L 1159 4863 
L 1159 2956 
Q 1366 3272 1645 3428 
Q 1925 3584 2291 3584 
Q 2894 3584 3203 3211 
Q 3513 2838 3513 2113 
z
" transform="scale(0.015625)"/>
      </defs>
      <use xlink:href="#DejaVuSans-75"/>
      <use xlink:href="#DejaVuSans-6e" x="63.378906"/>
      <use xlink:href="#DejaVuSans-69" x="126.757812"/>
      <use xlink:href="#DejaVuSans-74" x="154.541016"/>
      <use xlink:href="#DejaVuSans-5f" x="193.75"/>
      <use xlink:href="#DejaVuSans-77" x="243.75"/>
      <use xlink:href="#DejaVuSans-65" x="325.537109"/>
      <use xlink:href="#DejaVuSans-69" x="387.060547"/>
      <use xlink:href="#DejaVuSans-67" x="414.84375"/>
      <use xlink:href="#DejaVuSans-68" x="478.320312"/>
      <use xlink:href="#DejaVuSans-74" x="541.699219"/>
     </g>
    </g>
   </g>
   <g id="PolyCollection_1">
    <path d="M 74.526352 274.068916 
L 74.526352 280.121371 
L 78.635903 277.086631 
L 82.745455 274.052557 
L 86.855006 271.01919 
L 90.964557 267.986574 
L 95.074108 264.954756 
L 99.18366 261.923786 
L 103.293211 258.893718 
L 107.402762 255.864609 
L 111.512313 252.836522 
L 115.621864 249.80952 
L 119.731416 246.783673 
L 123.840967 243.759055 
L 127.950518 240.735744 
L 132.060069 237.713822 
L 136.16962 234.693376 
L 140.279172 231.674497 
L 144.388723 228.65728 
L 148.498274 225.641825 
L 152.607825 222.628232 
L 156.717376 219.616607 
L 160.826928 216.607058 
L 164.936479 213.599691 
L 169.04603 210.594614 
L 173.155581 207.591934 
L 177.265132 204.591756 
L 181.374684 201.594178 
L 185.484235 198.599293 
L 189.593786 195.607189 
L 193.703337 192.617941 
L 197.812889 189.631614 
L 201.92244 186.648263 
L 206.031991 183.667925 
L 210.141542 180.690626 
L 214.251093 177.716374 
L 218.360645 174.745164 
L 222.470196 171.776974 
L 226.579747 168.811768 
L 230.689298 165.849494 
L 234.798849 162.890089 
L 238.908401 159.93348 
L 243.017952 156.979581 
L 247.127503 154.028301 
L 251.237054 151.079541 
L 255.346605 148.133198 
L 259.456157 145.189166 
L 263.565708 142.247337 
L 267.675259 139.307603 
L 271.78481 136.369858 
L 275.894361 133.433995 
L 280.003913 130.499912 
L 284.113464 127.567509 
L 288.223015 124.636692 
L 292.332566 121.707367 
L 296.442118 118.779448 
L 300.551669 115.85285 
L 304.66122 112.927496 
L 308.770771 110.003311 
L 312.880322 107.080225 
L 316.989874 104.158171 
L 321.099425 101.237088 
L 325.208976 98.316917 
L 329.318527 95.397604 
L 333.428078 92.479099 
L 337.53763 89.561353 
L 341.647181 86.644323 
L 345.756732 83.727965 
L 349.866283 80.812243 
L 353.975834 77.897119 
L 358.085386 74.982559 
L 362.194937 72.068532 
L 366.304488 69.155008 
L 370.414039 66.24196 
L 374.52359 63.329361 
L 378.633142 60.417188 
L 382.742693 57.505417 
L 386.852244 54.594028 
L 390.961795 51.683002 
L 395.071347 48.772318 
L 399.180898 45.86196 
L 399.180898 38.201371 
L 399.180898 38.201371 
L 395.071347 41.241987 
L 390.961795 44.282277 
L 386.852244 47.322225 
L 382.742693 50.36181 
L 378.633142 53.401014 
L 374.52359 56.439815 
L 370.414039 59.47819 
L 366.304488 62.516116 
L 362.194937 65.553566 
L 358.085386 68.590513 
L 353.975834 71.626927 
L 349.866283 74.662777 
L 345.756732 77.698029 
L 341.647181 80.732646 
L 337.53763 83.766589 
L 333.428078 86.799818 
L 329.318527 89.832286 
L 325.208976 92.863948 
L 321.099425 95.894752 
L 316.989874 98.924642 
L 312.880322 101.953563 
L 308.770771 104.98145 
L 304.66122 108.008239 
L 300.551669 111.033859 
L 296.442118 114.058236 
L 292.332566 117.081291 
L 288.223015 120.10294 
L 284.113464 123.123097 
L 280.003913 126.141669 
L 275.894361 129.15856 
L 271.78481 132.173671 
L 267.675259 135.186899 
L 263.565708 138.19814 
L 259.456157 141.207285 
L 255.346605 144.214227 
L 251.237054 147.218858 
L 247.127503 150.221072 
L 243.017952 153.220766 
L 238.908401 156.217842 
L 234.798849 159.212207 
L 230.689298 162.203776 
L 226.579747 165.192476 
L 222.470196 168.178244 
L 218.360645 171.161028 
L 214.251093 174.140792 
L 210.141542 177.117515 
L 206.031991 180.09119 
L 201.92244 183.061826 
L 197.812889 186.029449 
L 193.703337 188.994096 
L 189.593786 191.955822 
L 185.484235 194.914692 
L 181.374684 197.870782 
L 177.265132 200.824178 
L 173.155581 203.774973 
L 169.04603 206.723268 
L 164.936479 209.669165 
L 160.826928 212.612772 
L 156.717376 215.554196 
L 152.607825 218.493546 
L 148.498274 221.430928 
L 144.388723 224.366446 
L 140.279172 227.300203 
L 136.16962 230.232299 
L 132.060069 233.162827 
L 127.950518 236.091879 
L 123.840967 239.019542 
L 119.731416 241.945898 
L 115.621864 244.871026 
L 111.512313 247.794998 
L 107.402762 250.717884 
L 103.293211 253.63975 
L 99.18366 256.560656 
L 95.074108 259.48066 
L 90.964557 262.399816 
L 86.855006 265.318174 
L 82.745455 268.235781 
L 78.635903 271.152681 
L 74.526352 274.068916 
z
" clip-path="url(#p67070a9fa5)" style="fill: #daa520; fill-opacity: 0.298039"/>
   </g>
   <g id="line2d_19">
    <path d="M 74.526352 277.095143 
L 78.635903 274.119656 
L 82.745455 271.144169 
L 86.855006 268.168682 
L 90.964557 265.193195 
L 95.074108 262.217708 
L 99.18366 259.242221 
L 103.293211 256.266734 
L 107.402762 253.291247 
L 111.512313 250.31576 
L 115.621864 247.340273 
L 119.731416 244.364786 
L 123.840967 241.389298 
L 127.950518 238.413811 
L 132.060069 235.438324 
L 136.16962 232.462837 
L 140.279172 229.48735 
L 144.388723 226.511863 
L 148.498274 223.536376 
L 152.607825 220.560889 
L 156.717376 217.585402 
L 160.826928 214.609915 
L 164.936479 211.634428 
L 169.04603 208.658941 
L 173.155581 205.683454 
L 177.265132 202.707967 
L 181.374684 199.73248 
L 185.484235 196.756993 
L 189.593786 193.781505 
L 193.703337 190.806018 
L 197.812889 187.830531 
L 201.92244 184.855044 
L 206.031991 181.879557 
L 210.141542 178.90407 
L 214.251093 175.928583 
L 218.360645 172.953096 
L 222.470196 169.977609 
L 226.579747 167.002122 
L 230.689298 164.026635 
L 234.798849 161.051148 
L 238.908401 158.075661 
L 243.017952 155.100174 
L 247.127503 152.124687 
L 251.237054 149.1492 
L 255.346605 146.173713 
L 259.456157 143.198225 
L 263.565708 140.222738 
L 267.675259 137.247251 
L 271.78481 134.271764 
L 275.894361 131.296277 
L 280.003913 128.32079 
L 284.113464 125.345303 
L 288.223015 122.369816 
L 292.332566 119.394329 
L 296.442118 116.418842 
L 300.551669 113.443355 
L 304.66122 110.467868 
L 308.770771 107.492381 
L 312.880322 104.516894 
L 316.989874 101.541407 
L 321.099425 98.56592 
L 325.208976 95.590432 
L 329.318527 92.614945 
L 333.428078 89.639458 
L 337.53763 86.663971 
L 341.647181 83.688484 
L 345.756732 80.712997 
L 349.866283 77.73751 
L 353.975834 74.762023 
L 358.085386 71.786536 
L 362.194937 68.811049 
L 366.304488 65.835562 
L 370.414039 62.860075 
L 374.52359 59.884588 
L 378.633142 56.909101 
L 382.742693 53.933614 
L 386.852244 50.958127 
L 390.961795 47.98264 
L 395.071347 45.007152 
L 399.180898 42.031665 
" clip-path="url(#p67070a9fa5)" style="fill: none; stroke: #daa520; stroke-width: 1.772454; stroke-linejoin: miter"/>
   </g>
   <g id="PathCollection_1">
    <path d="M 74.526352 278.591188 
C 75.113928 278.591188 75.677516 278.357742 76.092995 277.942263 
C 76.508473 277.526785 76.74192 276.963196 76.74192 276.375621 
C 76.74192 275.788045 76.508473 275.224456 76.092995 274.808978 
C 75.677516 274.393499 75.113928 274.160053 74.526352 274.160053 
C 73.938777 274.160053 73.375188 274.393499 72.95971 274.808978 
C 72.544231 275.224456 72.310785 275.788045 72.310785 276.375621 
C 72.310785 276.963196 72.544231 277.526785 72.95971 277.942263 
C 73.375188 278.357742 73.938777 278.591188 74.526352 278.591188 
z
" clip-path="url(#p67070a9fa5)" style="fill: #cd853f; stroke: #cd853f; stroke-width: 0.886227"/>
    <path d="M 83.300799 271.246124 
C 83.888375 271.246124 84.451964 271.012678 84.867442 270.5972 
C 85.282921 270.181721 85.516367 269.618132 85.516367 269.030557 
C 85.516367 268.442982 85.282921 267.879393 84.867442 267.463914 
C 84.451964 267.048436 83.888375 266.81499 83.300799 266.81499 
C 82.713224 266.81499 82.149635 267.048436 81.734157 267.463914 
C 81.318678 267.879393 81.085232 268.442982 81.085232 269.030557 
C 81.085232 269.618132 81.318678 270.181721 81.734157 270.5972 
C 82.149635 271.012678 82.713224 271.246124 83.300799 271.246124 
z
" clip-path="url(#p67070a9fa5)" style="fill: #cd853f; stroke: #cd853f; stroke-width: 0.886227"/>
    <path d="M 92.998873 265.998391 
C 93.586448 265.998391 94.150037 265.764945 94.565515 265.349467 
C 94.980994 264.933988 95.21444 264.370399 95.21444 263.782824 
C 95.21444 263.195249 94.980994 262.63166 94.565515 262.216181 
C 94.150037 261.800703 93.586448 261.567257 92.998873 261.567257 
C 92.411297 261.567257 91.847708 261.800703 91.43223 262.216181 
C 91.016751 262.63166 90.783305 263.195249 90.783305 263.782824 
C 90.783305 264.370399 91.016751 264.933988 91.43223 265.349467 
C 91.847708 265.764945 92.411297 265.998391 92.998873 265.998391 
z
" clip-path="url(#p67070a9fa5)" style="fill: #cd853f; stroke: #cd853f; stroke-width: 0.886227"/>
    <path d="M 103.620572 262.341281 
C 104.208147 262.341281 104.771736 262.107835 105.187215 261.692356 
C 105.602693 261.276878 105.836139 260.713289 105.836139 260.125714 
C 105.836139 259.538138 105.602693 258.97455 105.187215 258.559071 
C 104.771736 258.143593 104.208147 257.910146 103.620572 257.910146 
C 103.032997 257.910146 102.469408 258.143593 102.053929 258.559071 
C 101.638451 258.97455 101.405005 259.538138 101.405005 260.125714 
C 101.405005 260.713289 101.638451 261.276878 102.053929 261.692356 
C 102.469408 262.107835 103.032997 262.341281 103.620572 262.341281 
z
" clip-path="url(#p67070a9fa5)" style="fill: #cd853f; stroke: #cd853f; stroke-width: 0.886227"/>
    <path d="M 115.165897 253.440844 
C 115.753472 253.440844 116.317061 253.207398 116.73254 252.791919 
C 117.148018 252.376441 117.381464 251.812852 117.381464 251.225277 
C 117.381464 250.637701 117.148018 250.074113 116.73254 249.658634 
C 116.317061 249.243156 115.753472 249.009709 115.165897 249.009709 
C 114.578322 249.009709 114.014733 249.243156 113.599254 249.658634 
C 113.183776 250.074113 112.95033 250.637701 112.95033 251.225277 
C 112.95033 251.812852 113.183776 252.376441 113.599254 252.791919 
C 114.014733 253.207398 114.578322 253.440844 115.165897 253.440844 
z
" clip-path="url(#p67070a9fa5)" style="fill: #cd853f; stroke: #cd853f; stroke-width: 0.886227"/>
    <path d="M 127.634848 242.425452 
C 128.222424 242.425452 128.786013 242.192006 129.201491 241.776527 
C 129.616969 241.361049 129.850416 240.79746 129.850416 240.209884 
C 129.850416 239.622309 129.616969 239.05872 129.201491 238.643242 
C 128.786013 238.227763 128.222424 237.994317 127.634848 237.994317 
C 127.047273 237.994317 126.483684 238.227763 126.068206 238.643242 
C 125.652727 239.05872 125.419281 239.622309 125.419281 240.209884 
C 125.419281 240.79746 125.652727 241.361049 126.068206 241.776527 
C 126.483684 242.192006 127.047273 242.425452 127.634848 242.425452 
z
" clip-path="url(#p67070a9fa5)" style="fill: #cd853f; stroke: #cd853f; stroke-width: 0.886227"/>
    <path d="M 141.027426 234.979046 
C 141.615001 234.979046 142.17859 234.7456 142.594068 234.330122 
C 143.009547 233.914643 143.242993 233.351054 143.242993 232.763479 
C 143.242993 232.175904 143.009547 231.612315 142.594068 231.196836 
C 142.17859 230.781358 141.615001 230.547912 141.027426 230.547912 
C 140.43985 230.547912 139.876261 230.781358 139.460783 231.196836 
C 139.045304 231.612315 138.811858 232.175904 138.811858 232.763479 
C 138.811858 233.351054 139.045304 233.914643 139.460783 234.330122 
C 139.876261 234.7456 140.43985 234.979046 141.027426 234.979046 
z
" clip-path="url(#p67070a9fa5)" style="fill: #cd853f; stroke: #cd853f; stroke-width: 0.886227"/>
    <path d="M 155.343629 220.570913 
C 155.931204 220.570913 156.494793 220.337467 156.910272 219.921989 
C 157.32575 219.50651 157.559196 218.942921 157.559196 218.355346 
C 157.559196 217.767771 157.32575 217.204182 156.910272 216.788703 
C 156.494793 216.373225 155.931204 216.139779 155.343629 216.139779 
C 154.756054 216.139779 154.192465 216.373225 153.776986 216.788703 
C 153.361508 217.204182 153.128062 217.767771 153.128062 218.355346 
C 153.128062 218.942921 153.361508 219.50651 153.776986 219.921989 
C 154.192465 220.337467 154.756054 220.570913 155.343629 220.570913 
z
" clip-path="url(#p67070a9fa5)" style="fill: #cd853f; stroke: #cd853f; stroke-width: 0.886227"/>
    <path d="M 170.583458 200.390714 
C 171.171034 200.390714 171.734622 200.157268 172.150101 199.74179 
C 172.565579 199.326311 172.799025 198.762722 172.799025 198.175147 
C 172.799025 197.587572 172.565579 197.023983 172.150101 196.608504 
C 171.734622 196.193026 171.171034 195.95958 170.583458 195.95958 
C 169.995883 195.95958 169.432294 196.193026 169.016816 196.608504 
C 168.601337 197.023983 168.367891 197.587572 168.367891 198.175147 
C 168.367891 198.762722 168.601337 199.326311 169.016816 199.74179 
C 169.432294 200.157268 169.995883 200.390714 170.583458 200.390714 
z
" clip-path="url(#p67070a9fa5)" style="fill: #cd853f; stroke: #cd853f; stroke-width: 0.886227"/>
    <path d="M 186.746914 198.540128 
C 187.334489 198.540128 187.898078 198.306682 188.313556 197.891204 
C 188.729035 197.475725 188.962481 196.912136 188.962481 196.324561 
C 188.962481 195.736986 188.729035 195.173397 188.313556 194.757918 
C 187.898078 194.34244 187.334489 194.108994 186.746914 194.108994 
C 186.159338 194.108994 185.595749 194.34244 185.180271 194.757918 
C 184.764792 195.173397 184.531346 195.736986 184.531346 196.324561 
C 184.531346 196.912136 184.764792 197.475725 185.180271 197.891204 
C 185.595749 198.306682 186.159338 198.540128 186.746914 198.540128 
z
" clip-path="url(#p67070a9fa5)" style="fill: #cd853f; stroke: #cd853f; stroke-width: 0.886227"/>
    <path d="M 203.833995 189.375322 
C 204.42157 189.375322 204.985159 189.141876 205.400638 188.726397 
C 205.816116 188.310919 206.049562 187.74733 206.049562 187.159755 
C 206.049562 186.572179 205.816116 186.00859 205.400638 185.593112 
C 204.985159 185.177633 204.42157 184.944187 203.833995 184.944187 
C 203.24642 184.944187 202.682831 185.177633 202.267352 185.593112 
C 201.851874 186.00859 201.618428 186.572179 201.618428 187.159755 
C 201.618428 187.74733 201.851874 188.310919 202.267352 188.726397 
C 202.682831 189.141876 203.24642 189.375322 203.833995 189.375322 
z
" clip-path="url(#p67070a9fa5)" style="fill: #cd853f; stroke: #cd853f; stroke-width: 0.886227"/>
    <path d="M 221.844702 172.235371 
C 222.432278 172.235371 222.995866 172.001925 223.411345 171.586447 
C 223.826823 171.170968 224.06027 170.607379 224.06027 170.019804 
C 224.06027 169.432229 223.826823 168.86864 223.411345 168.453161 
C 222.995866 168.037683 222.432278 167.804237 221.844702 167.804237 
C 221.257127 167.804237 220.693538 168.037683 220.27806 168.453161 
C 219.862581 168.86864 219.629135 169.432229 219.629135 170.019804 
C 219.629135 170.607379 219.862581 171.170968 220.27806 171.586447 
C 220.693538 172.001925 221.257127 172.235371 221.844702 172.235371 
z
" clip-path="url(#p67070a9fa5)" style="fill: #cd853f; stroke: #cd853f; stroke-width: 0.886227"/>
    <path d="M 240.779036 156.946007 
C 241.366611 156.946007 241.9302 156.712561 242.345678 156.297082 
C 242.761157 155.881604 242.994603 155.318015 242.994603 154.730439 
C 242.994603 154.142864 242.761157 153.579275 242.345678 153.163797 
C 241.9302 152.748318 241.366611 152.514872 240.779036 152.514872 
C 240.19146 152.514872 239.627871 152.748318 239.212393 153.163797 
C 238.796914 153.579275 238.563468 154.142864 238.563468 154.730439 
C 238.563468 155.318015 238.796914 155.881604 239.212393 156.297082 
C 239.627871 156.712561 240.19146 156.946007 240.779036 156.946007 
z
" clip-path="url(#p67070a9fa5)" style="fill: #cd853f; stroke: #cd853f; stroke-width: 0.886227"/>
    <path d="M 260.636995 139.189194 
C 261.22457 139.189194 261.788159 138.955748 262.203638 138.54027 
C 262.619116 138.124791 262.852562 137.561202 262.852562 136.973627 
C 262.852562 136.386052 262.619116 135.822463 262.203638 135.406984 
C 261.788159 134.991506 261.22457 134.75806 260.636995 134.75806 
C 260.04942 134.75806 259.485831 134.991506 259.070352 135.406984 
C 258.654874 135.822463 258.421428 136.386052 258.421428 136.973627 
C 258.421428 137.561202 258.654874 138.124791 259.070352 138.54027 
C 259.485831 138.955748 260.04942 139.189194 260.636995 139.189194 
z
" clip-path="url(#p67070a9fa5)" style="fill: #cd853f; stroke: #cd853f; stroke-width: 0.886227"/>
    <path d="M 281.41858 124.825123 
C 282.006156 124.825123 282.569745 124.591676 282.985223 124.176198 
C 283.400702 123.760719 283.634148 123.197131 283.634148 122.609555 
C 283.634148 122.02198 283.400702 121.458391 282.985223 121.042913 
C 282.569745 120.627434 282.006156 120.393988 281.41858 120.393988 
C 280.831005 120.393988 280.267416 120.627434 279.851938 121.042913 
C 279.436459 121.458391 279.203013 122.02198 279.203013 122.609555 
C 279.203013 123.197131 279.436459 123.760719 279.851938 124.176198 
C 280.267416 124.591676 280.831005 124.825123 281.41858 124.825123 
z
" clip-path="url(#p67070a9fa5)" style="fill: #cd853f; stroke: #cd853f; stroke-width: 0.886227"/>
    <path d="M 303.123792 114.382531 
C 303.711367 114.382531 304.274956 114.149084 304.690434 113.733606 
C 305.105913 113.318127 305.339359 112.754539 305.339359 112.166963 
C 305.339359 111.579388 305.105913 111.015799 304.690434 110.600321 
C 304.274956 110.184842 303.711367 109.951396 303.123792 109.951396 
C 302.536216 109.951396 301.972628 110.184842 301.557149 110.600321 
C 301.141671 111.015799 300.908225 111.579388 300.908225 112.166963 
C 300.908225 112.754539 301.141671 113.318127 301.557149 113.733606 
C 301.972628 114.149084 302.536216 114.382531 303.123792 114.382531 
z
" clip-path="url(#p67070a9fa5)" style="fill: #cd853f; stroke: #cd853f; stroke-width: 0.886227"/>
    <path d="M 325.752629 94.334516 
C 326.340205 94.334516 326.903793 94.10107 327.319272 93.685592 
C 327.73475 93.270113 327.968197 92.706524 327.968197 92.118949 
C 327.968197 91.531374 327.73475 90.967785 327.319272 90.552306 
C 326.903793 90.136828 326.340205 89.903382 325.752629 89.903382 
C 325.165054 89.903382 324.601465 90.136828 324.185987 90.552306 
C 323.770508 90.967785 323.537062 91.531374 323.537062 92.118949 
C 323.537062 92.706524 323.770508 93.270113 324.185987 93.685592 
C 324.601465 94.10107 325.165054 94.334516 325.752629 94.334516 
z
" clip-path="url(#p67070a9fa5)" style="fill: #cd853f; stroke: #cd853f; stroke-width: 0.886227"/>
    <path d="M 349.305093 84.993464 
C 349.892668 84.993464 350.456257 84.760018 350.871735 84.344539 
C 351.287214 83.929061 351.52066 83.365472 351.52066 82.777896 
C 351.52066 82.190321 351.287214 81.626732 350.871735 81.211254 
C 350.456257 80.795775 349.892668 80.562329 349.305093 80.562329 
C 348.717517 80.562329 348.153929 80.795775 347.73845 81.211254 
C 347.322972 81.626732 347.089525 82.190321 347.089525 82.777896 
C 347.089525 83.365472 347.322972 83.929061 347.73845 84.344539 
C 348.153929 84.760018 348.717517 84.993464 349.305093 84.993464 
z
" clip-path="url(#p67070a9fa5)" style="fill: #cd853f; stroke: #cd853f; stroke-width: 0.886227"/>
    <path d="M 373.781182 67.368836 
C 374.368758 67.368836 374.932346 67.13539 375.347825 66.719911 
C 375.763303 66.304433 375.99675 65.740844 375.99675 65.153269 
C 375.99675 64.565693 375.763303 64.002104 375.347825 63.586626 
C 374.932346 63.171147 374.368758 62.937701 373.781182 62.937701 
C 373.193607 62.937701 372.630018 63.171147 372.21454 63.586626 
C 371.799061 64.002104 371.565615 64.565693 371.565615 65.153269 
C 371.565615 65.740844 371.799061 66.304433 372.21454 66.719911 
C 372.630018 67.13539 373.193607 67.368836 373.781182 67.368836 
z
" clip-path="url(#p67070a9fa5)" style="fill: #cd853f; stroke: #cd853f; stroke-width: 0.886227"/>
    <path d="M 399.180898 44.589004 
C 399.768473 44.589004 400.332062 44.355558 400.74754 43.94008 
C 401.163019 43.524601 401.396465 42.961012 401.396465 42.373437 
C 401.396465 41.785862 401.163019 41.222273 400.74754 40.806794 
C 400.332062 40.391316 399.768473 40.15787 399.180898 40.15787 
C 398.593322 40.15787 398.029734 40.391316 397.614255 40.806794 
C 397.198777 41.222273 396.96533 41.785862 396.96533 42.373437 
C 396.96533 42.961012 397.198777 43.524601 397.614255 43.94008 
C 398.029734 44.355558 398.593322 44.589004 399.180898 44.589004 
z
" clip-path="url(#p67070a9fa5)" style="fill: #cd853f; stroke: #cd853f; stroke-width: 0.886227"/>
   </g>
  </g>
  <g id="text_9">
   <!-- 80/20 bronze -->
   <g transform="translate(187.474844 17.229938)scale(0.132 -0.132)">
    <defs>
     <path id="DejaVuSans-38" d="M 2034 2216 
Q 1584 2216 1326 1975 
Q 1069 1734 1069 1313 
Q 1069 891 1326 650 
Q 1584 409 2034 409 
Q 2484 409 2743 651 
Q 3003 894 3003 1313 
Q 3003 1734 2745 1975 
Q 2488 2216 2034 2216 
z
M 1403 2484 
Q 997 2584 770 2862 
Q 544 3141 544 3541 
Q 544 4100 942 4425 
Q 1341 4750 2034 4750 
Q 2731 4750 3128 4425 
Q 3525 4100 3525 3541 
Q 3525 3141 3298 2862 
Q 3072 2584 2669 2484 
Q 3125 2378 3379 2068 
Q 3634 1759 3634 1313 
Q 3634 634 3220 271 
Q 2806 -91 2034 -91 
Q 1263 -91 848 271 
Q 434 634 434 1313 
Q 434 1759 690 2068 
Q 947 2378 1403 2484 
z
M 1172 3481 
Q 1172 3119 1398 2916 
Q 1625 2713 2034 2713 
Q 2441 2713 2670 2916 
Q 2900 3119 2900 3481 
Q 2900 3844 2670 4047 
Q 2441 4250 2034 4250 
Q 1625 4250 1398 4047 
Q 1172 3844 1172 3481 
z
" transform="scale(0.015625)"/>
     <path id="DejaVuSans-2f" d="M 1625 4666 
L 2156 4666 
L 531 -594 
L 0 -594 
L 1625 4666 
z
" transform="scale(0.015625)"/>
     <path id="DejaVuSans-20" transform="scale(0.015625)"/>
     <path id="DejaVuSans-62" d="M 3116 1747 
Q 3116 2381 2855 2742 
Q 2594 3103 2138 3103 
Q 1681 3103 1420 2742 
Q 1159 2381 1159 1747 
Q 1159 1113 1420 752 
Q 1681 391 2138 391 
Q 2594 391 2855 752 
Q 3116 1113 3116 1747 
z
M 1159 2969 
Q 1341 3281 1617 3432 
Q 1894 3584 2278 3584 
Q 2916 3584 3314 3078 
Q 3713 2572 3713 1747 
Q 3713 922 3314 415 
Q 2916 -91 2278 -91 
Q 1894 -91 1617 61 
Q 1341 213 1159 525 
L 1159 0 
L 581 0 
L 581 4863 
L 1159 4863 
L 1159 2969 
z
" transform="scale(0.015625)"/>
     <path id="DejaVuSans-72" d="M 2631 2963 
Q 2534 3019 2420 3045 
Q 2306 3072 2169 3072 
Q 1681 3072 1420 2755 
Q 1159 2438 1159 1844 
L 1159 0 
L 581 0 
L 581 3500 
L 1159 3500 
L 1159 2956 
Q 1341 3275 1631 3429 
Q 1922 3584 2338 3584 
Q 2397 3584 2469 3576 
Q 2541 3569 2628 3553 
L 2631 2963 
z
" transform="scale(0.015625)"/>
     <path id="DejaVuSans-6f" d="M 1959 3097 
Q 1497 3097 1228 2736 
Q 959 2375 959 1747 
Q 959 1119 1226 758 
Q 1494 397 1959 397 
Q 2419 397 2687 759 
Q 2956 1122 2956 1747 
Q 2956 2369 2687 2733 
Q 2419 3097 1959 3097 
z
M 1959 3584 
Q 2709 3584 3137 3096 
Q 3566 2609 3566 1747 
Q 3566 888 3137 398 
Q 2709 -91 1959 -91 
Q 1206 -91 779 398 
Q 353 888 353 1747 
Q 353 2609 779 3096 
Q 1206 3584 1959 3584 
z
" transform="scale(0.015625)"/>
     <path id="DejaVuSans-7a" d="M 353 3500 
L 3084 3500 
L 3084 2975 
L 922 459 
L 3084 459 
L 3084 0 
L 275 0 
L 275 525 
L 2438 3041 
L 353 3041 
L 353 3500 
z
" transform="scale(0.015625)"/>
    </defs>
    <use xlink:href="#DejaVuSans-38"/>
    <use xlink:href="#DejaVuSans-30" x="63.623047"/>
    <use xlink:href="#DejaVuSans-2f" x="127.246094"/>
    <use xlink:href="#DejaVuSans-32" x="160.9375"/>
    <use xlink:href="#DejaVuSans-30" x="224.560547"/>
    <use xlink:href="#DejaVuSans-20" x="288.183594"/>
    <use xlink:href="#DejaVuSans-62" x="319.970703"/>
    <use xlink:href="#DejaVuSans-72" x="383.447266"/>
    <use xlink:href="#DejaVuSans-6f" x="422.310547"/>
    <use xlink:href="#DejaVuSans-6e" x="483.492188"/>
    <use xlink:href="#DejaVuSans-7a" x="546.871094"/>
    <use xlink:href="#DejaVuSans-65" x="599.361328"/>
   </g>
  </g>
 </g>
 <defs>
  <clipPath id="p67070a9fa5">
   <rect x="58.293625" y="26.105371" width="357.12" height="266.112"/>
  </clipPath>
 </defs>
</svg>
