<?xml version="1.0" encoding="utf-8" standalone="no"?>
<!DOCTYPE svg PUBLIC "-//W3C//DTD SVG 1.1//EN"
  "http://www.w3.org/Graphics/SVG/1.1/DTD/svg11.dtd">
<svg xmlns:xlink="http://www.w3.org/1999/xlink" width="422.613625pt" height="327.930058pt" viewBox="0 0 422.613625 327.930058" xmlns="http://www.w3.org/2000/svg" version="1.1">
 <metadata>
  <rdf:RDF xmlns:dc="http://purl.org/dc/elements/1.1/" xmlns:cc="http://creativecommons.org/ns#" xmlns:rdf="http://www.w3.org/1999/02/22-rdf-syntax-ns#">
   <cc:Work>
    <dc:type rdf:resource="http://purl.org/dc/dcmitype/StillImage"/>
    <dc:date>2022-02-09T21:10:42.564630</dc:date>
    <dc:format>image/svg+xml</dc:format>
    <dc:creator>
     <cc:Agent>
      <dc:title>Matplotlib v3.5.1, https://matplotlib.org/</dc:title>
     </cc:Agent>
    </dc:creator>
   </cc:Work>
  </rdf:RDF>
 </metadata>
 <defs>
  <style type="text/css">*{stroke-linejoin: round; stroke-linecap: butt}</style>
 </defs>
 <g id="figure_1">
  <g id="patch_1">
   <path d="M 0 327.930058 
L 422.613625 327.930058 
L 422.613625 0 
L 0 0 
z
" style="fill: #ffffff; stroke: #ffffff; stroke-linejoin: miter"/>
  </g>
  <g id="axes_1">
   <g id="patch_2">
    <path d="M 58.293625 292.217371 
L 415.413625 292.217371 
L 415.413625 26.105371 
L 58.293625 26.105371 
z
" style="fill: #ebebeb"/>
   </g>
   <g id="matplotlib.axis_1">
    <g id="xtick_1">
     <g id="line2d_1">
      <path d="M 140.245896 292.217371 
L 140.245896 26.105371 
" clip-path="url(#p67db822f96)" style="fill: none; stroke: #ffffff"/>
     </g>
     <g id="line2d_2">
      <path d="M 140.245896 292.217371 
" style="fill: none; stroke: #333333; stroke-width: 1.5"/>
      <defs>
       <path id="mf99521d53d" d="M 0 0 
L 0 2.75 
" style="stroke: #000000"/>
      </defs>
      <g>
       <use xlink:href="#mf99521d53d" x="140.245896" y="292.217371" style="fill: #333333; stroke: #000000"/>
      </g>
     </g>
     <g id="text_1">
      <!-- 0.001 -->
      <g style="fill: #4d4d4d" transform="translate(127.649521 303.853996)scale(0.088 -0.088)">
       <defs>
        <path id="DejaVuSans-30" d="M 2034 4250 
Q 1547 4250 1301 3770 
Q 1056 3291 1056 2328 
Q 1056 1369 1301 889 
Q 1547 409 2034 409 
Q 2525 409 2770 889 
Q 3016 1369 3016 2328 
Q 3016 3291 2770 3770 
Q 2525 4250 2034 4250 
z
M 2034 4750 
Q 2819 4750 3233 4129 
Q 3647 3509 3647 2328 
Q 3647 1150 3233 529 
Q 2819 -91 2034 -91 
Q 1250 -91 836 529 
Q 422 1150 422 2328 
Q 422 3509 836 4129 
Q 1250 4750 2034 4750 
z
" transform="scale(0.015625)"/>
        <path id="DejaVuSans-2e" d="M 684 794 
L 1344 794 
L 1344 0 
L 684 0 
L 684 794 
z
" transform="scale(0.015625)"/>
        <path id="DejaVuSans-31" d="M 794 531 
L 1825 531 
L 1825 4091 
L 703 3866 
L 703 4441 
L 1819 4666 
L 2450 4666 
L 2450 531 
L 3481 531 
L 3481 0 
L 794 0 
L 794 531 
z
" transform="scale(0.015625)"/>
       </defs>
       <use xlink:href="#DejaVuSans-30"/>
       <use xlink:href="#DejaVuSans-2e" x="63.623047"/>
       <use xlink:href="#DejaVuSans-30" x="95.410156"/>
       <use xlink:href="#DejaVuSans-30" x="159.033203"/>
       <use xlink:href="#DejaVuSans-31" x="222.65625"/>
      </g>
     </g>
    </g>
    <g id="xtick_2">
     <g id="line2d_3">
      <path d="M 249.778469 292.217371 
L 249.778469 26.105371 
" clip-path="url(#p67db822f96)" style="fill: none; stroke: #ffffff"/>
     </g>
     <g id="line2d_4">
      <path d="M 249.778469 292.217371 
" style="fill: none; stroke: #333333; stroke-width: 1.5"/>
      <g>
       <use xlink:href="#mf99521d53d" x="249.778469" y="292.217371" style="fill: #333333; stroke: #000000"/>
      </g>
     </g>
     <g id="text_2">
      <!-- 0.002 -->
      <g style="fill: #4d4d4d" transform="translate(237.182094 303.853996)scale(0.088 -0.088)">
       <defs>
        <path id="DejaVuSans-32" d="M 1228 531 
L 3431 531 
L 3431 0 
L 469 0 
L 469 531 
Q 828 903 1448 1529 
Q 2069 2156 2228 2338 
Q 2531 2678 2651 2914 
Q 2772 3150 2772 3378 
Q 2772 3750 2511 3984 
Q 2250 4219 1831 4219 
Q 1534 4219 1204 4116 
Q 875 4013 500 3803 
L 500 4441 
Q 881 4594 1212 4672 
Q 1544 4750 1819 4750 
Q 2544 4750 2975 4387 
Q 3406 4025 3406 3419 
Q 3406 3131 3298 2873 
Q 3191 2616 2906 2266 
Q 2828 2175 2409 1742 
Q 1991 1309 1228 531 
z
" transform="scale(0.015625)"/>
       </defs>
       <use xlink:href="#DejaVuSans-30"/>
       <use xlink:href="#DejaVuSans-2e" x="63.623047"/>
       <use xlink:href="#DejaVuSans-30" x="95.410156"/>
       <use xlink:href="#DejaVuSans-30" x="159.033203"/>
       <use xlink:href="#DejaVuSans-32" x="222.65625"/>
      </g>
     </g>
    </g>
    <g id="xtick_3">
     <g id="line2d_5">
      <path d="M 359.311041 292.217371 
L 359.311041 26.105371 
" clip-path="url(#p67db822f96)" style="fill: none; stroke: #ffffff"/>
     </g>
     <g id="line2d_6">
      <path d="M 359.311041 292.217371 
" style="fill: none; stroke: #333333; stroke-width: 1.5"/>
      <g>
       <use xlink:href="#mf99521d53d" x="359.311041" y="292.217371" style="fill: #333333; stroke: #000000"/>
      </g>
     </g>
     <g id="text_3">
      <!-- 0.003 -->
      <g style="fill: #4d4d4d" transform="translate(346.714666 303.853996)scale(0.088 -0.088)">
       <defs>
        <path id="DejaVuSans-33" d="M 2597 2516 
Q 3050 2419 3304 2112 
Q 3559 1806 3559 1356 
Q 3559 666 3084 287 
Q 2609 -91 1734 -91 
Q 1441 -91 1130 -33 
Q 819 25 488 141 
L 488 750 
Q 750 597 1062 519 
Q 1375 441 1716 441 
Q 2309 441 2620 675 
Q 2931 909 2931 1356 
Q 2931 1769 2642 2001 
Q 2353 2234 1838 2234 
L 1294 2234 
L 1294 2753 
L 1863 2753 
Q 2328 2753 2575 2939 
Q 2822 3125 2822 3475 
Q 2822 3834 2567 4026 
Q 2313 4219 1838 4219 
Q 1578 4219 1281 4162 
Q 984 4106 628 3988 
L 628 4550 
Q 988 4650 1302 4700 
Q 1616 4750 1894 4750 
Q 2613 4750 3031 4423 
Q 3450 4097 3450 3541 
Q 3450 3153 3228 2886 
Q 3006 2619 2597 2516 
z
" transform="scale(0.015625)"/>
       </defs>
       <use xlink:href="#DejaVuSans-30"/>
       <use xlink:href="#DejaVuSans-2e" x="63.623047"/>
       <use xlink:href="#DejaVuSans-30" x="95.410156"/>
       <use xlink:href="#DejaVuSans-30" x="159.033203"/>
       <use xlink:href="#DejaVuSans-33" x="222.65625"/>
      </g>
     </g>
    </g>
    <g id="xtick_4">
     <g id="line2d_7">
      <path d="M 85.47961 292.217371 
L 85.47961 26.105371 
" clip-path="url(#p67db822f96)" style="fill: none; stroke: #ffffff; stroke-width: 0.5"/>
     </g>
    </g>
    <g id="xtick_5">
     <g id="line2d_8">
      <path d="M 195.012182 292.217371 
L 195.012182 26.105371 
" clip-path="url(#p67db822f96)" style="fill: none; stroke: #ffffff; stroke-width: 0.5"/>
     </g>
    </g>
    <g id="xtick_6">
     <g id="line2d_9">
      <path d="M 304.544755 292.217371 
L 304.544755 26.105371 
" clip-path="url(#p67db822f96)" style="fill: none; stroke: #ffffff; stroke-width: 0.5"/>
     </g>
    </g>
    <g id="xtick_7">
     <g id="line2d_10">
      <path d="M 414.077328 292.217371 
L 414.077328 26.105371 
" clip-path="url(#p67db822f96)" style="fill: none; stroke: #ffffff; stroke-width: 0.5"/>
     </g>
    </g>
    <g id="text_4">
     <!-- gauge_sq -->
     <g transform="translate(204.763234 318.136464)scale(0.11 -0.11)">
      <defs>
       <path id="DejaVuSans-67" d="M 2906 1791 
Q 2906 2416 2648 2759 
Q 2391 3103 1925 3103 
Q 1463 3103 1205 2759 
Q 947 2416 947 1791 
Q 947 1169 1205 825 
Q 1463 481 1925 481 
Q 2391 481 2648 825 
Q 2906 1169 2906 1791 
z
M 3481 434 
Q 3481 -459 3084 -895 
Q 2688 -1331 1869 -1331 
Q 1566 -1331 1297 -1286 
Q 1028 -1241 775 -1147 
L 775 -588 
Q 1028 -725 1275 -790 
Q 1522 -856 1778 -856 
Q 2344 -856 2625 -561 
Q 2906 -266 2906 331 
L 2906 616 
Q 2728 306 2450 153 
Q 2172 0 1784 0 
Q 1141 0 747 490 
Q 353 981 353 1791 
Q 353 2603 747 3093 
Q 1141 3584 1784 3584 
Q 2172 3584 2450 3431 
Q 2728 3278 2906 2969 
L 2906 3500 
L 3481 3500 
L 3481 434 
z
" transform="scale(0.015625)"/>
       <path id="DejaVuSans-61" d="M 2194 1759 
Q 1497 1759 1228 1600 
Q 959 1441 959 1056 
Q 959 750 1161 570 
Q 1363 391 1709 391 
Q 2188 391 2477 730 
Q 2766 1069 2766 1631 
L 2766 1759 
L 2194 1759 
z
M 3341 1997 
L 3341 0 
L 2766 0 
L 2766 531 
Q 2569 213 2275 61 
Q 1981 -91 1556 -91 
Q 1019 -91 701 211 
Q 384 513 384 1019 
Q 384 1609 779 1909 
Q 1175 2209 1959 2209 
L 2766 2209 
L 2766 2266 
Q 2766 2663 2505 2880 
Q 2244 3097 1772 3097 
Q 1472 3097 1187 3025 
Q 903 2953 641 2809 
L 641 3341 
Q 956 3463 1253 3523 
Q 1550 3584 1831 3584 
Q 2591 3584 2966 3190 
Q 3341 2797 3341 1997 
z
" transform="scale(0.015625)"/>
       <path id="DejaVuSans-75" d="M 544 1381 
L 544 3500 
L 1119 3500 
L 1119 1403 
Q 1119 906 1312 657 
Q 1506 409 1894 409 
Q 2359 409 2629 706 
Q 2900 1003 2900 1516 
L 2900 3500 
L 3475 3500 
L 3475 0 
L 2900 0 
L 2900 538 
Q 2691 219 2414 64 
Q 2138 -91 1772 -91 
Q 1169 -91 856 284 
Q 544 659 544 1381 
z
M 1991 3584 
L 1991 3584 
z
" transform="scale(0.015625)"/>
       <path id="DejaVuSans-65" d="M 3597 1894 
L 3597 1613 
L 953 1613 
Q 991 1019 1311 708 
Q 1631 397 2203 397 
Q 2534 397 2845 478 
Q 3156 559 3463 722 
L 3463 178 
Q 3153 47 2828 -22 
Q 2503 -91 2169 -91 
Q 1331 -91 842 396 
Q 353 884 353 1716 
Q 353 2575 817 3079 
Q 1281 3584 2069 3584 
Q 2775 3584 3186 3129 
Q 3597 2675 3597 1894 
z
M 3022 2063 
Q 3016 2534 2758 2815 
Q 2500 3097 2075 3097 
Q 1594 3097 1305 2825 
Q 1016 2553 972 2059 
L 3022 2063 
z
" transform="scale(0.015625)"/>
       <path id="DejaVuSans-5f" d="M 3263 -1063 
L 3263 -1509 
L -63 -1509 
L -63 -1063 
L 3263 -1063 
z
" transform="scale(0.015625)"/>
       <path id="DejaVuSans-73" d="M 2834 3397 
L 2834 2853 
Q 2591 2978 2328 3040 
Q 2066 3103 1784 3103 
Q 1356 3103 1142 2972 
Q 928 2841 928 2578 
Q 928 2378 1081 2264 
Q 1234 2150 1697 2047 
L 1894 2003 
Q 2506 1872 2764 1633 
Q 3022 1394 3022 966 
Q 3022 478 2636 193 
Q 2250 -91 1575 -91 
Q 1294 -91 989 -36 
Q 684 19 347 128 
L 347 722 
Q 666 556 975 473 
Q 1284 391 1588 391 
Q 1994 391 2212 530 
Q 2431 669 2431 922 
Q 2431 1156 2273 1281 
Q 2116 1406 1581 1522 
L 1381 1569 
Q 847 1681 609 1914 
Q 372 2147 372 2553 
Q 372 3047 722 3315 
Q 1072 3584 1716 3584 
Q 2034 3584 2315 3537 
Q 2597 3491 2834 3397 
z
" transform="scale(0.015625)"/>
       <path id="DejaVuSans-71" d="M 947 1747 
Q 947 1113 1208 752 
Q 1469 391 1925 391 
Q 2381 391 2643 752 
Q 2906 1113 2906 1747 
Q 2906 2381 2643 2742 
Q 2381 3103 1925 3103 
Q 1469 3103 1208 2742 
Q 947 2381 947 1747 
z
M 2906 525 
Q 2725 213 2448 61 
Q 2172 -91 1784 -91 
Q 1150 -91 751 415 
Q 353 922 353 1747 
Q 353 2572 751 3078 
Q 1150 3584 1784 3584 
Q 2172 3584 2448 3432 
Q 2725 3281 2906 2969 
L 2906 3500 
L 3481 3500 
L 3481 -1331 
L 2906 -1331 
L 2906 525 
z
" transform="scale(0.015625)"/>
      </defs>
      <use xlink:href="#DejaVuSans-67"/>
      <use xlink:href="#DejaVuSans-61" x="63.476562"/>
      <use xlink:href="#DejaVuSans-75" x="124.755859"/>
      <use xlink:href="#DejaVuSans-67" x="188.134766"/>
      <use xlink:href="#DejaVuSans-65" x="251.611328"/>
      <use xlink:href="#DejaVuSans-5f" x="313.134766"/>
      <use xlink:href="#DejaVuSans-73" x="363.134766"/>
      <use xlink:href="#DejaVuSans-71" x="415.234375"/>
     </g>
    </g>
   </g>
   <g id="matplotlib.axis_2">
    <g id="ytick_1">
     <g id="line2d_11">
      <path d="M 58.293625 231.649235 
L 415.413625 231.649235 
" clip-path="url(#p67db822f96)" style="fill: none; stroke: #ffffff"/>
     </g>
     <g id="line2d_12">
      <path d="M 58.293625 231.649235 
" style="fill: none; stroke: #333333; stroke-width: 1.5"/>
      <defs>
       <path id="m08a033e52c" d="M 0 0 
L -2.75 0 
" style="stroke: #000000"/>
      </defs>
      <g>
       <use xlink:href="#m08a033e52c" x="58.293625" y="231.649235" style="fill: #333333; stroke: #000000"/>
      </g>
     </g>
     <g id="text_5">
      <!-- 0.0002 -->
      <g style="fill: #4d4d4d" transform="translate(22.551875 234.077485)scale(0.088 -0.088)">
       <use xlink:href="#DejaVuSans-30"/>
       <use xlink:href="#DejaVuSans-2e" x="63.623047"/>
       <use xlink:href="#DejaVuSans-30" x="95.410156"/>
       <use xlink:href="#DejaVuSans-30" x="159.033203"/>
       <use xlink:href="#DejaVuSans-30" x="222.65625"/>
       <use xlink:href="#DejaVuSans-32" x="286.279297"/>
      </g>
     </g>
    </g>
    <g id="ytick_2">
     <g id="line2d_13">
      <path d="M 58.293625 151.47648 
L 415.413625 151.47648 
" clip-path="url(#p67db822f96)" style="fill: none; stroke: #ffffff"/>
     </g>
     <g id="line2d_14">
      <path d="M 58.293625 151.47648 
" style="fill: none; stroke: #333333; stroke-width: 1.5"/>
      <g>
       <use xlink:href="#m08a033e52c" x="58.293625" y="151.47648" style="fill: #333333; stroke: #000000"/>
      </g>
     </g>
     <g id="text_6">
      <!-- 0.0004 -->
      <g style="fill: #4d4d4d" transform="translate(22.551875 153.90473)scale(0.088 -0.088)">
       <defs>
        <path id="DejaVuSans-34" d="M 2419 4116 
L 825 1625 
L 2419 1625 
L 2419 4116 
z
M 2253 4666 
L 3047 4666 
L 3047 1625 
L 3713 1625 
L 3713 1100 
L 3047 1100 
L 3047 0 
L 2419 0 
L 2419 1100 
L 313 1100 
L 313 1709 
L 2253 4666 
z
" transform="scale(0.015625)"/>
       </defs>
       <use xlink:href="#DejaVuSans-30"/>
       <use xlink:href="#DejaVuSans-2e" x="63.623047"/>
       <use xlink:href="#DejaVuSans-30" x="95.410156"/>
       <use xlink:href="#DejaVuSans-30" x="159.033203"/>
       <use xlink:href="#DejaVuSans-30" x="222.65625"/>
       <use xlink:href="#DejaVuSans-34" x="286.279297"/>
      </g>
     </g>
    </g>
    <g id="ytick_3">
     <g id="line2d_15">
      <path d="M 58.293625 71.303725 
L 415.413625 71.303725 
" clip-path="url(#p67db822f96)" style="fill: none; stroke: #ffffff"/>
     </g>
     <g id="line2d_16">
      <path d="M 58.293625 71.303725 
" style="fill: none; stroke: #333333; stroke-width: 1.5"/>
      <g>
       <use xlink:href="#m08a033e52c" x="58.293625" y="71.303725" style="fill: #333333; stroke: #000000"/>
      </g>
     </g>
     <g id="text_7">
      <!-- 0.0006 -->
      <g style="fill: #4d4d4d" transform="translate(22.551875 73.731975)scale(0.088 -0.088)">
       <defs>
        <path id="DejaVuSans-36" d="M 2113 2584 
Q 1688 2584 1439 2293 
Q 1191 2003 1191 1497 
Q 1191 994 1439 701 
Q 1688 409 2113 409 
Q 2538 409 2786 701 
Q 3034 994 3034 1497 
Q 3034 2003 2786 2293 
Q 2538 2584 2113 2584 
z
M 3366 4563 
L 3366 3988 
Q 3128 4100 2886 4159 
Q 2644 4219 2406 4219 
Q 1781 4219 1451 3797 
Q 1122 3375 1075 2522 
Q 1259 2794 1537 2939 
Q 1816 3084 2150 3084 
Q 2853 3084 3261 2657 
Q 3669 2231 3669 1497 
Q 3669 778 3244 343 
Q 2819 -91 2113 -91 
Q 1303 -91 875 529 
Q 447 1150 447 2328 
Q 447 3434 972 4092 
Q 1497 4750 2381 4750 
Q 2619 4750 2861 4703 
Q 3103 4656 3366 4563 
z
" transform="scale(0.015625)"/>
       </defs>
       <use xlink:href="#DejaVuSans-30"/>
       <use xlink:href="#DejaVuSans-2e" x="63.623047"/>
       <use xlink:href="#DejaVuSans-30" x="95.410156"/>
       <use xlink:href="#DejaVuSans-30" x="159.033203"/>
       <use xlink:href="#DejaVuSans-30" x="222.65625"/>
       <use xlink:href="#DejaVuSans-36" x="286.279297"/>
      </g>
     </g>
    </g>
    <g id="ytick_4">
     <g id="line2d_17">
      <path d="M 58.293625 271.735613 
L 415.413625 271.735613 
" clip-path="url(#p67db822f96)" style="fill: none; stroke: #ffffff; stroke-width: 0.5"/>
     </g>
    </g>
    <g id="ytick_5">
     <g id="line2d_18">
      <path d="M 58.293625 191.562858 
L 415.413625 191.562858 
" clip-path="url(#p67db822f96)" style="fill: none; stroke: #ffffff; stroke-width: 0.5"/>
     </g>
    </g>
    <g id="ytick_6">
     <g id="line2d_19">
      <path d="M 58.293625 111.390103 
L 415.413625 111.390103 
" clip-path="url(#p67db822f96)" style="fill: none; stroke: #ffffff; stroke-width: 0.5"/>
     </g>
    </g>
    <g id="ytick_7">
     <g id="line2d_20">
      <path d="M 58.293625 31.217348 
L 415.413625 31.217348 
" clip-path="url(#p67db822f96)" style="fill: none; stroke: #ffffff; stroke-width: 0.5"/>
     </g>
    </g>
    <g id="text_8">
     <!-- unit_weight -->
     <g transform="translate(15.558281 189.382355)rotate(-90)scale(0.11 -0.11)">
      <defs>
       <path id="DejaVuSans-6e" d="M 3513 2113 
L 3513 0 
L 2938 0 
L 2938 2094 
Q 2938 2591 2744 2837 
Q 2550 3084 2163 3084 
Q 1697 3084 1428 2787 
Q 1159 2491 1159 1978 
L 1159 0 
L 581 0 
L 581 3500 
L 1159 3500 
L 1159 2956 
Q 1366 3272 1645 3428 
Q 1925 3584 2291 3584 
Q 2894 3584 3203 3211 
Q 3513 2838 3513 2113 
z
" transform="scale(0.015625)"/>
       <path id="DejaVuSans-69" d="M 603 3500 
L 1178 3500 
L 1178 0 
L 603 0 
L 603 3500 
z
M 603 4863 
L 1178 4863 
L 1178 4134 
L 603 4134 
L 603 4863 
z
" transform="scale(0.015625)"/>
       <path id="DejaVuSans-74" d="M 1172 4494 
L 1172 3500 
L 2356 3500 
L 2356 3053 
L 1172 3053 
L 1172 1153 
Q 1172 725 1289 603 
Q 1406 481 1766 481 
L 2356 481 
L 2356 0 
L 1766 0 
Q 1100 0 847 248 
Q 594 497 594 1153 
L 594 3053 
L 172 3053 
L 172 3500 
L 594 3500 
L 594 4494 
L 1172 4494 
z
" transform="scale(0.015625)"/>
       <path id="DejaVuSans-77" d="M 269 3500 
L 844 3500 
L 1563 769 
L 2278 3500 
L 2956 3500 
L 3675 769 
L 4391 3500 
L 4966 3500 
L 4050 0 
L 3372 0 
L 2619 2869 
L 1863 0 
L 1184 0 
L 269 3500 
z
" transform="scale(0.015625)"/>
       <path id="DejaVuSans-68" d="M 3513 2113 
L 3513 0 
L 2938 0 
L 2938 2094 
Q 2938 2591 2744 2837 
Q 2550 3084 2163 3084 
Q 1697 3084 1428 2787 
Q 1159 2491 1159 1978 
L 1159 0 
L 581 0 
L 581 4863 
L 1159 4863 
L 1159 2956 
Q 1366 3272 1645 3428 
Q 1925 3584 2291 3584 
Q 2894 3584 3203 3211 
Q 3513 2838 3513 2113 
z
" transform="scale(0.015625)"/>
      </defs>
      <use xlink:href="#DejaVuSans-75"/>
      <use xlink:href="#DejaVuSans-6e" x="63.378906"/>
      <use xlink:href="#DejaVuSans-69" x="126.757812"/>
      <use xlink:href="#DejaVuSans-74" x="154.541016"/>
      <use xlink:href="#DejaVuSans-5f" x="193.75"/>
      <use xlink:href="#DejaVuSans-77" x="243.75"/>
      <use xlink:href="#DejaVuSans-65" x="325.537109"/>
      <use xlink:href="#DejaVuSans-69" x="387.060547"/>
      <use xlink:href="#DejaVuSans-67" x="414.84375"/>
      <use xlink:href="#DejaVuSans-68" x="478.320312"/>
      <use xlink:href="#DejaVuSans-74" x="541.699219"/>
     </g>
    </g>
   </g>
   <g id="PolyCollection_1">
    <path d="M 74.526352 272.740829 
L 74.526352 280.121371 
L 78.635903 277.095866 
L 82.745455 274.071291 
L 86.855006 271.047705 
L 90.964557 268.025169 
L 95.074108 265.003748 
L 99.18366 261.983513 
L 103.293211 258.964539 
L 107.402762 255.946904 
L 111.512313 252.930695 
L 115.621864 249.915999 
L 119.731416 246.902914 
L 123.840967 243.891538 
L 127.950518 240.881978 
L 132.060069 237.874345 
L 136.16962 234.868755 
L 140.279172 231.865327 
L 144.388723 228.864188 
L 148.498274 225.865464 
L 152.607825 222.869286 
L 156.717376 219.875787 
L 160.826928 216.885099 
L 164.936479 213.897353 
L 169.04603 210.912678 
L 173.155581 207.931196 
L 177.265132 204.953026 
L 181.374684 201.978275 
L 185.484235 199.007041 
L 189.593786 196.039408 
L 193.703337 193.075446 
L 197.812889 190.115208 
L 201.92244 187.158732 
L 206.031991 184.206035 
L 210.141542 181.257116 
L 214.251093 178.311955 
L 218.360645 175.370515 
L 222.470196 172.43274 
L 226.579747 169.498558 
L 230.689298 166.567883 
L 234.798849 163.640618 
L 238.908401 160.716652 
L 243.017952 157.795869 
L 247.127503 154.878144 
L 251.237054 151.963348 
L 255.346605 149.05135 
L 259.456157 146.142017 
L 263.565708 143.235218 
L 267.675259 140.330822 
L 271.78481 137.428702 
L 275.894361 134.528732 
L 280.003913 131.630793 
L 284.113464 128.73477 
L 288.223015 125.840552 
L 292.332566 122.948033 
L 296.442118 120.057115 
L 300.551669 117.167702 
L 304.66122 114.279706 
L 308.770771 111.393041 
L 312.880322 108.50763 
L 316.989874 105.623396 
L 321.099425 102.740272 
L 325.208976 99.858191 
L 329.318527 96.977093 
L 333.428078 94.09692 
L 337.53763 91.217619 
L 341.647181 88.339139 
L 345.756732 85.461434 
L 349.866283 82.58446 
L 353.975834 79.708176 
L 358.085386 76.832545 
L 362.194937 73.95753 
L 366.304488 71.083097 
L 370.414039 68.209216 
L 374.52359 65.335858 
L 378.633142 62.462994 
L 382.742693 59.5906 
L 386.852244 56.71865 
L 390.961795 53.847124 
L 395.071347 50.975998 
L 399.180898 48.105255 
L 399.180898 38.201371 
L 399.180898 38.201371 
L 395.071347 41.236394 
L 390.961795 44.271035 
L 386.852244 47.305275 
L 382.742693 50.339093 
L 378.633142 53.372465 
L 374.52359 56.405368 
L 370.414039 59.437776 
L 366.304488 62.469662 
L 362.194937 65.500997 
L 358.085386 68.531748 
L 353.975834 71.561883 
L 349.866283 74.591367 
L 345.756732 77.620159 
L 341.647181 80.648221 
L 337.53763 83.675508 
L 333.428078 86.701974 
L 329.318527 89.727567 
L 325.208976 92.752236 
L 321.099425 95.775922 
L 316.989874 98.798564 
L 312.880322 101.820098 
L 308.770771 104.840453 
L 304.66122 107.859555 
L 300.551669 110.877325 
L 296.442118 113.893679 
L 292.332566 116.908528 
L 288.223015 119.921777 
L 284.113464 122.933325 
L 280.003913 125.943069 
L 275.894361 128.950897 
L 271.78481 131.956694 
L 267.675259 134.96034 
L 263.565708 137.96171 
L 259.456157 140.960678 
L 255.346605 143.957113 
L 251.237054 146.950881 
L 247.127503 149.941852 
L 243.017952 152.929894 
L 238.908401 155.914877 
L 234.798849 158.896678 
L 230.689298 161.87518 
L 226.579747 164.850272 
L 222.470196 167.821857 
L 218.360645 170.789848 
L 214.251093 173.754175 
L 210.141542 176.714781 
L 206.031991 179.671628 
L 201.92244 182.624698 
L 197.812889 185.573989 
L 193.703337 188.519518 
L 189.593786 191.461323 
L 185.484235 194.399457 
L 181.374684 197.333989 
L 177.265132 200.265005 
L 173.155581 203.192601 
L 169.04603 206.116887 
L 164.936479 209.037978 
L 160.826928 211.955999 
L 156.717376 214.871078 
L 152.607825 217.783346 
L 148.498274 220.692935 
L 144.388723 223.599977 
L 140.279172 226.504604 
L 136.16962 229.406944 
L 132.060069 232.30712 
L 127.950518 235.205254 
L 123.840967 238.101461 
L 119.731416 240.995852 
L 115.621864 243.888533 
L 111.512313 246.779605 
L 107.402762 249.669162 
L 103.293211 252.557294 
L 99.18366 255.444086 
L 95.074108 258.329618 
L 90.964557 261.213964 
L 86.855006 264.097194 
L 82.745455 266.979375 
L 78.635903 269.860568 
L 74.526352 272.740829 
z
" clip-path="url(#p67db822f96)" style="fill: #ffa500; fill-opacity: 0.298039"/>
   </g>
   <g id="line2d_21">
    <path d="M 74.526352 276.4311 
L 78.635903 273.478217 
L 82.745455 270.525333 
L 86.855006 267.57245 
L 90.964557 264.619567 
L 95.074108 261.666683 
L 99.18366 258.7138 
L 103.293211 255.760916 
L 107.402762 252.808033 
L 111.512313 249.85515 
L 115.621864 246.902266 
L 119.731416 243.949383 
L 123.840967 240.996499 
L 127.950518 238.043616 
L 132.060069 235.090733 
L 136.16962 232.137849 
L 140.279172 229.184966 
L 144.388723 226.232083 
L 148.498274 223.279199 
L 152.607825 220.326316 
L 156.717376 217.373432 
L 160.826928 214.420549 
L 164.936479 211.467666 
L 169.04603 208.514782 
L 173.155581 205.561899 
L 177.265132 202.609015 
L 181.374684 199.656132 
L 185.484235 196.703249 
L 189.593786 193.750365 
L 193.703337 190.797482 
L 197.812889 187.844599 
L 201.92244 184.891715 
L 206.031991 181.938832 
L 210.141542 178.985948 
L 214.251093 176.033065 
L 218.360645 173.080182 
L 222.470196 170.127298 
L 226.579747 167.174415 
L 230.689298 164.221531 
L 234.798849 161.268648 
L 238.908401 158.315765 
L 243.017952 155.362881 
L 247.127503 152.409998 
L 251.237054 149.457115 
L 255.346605 146.504231 
L 259.456157 143.551348 
L 263.565708 140.598464 
L 267.675259 137.645581 
L 271.78481 134.692698 
L 275.894361 131.739814 
L 280.003913 128.786931 
L 284.113464 125.834047 
L 288.223015 122.881164 
L 292.332566 119.928281 
L 296.442118 116.975397 
L 300.551669 114.022514 
L 304.66122 111.069631 
L 308.770771 108.116747 
L 312.880322 105.163864 
L 316.989874 102.21098 
L 321.099425 99.258097 
L 325.208976 96.305214 
L 329.318527 93.35233 
L 333.428078 90.399447 
L 337.53763 87.446563 
L 341.647181 84.49368 
L 345.756732 81.540797 
L 349.866283 78.587913 
L 353.975834 75.63503 
L 358.085386 72.682146 
L 362.194937 69.729263 
L 366.304488 66.77638 
L 370.414039 63.823496 
L 374.52359 60.870613 
L 378.633142 57.91773 
L 382.742693 54.964846 
L 386.852244 52.011963 
L 390.961795 49.059079 
L 395.071347 46.106196 
L 399.180898 43.153313 
" clip-path="url(#p67db822f96)" style="fill: none; stroke: #ffa500; stroke-width: 1.772454; stroke-linejoin: miter"/>
   </g>
   <g id="PathCollection_1">
    <path d="M 74.526352 277.715291 
C 75.113928 277.715291 75.677516 277.481845 76.092995 277.066366 
C 76.508473 276.650888 76.74192 276.087299 76.74192 275.499723 
C 76.74192 274.912148 76.508473 274.348559 76.092995 273.933081 
C 75.677516 273.517602 75.113928 273.284156 74.526352 273.284156 
C 73.938777 273.284156 73.375188 273.517602 72.95971 273.933081 
C 72.544231 274.348559 72.310785 274.912148 72.310785 275.499723 
C 72.310785 276.087299 72.544231 276.650888 72.95971 277.066366 
C 73.375188 277.481845 73.938777 277.715291 74.526352 277.715291 
z
" clip-path="url(#p67db822f96)" style="fill: #ff8c00; stroke: #ff8c00; stroke-width: 0.886227"/>
    <path d="M 83.727088 274.06743 
C 84.314664 274.06743 84.878253 273.833984 85.293731 273.418506 
C 85.70921 273.003027 85.942656 272.439438 85.942656 271.851863 
C 85.942656 271.264288 85.70921 270.700699 85.293731 270.28522 
C 84.878253 269.869742 84.314664 269.636296 83.727088 269.636296 
C 83.139513 269.636296 82.575924 269.869742 82.160446 270.28522 
C 81.744967 270.700699 81.511521 271.264288 81.511521 271.851863 
C 81.511521 272.439438 81.744967 273.003027 82.160446 273.418506 
C 82.575924 273.833984 83.139513 274.06743 83.727088 274.06743 
z
" clip-path="url(#p67db822f96)" style="fill: #ff8c00; stroke: #ff8c00; stroke-width: 0.886227"/>
    <path d="M 93.804085 268.499433 
C 94.39166 268.499433 94.955249 268.265986 95.370728 267.850508 
C 95.786206 267.435029 96.019652 266.871441 96.019652 266.283865 
C 96.019652 265.69629 95.786206 265.132701 95.370728 264.717223 
C 94.955249 264.301744 94.39166 264.068298 93.804085 264.068298 
C 93.21651 264.068298 92.652921 264.301744 92.237442 264.717223 
C 91.821964 265.132701 91.588518 265.69629 91.588518 266.283865 
C 91.588518 266.871441 91.821964 267.435029 92.237442 267.850508 
C 92.652921 268.265986 93.21651 268.499433 93.804085 268.499433 
z
" clip-path="url(#p67db822f96)" style="fill: #ff8c00; stroke: #ff8c00; stroke-width: 0.886227"/>
    <path d="M 104.757342 260.56233 
C 105.344918 260.56233 105.908507 260.328884 106.323985 259.913405 
C 106.739464 259.497927 106.97291 258.934338 106.97291 258.346762 
C 106.97291 257.759187 106.739464 257.195598 106.323985 256.78012 
C 105.908507 256.364641 105.344918 256.131195 104.757342 256.131195 
C 104.169767 256.131195 103.606178 256.364641 103.1907 256.78012 
C 102.775221 257.195598 102.541775 257.759187 102.541775 258.346762 
C 102.541775 258.934338 102.775221 259.497927 103.1907 259.913405 
C 103.606178 260.328884 104.169767 260.56233 104.757342 260.56233 
z
" clip-path="url(#p67db822f96)" style="fill: #ff8c00; stroke: #ff8c00; stroke-width: 0.886227"/>
    <path d="M 116.58686 247.053221 
C 117.174436 247.053221 117.738024 246.819774 118.153503 246.404296 
C 118.568981 245.988817 118.802427 245.425229 118.802427 244.837653 
C 118.802427 244.250078 118.568981 243.686489 118.153503 243.271011 
C 117.738024 242.855532 117.174436 242.622086 116.58686 242.622086 
C 115.999285 242.622086 115.435696 242.855532 115.020218 243.271011 
C 114.604739 243.686489 114.371293 244.250078 114.371293 244.837653 
C 114.371293 245.425229 114.604739 245.988817 115.020218 246.404296 
C 115.435696 246.819774 115.999285 247.053221 116.58686 247.053221 
z
" clip-path="url(#p67db822f96)" style="fill: #ff8c00; stroke: #ff8c00; stroke-width: 0.886227"/>
    <path d="M 129.292639 238.033786 
C 129.880214 238.033786 130.443803 237.800339 130.859281 237.384861 
C 131.27476 236.969383 131.508206 236.405794 131.508206 235.818218 
C 131.508206 235.230643 131.27476 234.667054 130.859281 234.251576 
C 130.443803 233.836097 129.880214 233.602651 129.292639 233.602651 
C 128.705063 233.602651 128.141474 233.836097 127.725996 234.251576 
C 127.310517 234.667054 127.077071 235.230643 127.077071 235.818218 
C 127.077071 236.405794 127.310517 236.969383 127.725996 237.384861 
C 128.141474 237.800339 128.705063 238.033786 129.292639 238.033786 
z
" clip-path="url(#p67db822f96)" style="fill: #ff8c00; stroke: #ff8c00; stroke-width: 0.886227"/>
    <path d="M 142.874678 224.685022 
C 143.462253 224.685022 144.025842 224.451576 144.44132 224.036097 
C 144.856799 223.620619 145.090245 223.05703 145.090245 222.469455 
C 145.090245 221.881879 144.856799 221.31829 144.44132 220.902812 
C 144.025842 220.487333 143.462253 220.253887 142.874678 220.253887 
C 142.287102 220.253887 141.723513 220.487333 141.308035 220.902812 
C 140.892556 221.31829 140.65911 221.881879 140.65911 222.469455 
C 140.65911 223.05703 140.892556 223.620619 141.308035 224.036097 
C 141.723513 224.451576 142.287102 224.685022 142.874678 224.685022 
z
" clip-path="url(#p67db822f96)" style="fill: #ff8c00; stroke: #ff8c00; stroke-width: 0.886227"/>
    <path d="M 157.332977 212.137986 
C 157.920553 212.137986 158.484141 211.90454 158.89962 211.489061 
C 159.315098 211.073583 159.548545 210.509994 159.548545 209.922418 
C 159.548545 209.334843 159.315098 208.771254 158.89962 208.355776 
C 158.484141 207.940297 157.920553 207.706851 157.332977 207.706851 
C 156.745402 207.706851 156.181813 207.940297 155.766335 208.355776 
C 155.350856 208.771254 155.11741 209.334843 155.11741 209.922418 
C 155.11741 210.509994 155.350856 211.073583 155.766335 211.489061 
C 156.181813 211.90454 156.745402 212.137986 157.332977 212.137986 
z
" clip-path="url(#p67db822f96)" style="fill: #ff8c00; stroke: #ff8c00; stroke-width: 0.886227"/>
    <path d="M 172.667537 210.21384 
C 173.255113 210.21384 173.818702 209.980394 174.23418 209.564915 
C 174.649659 209.149437 174.883105 208.585848 174.883105 207.998272 
C 174.883105 207.410697 174.649659 206.847108 174.23418 206.43163 
C 173.818702 206.016151 173.255113 205.782705 172.667537 205.782705 
C 172.079962 205.782705 171.516373 206.016151 171.100895 206.43163 
C 170.685416 206.847108 170.45197 207.410697 170.45197 207.998272 
C 170.45197 208.585848 170.685416 209.149437 171.100895 209.564915 
C 171.516373 209.980394 172.079962 210.21384 172.667537 210.21384 
z
" clip-path="url(#p67db822f96)" style="fill: #ff8c00; stroke: #ff8c00; stroke-width: 0.886227"/>
    <path d="M 188.878358 196.544385 
C 189.465933 196.544385 190.029522 196.310939 190.445001 195.89546 
C 190.860479 195.479982 191.093925 194.916393 191.093925 194.328818 
C 191.093925 193.741242 190.860479 193.177653 190.445001 192.762175 
C 190.029522 192.346696 189.465933 192.11325 188.878358 192.11325 
C 188.290783 192.11325 187.727194 192.346696 187.311715 192.762175 
C 186.896237 193.177653 186.662791 193.741242 186.662791 194.328818 
C 186.662791 194.916393 186.896237 195.479982 187.311715 195.89546 
C 187.727194 196.310939 188.290783 196.544385 188.878358 196.544385 
z
" clip-path="url(#p67db822f96)" style="fill: #ff8c00; stroke: #ff8c00; stroke-width: 0.886227"/>
    <path d="M 205.96544 190.651687 
C 206.553015 190.651687 207.116604 190.418241 207.532082 190.002763 
C 207.947561 189.587284 208.181007 189.023695 208.181007 188.43612 
C 208.181007 187.848545 207.947561 187.284956 207.532082 186.869478 
C 207.116604 186.453999 206.553015 186.220553 205.96544 186.220553 
C 205.377864 186.220553 204.814275 186.453999 204.398797 186.869478 
C 203.983318 187.284956 203.749872 187.848545 203.749872 188.43612 
C 203.749872 189.023695 203.983318 189.587284 204.398797 190.002763 
C 204.814275 190.418241 205.377864 190.651687 205.96544 190.651687 
z
" clip-path="url(#p67db822f96)" style="fill: #ff8c00; stroke: #ff8c00; stroke-width: 0.886227"/>
    <path d="M 223.928781 166.479602 
C 224.516357 166.479602 225.079946 166.246156 225.495424 165.830677 
C 225.910903 165.415199 226.144349 164.85161 226.144349 164.264035 
C 226.144349 163.676459 225.910903 163.11287 225.495424 162.697392 
C 225.079946 162.281913 224.516357 162.048467 223.928781 162.048467 
C 223.341206 162.048467 222.777617 162.281913 222.362139 162.697392 
C 221.94666 163.11287 221.713214 163.676459 221.713214 164.264035 
C 221.713214 164.85161 221.94666 165.415199 222.362139 165.830677 
C 222.777617 166.246156 223.341206 166.479602 223.928781 166.479602 
z
" clip-path="url(#p67db822f96)" style="fill: #ff8c00; stroke: #ff8c00; stroke-width: 0.886227"/>
    <path d="M 262.484247 149.042028 
C 263.071822 149.042028 263.635411 148.808582 264.05089 148.393103 
C 264.466368 147.977625 264.699814 147.414036 264.699814 146.82646 
C 264.699814 146.238885 264.466368 145.675296 264.05089 145.259818 
C 263.635411 144.844339 263.071822 144.610893 262.484247 144.610893 
C 261.896672 144.610893 261.333083 144.844339 260.917604 145.259818 
C 260.502126 145.675296 260.26868 146.238885 260.26868 146.82646 
C 260.26868 147.414036 260.502126 147.977625 260.917604 148.393103 
C 261.333083 148.808582 261.896672 149.042028 262.484247 149.042028 
z
" clip-path="url(#p67db822f96)" style="fill: #ff8c00; stroke: #ff8c00; stroke-width: 0.886227"/>
    <path d="M 283.076371 127.194952 
C 283.663946 127.194952 284.227535 126.961506 284.643013 126.546027 
C 285.058492 126.130549 285.291938 125.56696 285.291938 124.979385 
C 285.291938 124.391809 285.058492 123.82822 284.643013 123.412742 
C 284.227535 122.997264 283.663946 122.763817 283.076371 122.763817 
C 282.488795 122.763817 281.925206 122.997264 281.509728 123.412742 
C 281.09425 123.82822 280.860803 124.391809 280.860803 124.979385 
C 280.860803 125.56696 281.09425 126.130549 281.509728 126.546027 
C 281.925206 126.961506 282.488795 127.194952 283.076371 127.194952 
z
" clip-path="url(#p67db822f96)" style="fill: #ff8c00; stroke: #ff8c00; stroke-width: 0.886227"/>
    <path d="M 304.544755 114.527657 
C 305.13233 114.527657 305.695919 114.294211 306.111398 113.878732 
C 306.526876 113.463254 306.760322 112.899665 306.760322 112.312089 
C 306.760322 111.724514 306.526876 111.160925 306.111398 110.745447 
C 305.695919 110.329968 305.13233 110.096522 304.544755 110.096522 
C 303.95718 110.096522 303.393591 110.329968 302.978112 110.745447 
C 302.562634 111.160925 302.329188 111.724514 302.329188 112.312089 
C 302.329188 112.899665 302.562634 113.463254 302.978112 113.878732 
C 303.393591 114.294211 303.95718 114.527657 304.544755 114.527657 
z
" clip-path="url(#p67db822f96)" style="fill: #ff8c00; stroke: #ff8c00; stroke-width: 0.886227"/>
    <path d="M 350.110305 73.318861 
C 350.69788 73.318861 351.261469 73.085415 351.676948 72.669936 
C 352.092426 72.254458 352.325872 71.690869 352.325872 71.103293 
C 352.325872 70.515718 352.092426 69.952129 351.676948 69.536651 
C 351.261469 69.121172 350.69788 68.887726 350.110305 68.887726 
C 349.52273 68.887726 348.959141 69.121172 348.543662 69.536651 
C 348.128184 69.952129 347.894738 70.515718 347.894738 71.103293 
C 347.894738 71.690869 348.128184 72.254458 348.543662 72.669936 
C 348.959141 73.085415 349.52273 73.318861 350.110305 73.318861 
z
" clip-path="url(#p67db822f96)" style="fill: #ff8c00; stroke: #ff8c00; stroke-width: 0.886227"/>
    <path d="M 374.207471 60.370961 
C 374.795046 60.370961 375.358635 60.137515 375.774114 59.722036 
C 376.189592 59.306558 376.423038 58.742969 376.423038 58.155393 
C 376.423038 57.567818 376.189592 57.004229 375.774114 56.588751 
C 375.358635 56.173272 374.795046 55.939826 374.207471 55.939826 
C 373.619896 55.939826 373.056307 56.173272 372.640828 56.588751 
C 372.22535 57.004229 371.991904 57.567818 371.991904 58.155393 
C 371.991904 58.742969 372.22535 59.306558 372.640828 59.722036 
C 373.056307 60.137515 373.619896 60.370961 374.207471 60.370961 
z
" clip-path="url(#p67db822f96)" style="fill: #ff8c00; stroke: #ff8c00; stroke-width: 0.886227"/>
    <path d="M 399.180898 52.874808 
C 399.768473 52.874808 400.332062 52.641362 400.74754 52.225884 
C 401.163019 51.810405 401.396465 51.246816 401.396465 50.659241 
C 401.396465 50.071666 401.163019 49.508077 400.74754 49.092598 
C 400.332062 48.67712 399.768473 48.443674 399.180898 48.443674 
C 398.593322 48.443674 398.029734 48.67712 397.614255 49.092598 
C 397.198777 49.508077 396.96533 50.071666 396.96533 50.659241 
C 396.96533 51.246816 397.198777 51.810405 397.614255 52.225884 
C 398.029734 52.641362 398.593322 52.874808 399.180898 52.874808 
z
" clip-path="url(#p67db822f96)" style="fill: #ff8c00; stroke: #ff8c00; stroke-width: 0.886227"/>
   </g>
  </g>
  <g id="text_9">
   <!-- 85/15 bronze -->
   <g transform="translate(187.474844 17.229938)scale(0.132 -0.132)">
    <defs>
     <path id="DejaVuSans-38" d="M 2034 2216 
Q 1584 2216 1326 1975 
Q 1069 1734 1069 1313 
Q 1069 891 1326 650 
Q 1584 409 2034 409 
Q 2484 409 2743 651 
Q 3003 894 3003 1313 
Q 3003 1734 2745 1975 
Q 2488 2216 2034 2216 
z
M 1403 2484 
Q 997 2584 770 2862 
Q 544 3141 544 3541 
Q 544 4100 942 4425 
Q 1341 4750 2034 4750 
Q 2731 4750 3128 4425 
Q 3525 4100 3525 3541 
Q 3525 3141 3298 2862 
Q 3072 2584 2669 2484 
Q 3125 2378 3379 2068 
Q 3634 1759 3634 1313 
Q 3634 634 3220 271 
Q 2806 -91 2034 -91 
Q 1263 -91 848 271 
Q 434 634 434 1313 
Q 434 1759 690 2068 
Q 947 2378 1403 2484 
z
M 1172 3481 
Q 1172 3119 1398 2916 
Q 1625 2713 2034 2713 
Q 2441 2713 2670 2916 
Q 2900 3119 2900 3481 
Q 2900 3844 2670 4047 
Q 2441 4250 2034 4250 
Q 1625 4250 1398 4047 
Q 1172 3844 1172 3481 
z
" transform="scale(0.015625)"/>
     <path id="DejaVuSans-35" d="M 691 4666 
L 3169 4666 
L 3169 4134 
L 1269 4134 
L 1269 2991 
Q 1406 3038 1543 3061 
Q 1681 3084 1819 3084 
Q 2600 3084 3056 2656 
Q 3513 2228 3513 1497 
Q 3513 744 3044 326 
Q 2575 -91 1722 -91 
Q 1428 -91 1123 -41 
Q 819 9 494 109 
L 494 744 
Q 775 591 1075 516 
Q 1375 441 1709 441 
Q 2250 441 2565 725 
Q 2881 1009 2881 1497 
Q 2881 1984 2565 2268 
Q 2250 2553 1709 2553 
Q 1456 2553 1204 2497 
Q 953 2441 691 2322 
L 691 4666 
z
" transform="scale(0.015625)"/>
     <path id="DejaVuSans-2f" d="M 1625 4666 
L 2156 4666 
L 531 -594 
L 0 -594 
L 1625 4666 
z
" transform="scale(0.015625)"/>
     <path id="DejaVuSans-20" transform="scale(0.015625)"/>
     <path id="DejaVuSans-62" d="M 3116 1747 
Q 3116 2381 2855 2742 
Q 2594 3103 2138 3103 
Q 1681 3103 1420 2742 
Q 1159 2381 1159 1747 
Q 1159 1113 1420 752 
Q 1681 391 2138 391 
Q 2594 391 2855 752 
Q 3116 1113 3116 1747 
z
M 1159 2969 
Q 1341 3281 1617 3432 
Q 1894 3584 2278 3584 
Q 2916 3584 3314 3078 
Q 3713 2572 3713 1747 
Q 3713 922 3314 415 
Q 2916 -91 2278 -91 
Q 1894 -91 1617 61 
Q 1341 213 1159 525 
L 1159 0 
L 581 0 
L 581 4863 
L 1159 4863 
L 1159 2969 
z
" transform="scale(0.015625)"/>
     <path id="DejaVuSans-72" d="M 2631 2963 
Q 2534 3019 2420 3045 
Q 2306 3072 2169 3072 
Q 1681 3072 1420 2755 
Q 1159 2438 1159 1844 
L 1159 0 
L 581 0 
L 581 3500 
L 1159 3500 
L 1159 2956 
Q 1341 3275 1631 3429 
Q 1922 3584 2338 3584 
Q 2397 3584 2469 3576 
Q 2541 3569 2628 3553 
L 2631 2963 
z
" transform="scale(0.015625)"/>
     <path id="DejaVuSans-6f" d="M 1959 3097 
Q 1497 3097 1228 2736 
Q 959 2375 959 1747 
Q 959 1119 1226 758 
Q 1494 397 1959 397 
Q 2419 397 2687 759 
Q 2956 1122 2956 1747 
Q 2956 2369 2687 2733 
Q 2419 3097 1959 3097 
z
M 1959 3584 
Q 2709 3584 3137 3096 
Q 3566 2609 3566 1747 
Q 3566 888 3137 398 
Q 2709 -91 1959 -91 
Q 1206 -91 779 398 
Q 353 888 353 1747 
Q 353 2609 779 3096 
Q 1206 3584 1959 3584 
z
" transform="scale(0.015625)"/>
     <path id="DejaVuSans-7a" d="M 353 3500 
L 3084 3500 
L 3084 2975 
L 922 459 
L 3084 459 
L 3084 0 
L 275 0 
L 275 525 
L 2438 3041 
L 353 3041 
L 353 3500 
z
" transform="scale(0.015625)"/>
    </defs>
    <use xlink:href="#DejaVuSans-38"/>
    <use xlink:href="#DejaVuSans-35" x="63.623047"/>
    <use xlink:href="#DejaVuSans-2f" x="127.246094"/>
    <use xlink:href="#DejaVuSans-31" x="160.9375"/>
    <use xlink:href="#DejaVuSans-35" x="224.560547"/>
    <use xlink:href="#DejaVuSans-20" x="288.183594"/>
    <use xlink:href="#DejaVuSans-62" x="319.970703"/>
    <use xlink:href="#DejaVuSans-72" x="383.447266"/>
    <use xlink:href="#DejaVuSans-6f" x="422.310547"/>
    <use xlink:href="#DejaVuSans-6e" x="483.492188"/>
    <use xlink:href="#DejaVuSans-7a" x="546.871094"/>
    <use xlink:href="#DejaVuSans-65" x="599.361328"/>
   </g>
  </g>
 </g>
 <defs>
  <clipPath id="p67db822f96">
   <rect x="58.293625" y="26.105371" width="357.12" height="266.112"/>
  </clipPath>
 </defs>
</svg>
