<?xml version="1.0" encoding="utf-8" standalone="no"?>
<!DOCTYPE svg PUBLIC "-//W3C//DTD SVG 1.1//EN"
  "http://www.w3.org/Graphics/SVG/1.1/DTD/svg11.dtd">
<svg xmlns:xlink="http://www.w3.org/1999/xlink" width="430.19067pt" height="327.930058pt" viewBox="0 0 430.19067 327.930058" xmlns="http://www.w3.org/2000/svg" version="1.1">
 <metadata>
  <rdf:RDF xmlns:dc="http://purl.org/dc/elements/1.1/" xmlns:cc="http://creativecommons.org/ns#" xmlns:rdf="http://www.w3.org/1999/02/22-rdf-syntax-ns#">
   <cc:Work>
    <dc:type rdf:resource="http://purl.org/dc/dcmitype/StillImage"/>
    <dc:date>2022-02-09T21:10:44.070822</dc:date>
    <dc:format>image/svg+xml</dc:format>
    <dc:creator>
     <cc:Agent>
      <dc:title>Matplotlib v3.5.1, https://matplotlib.org/</dc:title>
     </cc:Agent>
    </dc:creator>
   </cc:Work>
  </rdf:RDF>
 </metadata>
 <defs>
  <style type="text/css">*{stroke-linejoin: round; stroke-linecap: butt}</style>
 </defs>
 <g id="figure_1">
  <g id="patch_1">
   <path d="M 0 327.930058 
L 430.19067 327.930058 
L 430.19067 0 
L 0 0 
z
" style="fill: #ffffff; stroke: #ffffff; stroke-linejoin: miter"/>
  </g>
  <g id="axes_1">
   <g id="patch_2">
    <path d="M 58.293625 292.217371 
L 415.413625 292.217371 
L 415.413625 26.105371 
L 58.293625 26.105371 
z
" style="fill: #ebebeb"/>
   </g>
   <g id="matplotlib.axis_1">
    <g id="xtick_1">
     <g id="line2d_1">
      <path d="M 143.408649 292.217371 
L 143.408649 26.105371 
" clip-path="url(#pc7f1565616)" style="fill: none; stroke: #ffffff"/>
     </g>
     <g id="line2d_2">
      <path d="M 143.408649 292.217371 
" style="fill: none; stroke: #333333; stroke-width: 1.5"/>
      <defs>
       <path id="mf8daf83987" d="M 0 0 
L 0 2.75 
" style="stroke: #000000"/>
      </defs>
      <g>
       <use xlink:href="#mf8daf83987" x="143.408649" y="292.217371" style="fill: #333333; stroke: #000000"/>
      </g>
     </g>
     <g id="text_1">
      <!-- 0.001 -->
      <g style="fill: #4d4d4d" transform="translate(130.812274 303.853996)scale(0.088 -0.088)">
       <defs>
        <path id="DejaVuSans-30" d="M 2034 4250 
Q 1547 4250 1301 3770 
Q 1056 3291 1056 2328 
Q 1056 1369 1301 889 
Q 1547 409 2034 409 
Q 2525 409 2770 889 
Q 3016 1369 3016 2328 
Q 3016 3291 2770 3770 
Q 2525 4250 2034 4250 
z
M 2034 4750 
Q 2819 4750 3233 4129 
Q 3647 3509 3647 2328 
Q 3647 1150 3233 529 
Q 2819 -91 2034 -91 
Q 1250 -91 836 529 
Q 422 1150 422 2328 
Q 422 3509 836 4129 
Q 1250 4750 2034 4750 
z
" transform="scale(0.015625)"/>
        <path id="DejaVuSans-2e" d="M 684 794 
L 1344 794 
L 1344 0 
L 684 0 
L 684 794 
z
" transform="scale(0.015625)"/>
        <path id="DejaVuSans-31" d="M 794 531 
L 1825 531 
L 1825 4091 
L 703 3866 
L 703 4441 
L 1819 4666 
L 2450 4666 
L 2450 531 
L 3481 531 
L 3481 0 
L 794 0 
L 794 531 
z
" transform="scale(0.015625)"/>
       </defs>
       <use xlink:href="#DejaVuSans-30"/>
       <use xlink:href="#DejaVuSans-2e" x="63.623047"/>
       <use xlink:href="#DejaVuSans-30" x="95.410156"/>
       <use xlink:href="#DejaVuSans-30" x="159.033203"/>
       <use xlink:href="#DejaVuSans-31" x="222.65625"/>
      </g>
     </g>
    </g>
    <g id="xtick_2">
     <g id="line2d_3">
      <path d="M 276.901472 292.217371 
L 276.901472 26.105371 
" clip-path="url(#pc7f1565616)" style="fill: none; stroke: #ffffff"/>
     </g>
     <g id="line2d_4">
      <path d="M 276.901472 292.217371 
" style="fill: none; stroke: #333333; stroke-width: 1.5"/>
      <g>
       <use xlink:href="#mf8daf83987" x="276.901472" y="292.217371" style="fill: #333333; stroke: #000000"/>
      </g>
     </g>
     <g id="text_2">
      <!-- 0.002 -->
      <g style="fill: #4d4d4d" transform="translate(264.305097 303.853996)scale(0.088 -0.088)">
       <defs>
        <path id="DejaVuSans-32" d="M 1228 531 
L 3431 531 
L 3431 0 
L 469 0 
L 469 531 
Q 828 903 1448 1529 
Q 2069 2156 2228 2338 
Q 2531 2678 2651 2914 
Q 2772 3150 2772 3378 
Q 2772 3750 2511 3984 
Q 2250 4219 1831 4219 
Q 1534 4219 1204 4116 
Q 875 4013 500 3803 
L 500 4441 
Q 881 4594 1212 4672 
Q 1544 4750 1819 4750 
Q 2544 4750 2975 4387 
Q 3406 4025 3406 3419 
Q 3406 3131 3298 2873 
Q 3191 2616 2906 2266 
Q 2828 2175 2409 1742 
Q 1991 1309 1228 531 
z
" transform="scale(0.015625)"/>
       </defs>
       <use xlink:href="#DejaVuSans-30"/>
       <use xlink:href="#DejaVuSans-2e" x="63.623047"/>
       <use xlink:href="#DejaVuSans-30" x="95.410156"/>
       <use xlink:href="#DejaVuSans-30" x="159.033203"/>
       <use xlink:href="#DejaVuSans-32" x="222.65625"/>
      </g>
     </g>
    </g>
    <g id="xtick_3">
     <g id="line2d_5">
      <path d="M 410.394295 292.217371 
L 410.394295 26.105371 
" clip-path="url(#pc7f1565616)" style="fill: none; stroke: #ffffff"/>
     </g>
     <g id="line2d_6">
      <path d="M 410.394295 292.217371 
" style="fill: none; stroke: #333333; stroke-width: 1.5"/>
      <g>
       <use xlink:href="#mf8daf83987" x="410.394295" y="292.217371" style="fill: #333333; stroke: #000000"/>
      </g>
     </g>
     <g id="text_3">
      <!-- 0.003 -->
      <g style="fill: #4d4d4d" transform="translate(397.79792 303.853996)scale(0.088 -0.088)">
       <defs>
        <path id="DejaVuSans-33" d="M 2597 2516 
Q 3050 2419 3304 2112 
Q 3559 1806 3559 1356 
Q 3559 666 3084 287 
Q 2609 -91 1734 -91 
Q 1441 -91 1130 -33 
Q 819 25 488 141 
L 488 750 
Q 750 597 1062 519 
Q 1375 441 1716 441 
Q 2309 441 2620 675 
Q 2931 909 2931 1356 
Q 2931 1769 2642 2001 
Q 2353 2234 1838 2234 
L 1294 2234 
L 1294 2753 
L 1863 2753 
Q 2328 2753 2575 2939 
Q 2822 3125 2822 3475 
Q 2822 3834 2567 4026 
Q 2313 4219 1838 4219 
Q 1578 4219 1281 4162 
Q 984 4106 628 3988 
L 628 4550 
Q 988 4650 1302 4700 
Q 1616 4750 1894 4750 
Q 2613 4750 3031 4423 
Q 3450 4097 3450 3541 
Q 3450 3153 3228 2886 
Q 3006 2619 2597 2516 
z
" transform="scale(0.015625)"/>
       </defs>
       <use xlink:href="#DejaVuSans-30"/>
       <use xlink:href="#DejaVuSans-2e" x="63.623047"/>
       <use xlink:href="#DejaVuSans-30" x="95.410156"/>
       <use xlink:href="#DejaVuSans-30" x="159.033203"/>
       <use xlink:href="#DejaVuSans-33" x="222.65625"/>
      </g>
     </g>
    </g>
    <g id="xtick_4">
     <g id="line2d_7">
      <path d="M 76.662237 292.217371 
L 76.662237 26.105371 
" clip-path="url(#pc7f1565616)" style="fill: none; stroke: #ffffff; stroke-width: 0.5"/>
     </g>
    </g>
    <g id="xtick_5">
     <g id="line2d_8">
      <path d="M 210.15506 292.217371 
L 210.15506 26.105371 
" clip-path="url(#pc7f1565616)" style="fill: none; stroke: #ffffff; stroke-width: 0.5"/>
     </g>
    </g>
    <g id="xtick_6">
     <g id="line2d_9">
      <path d="M 343.647883 292.217371 
L 343.647883 26.105371 
" clip-path="url(#pc7f1565616)" style="fill: none; stroke: #ffffff; stroke-width: 0.5"/>
     </g>
    </g>
    <g id="text_4">
     <!-- gauge_sq -->
     <g transform="translate(204.763234 318.136464)scale(0.11 -0.11)">
      <defs>
       <path id="DejaVuSans-67" d="M 2906 1791 
Q 2906 2416 2648 2759 
Q 2391 3103 1925 3103 
Q 1463 3103 1205 2759 
Q 947 2416 947 1791 
Q 947 1169 1205 825 
Q 1463 481 1925 481 
Q 2391 481 2648 825 
Q 2906 1169 2906 1791 
z
M 3481 434 
Q 3481 -459 3084 -895 
Q 2688 -1331 1869 -1331 
Q 1566 -1331 1297 -1286 
Q 1028 -1241 775 -1147 
L 775 -588 
Q 1028 -725 1275 -790 
Q 1522 -856 1778 -856 
Q 2344 -856 2625 -561 
Q 2906 -266 2906 331 
L 2906 616 
Q 2728 306 2450 153 
Q 2172 0 1784 0 
Q 1141 0 747 490 
Q 353 981 353 1791 
Q 353 2603 747 3093 
Q 1141 3584 1784 3584 
Q 2172 3584 2450 3431 
Q 2728 3278 2906 2969 
L 2906 3500 
L 3481 3500 
L 3481 434 
z
" transform="scale(0.015625)"/>
       <path id="DejaVuSans-61" d="M 2194 1759 
Q 1497 1759 1228 1600 
Q 959 1441 959 1056 
Q 959 750 1161 570 
Q 1363 391 1709 391 
Q 2188 391 2477 730 
Q 2766 1069 2766 1631 
L 2766 1759 
L 2194 1759 
z
M 3341 1997 
L 3341 0 
L 2766 0 
L 2766 531 
Q 2569 213 2275 61 
Q 1981 -91 1556 -91 
Q 1019 -91 701 211 
Q 384 513 384 1019 
Q 384 1609 779 1909 
Q 1175 2209 1959 2209 
L 2766 2209 
L 2766 2266 
Q 2766 2663 2505 2880 
Q 2244 3097 1772 3097 
Q 1472 3097 1187 3025 
Q 903 2953 641 2809 
L 641 3341 
Q 956 3463 1253 3523 
Q 1550 3584 1831 3584 
Q 2591 3584 2966 3190 
Q 3341 2797 3341 1997 
z
" transform="scale(0.015625)"/>
       <path id="DejaVuSans-75" d="M 544 1381 
L 544 3500 
L 1119 3500 
L 1119 1403 
Q 1119 906 1312 657 
Q 1506 409 1894 409 
Q 2359 409 2629 706 
Q 2900 1003 2900 1516 
L 2900 3500 
L 3475 3500 
L 3475 0 
L 2900 0 
L 2900 538 
Q 2691 219 2414 64 
Q 2138 -91 1772 -91 
Q 1169 -91 856 284 
Q 544 659 544 1381 
z
M 1991 3584 
L 1991 3584 
z
" transform="scale(0.015625)"/>
       <path id="DejaVuSans-65" d="M 3597 1894 
L 3597 1613 
L 953 1613 
Q 991 1019 1311 708 
Q 1631 397 2203 397 
Q 2534 397 2845 478 
Q 3156 559 3463 722 
L 3463 178 
Q 3153 47 2828 -22 
Q 2503 -91 2169 -91 
Q 1331 -91 842 396 
Q 353 884 353 1716 
Q 353 2575 817 3079 
Q 1281 3584 2069 3584 
Q 2775 3584 3186 3129 
Q 3597 2675 3597 1894 
z
M 3022 2063 
Q 3016 2534 2758 2815 
Q 2500 3097 2075 3097 
Q 1594 3097 1305 2825 
Q 1016 2553 972 2059 
L 3022 2063 
z
" transform="scale(0.015625)"/>
       <path id="DejaVuSans-5f" d="M 3263 -1063 
L 3263 -1509 
L -63 -1509 
L -63 -1063 
L 3263 -1063 
z
" transform="scale(0.015625)"/>
       <path id="DejaVuSans-73" d="M 2834 3397 
L 2834 2853 
Q 2591 2978 2328 3040 
Q 2066 3103 1784 3103 
Q 1356 3103 1142 2972 
Q 928 2841 928 2578 
Q 928 2378 1081 2264 
Q 1234 2150 1697 2047 
L 1894 2003 
Q 2506 1872 2764 1633 
Q 3022 1394 3022 966 
Q 3022 478 2636 193 
Q 2250 -91 1575 -91 
Q 1294 -91 989 -36 
Q 684 19 347 128 
L 347 722 
Q 666 556 975 473 
Q 1284 391 1588 391 
Q 1994 391 2212 530 
Q 2431 669 2431 922 
Q 2431 1156 2273 1281 
Q 2116 1406 1581 1522 
L 1381 1569 
Q 847 1681 609 1914 
Q 372 2147 372 2553 
Q 372 3047 722 3315 
Q 1072 3584 1716 3584 
Q 2034 3584 2315 3537 
Q 2597 3491 2834 3397 
z
" transform="scale(0.015625)"/>
       <path id="DejaVuSans-71" d="M 947 1747 
Q 947 1113 1208 752 
Q 1469 391 1925 391 
Q 2381 391 2643 752 
Q 2906 1113 2906 1747 
Q 2906 2381 2643 2742 
Q 2381 3103 1925 3103 
Q 1469 3103 1208 2742 
Q 947 2381 947 1747 
z
M 2906 525 
Q 2725 213 2448 61 
Q 2172 -91 1784 -91 
Q 1150 -91 751 415 
Q 353 922 353 1747 
Q 353 2572 751 3078 
Q 1150 3584 1784 3584 
Q 2172 3584 2448 3432 
Q 2725 3281 2906 2969 
L 2906 3500 
L 3481 3500 
L 3481 -1331 
L 2906 -1331 
L 2906 525 
z
" transform="scale(0.015625)"/>
      </defs>
      <use xlink:href="#DejaVuSans-67"/>
      <use xlink:href="#DejaVuSans-61" x="63.476562"/>
      <use xlink:href="#DejaVuSans-75" x="124.755859"/>
      <use xlink:href="#DejaVuSans-67" x="188.134766"/>
      <use xlink:href="#DejaVuSans-65" x="251.611328"/>
      <use xlink:href="#DejaVuSans-5f" x="313.134766"/>
      <use xlink:href="#DejaVuSans-73" x="363.134766"/>
      <use xlink:href="#DejaVuSans-71" x="415.234375"/>
     </g>
    </g>
   </g>
   <g id="matplotlib.axis_2">
    <g id="ytick_1">
     <g id="line2d_10">
      <path d="M 58.293625 274.970985 
L 415.413625 274.970985 
" clip-path="url(#pc7f1565616)" style="fill: none; stroke: #ffffff"/>
     </g>
     <g id="line2d_11">
      <path d="M 58.293625 274.970985 
" style="fill: none; stroke: #333333; stroke-width: 1.5"/>
      <defs>
       <path id="mdcecc68d1a" d="M 0 0 
L -2.75 0 
" style="stroke: #000000"/>
      </defs>
      <g>
       <use xlink:href="#mdcecc68d1a" x="58.293625" y="274.970985" style="fill: #333333; stroke: #000000"/>
      </g>
     </g>
     <g id="text_5">
      <!-- 0.0001 -->
      <g style="fill: #4d4d4d" transform="translate(22.551875 277.399235)scale(0.088 -0.088)">
       <use xlink:href="#DejaVuSans-30"/>
       <use xlink:href="#DejaVuSans-2e" x="63.623047"/>
       <use xlink:href="#DejaVuSans-30" x="95.410156"/>
       <use xlink:href="#DejaVuSans-30" x="159.033203"/>
       <use xlink:href="#DejaVuSans-30" x="222.65625"/>
       <use xlink:href="#DejaVuSans-31" x="286.279297"/>
      </g>
     </g>
    </g>
    <g id="ytick_2">
     <g id="line2d_12">
      <path d="M 58.293625 224.690752 
L 415.413625 224.690752 
" clip-path="url(#pc7f1565616)" style="fill: none; stroke: #ffffff"/>
     </g>
     <g id="line2d_13">
      <path d="M 58.293625 224.690752 
" style="fill: none; stroke: #333333; stroke-width: 1.5"/>
      <g>
       <use xlink:href="#mdcecc68d1a" x="58.293625" y="224.690752" style="fill: #333333; stroke: #000000"/>
      </g>
     </g>
     <g id="text_6">
      <!-- 0.0002 -->
      <g style="fill: #4d4d4d" transform="translate(22.551875 227.119002)scale(0.088 -0.088)">
       <use xlink:href="#DejaVuSans-30"/>
       <use xlink:href="#DejaVuSans-2e" x="63.623047"/>
       <use xlink:href="#DejaVuSans-30" x="95.410156"/>
       <use xlink:href="#DejaVuSans-30" x="159.033203"/>
       <use xlink:href="#DejaVuSans-30" x="222.65625"/>
       <use xlink:href="#DejaVuSans-32" x="286.279297"/>
      </g>
     </g>
    </g>
    <g id="ytick_3">
     <g id="line2d_14">
      <path d="M 58.293625 174.41052 
L 415.413625 174.41052 
" clip-path="url(#pc7f1565616)" style="fill: none; stroke: #ffffff"/>
     </g>
     <g id="line2d_15">
      <path d="M 58.293625 174.41052 
" style="fill: none; stroke: #333333; stroke-width: 1.5"/>
      <g>
       <use xlink:href="#mdcecc68d1a" x="58.293625" y="174.41052" style="fill: #333333; stroke: #000000"/>
      </g>
     </g>
     <g id="text_7">
      <!-- 0.0003 -->
      <g style="fill: #4d4d4d" transform="translate(22.551875 176.83877)scale(0.088 -0.088)">
       <use xlink:href="#DejaVuSans-30"/>
       <use xlink:href="#DejaVuSans-2e" x="63.623047"/>
       <use xlink:href="#DejaVuSans-30" x="95.410156"/>
       <use xlink:href="#DejaVuSans-30" x="159.033203"/>
       <use xlink:href="#DejaVuSans-30" x="222.65625"/>
       <use xlink:href="#DejaVuSans-33" x="286.279297"/>
      </g>
     </g>
    </g>
    <g id="ytick_4">
     <g id="line2d_16">
      <path d="M 58.293625 124.130288 
L 415.413625 124.130288 
" clip-path="url(#pc7f1565616)" style="fill: none; stroke: #ffffff"/>
     </g>
     <g id="line2d_17">
      <path d="M 58.293625 124.130288 
" style="fill: none; stroke: #333333; stroke-width: 1.5"/>
      <g>
       <use xlink:href="#mdcecc68d1a" x="58.293625" y="124.130288" style="fill: #333333; stroke: #000000"/>
      </g>
     </g>
     <g id="text_8">
      <!-- 0.0004 -->
      <g style="fill: #4d4d4d" transform="translate(22.551875 126.558538)scale(0.088 -0.088)">
       <defs>
        <path id="DejaVuSans-34" d="M 2419 4116 
L 825 1625 
L 2419 1625 
L 2419 4116 
z
M 2253 4666 
L 3047 4666 
L 3047 1625 
L 3713 1625 
L 3713 1100 
L 3047 1100 
L 3047 0 
L 2419 0 
L 2419 1100 
L 313 1100 
L 313 1709 
L 2253 4666 
z
" transform="scale(0.015625)"/>
       </defs>
       <use xlink:href="#DejaVuSans-30"/>
       <use xlink:href="#DejaVuSans-2e" x="63.623047"/>
       <use xlink:href="#DejaVuSans-30" x="95.410156"/>
       <use xlink:href="#DejaVuSans-30" x="159.033203"/>
       <use xlink:href="#DejaVuSans-30" x="222.65625"/>
       <use xlink:href="#DejaVuSans-34" x="286.279297"/>
      </g>
     </g>
    </g>
    <g id="ytick_5">
     <g id="line2d_18">
      <path d="M 58.293625 73.850055 
L 415.413625 73.850055 
" clip-path="url(#pc7f1565616)" style="fill: none; stroke: #ffffff"/>
     </g>
     <g id="line2d_19">
      <path d="M 58.293625 73.850055 
" style="fill: none; stroke: #333333; stroke-width: 1.5"/>
      <g>
       <use xlink:href="#mdcecc68d1a" x="58.293625" y="73.850055" style="fill: #333333; stroke: #000000"/>
      </g>
     </g>
     <g id="text_9">
      <!-- 0.0005 -->
      <g style="fill: #4d4d4d" transform="translate(22.551875 76.278305)scale(0.088 -0.088)">
       <defs>
        <path id="DejaVuSans-35" d="M 691 4666 
L 3169 4666 
L 3169 4134 
L 1269 4134 
L 1269 2991 
Q 1406 3038 1543 3061 
Q 1681 3084 1819 3084 
Q 2600 3084 3056 2656 
Q 3513 2228 3513 1497 
Q 3513 744 3044 326 
Q 2575 -91 1722 -91 
Q 1428 -91 1123 -41 
Q 819 9 494 109 
L 494 744 
Q 775 591 1075 516 
Q 1375 441 1709 441 
Q 2250 441 2565 725 
Q 2881 1009 2881 1497 
Q 2881 1984 2565 2268 
Q 2250 2553 1709 2553 
Q 1456 2553 1204 2497 
Q 953 2441 691 2322 
L 691 4666 
z
" transform="scale(0.015625)"/>
       </defs>
       <use xlink:href="#DejaVuSans-30"/>
       <use xlink:href="#DejaVuSans-2e" x="63.623047"/>
       <use xlink:href="#DejaVuSans-30" x="95.410156"/>
       <use xlink:href="#DejaVuSans-30" x="159.033203"/>
       <use xlink:href="#DejaVuSans-30" x="222.65625"/>
       <use xlink:href="#DejaVuSans-35" x="286.279297"/>
      </g>
     </g>
    </g>
    <g id="ytick_6">
     <g id="line2d_20">
      <path d="M 58.293625 249.830869 
L 415.413625 249.830869 
" clip-path="url(#pc7f1565616)" style="fill: none; stroke: #ffffff; stroke-width: 0.5"/>
     </g>
    </g>
    <g id="ytick_7">
     <g id="line2d_21">
      <path d="M 58.293625 199.550636 
L 415.413625 199.550636 
" clip-path="url(#pc7f1565616)" style="fill: none; stroke: #ffffff; stroke-width: 0.5"/>
     </g>
    </g>
    <g id="ytick_8">
     <g id="line2d_22">
      <path d="M 58.293625 149.270404 
L 415.413625 149.270404 
" clip-path="url(#pc7f1565616)" style="fill: none; stroke: #ffffff; stroke-width: 0.5"/>
     </g>
    </g>
    <g id="ytick_9">
     <g id="line2d_23">
      <path d="M 58.293625 98.990172 
L 415.413625 98.990172 
" clip-path="url(#pc7f1565616)" style="fill: none; stroke: #ffffff; stroke-width: 0.5"/>
     </g>
    </g>
    <g id="ytick_10">
     <g id="line2d_24">
      <path d="M 58.293625 48.709939 
L 415.413625 48.709939 
" clip-path="url(#pc7f1565616)" style="fill: none; stroke: #ffffff; stroke-width: 0.5"/>
     </g>
    </g>
    <g id="text_10">
     <!-- unit_weight -->
     <g transform="translate(15.558281 189.382355)rotate(-90)scale(0.11 -0.11)">
      <defs>
       <path id="DejaVuSans-6e" d="M 3513 2113 
L 3513 0 
L 2938 0 
L 2938 2094 
Q 2938 2591 2744 2837 
Q 2550 3084 2163 3084 
Q 1697 3084 1428 2787 
Q 1159 2491 1159 1978 
L 1159 0 
L 581 0 
L 581 3500 
L 1159 3500 
L 1159 2956 
Q 1366 3272 1645 3428 
Q 1925 3584 2291 3584 
Q 2894 3584 3203 3211 
Q 3513 2838 3513 2113 
z
" transform="scale(0.015625)"/>
       <path id="DejaVuSans-69" d="M 603 3500 
L 1178 3500 
L 1178 0 
L 603 0 
L 603 3500 
z
M 603 4863 
L 1178 4863 
L 1178 4134 
L 603 4134 
L 603 4863 
z
" transform="scale(0.015625)"/>
       <path id="DejaVuSans-74" d="M 1172 4494 
L 1172 3500 
L 2356 3500 
L 2356 3053 
L 1172 3053 
L 1172 1153 
Q 1172 725 1289 603 
Q 1406 481 1766 481 
L 2356 481 
L 2356 0 
L 1766 0 
Q 1100 0 847 248 
Q 594 497 594 1153 
L 594 3053 
L 172 3053 
L 172 3500 
L 594 3500 
L 594 4494 
L 1172 4494 
z
" transform="scale(0.015625)"/>
       <path id="DejaVuSans-77" d="M 269 3500 
L 844 3500 
L 1563 769 
L 2278 3500 
L 2956 3500 
L 3675 769 
L 4391 3500 
L 4966 3500 
L 4050 0 
L 3372 0 
L 2619 2869 
L 1863 0 
L 1184 0 
L 269 3500 
z
" transform="scale(0.015625)"/>
       <path id="DejaVuSans-68" d="M 3513 2113 
L 3513 0 
L 2938 0 
L 2938 2094 
Q 2938 2591 2744 2837 
Q 2550 3084 2163 3084 
Q 1697 3084 1428 2787 
Q 1159 2491 1159 1978 
L 1159 0 
L 581 0 
L 581 4863 
L 1159 4863 
L 1159 2956 
Q 1366 3272 1645 3428 
Q 1925 3584 2291 3584 
Q 2894 3584 3203 3211 
Q 3513 2838 3513 2113 
z
" transform="scale(0.015625)"/>
      </defs>
      <use xlink:href="#DejaVuSans-75"/>
      <use xlink:href="#DejaVuSans-6e" x="63.378906"/>
      <use xlink:href="#DejaVuSans-69" x="126.757812"/>
      <use xlink:href="#DejaVuSans-74" x="154.541016"/>
      <use xlink:href="#DejaVuSans-5f" x="193.75"/>
      <use xlink:href="#DejaVuSans-77" x="243.75"/>
      <use xlink:href="#DejaVuSans-65" x="325.537109"/>
      <use xlink:href="#DejaVuSans-69" x="387.060547"/>
      <use xlink:href="#DejaVuSans-67" x="414.84375"/>
      <use xlink:href="#DejaVuSans-68" x="478.320312"/>
      <use xlink:href="#DejaVuSans-74" x="541.699219"/>
     </g>
    </g>
   </g>
   <g id="PolyCollection_1">
    <path d="M 74.526352 261.331317 
L 74.526352 280.121371 
L 78.635903 277.172573 
L 82.745455 274.225666 
L 86.855006 271.280764 
L 90.964557 268.337985 
L 95.074108 265.397457 
L 99.18366 262.459318 
L 103.293211 259.523712 
L 107.402762 256.590795 
L 111.512313 253.660732 
L 115.621864 250.733698 
L 119.731416 247.809881 
L 123.840967 244.889478 
L 127.950518 241.972699 
L 132.060069 239.059766 
L 136.16962 236.15091 
L 140.279172 233.246377 
L 144.388723 230.346423 
L 148.498274 227.451314 
L 152.607825 224.561327 
L 156.717376 221.676748 
L 160.826928 218.797868 
L 164.936479 215.924985 
L 169.04603 213.058399 
L 173.155581 210.198409 
L 177.265132 207.345311 
L 181.374684 204.499395 
L 185.484235 201.660939 
L 189.593786 198.830204 
L 193.703337 196.007434 
L 197.812889 193.192846 
L 201.92244 190.386629 
L 206.031991 187.58894 
L 210.141542 184.7999 
L 214.251093 182.019592 
L 218.360645 179.248056 
L 222.470196 176.485292 
L 226.579747 173.73126 
L 230.689298 170.985875 
L 234.798849 168.249019 
L 238.908401 165.520533 
L 243.017952 162.800228 
L 247.127503 160.087886 
L 251.237054 157.383265 
L 255.346605 154.686101 
L 259.456157 151.996118 
L 263.565708 149.313026 
L 267.675259 146.636529 
L 271.78481 143.966327 
L 275.894361 141.302121 
L 280.003913 138.643612 
L 284.113464 135.99051 
L 288.223015 133.342528 
L 292.332566 130.69939 
L 296.442118 128.060829 
L 300.551669 125.426591 
L 304.66122 122.796429 
L 308.770771 120.170111 
L 312.880322 117.547416 
L 316.989874 114.928134 
L 321.099425 112.312068 
L 325.208976 109.69903 
L 329.318527 107.088845 
L 333.428078 104.481349 
L 337.53763 101.876385 
L 341.647181 99.273809 
L 345.756732 96.673483 
L 349.866283 94.075281 
L 353.975834 91.479082 
L 358.085386 88.884773 
L 362.194937 86.292251 
L 366.304488 83.701417 
L 370.414039 81.112179 
L 374.52359 78.524449 
L 378.633142 75.938149 
L 382.742693 73.353201 
L 386.852244 70.769536 
L 390.961795 68.187086 
L 395.071347 65.60579 
L 399.180898 63.025588 
L 399.180898 40.520994 
L 399.180898 40.520994 
L 395.071347 43.483908 
L 390.961795 46.445726 
L 386.852244 49.406392 
L 382.742693 52.365842 
L 378.633142 55.32401 
L 374.52359 58.280824 
L 370.414039 61.236211 
L 366.304488 64.190087 
L 362.194937 67.142368 
L 358.085386 70.092961 
L 353.975834 73.041769 
L 349.866283 75.988685 
L 345.756732 78.933597 
L 341.647181 81.876387 
L 337.53763 84.816926 
L 333.428078 87.755078 
L 329.318527 90.690696 
L 325.208976 93.623627 
L 321.099425 96.553705 
L 316.989874 99.480753 
L 312.880322 102.404587 
L 308.770771 105.325007 
L 304.66122 108.241804 
L 300.551669 111.154758 
L 296.442118 114.063634 
L 292.332566 116.968189 
L 288.223015 119.868167 
L 284.113464 122.7633 
L 280.003913 125.653312 
L 275.894361 128.537919 
L 271.78481 131.416828 
L 267.675259 134.289741 
L 263.565708 137.156359 
L 259.456157 140.016383 
L 255.346605 142.869515 
L 251.237054 145.715467 
L 247.127503 148.553961 
L 243.017952 151.384734 
L 238.908401 154.207545 
L 234.798849 157.022174 
L 230.689298 159.828432 
L 226.579747 162.626163 
L 222.470196 165.415246 
L 218.360645 168.195598 
L 214.251093 170.967177 
L 210.141542 173.729984 
L 206.031991 176.484059 
L 201.92244 179.229486 
L 197.812889 181.966384 
L 193.703337 184.694911 
L 189.593786 187.415256 
L 185.484235 190.127637 
L 181.374684 192.832296 
L 177.265132 195.529495 
L 173.155581 198.219513 
L 169.04603 200.902638 
L 164.936479 203.579167 
L 160.826928 206.249399 
L 156.717376 208.913634 
L 152.607825 211.57217 
L 148.498274 214.225299 
L 144.388723 216.873306 
L 140.279172 219.516467 
L 136.16962 222.155049 
L 132.060069 224.789308 
L 127.950518 227.41949 
L 123.840967 230.045826 
L 119.731416 232.668539 
L 115.621864 235.287837 
L 111.512313 237.903919 
L 107.402762 240.516971 
L 103.293211 243.127169 
L 99.18366 245.734678 
L 95.074108 248.339654 
L 90.964557 250.942242 
L 86.855006 253.542578 
L 82.745455 256.140791 
L 78.635903 258.737 
L 74.526352 261.331317 
z
" clip-path="url(#pc7f1565616)" style="fill: #20b2aa; fill-opacity: 0.298039"/>
   </g>
   <g id="line2d_25">
    <path d="M 74.526352 270.726344 
L 78.635903 267.954786 
L 82.745455 265.183229 
L 86.855006 262.411671 
L 90.964557 259.640113 
L 95.074108 256.868556 
L 99.18366 254.096998 
L 103.293211 251.32544 
L 107.402762 248.553883 
L 111.512313 245.782325 
L 115.621864 243.010767 
L 119.731416 240.23921 
L 123.840967 237.467652 
L 127.950518 234.696095 
L 132.060069 231.924537 
L 136.16962 229.152979 
L 140.279172 226.381422 
L 144.388723 223.609864 
L 148.498274 220.838306 
L 152.607825 218.066749 
L 156.717376 215.295191 
L 160.826928 212.523634 
L 164.936479 209.752076 
L 169.04603 206.980518 
L 173.155581 204.208961 
L 177.265132 201.437403 
L 181.374684 198.665845 
L 185.484235 195.894288 
L 189.593786 193.12273 
L 193.703337 190.351173 
L 197.812889 187.579615 
L 201.92244 184.808057 
L 206.031991 182.0365 
L 210.141542 179.264942 
L 214.251093 176.493384 
L 218.360645 173.721827 
L 222.470196 170.950269 
L 226.579747 168.178712 
L 230.689298 165.407154 
L 234.798849 162.635596 
L 238.908401 159.864039 
L 243.017952 157.092481 
L 247.127503 154.320923 
L 251.237054 151.549366 
L 255.346605 148.777808 
L 259.456157 146.006251 
L 263.565708 143.234693 
L 267.675259 140.463135 
L 271.78481 137.691578 
L 275.894361 134.92002 
L 280.003913 132.148462 
L 284.113464 129.376905 
L 288.223015 126.605347 
L 292.332566 123.833789 
L 296.442118 121.062232 
L 300.551669 118.290674 
L 304.66122 115.519117 
L 308.770771 112.747559 
L 312.880322 109.976001 
L 316.989874 107.204444 
L 321.099425 104.432886 
L 325.208976 101.661328 
L 329.318527 98.889771 
L 333.428078 96.118213 
L 337.53763 93.346656 
L 341.647181 90.575098 
L 345.756732 87.80354 
L 349.866283 85.031983 
L 353.975834 82.260425 
L 358.085386 79.488867 
L 362.194937 76.71731 
L 366.304488 73.945752 
L 370.414039 71.174195 
L 374.52359 68.402637 
L 378.633142 65.631079 
L 382.742693 62.859522 
L 386.852244 60.087964 
L 390.961795 57.316406 
L 395.071347 54.544849 
L 399.180898 51.773291 
" clip-path="url(#pc7f1565616)" style="fill: none; stroke: #20b2aa; stroke-width: 1.772454; stroke-linejoin: miter"/>
   </g>
   <g id="PathCollection_1">
    <path d="M 74.526352 280.002245 
C 75.113928 280.002245 75.677516 279.768799 76.092995 279.35332 
C 76.508473 278.937842 76.74192 278.374253 76.74192 277.786678 
C 76.74192 277.199102 76.508473 276.635514 76.092995 276.220035 
C 75.677516 275.804557 75.113928 275.57111 74.526352 275.57111 
C 73.938777 275.57111 73.375188 275.804557 72.95971 276.220035 
C 72.544231 276.635514 72.310785 277.199102 72.310785 277.786678 
C 72.310785 278.374253 72.544231 278.937842 72.95971 279.35332 
C 73.375188 279.768799 73.938777 280.002245 74.526352 280.002245 
z
" clip-path="url(#pc7f1565616)" style="fill: #008b8b; stroke: #008b8b; stroke-width: 0.886227"/>
    <path d="M 86.807692 268.739473 
C 87.395267 268.739473 87.958856 268.506027 88.374335 268.090548 
C 88.789813 267.67507 89.023259 267.111481 89.023259 266.523906 
C 89.023259 265.93633 88.789813 265.372742 88.374335 264.957263 
C 87.958856 264.541785 87.395267 264.308338 86.807692 264.308338 
C 86.220117 264.308338 85.656528 264.541785 85.241049 264.957263 
C 84.825571 265.372742 84.592125 265.93633 84.592125 266.523906 
C 84.592125 267.111481 84.825571 267.67507 85.241049 268.090548 
C 85.656528 268.506027 86.220117 268.739473 86.807692 268.739473 
z
" clip-path="url(#pc7f1565616)" style="fill: #008b8b; stroke: #008b8b; stroke-width: 0.886227"/>
    <path d="M 100.156974 261.247718 
C 100.74455 261.247718 101.308138 261.014272 101.723617 260.598794 
C 102.139095 260.183315 102.372542 259.619726 102.372542 259.032151 
C 102.372542 258.444576 102.139095 257.880987 101.723617 257.465508 
C 101.308138 257.05003 100.74455 256.816584 100.156974 256.816584 
C 99.569399 256.816584 99.00581 257.05003 98.590332 257.465508 
C 98.174853 257.880987 97.941407 258.444576 97.941407 259.032151 
C 97.941407 259.619726 98.174853 260.183315 98.590332 260.598794 
C 99.00581 261.014272 99.569399 261.247718 100.156974 261.247718 
z
" clip-path="url(#pc7f1565616)" style="fill: #008b8b; stroke: #008b8b; stroke-width: 0.886227"/>
    <path d="M 114.574199 252.85092 
C 115.161774 252.85092 115.725363 252.617473 116.140842 252.201995 
C 116.55632 251.786516 116.789766 251.222928 116.789766 250.635352 
C 116.789766 250.047777 116.55632 249.484188 116.140842 249.06871 
C 115.725363 248.653231 115.161774 248.419785 114.574199 248.419785 
C 113.986624 248.419785 113.423035 248.653231 113.007556 249.06871 
C 112.592078 249.484188 112.358632 250.047777 112.358632 250.635352 
C 112.358632 251.222928 112.592078 251.786516 113.007556 252.201995 
C 113.423035 252.617473 113.986624 252.85092 114.574199 252.85092 
z
" clip-path="url(#pc7f1565616)" style="fill: #008b8b; stroke: #008b8b; stroke-width: 0.886227"/>
    <path d="M 130.059367 228.163326 
C 130.646942 228.163326 131.210531 227.929879 131.626009 227.514401 
C 132.041488 227.098922 132.274934 226.535334 132.274934 225.947758 
C 132.274934 225.360183 132.041488 224.796594 131.626009 224.381116 
C 131.210531 223.965637 130.646942 223.732191 130.059367 223.732191 
C 129.471791 223.732191 128.908202 223.965637 128.492724 224.381116 
C 128.077245 224.796594 127.843799 225.360183 127.843799 225.947758 
C 127.843799 226.535334 128.077245 227.098922 128.492724 227.514401 
C 128.908202 227.929879 129.471791 228.163326 130.059367 228.163326 
z
" clip-path="url(#pc7f1565616)" style="fill: #008b8b; stroke: #008b8b; stroke-width: 0.886227"/>
    <path d="M 146.612477 219.062603 
C 147.200052 219.062603 147.763641 218.829157 148.179119 218.413679 
C 148.594598 217.9982 148.828044 217.434611 148.828044 216.847036 
C 148.828044 216.259461 148.594598 215.695872 148.179119 215.280393 
C 147.763641 214.864915 147.200052 214.631469 146.612477 214.631469 
C 146.024901 214.631469 145.461312 214.864915 145.045834 215.280393 
C 144.630356 215.695872 144.396909 216.259461 144.396909 216.847036 
C 144.396909 217.434611 144.630356 217.9982 145.045834 218.413679 
C 145.461312 218.829157 146.024901 219.062603 146.612477 219.062603 
z
" clip-path="url(#pc7f1565616)" style="fill: #008b8b; stroke: #008b8b; stroke-width: 0.886227"/>
    <path d="M 164.233529 206.040023 
C 164.821105 206.040023 165.384693 205.806577 165.800172 205.391099 
C 166.21565 204.97562 166.449097 204.412031 166.449097 203.824456 
C 166.449097 203.236881 166.21565 202.673292 165.800172 202.257813 
C 165.384693 201.842335 164.821105 201.608889 164.233529 201.608889 
C 163.645954 201.608889 163.082365 201.842335 162.666887 202.257813 
C 162.251408 202.673292 162.017962 203.236881 162.017962 203.824456 
C 162.017962 204.412031 162.251408 204.97562 162.666887 205.391099 
C 163.082365 205.806577 163.645954 206.040023 164.233529 206.040023 
z
" clip-path="url(#pc7f1565616)" style="fill: #008b8b; stroke: #008b8b; stroke-width: 0.886227"/>
    <path d="M 182.922525 188.240821 
C 183.5101 188.240821 184.073689 188.007375 184.489167 187.591896 
C 184.904646 187.176418 185.138092 186.612829 185.138092 186.025254 
C 185.138092 185.437678 184.904646 184.87409 184.489167 184.458611 
C 184.073689 184.043133 183.5101 183.809686 182.922525 183.809686 
C 182.334949 183.809686 181.77136 184.043133 181.355882 184.458611 
C 180.940403 184.87409 180.706957 185.437678 180.706957 186.025254 
C 180.706957 186.612829 180.940403 187.176418 181.355882 187.591896 
C 181.77136 188.007375 182.334949 188.240821 182.922525 188.240821 
z
" clip-path="url(#pc7f1565616)" style="fill: #008b8b; stroke: #008b8b; stroke-width: 0.886227"/>
    <path d="M 223.504343 167.123123 
C 224.091918 167.123123 224.655507 166.889677 225.070985 166.474199 
C 225.486464 166.05872 225.71991 165.495131 225.71991 164.907556 
C 225.71991 164.319981 225.486464 163.756392 225.070985 163.340913 
C 224.655507 162.925435 224.091918 162.691989 223.504343 162.691989 
C 222.916767 162.691989 222.353179 162.925435 221.9377 163.340913 
C 221.522222 163.756392 221.288775 164.319981 221.288775 164.907556 
C 221.288775 165.495131 221.522222 166.05872 221.9377 166.474199 
C 222.353179 166.889677 222.916767 167.123123 223.504343 167.123123 
z
" clip-path="url(#pc7f1565616)" style="fill: #008b8b; stroke: #008b8b; stroke-width: 0.886227"/>
    <path d="M 245.397166 156.162033 
C 245.984741 156.162033 246.54833 155.928587 246.963808 155.513108 
C 247.379287 155.09763 247.612733 154.534041 247.612733 153.946466 
C 247.612733 153.35889 247.379287 152.795301 246.963808 152.379823 
C 246.54833 151.964344 245.984741 151.730898 245.397166 151.730898 
C 244.80959 151.730898 244.246001 151.964344 243.830523 152.379823 
C 243.415045 152.795301 243.181598 153.35889 243.181598 153.946466 
C 243.181598 154.534041 243.415045 155.09763 243.830523 155.513108 
C 244.246001 155.928587 244.80959 156.162033 245.397166 156.162033 
z
" clip-path="url(#pc7f1565616)" style="fill: #008b8b; stroke: #008b8b; stroke-width: 0.886227"/>
    <path d="M 268.357931 146.96075 
C 268.945507 146.96075 269.509095 146.727304 269.924574 146.311826 
C 270.340052 145.896347 270.573499 145.332758 270.573499 144.745183 
C 270.573499 144.157608 270.340052 143.594019 269.924574 143.17854 
C 269.509095 142.763062 268.945507 142.529616 268.357931 142.529616 
C 267.770356 142.529616 267.206767 142.763062 266.791289 143.17854 
C 266.37581 143.594019 266.142364 144.157608 266.142364 144.745183 
C 266.142364 145.332758 266.37581 145.896347 266.791289 146.311826 
C 267.206767 146.727304 267.770356 146.96075 268.357931 146.96075 
z
" clip-path="url(#pc7f1565616)" style="fill: #008b8b; stroke: #008b8b; stroke-width: 0.886227"/>
    <path d="M 292.386639 119.960266 
C 292.974215 119.960266 293.537804 119.726819 293.953282 119.311341 
C 294.368761 118.895862 294.602207 118.332274 294.602207 117.744698 
C 294.602207 117.157123 294.368761 116.593534 293.953282 116.178056 
C 293.537804 115.762577 292.974215 115.529131 292.386639 115.529131 
C 291.799064 115.529131 291.235475 115.762577 290.819997 116.178056 
C 290.404518 116.593534 290.171072 117.157123 290.171072 117.744698 
C 290.171072 118.332274 290.404518 118.895862 290.819997 119.311341 
C 291.235475 119.726819 291.799064 119.960266 292.386639 119.960266 
z
" clip-path="url(#pc7f1565616)" style="fill: #008b8b; stroke: #008b8b; stroke-width: 0.886227"/>
    <path d="M 317.48329 104.373394 
C 318.070865 104.373394 318.634454 104.139947 319.049933 103.724469 
C 319.465411 103.30899 319.698857 102.745402 319.698857 102.157826 
C 319.698857 101.570251 319.465411 101.006662 319.049933 100.591184 
C 318.634454 100.175705 318.070865 99.942259 317.48329 99.942259 
C 316.895715 99.942259 316.332126 100.175705 315.916647 100.591184 
C 315.501169 101.006662 315.267723 101.570251 315.267723 102.157826 
C 315.267723 102.745402 315.501169 103.30899 315.916647 103.724469 
C 316.332126 104.139947 316.895715 104.373394 317.48329 104.373394 
z
" clip-path="url(#pc7f1565616)" style="fill: #008b8b; stroke: #008b8b; stroke-width: 0.886227"/>
    <path d="M 343.647883 118.8541 
C 344.235459 118.8541 344.799048 118.620654 345.214526 118.205176 
C 345.630005 117.789697 345.863451 117.226108 345.863451 116.638533 
C 345.863451 116.050958 345.630005 115.487369 345.214526 115.07189 
C 344.799048 114.656412 344.235459 114.422966 343.647883 114.422966 
C 343.060308 114.422966 342.496719 114.656412 342.081241 115.07189 
C 341.665762 115.487369 341.432316 116.050958 341.432316 116.638533 
C 341.432316 117.226108 341.665762 117.789697 342.081241 118.205176 
C 342.496719 118.620654 343.060308 118.8541 343.647883 118.8541 
z
" clip-path="url(#pc7f1565616)" style="fill: #008b8b; stroke: #008b8b; stroke-width: 0.886227"/>
    <path d="M 370.880419 79.082437 
C 371.467995 79.082437 372.031583 78.848991 372.447062 78.433512 
C 372.86254 78.018034 373.095987 77.454445 373.095987 76.866869 
C 373.095987 76.279294 372.86254 75.715705 372.447062 75.300227 
C 372.031583 74.884748 371.467995 74.651302 370.880419 74.651302 
C 370.292844 74.651302 369.729255 74.884748 369.313777 75.300227 
C 368.898298 75.715705 368.664852 76.279294 368.664852 76.866869 
C 368.664852 77.454445 368.898298 78.018034 369.313777 78.433512 
C 369.729255 78.848991 370.292844 79.082437 370.880419 79.082437 
z
" clip-path="url(#pc7f1565616)" style="fill: #008b8b; stroke: #008b8b; stroke-width: 0.886227"/>
    <path d="M 399.180898 40.416938 
C 399.768473 40.416938 400.332062 40.183492 400.74754 39.768013 
C 401.163019 39.352535 401.396465 38.788946 401.396465 38.201371 
C 401.396465 37.613795 401.163019 37.050207 400.74754 36.634728 
C 400.332062 36.21925 399.768473 35.985803 399.180898 35.985803 
C 398.593322 35.985803 398.029734 36.21925 397.614255 36.634728 
C 397.198777 37.050207 396.96533 37.613795 396.96533 38.201371 
C 396.96533 38.788946 397.198777 39.352535 397.614255 39.768013 
C 398.029734 40.183492 398.593322 40.416938 399.180898 40.416938 
z
" clip-path="url(#pc7f1565616)" style="fill: #008b8b; stroke: #008b8b; stroke-width: 0.886227"/>
   </g>
  </g>
  <g id="text_11">
   <!-- stainless steel flatwound -->
   <g transform="translate(149.279406 17.229938)scale(0.132 -0.132)">
    <defs>
     <path id="DejaVuSans-6c" d="M 603 4863 
L 1178 4863 
L 1178 0 
L 603 0 
L 603 4863 
z
" transform="scale(0.015625)"/>
     <path id="DejaVuSans-20" transform="scale(0.015625)"/>
     <path id="DejaVuSans-66" d="M 2375 4863 
L 2375 4384 
L 1825 4384 
Q 1516 4384 1395 4259 
Q 1275 4134 1275 3809 
L 1275 3500 
L 2222 3500 
L 2222 3053 
L 1275 3053 
L 1275 0 
L 697 0 
L 697 3053 
L 147 3053 
L 147 3500 
L 697 3500 
L 697 3744 
Q 697 4328 969 4595 
Q 1241 4863 1831 4863 
L 2375 4863 
z
" transform="scale(0.015625)"/>
     <path id="DejaVuSans-6f" d="M 1959 3097 
Q 1497 3097 1228 2736 
Q 959 2375 959 1747 
Q 959 1119 1226 758 
Q 1494 397 1959 397 
Q 2419 397 2687 759 
Q 2956 1122 2956 1747 
Q 2956 2369 2687 2733 
Q 2419 3097 1959 3097 
z
M 1959 3584 
Q 2709 3584 3137 3096 
Q 3566 2609 3566 1747 
Q 3566 888 3137 398 
Q 2709 -91 1959 -91 
Q 1206 -91 779 398 
Q 353 888 353 1747 
Q 353 2609 779 3096 
Q 1206 3584 1959 3584 
z
" transform="scale(0.015625)"/>
     <path id="DejaVuSans-64" d="M 2906 2969 
L 2906 4863 
L 3481 4863 
L 3481 0 
L 2906 0 
L 2906 525 
Q 2725 213 2448 61 
Q 2172 -91 1784 -91 
Q 1150 -91 751 415 
Q 353 922 353 1747 
Q 353 2572 751 3078 
Q 1150 3584 1784 3584 
Q 2172 3584 2448 3432 
Q 2725 3281 2906 2969 
z
M 947 1747 
Q 947 1113 1208 752 
Q 1469 391 1925 391 
Q 2381 391 2643 752 
Q 2906 1113 2906 1747 
Q 2906 2381 2643 2742 
Q 2381 3103 1925 3103 
Q 1469 3103 1208 2742 
Q 947 2381 947 1747 
z
" transform="scale(0.015625)"/>
    </defs>
    <use xlink:href="#DejaVuSans-73"/>
    <use xlink:href="#DejaVuSans-74" x="52.099609"/>
    <use xlink:href="#DejaVuSans-61" x="91.308594"/>
    <use xlink:href="#DejaVuSans-69" x="152.587891"/>
    <use xlink:href="#DejaVuSans-6e" x="180.371094"/>
    <use xlink:href="#DejaVuSans-6c" x="243.75"/>
    <use xlink:href="#DejaVuSans-65" x="271.533203"/>
    <use xlink:href="#DejaVuSans-73" x="333.056641"/>
    <use xlink:href="#DejaVuSans-73" x="385.15625"/>
    <use xlink:href="#DejaVuSans-20" x="437.255859"/>
    <use xlink:href="#DejaVuSans-73" x="469.042969"/>
    <use xlink:href="#DejaVuSans-74" x="521.142578"/>
    <use xlink:href="#DejaVuSans-65" x="560.351562"/>
    <use xlink:href="#DejaVuSans-65" x="621.875"/>
    <use xlink:href="#DejaVuSans-6c" x="683.398438"/>
    <use xlink:href="#DejaVuSans-20" x="711.181641"/>
    <use xlink:href="#DejaVuSans-66" x="742.96875"/>
    <use xlink:href="#DejaVuSans-6c" x="778.173828"/>
    <use xlink:href="#DejaVuSans-61" x="805.957031"/>
    <use xlink:href="#DejaVuSans-74" x="867.236328"/>
    <use xlink:href="#DejaVuSans-77" x="906.445312"/>
    <use xlink:href="#DejaVuSans-6f" x="988.232422"/>
    <use xlink:href="#DejaVuSans-75" x="1049.414062"/>
    <use xlink:href="#DejaVuSans-6e" x="1112.792969"/>
    <use xlink:href="#DejaVuSans-64" x="1176.171875"/>
   </g>
  </g>
 </g>
 <defs>
  <clipPath id="pc7f1565616">
   <rect x="58.293625" y="26.105371" width="357.12" height="266.112"/>
  </clipPath>
 </defs>
</svg>
