<?xml version="1.0" encoding="utf-8" standalone="no"?>
<!DOCTYPE svg PUBLIC "-//W3C//DTD SVG 1.1//EN"
  "http://www.w3.org/Graphics/SVG/1.1/DTD/svg11.dtd">
<svg xmlns:xlink="http://www.w3.org/1999/xlink" width="429.229522pt" height="327.930058pt" viewBox="0 0 429.229522 327.930058" xmlns="http://www.w3.org/2000/svg" version="1.1">
 <metadata>
  <rdf:RDF xmlns:dc="http://purl.org/dc/elements/1.1/" xmlns:cc="http://creativecommons.org/ns#" xmlns:rdf="http://www.w3.org/1999/02/22-rdf-syntax-ns#">
   <cc:Work>
    <dc:type rdf:resource="http://purl.org/dc/dcmitype/StillImage"/>
    <dc:date>2022-02-09T21:10:41.130811</dc:date>
    <dc:format>image/svg+xml</dc:format>
    <dc:creator>
     <cc:Agent>
      <dc:title>Matplotlib v3.5.1, https://matplotlib.org/</dc:title>
     </cc:Agent>
    </dc:creator>
   </cc:Work>
  </rdf:RDF>
 </metadata>
 <defs>
  <style type="text/css">*{stroke-linejoin: round; stroke-linecap: butt}</style>
 </defs>
 <g id="figure_1">
  <g id="patch_1">
   <path d="M 0 327.930058 
L 429.229522 327.930058 
L 429.229522 0 
L 0 0 
z
" style="fill: #ffffff; stroke: #ffffff; stroke-linejoin: miter"/>
  </g>
  <g id="axes_1">
   <g id="patch_2">
    <path d="M 58.293625 292.217371 
L 415.413625 292.217371 
L 415.413625 26.105371 
L 58.293625 26.105371 
z
" style="fill: #ebebeb"/>
   </g>
   <g id="matplotlib.axis_1">
    <g id="xtick_1">
     <g id="line2d_1">
      <path d="M 165.331985 292.217371 
L 165.331985 26.105371 
" clip-path="url(#p25a2343b6c)" style="fill: none; stroke: #ffffff"/>
     </g>
     <g id="line2d_2">
      <path d="M 165.331985 292.217371 
" style="fill: none; stroke: #333333; stroke-width: 1.5"/>
      <defs>
       <path id="m149f5598f0" d="M 0 0 
L 0 2.75 
" style="stroke: #000000"/>
      </defs>
      <g>
       <use xlink:href="#m149f5598f0" x="165.331985" y="292.217371" style="fill: #333333; stroke: #000000"/>
      </g>
     </g>
     <g id="text_1">
      <!-- 0.001 -->
      <g style="fill: #4d4d4d" transform="translate(152.73561 303.853996)scale(0.088 -0.088)">
       <defs>
        <path id="DejaVuSans-30" d="M 2034 4250 
Q 1547 4250 1301 3770 
Q 1056 3291 1056 2328 
Q 1056 1369 1301 889 
Q 1547 409 2034 409 
Q 2525 409 2770 889 
Q 3016 1369 3016 2328 
Q 3016 3291 2770 3770 
Q 2525 4250 2034 4250 
z
M 2034 4750 
Q 2819 4750 3233 4129 
Q 3647 3509 3647 2328 
Q 3647 1150 3233 529 
Q 2819 -91 2034 -91 
Q 1250 -91 836 529 
Q 422 1150 422 2328 
Q 422 3509 836 4129 
Q 1250 4750 2034 4750 
z
" transform="scale(0.015625)"/>
        <path id="DejaVuSans-2e" d="M 684 794 
L 1344 794 
L 1344 0 
L 684 0 
L 684 794 
z
" transform="scale(0.015625)"/>
        <path id="DejaVuSans-31" d="M 794 531 
L 1825 531 
L 1825 4091 
L 703 3866 
L 703 4441 
L 1819 4666 
L 2450 4666 
L 2450 531 
L 3481 531 
L 3481 0 
L 794 0 
L 794 531 
z
" transform="scale(0.015625)"/>
       </defs>
       <use xlink:href="#DejaVuSans-30"/>
       <use xlink:href="#DejaVuSans-2e" x="63.623047"/>
       <use xlink:href="#DejaVuSans-30" x="95.410156"/>
       <use xlink:href="#DejaVuSans-30" x="159.033203"/>
       <use xlink:href="#DejaVuSans-31" x="222.65625"/>
      </g>
     </g>
    </g>
    <g id="xtick_2">
     <g id="line2d_3">
      <path d="M 287.382566 292.217371 
L 287.382566 26.105371 
" clip-path="url(#p25a2343b6c)" style="fill: none; stroke: #ffffff"/>
     </g>
     <g id="line2d_4">
      <path d="M 287.382566 292.217371 
" style="fill: none; stroke: #333333; stroke-width: 1.5"/>
      <g>
       <use xlink:href="#m149f5598f0" x="287.382566" y="292.217371" style="fill: #333333; stroke: #000000"/>
      </g>
     </g>
     <g id="text_2">
      <!-- 0.002 -->
      <g style="fill: #4d4d4d" transform="translate(274.786191 303.853996)scale(0.088 -0.088)">
       <defs>
        <path id="DejaVuSans-32" d="M 1228 531 
L 3431 531 
L 3431 0 
L 469 0 
L 469 531 
Q 828 903 1448 1529 
Q 2069 2156 2228 2338 
Q 2531 2678 2651 2914 
Q 2772 3150 2772 3378 
Q 2772 3750 2511 3984 
Q 2250 4219 1831 4219 
Q 1534 4219 1204 4116 
Q 875 4013 500 3803 
L 500 4441 
Q 881 4594 1212 4672 
Q 1544 4750 1819 4750 
Q 2544 4750 2975 4387 
Q 3406 4025 3406 3419 
Q 3406 3131 3298 2873 
Q 3191 2616 2906 2266 
Q 2828 2175 2409 1742 
Q 1991 1309 1228 531 
z
" transform="scale(0.015625)"/>
       </defs>
       <use xlink:href="#DejaVuSans-30"/>
       <use xlink:href="#DejaVuSans-2e" x="63.623047"/>
       <use xlink:href="#DejaVuSans-30" x="95.410156"/>
       <use xlink:href="#DejaVuSans-30" x="159.033203"/>
       <use xlink:href="#DejaVuSans-32" x="222.65625"/>
      </g>
     </g>
    </g>
    <g id="xtick_3">
     <g id="line2d_5">
      <path d="M 409.433147 292.217371 
L 409.433147 26.105371 
" clip-path="url(#p25a2343b6c)" style="fill: none; stroke: #ffffff"/>
     </g>
     <g id="line2d_6">
      <path d="M 409.433147 292.217371 
" style="fill: none; stroke: #333333; stroke-width: 1.5"/>
      <g>
       <use xlink:href="#m149f5598f0" x="409.433147" y="292.217371" style="fill: #333333; stroke: #000000"/>
      </g>
     </g>
     <g id="text_3">
      <!-- 0.003 -->
      <g style="fill: #4d4d4d" transform="translate(396.836772 303.853996)scale(0.088 -0.088)">
       <defs>
        <path id="DejaVuSans-33" d="M 2597 2516 
Q 3050 2419 3304 2112 
Q 3559 1806 3559 1356 
Q 3559 666 3084 287 
Q 2609 -91 1734 -91 
Q 1441 -91 1130 -33 
Q 819 25 488 141 
L 488 750 
Q 750 597 1062 519 
Q 1375 441 1716 441 
Q 2309 441 2620 675 
Q 2931 909 2931 1356 
Q 2931 1769 2642 2001 
Q 2353 2234 1838 2234 
L 1294 2234 
L 1294 2753 
L 1863 2753 
Q 2328 2753 2575 2939 
Q 2822 3125 2822 3475 
Q 2822 3834 2567 4026 
Q 2313 4219 1838 4219 
Q 1578 4219 1281 4162 
Q 984 4106 628 3988 
L 628 4550 
Q 988 4650 1302 4700 
Q 1616 4750 1894 4750 
Q 2613 4750 3031 4423 
Q 3450 4097 3450 3541 
Q 3450 3153 3228 2886 
Q 3006 2619 2597 2516 
z
" transform="scale(0.015625)"/>
       </defs>
       <use xlink:href="#DejaVuSans-30"/>
       <use xlink:href="#DejaVuSans-2e" x="63.623047"/>
       <use xlink:href="#DejaVuSans-30" x="95.410156"/>
       <use xlink:href="#DejaVuSans-30" x="159.033203"/>
       <use xlink:href="#DejaVuSans-33" x="222.65625"/>
      </g>
     </g>
    </g>
    <g id="xtick_4">
     <g id="line2d_7">
      <path d="M 104.306694 292.217371 
L 104.306694 26.105371 
" clip-path="url(#p25a2343b6c)" style="fill: none; stroke: #ffffff; stroke-width: 0.5"/>
     </g>
    </g>
    <g id="xtick_5">
     <g id="line2d_8">
      <path d="M 226.357275 292.217371 
L 226.357275 26.105371 
" clip-path="url(#p25a2343b6c)" style="fill: none; stroke: #ffffff; stroke-width: 0.5"/>
     </g>
    </g>
    <g id="xtick_6">
     <g id="line2d_9">
      <path d="M 348.407856 292.217371 
L 348.407856 26.105371 
" clip-path="url(#p25a2343b6c)" style="fill: none; stroke: #ffffff; stroke-width: 0.5"/>
     </g>
    </g>
    <g id="text_4">
     <!-- gauge_sq -->
     <g transform="translate(204.763234 318.136464)scale(0.11 -0.11)">
      <defs>
       <path id="DejaVuSans-67" d="M 2906 1791 
Q 2906 2416 2648 2759 
Q 2391 3103 1925 3103 
Q 1463 3103 1205 2759 
Q 947 2416 947 1791 
Q 947 1169 1205 825 
Q 1463 481 1925 481 
Q 2391 481 2648 825 
Q 2906 1169 2906 1791 
z
M 3481 434 
Q 3481 -459 3084 -895 
Q 2688 -1331 1869 -1331 
Q 1566 -1331 1297 -1286 
Q 1028 -1241 775 -1147 
L 775 -588 
Q 1028 -725 1275 -790 
Q 1522 -856 1778 -856 
Q 2344 -856 2625 -561 
Q 2906 -266 2906 331 
L 2906 616 
Q 2728 306 2450 153 
Q 2172 0 1784 0 
Q 1141 0 747 490 
Q 353 981 353 1791 
Q 353 2603 747 3093 
Q 1141 3584 1784 3584 
Q 2172 3584 2450 3431 
Q 2728 3278 2906 2969 
L 2906 3500 
L 3481 3500 
L 3481 434 
z
" transform="scale(0.015625)"/>
       <path id="DejaVuSans-61" d="M 2194 1759 
Q 1497 1759 1228 1600 
Q 959 1441 959 1056 
Q 959 750 1161 570 
Q 1363 391 1709 391 
Q 2188 391 2477 730 
Q 2766 1069 2766 1631 
L 2766 1759 
L 2194 1759 
z
M 3341 1997 
L 3341 0 
L 2766 0 
L 2766 531 
Q 2569 213 2275 61 
Q 1981 -91 1556 -91 
Q 1019 -91 701 211 
Q 384 513 384 1019 
Q 384 1609 779 1909 
Q 1175 2209 1959 2209 
L 2766 2209 
L 2766 2266 
Q 2766 2663 2505 2880 
Q 2244 3097 1772 3097 
Q 1472 3097 1187 3025 
Q 903 2953 641 2809 
L 641 3341 
Q 956 3463 1253 3523 
Q 1550 3584 1831 3584 
Q 2591 3584 2966 3190 
Q 3341 2797 3341 1997 
z
" transform="scale(0.015625)"/>
       <path id="DejaVuSans-75" d="M 544 1381 
L 544 3500 
L 1119 3500 
L 1119 1403 
Q 1119 906 1312 657 
Q 1506 409 1894 409 
Q 2359 409 2629 706 
Q 2900 1003 2900 1516 
L 2900 3500 
L 3475 3500 
L 3475 0 
L 2900 0 
L 2900 538 
Q 2691 219 2414 64 
Q 2138 -91 1772 -91 
Q 1169 -91 856 284 
Q 544 659 544 1381 
z
M 1991 3584 
L 1991 3584 
z
" transform="scale(0.015625)"/>
       <path id="DejaVuSans-65" d="M 3597 1894 
L 3597 1613 
L 953 1613 
Q 991 1019 1311 708 
Q 1631 397 2203 397 
Q 2534 397 2845 478 
Q 3156 559 3463 722 
L 3463 178 
Q 3153 47 2828 -22 
Q 2503 -91 2169 -91 
Q 1331 -91 842 396 
Q 353 884 353 1716 
Q 353 2575 817 3079 
Q 1281 3584 2069 3584 
Q 2775 3584 3186 3129 
Q 3597 2675 3597 1894 
z
M 3022 2063 
Q 3016 2534 2758 2815 
Q 2500 3097 2075 3097 
Q 1594 3097 1305 2825 
Q 1016 2553 972 2059 
L 3022 2063 
z
" transform="scale(0.015625)"/>
       <path id="DejaVuSans-5f" d="M 3263 -1063 
L 3263 -1509 
L -63 -1509 
L -63 -1063 
L 3263 -1063 
z
" transform="scale(0.015625)"/>
       <path id="DejaVuSans-73" d="M 2834 3397 
L 2834 2853 
Q 2591 2978 2328 3040 
Q 2066 3103 1784 3103 
Q 1356 3103 1142 2972 
Q 928 2841 928 2578 
Q 928 2378 1081 2264 
Q 1234 2150 1697 2047 
L 1894 2003 
Q 2506 1872 2764 1633 
Q 3022 1394 3022 966 
Q 3022 478 2636 193 
Q 2250 -91 1575 -91 
Q 1294 -91 989 -36 
Q 684 19 347 128 
L 347 722 
Q 666 556 975 473 
Q 1284 391 1588 391 
Q 1994 391 2212 530 
Q 2431 669 2431 922 
Q 2431 1156 2273 1281 
Q 2116 1406 1581 1522 
L 1381 1569 
Q 847 1681 609 1914 
Q 372 2147 372 2553 
Q 372 3047 722 3315 
Q 1072 3584 1716 3584 
Q 2034 3584 2315 3537 
Q 2597 3491 2834 3397 
z
" transform="scale(0.015625)"/>
       <path id="DejaVuSans-71" d="M 947 1747 
Q 947 1113 1208 752 
Q 1469 391 1925 391 
Q 2381 391 2643 752 
Q 2906 1113 2906 1747 
Q 2906 2381 2643 2742 
Q 2381 3103 1925 3103 
Q 1469 3103 1208 2742 
Q 947 2381 947 1747 
z
M 2906 525 
Q 2725 213 2448 61 
Q 2172 -91 1784 -91 
Q 1150 -91 751 415 
Q 353 922 353 1747 
Q 353 2572 751 3078 
Q 1150 3584 1784 3584 
Q 2172 3584 2448 3432 
Q 2725 3281 2906 2969 
L 2906 3500 
L 3481 3500 
L 3481 -1331 
L 2906 -1331 
L 2906 525 
z
" transform="scale(0.015625)"/>
      </defs>
      <use xlink:href="#DejaVuSans-67"/>
      <use xlink:href="#DejaVuSans-61" x="63.476562"/>
      <use xlink:href="#DejaVuSans-75" x="124.755859"/>
      <use xlink:href="#DejaVuSans-67" x="188.134766"/>
      <use xlink:href="#DejaVuSans-65" x="251.611328"/>
      <use xlink:href="#DejaVuSans-5f" x="313.134766"/>
      <use xlink:href="#DejaVuSans-73" x="363.134766"/>
      <use xlink:href="#DejaVuSans-71" x="415.234375"/>
     </g>
    </g>
   </g>
   <g id="matplotlib.axis_2">
    <g id="ytick_1">
     <g id="line2d_10">
      <path d="M 58.293625 255.088193 
L 415.413625 255.088193 
" clip-path="url(#p25a2343b6c)" style="fill: none; stroke: #ffffff"/>
     </g>
     <g id="line2d_11">
      <path d="M 58.293625 255.088193 
" style="fill: none; stroke: #333333; stroke-width: 1.5"/>
      <defs>
       <path id="m6c18df2428" d="M 0 0 
L -2.75 0 
" style="stroke: #000000"/>
      </defs>
      <g>
       <use xlink:href="#m6c18df2428" x="58.293625" y="255.088193" style="fill: #333333; stroke: #000000"/>
      </g>
     </g>
     <g id="text_5">
      <!-- 0.0001 -->
      <g style="fill: #4d4d4d" transform="translate(22.551875 257.516443)scale(0.088 -0.088)">
       <use xlink:href="#DejaVuSans-30"/>
       <use xlink:href="#DejaVuSans-2e" x="63.623047"/>
       <use xlink:href="#DejaVuSans-30" x="95.410156"/>
       <use xlink:href="#DejaVuSans-30" x="159.033203"/>
       <use xlink:href="#DejaVuSans-30" x="222.65625"/>
       <use xlink:href="#DejaVuSans-31" x="286.279297"/>
      </g>
     </g>
    </g>
    <g id="ytick_2">
     <g id="line2d_12">
      <path d="M 58.293625 203.86263 
L 415.413625 203.86263 
" clip-path="url(#p25a2343b6c)" style="fill: none; stroke: #ffffff"/>
     </g>
     <g id="line2d_13">
      <path d="M 58.293625 203.86263 
" style="fill: none; stroke: #333333; stroke-width: 1.5"/>
      <g>
       <use xlink:href="#m6c18df2428" x="58.293625" y="203.86263" style="fill: #333333; stroke: #000000"/>
      </g>
     </g>
     <g id="text_6">
      <!-- 0.0002 -->
      <g style="fill: #4d4d4d" transform="translate(22.551875 206.29088)scale(0.088 -0.088)">
       <use xlink:href="#DejaVuSans-30"/>
       <use xlink:href="#DejaVuSans-2e" x="63.623047"/>
       <use xlink:href="#DejaVuSans-30" x="95.410156"/>
       <use xlink:href="#DejaVuSans-30" x="159.033203"/>
       <use xlink:href="#DejaVuSans-30" x="222.65625"/>
       <use xlink:href="#DejaVuSans-32" x="286.279297"/>
      </g>
     </g>
    </g>
    <g id="ytick_3">
     <g id="line2d_14">
      <path d="M 58.293625 152.637067 
L 415.413625 152.637067 
" clip-path="url(#p25a2343b6c)" style="fill: none; stroke: #ffffff"/>
     </g>
     <g id="line2d_15">
      <path d="M 58.293625 152.637067 
" style="fill: none; stroke: #333333; stroke-width: 1.5"/>
      <g>
       <use xlink:href="#m6c18df2428" x="58.293625" y="152.637067" style="fill: #333333; stroke: #000000"/>
      </g>
     </g>
     <g id="text_7">
      <!-- 0.0003 -->
      <g style="fill: #4d4d4d" transform="translate(22.551875 155.065317)scale(0.088 -0.088)">
       <use xlink:href="#DejaVuSans-30"/>
       <use xlink:href="#DejaVuSans-2e" x="63.623047"/>
       <use xlink:href="#DejaVuSans-30" x="95.410156"/>
       <use xlink:href="#DejaVuSans-30" x="159.033203"/>
       <use xlink:href="#DejaVuSans-30" x="222.65625"/>
       <use xlink:href="#DejaVuSans-33" x="286.279297"/>
      </g>
     </g>
    </g>
    <g id="ytick_4">
     <g id="line2d_16">
      <path d="M 58.293625 101.411505 
L 415.413625 101.411505 
" clip-path="url(#p25a2343b6c)" style="fill: none; stroke: #ffffff"/>
     </g>
     <g id="line2d_17">
      <path d="M 58.293625 101.411505 
" style="fill: none; stroke: #333333; stroke-width: 1.5"/>
      <g>
       <use xlink:href="#m6c18df2428" x="58.293625" y="101.411505" style="fill: #333333; stroke: #000000"/>
      </g>
     </g>
     <g id="text_8">
      <!-- 0.0004 -->
      <g style="fill: #4d4d4d" transform="translate(22.551875 103.839755)scale(0.088 -0.088)">
       <defs>
        <path id="DejaVuSans-34" d="M 2419 4116 
L 825 1625 
L 2419 1625 
L 2419 4116 
z
M 2253 4666 
L 3047 4666 
L 3047 1625 
L 3713 1625 
L 3713 1100 
L 3047 1100 
L 3047 0 
L 2419 0 
L 2419 1100 
L 313 1100 
L 313 1709 
L 2253 4666 
z
" transform="scale(0.015625)"/>
       </defs>
       <use xlink:href="#DejaVuSans-30"/>
       <use xlink:href="#DejaVuSans-2e" x="63.623047"/>
       <use xlink:href="#DejaVuSans-30" x="95.410156"/>
       <use xlink:href="#DejaVuSans-30" x="159.033203"/>
       <use xlink:href="#DejaVuSans-30" x="222.65625"/>
       <use xlink:href="#DejaVuSans-34" x="286.279297"/>
      </g>
     </g>
    </g>
    <g id="ytick_5">
     <g id="line2d_18">
      <path d="M 58.293625 50.185942 
L 415.413625 50.185942 
" clip-path="url(#p25a2343b6c)" style="fill: none; stroke: #ffffff"/>
     </g>
     <g id="line2d_19">
      <path d="M 58.293625 50.185942 
" style="fill: none; stroke: #333333; stroke-width: 1.5"/>
      <g>
       <use xlink:href="#m6c18df2428" x="58.293625" y="50.185942" style="fill: #333333; stroke: #000000"/>
      </g>
     </g>
     <g id="text_9">
      <!-- 0.0005 -->
      <g style="fill: #4d4d4d" transform="translate(22.551875 52.614192)scale(0.088 -0.088)">
       <defs>
        <path id="DejaVuSans-35" d="M 691 4666 
L 3169 4666 
L 3169 4134 
L 1269 4134 
L 1269 2991 
Q 1406 3038 1543 3061 
Q 1681 3084 1819 3084 
Q 2600 3084 3056 2656 
Q 3513 2228 3513 1497 
Q 3513 744 3044 326 
Q 2575 -91 1722 -91 
Q 1428 -91 1123 -41 
Q 819 9 494 109 
L 494 744 
Q 775 591 1075 516 
Q 1375 441 1709 441 
Q 2250 441 2565 725 
Q 2881 1009 2881 1497 
Q 2881 1984 2565 2268 
Q 2250 2553 1709 2553 
Q 1456 2553 1204 2497 
Q 953 2441 691 2322 
L 691 4666 
z
" transform="scale(0.015625)"/>
       </defs>
       <use xlink:href="#DejaVuSans-30"/>
       <use xlink:href="#DejaVuSans-2e" x="63.623047"/>
       <use xlink:href="#DejaVuSans-30" x="95.410156"/>
       <use xlink:href="#DejaVuSans-30" x="159.033203"/>
       <use xlink:href="#DejaVuSans-30" x="222.65625"/>
       <use xlink:href="#DejaVuSans-35" x="286.279297"/>
      </g>
     </g>
    </g>
    <g id="ytick_6">
     <g id="line2d_20">
      <path d="M 58.293625 280.700975 
L 415.413625 280.700975 
" clip-path="url(#p25a2343b6c)" style="fill: none; stroke: #ffffff; stroke-width: 0.5"/>
     </g>
    </g>
    <g id="ytick_7">
     <g id="line2d_21">
      <path d="M 58.293625 229.475412 
L 415.413625 229.475412 
" clip-path="url(#p25a2343b6c)" style="fill: none; stroke: #ffffff; stroke-width: 0.5"/>
     </g>
    </g>
    <g id="ytick_8">
     <g id="line2d_22">
      <path d="M 58.293625 178.249849 
L 415.413625 178.249849 
" clip-path="url(#p25a2343b6c)" style="fill: none; stroke: #ffffff; stroke-width: 0.5"/>
     </g>
    </g>
    <g id="ytick_9">
     <g id="line2d_23">
      <path d="M 58.293625 127.024286 
L 415.413625 127.024286 
" clip-path="url(#p25a2343b6c)" style="fill: none; stroke: #ffffff; stroke-width: 0.5"/>
     </g>
    </g>
    <g id="ytick_10">
     <g id="line2d_24">
      <path d="M 58.293625 75.798723 
L 415.413625 75.798723 
" clip-path="url(#p25a2343b6c)" style="fill: none; stroke: #ffffff; stroke-width: 0.5"/>
     </g>
    </g>
    <g id="text_10">
     <!-- unit_weight -->
     <g transform="translate(15.558281 189.382355)rotate(-90)scale(0.11 -0.11)">
      <defs>
       <path id="DejaVuSans-6e" d="M 3513 2113 
L 3513 0 
L 2938 0 
L 2938 2094 
Q 2938 2591 2744 2837 
Q 2550 3084 2163 3084 
Q 1697 3084 1428 2787 
Q 1159 2491 1159 1978 
L 1159 0 
L 581 0 
L 581 3500 
L 1159 3500 
L 1159 2956 
Q 1366 3272 1645 3428 
Q 1925 3584 2291 3584 
Q 2894 3584 3203 3211 
Q 3513 2838 3513 2113 
z
" transform="scale(0.015625)"/>
       <path id="DejaVuSans-69" d="M 603 3500 
L 1178 3500 
L 1178 0 
L 603 0 
L 603 3500 
z
M 603 4863 
L 1178 4863 
L 1178 4134 
L 603 4134 
L 603 4863 
z
" transform="scale(0.015625)"/>
       <path id="DejaVuSans-74" d="M 1172 4494 
L 1172 3500 
L 2356 3500 
L 2356 3053 
L 1172 3053 
L 1172 1153 
Q 1172 725 1289 603 
Q 1406 481 1766 481 
L 2356 481 
L 2356 0 
L 1766 0 
Q 1100 0 847 248 
Q 594 497 594 1153 
L 594 3053 
L 172 3053 
L 172 3500 
L 594 3500 
L 594 4494 
L 1172 4494 
z
" transform="scale(0.015625)"/>
       <path id="DejaVuSans-77" d="M 269 3500 
L 844 3500 
L 1563 769 
L 2278 3500 
L 2956 3500 
L 3675 769 
L 4391 3500 
L 4966 3500 
L 4050 0 
L 3372 0 
L 2619 2869 
L 1863 0 
L 1184 0 
L 269 3500 
z
" transform="scale(0.015625)"/>
       <path id="DejaVuSans-68" d="M 3513 2113 
L 3513 0 
L 2938 0 
L 2938 2094 
Q 2938 2591 2744 2837 
Q 2550 3084 2163 3084 
Q 1697 3084 1428 2787 
Q 1159 2491 1159 1978 
L 1159 0 
L 581 0 
L 581 4863 
L 1159 4863 
L 1159 2956 
Q 1366 3272 1645 3428 
Q 1925 3584 2291 3584 
Q 2894 3584 3203 3211 
Q 3513 2838 3513 2113 
z
" transform="scale(0.015625)"/>
      </defs>
      <use xlink:href="#DejaVuSans-75"/>
      <use xlink:href="#DejaVuSans-6e" x="63.378906"/>
      <use xlink:href="#DejaVuSans-69" x="126.757812"/>
      <use xlink:href="#DejaVuSans-74" x="154.541016"/>
      <use xlink:href="#DejaVuSans-5f" x="193.75"/>
      <use xlink:href="#DejaVuSans-77" x="243.75"/>
      <use xlink:href="#DejaVuSans-65" x="325.537109"/>
      <use xlink:href="#DejaVuSans-69" x="387.060547"/>
      <use xlink:href="#DejaVuSans-67" x="414.84375"/>
      <use xlink:href="#DejaVuSans-68" x="478.320312"/>
      <use xlink:href="#DejaVuSans-74" x="541.699219"/>
     </g>
    </g>
   </g>
   <g id="PolyCollection_1">
    <path d="M 74.526352 268.980943 
L 74.526352 280.121371 
L 78.635903 277.106563 
L 82.745455 274.092826 
L 86.855006 271.080227 
L 90.964557 268.068832 
L 95.074108 265.058718 
L 99.18366 262.049961 
L 103.293211 259.042647 
L 107.402762 256.036867 
L 111.512313 253.032715 
L 115.621864 250.030295 
L 119.731416 247.029717 
L 123.840967 244.031096 
L 127.950518 241.034556 
L 132.060069 238.040229 
L 136.16962 235.048252 
L 140.279172 232.058773 
L 144.388723 229.071943 
L 148.498274 226.087924 
L 152.607825 223.106884 
L 156.717376 220.128996 
L 160.826928 217.154438 
L 164.936479 214.183395 
L 169.04603 211.216051 
L 173.155581 208.252595 
L 177.265132 205.293212 
L 181.374684 202.338086 
L 185.484235 199.387395 
L 189.593786 196.441309 
L 193.703337 193.499986 
L 197.812889 190.563571 
L 201.92244 187.632192 
L 206.031991 184.705957 
L 210.141542 181.784952 
L 214.251093 178.86924 
L 218.360645 175.958857 
L 222.470196 173.053814 
L 226.579747 170.154094 
L 230.689298 167.259655 
L 234.798849 164.370429 
L 238.908401 161.486325 
L 243.017952 158.607229 
L 247.127503 155.733011 
L 251.237054 152.863523 
L 255.346605 149.998602 
L 259.456157 147.138077 
L 263.565708 144.281768 
L 267.675259 141.429492 
L 271.78481 138.581062 
L 275.894361 135.73629 
L 280.003913 132.894991 
L 284.113464 130.056982 
L 288.223015 127.222087 
L 292.332566 124.390132 
L 296.442118 121.560951 
L 300.551669 118.734386 
L 304.66122 115.910285 
L 308.770771 113.088503 
L 312.880322 110.268904 
L 316.989874 107.451358 
L 321.099425 104.635743 
L 325.208976 101.821944 
L 329.318527 99.009854 
L 333.428078 96.199371 
L 337.53763 93.3904 
L 341.647181 90.582853 
L 345.756732 87.776646 
L 349.866283 84.971702 
L 353.975834 82.167947 
L 358.085386 79.365315 
L 362.194937 76.56374 
L 366.304488 73.763164 
L 370.414039 70.963532 
L 374.52359 68.164791 
L 378.633142 65.366892 
L 382.742693 62.569791 
L 386.852244 59.773444 
L 390.961795 56.977812 
L 395.071347 54.182858 
L 399.180898 51.388547 
L 399.180898 38.201371 
L 399.180898 38.201371 
L 395.071347 41.223672 
L 390.961795 44.24533 
L 386.852244 47.266311 
L 382.742693 50.286577 
L 378.633142 53.306089 
L 374.52359 56.324803 
L 370.414039 59.342674 
L 366.304488 62.359654 
L 362.194937 65.375691 
L 358.085386 68.390729 
L 353.975834 71.404709 
L 349.866283 74.417567 
L 345.756732 77.429236 
L 341.647181 80.439641 
L 337.53763 83.448707 
L 333.428078 86.456349 
L 329.318527 89.462478 
L 325.208976 92.467001 
L 321.099425 95.469815 
L 316.989874 98.470812 
L 312.880322 101.469879 
L 308.770771 104.466892 
L 304.66122 107.461723 
L 300.551669 110.454234 
L 296.442118 113.444282 
L 292.332566 116.431714 
L 288.223015 119.416372 
L 284.113464 122.398089 
L 280.003913 125.376693 
L 275.894361 128.352006 
L 271.78481 131.323847 
L 267.675259 134.292029 
L 263.565708 137.256366 
L 259.456157 140.21667 
L 255.346605 143.172758 
L 251.237054 146.124449 
L 247.127503 149.071573 
L 243.017952 152.013967 
L 238.908401 154.951485 
L 234.798849 157.883993 
L 230.689298 160.81138 
L 226.579747 163.733553 
L 222.470196 166.650446 
L 218.360645 169.562015 
L 214.251093 172.468245 
L 210.141542 175.369145 
L 206.031991 178.264753 
L 201.92244 181.155131 
L 197.812889 184.040364 
L 193.703337 186.920562 
L 189.593786 189.795852 
L 185.484235 192.666378 
L 181.374684 195.5323 
L 177.265132 198.393787 
L 173.155581 201.251017 
L 169.04603 204.104173 
L 164.936479 206.953442 
L 160.826928 209.799011 
L 156.717376 212.641066 
L 152.607825 215.47979 
L 148.498274 218.315363 
L 144.388723 221.147957 
L 140.279172 223.97774 
L 136.16962 226.804872 
L 132.060069 229.629508 
L 127.950518 232.451794 
L 123.840967 235.271867 
L 119.731416 238.089858 
L 115.621864 240.905893 
L 111.512313 243.720085 
L 107.402762 246.532546 
L 103.293211 249.343378 
L 99.18366 252.152677 
L 95.074108 254.960533 
L 90.964557 257.767031 
L 86.855006 260.57225 
L 82.745455 263.376262 
L 78.635903 266.179139 
L 74.526352 268.980943 
z
" clip-path="url(#p25a2343b6c)" style="fill: #6495ed; fill-opacity: 0.298039"/>
   </g>
   <g id="line2d_25">
    <path d="M 74.526352 274.551157 
L 78.635903 271.642851 
L 82.745455 268.734544 
L 86.855006 265.826238 
L 90.964557 262.917932 
L 95.074108 260.009625 
L 99.18366 257.101319 
L 103.293211 254.193013 
L 107.402762 251.284707 
L 111.512313 248.3764 
L 115.621864 245.468094 
L 119.731416 242.559788 
L 123.840967 239.651481 
L 127.950518 236.743175 
L 132.060069 233.834869 
L 136.16962 230.926562 
L 140.279172 228.018256 
L 144.388723 225.10995 
L 148.498274 222.201644 
L 152.607825 219.293337 
L 156.717376 216.385031 
L 160.826928 213.476725 
L 164.936479 210.568418 
L 169.04603 207.660112 
L 173.155581 204.751806 
L 177.265132 201.843499 
L 181.374684 198.935193 
L 185.484235 196.026887 
L 189.593786 193.11858 
L 193.703337 190.210274 
L 197.812889 187.301968 
L 201.92244 184.393662 
L 206.031991 181.485355 
L 210.141542 178.577049 
L 214.251093 175.668743 
L 218.360645 172.760436 
L 222.470196 169.85213 
L 226.579747 166.943824 
L 230.689298 164.035517 
L 234.798849 161.127211 
L 238.908401 158.218905 
L 243.017952 155.310598 
L 247.127503 152.402292 
L 251.237054 149.493986 
L 255.346605 146.58568 
L 259.456157 143.677373 
L 263.565708 140.769067 
L 267.675259 137.860761 
L 271.78481 134.952454 
L 275.894361 132.044148 
L 280.003913 129.135842 
L 284.113464 126.227535 
L 288.223015 123.319229 
L 292.332566 120.410923 
L 296.442118 117.502617 
L 300.551669 114.59431 
L 304.66122 111.686004 
L 308.770771 108.777698 
L 312.880322 105.869391 
L 316.989874 102.961085 
L 321.099425 100.052779 
L 325.208976 97.144472 
L 329.318527 94.236166 
L 333.428078 91.32786 
L 337.53763 88.419553 
L 341.647181 85.511247 
L 345.756732 82.602941 
L 349.866283 79.694635 
L 353.975834 76.786328 
L 358.085386 73.878022 
L 362.194937 70.969716 
L 366.304488 68.061409 
L 370.414039 65.153103 
L 374.52359 62.244797 
L 378.633142 59.33649 
L 382.742693 56.428184 
L 386.852244 53.519878 
L 390.961795 50.611571 
L 395.071347 47.703265 
L 399.180898 44.794959 
" clip-path="url(#p25a2343b6c)" style="fill: none; stroke: #6495ed; stroke-width: 1.772454; stroke-linejoin: miter"/>
   </g>
   <g id="PathCollection_1">
    <path d="M 74.526352 273.234911 
C 75.113928 273.234911 75.677516 273.001465 76.092995 272.585986 
C 76.508473 272.170508 76.74192 271.606919 76.74192 271.019343 
C 76.74192 270.431768 76.508473 269.868179 76.092995 269.452701 
C 75.677516 269.037222 75.113928 268.803776 74.526352 268.803776 
C 73.938777 268.803776 73.375188 269.037222 72.95971 269.452701 
C 72.544231 269.868179 72.310785 270.431768 72.310785 271.019343 
C 72.310785 271.606919 72.544231 272.170508 72.95971 272.585986 
C 73.375188 273.001465 73.938777 273.234911 74.526352 273.234911 
z
" clip-path="url(#p25a2343b6c)" style="fill: #4682b4; stroke: #4682b4; stroke-width: 0.886227"/>
    <path d="M 82.825792 268.470933 
C 83.413367 268.470933 83.976956 268.237487 84.392434 267.822009 
C 84.807913 267.40653 85.041359 266.842941 85.041359 266.255366 
C 85.041359 265.667791 84.807913 265.104202 84.392434 264.688723 
C 83.976956 264.273245 83.413367 264.039799 82.825792 264.039799 
C 82.238216 264.039799 81.674628 264.273245 81.259149 264.688723 
C 80.843671 265.104202 80.610224 265.667791 80.610224 266.255366 
C 80.610224 266.842941 80.843671 267.40653 81.259149 267.822009 
C 81.674628 268.237487 82.238216 268.470933 82.825792 268.470933 
z
" clip-path="url(#p25a2343b6c)" style="fill: #4682b4; stroke: #4682b4; stroke-width: 0.886227"/>
    <path d="M 92.101636 262.784896 
C 92.689211 262.784896 93.2528 262.55145 93.668279 262.135971 
C 94.083757 261.720493 94.317203 261.156904 94.317203 260.569329 
C 94.317203 259.981753 94.083757 259.418164 93.668279 259.002686 
C 93.2528 258.587207 92.689211 258.353761 92.101636 258.353761 
C 91.514061 258.353761 90.950472 258.587207 90.534993 259.002686 
C 90.119515 259.418164 89.886069 259.981753 89.886069 260.569329 
C 89.886069 261.156904 90.119515 261.720493 90.534993 262.135971 
C 90.950472 262.55145 91.514061 262.784896 92.101636 262.784896 
z
" clip-path="url(#p25a2343b6c)" style="fill: #4682b4; stroke: #4682b4; stroke-width: 0.886227"/>
    <path d="M 102.353885 257.764791 
C 102.94146 257.764791 103.505049 257.531345 103.920527 257.115866 
C 104.336006 256.700388 104.569452 256.136799 104.569452 255.549223 
C 104.569452 254.961648 104.336006 254.398059 103.920527 253.982581 
C 103.505049 253.567102 102.94146 253.333656 102.353885 253.333656 
C 101.766309 253.333656 101.202721 253.567102 100.787242 253.982581 
C 100.371764 254.398059 100.138317 254.961648 100.138317 255.549223 
C 100.138317 256.136799 100.371764 256.700388 100.787242 257.115866 
C 101.202721 257.531345 101.766309 257.764791 102.353885 257.764791 
z
" clip-path="url(#p25a2343b6c)" style="fill: #4682b4; stroke: #4682b4; stroke-width: 0.886227"/>
    <path d="M 113.582538 256.381701 
C 114.170114 256.381701 114.733702 256.148254 115.149181 255.732776 
C 115.564659 255.317297 115.798106 254.753709 115.798106 254.166133 
C 115.798106 253.578558 115.564659 253.014969 115.149181 252.599491 
C 114.733702 252.184012 114.170114 251.950566 113.582538 251.950566 
C 112.994963 251.950566 112.431374 252.184012 112.015896 252.599491 
C 111.600417 253.014969 111.366971 253.578558 111.366971 254.166133 
C 111.366971 254.753709 111.600417 255.317297 112.015896 255.732776 
C 112.431374 256.148254 112.994963 256.381701 113.582538 256.381701 
z
" clip-path="url(#p25a2343b6c)" style="fill: #4682b4; stroke: #4682b4; stroke-width: 0.886227"/>
    <path d="M 125.787596 245.009626 
C 126.375172 245.009626 126.93876 244.776179 127.354239 244.360701 
C 127.769717 243.945222 128.003164 243.381634 128.003164 242.794058 
C 128.003164 242.206483 127.769717 241.642894 127.354239 241.227416 
C 126.93876 240.811937 126.375172 240.578491 125.787596 240.578491 
C 125.200021 240.578491 124.636432 240.811937 124.220954 241.227416 
C 123.805475 241.642894 123.572029 242.206483 123.572029 242.794058 
C 123.572029 243.381634 123.805475 243.945222 124.220954 244.360701 
C 124.636432 244.776179 125.200021 245.009626 125.787596 245.009626 
z
" clip-path="url(#p25a2343b6c)" style="fill: #4682b4; stroke: #4682b4; stroke-width: 0.886227"/>
    <path d="M 138.969059 242.806926 
C 139.556634 242.806926 140.120223 242.57348 140.535702 242.158002 
C 140.95118 241.742523 141.184626 241.178934 141.184626 240.591359 
C 141.184626 240.003784 140.95118 239.440195 140.535702 239.024716 
C 140.120223 238.609238 139.556634 238.375792 138.969059 238.375792 
C 138.381484 238.375792 137.817895 238.609238 137.402416 239.024716 
C 136.986938 239.440195 136.753492 240.003784 136.753492 240.591359 
C 136.753492 241.178934 136.986938 241.742523 137.402416 242.158002 
C 137.817895 242.57348 138.381484 242.806926 138.969059 242.806926 
z
" clip-path="url(#p25a2343b6c)" style="fill: #4682b4; stroke: #4682b4; stroke-width: 0.886227"/>
    <path d="M 153.126926 224.826754 
C 153.714502 224.826754 154.278091 224.593308 154.693569 224.177829 
C 155.109048 223.762351 155.342494 223.198762 155.342494 222.611186 
C 155.342494 222.023611 155.109048 221.460022 154.693569 221.044544 
C 154.278091 220.629065 153.714502 220.395619 153.126926 220.395619 
C 152.539351 220.395619 151.975762 220.629065 151.560284 221.044544 
C 151.144805 221.460022 150.911359 222.023611 150.911359 222.611186 
C 150.911359 223.198762 151.144805 223.762351 151.560284 224.177829 
C 151.975762 224.593308 152.539351 224.826754 153.126926 224.826754 
z
" clip-path="url(#p25a2343b6c)" style="fill: #4682b4; stroke: #4682b4; stroke-width: 0.886227"/>
    <path d="M 168.261198 211.405656 
C 168.848774 211.405656 169.412363 211.17221 169.827841 210.756732 
C 170.24332 210.341253 170.476766 209.777664 170.476766 209.190089 
C 170.476766 208.602514 170.24332 208.038925 169.827841 207.623446 
C 169.412363 207.207968 168.848774 206.974522 168.261198 206.974522 
C 167.673623 206.974522 167.110034 207.207968 166.694556 207.623446 
C 166.279077 208.038925 166.045631 208.602514 166.045631 209.190089 
C 166.045631 209.777664 166.279077 210.341253 166.694556 210.756732 
C 167.110034 211.17221 167.673623 211.405656 168.261198 211.405656 
z
" clip-path="url(#p25a2343b6c)" style="fill: #4682b4; stroke: #4682b4; stroke-width: 0.886227"/>
    <path d="M 176.194486 192.237051 
C 176.782062 192.237051 177.34565 192.003604 177.761129 191.588126 
C 178.176607 191.172647 178.410054 190.609059 178.410054 190.021483 
C 178.410054 189.433908 178.176607 188.870319 177.761129 188.454841 
C 177.34565 188.039362 176.782062 187.805916 176.194486 187.805916 
C 175.606911 187.805916 175.043322 188.039362 174.627844 188.454841 
C 174.212365 188.870319 173.978919 189.433908 173.978919 190.021483 
C 173.978919 190.609059 174.212365 191.172647 174.627844 191.588126 
C 175.043322 192.003604 175.606911 192.237051 176.194486 192.237051 
z
" clip-path="url(#p25a2343b6c)" style="fill: #4682b4; stroke: #4682b4; stroke-width: 0.886227"/>
    <path d="M 184.371875 188.712732 
C 184.95945 188.712732 185.523039 188.479286 185.938518 188.063807 
C 186.353996 187.648329 186.587442 187.08474 186.587442 186.497165 
C 186.587442 185.909589 186.353996 185.346 185.938518 184.930522 
C 185.523039 184.515043 184.95945 184.281597 184.371875 184.281597 
C 183.7843 184.281597 183.220711 184.515043 182.805232 184.930522 
C 182.389754 185.346 182.156308 185.909589 182.156308 186.497165 
C 182.156308 187.08474 182.389754 187.648329 182.805232 188.063807 
C 183.220711 188.479286 183.7843 188.712732 184.371875 188.712732 
z
" clip-path="url(#p25a2343b6c)" style="fill: #4682b4; stroke: #4682b4; stroke-width: 0.886227"/>
    <path d="M 201.458957 187.380867 
C 202.046532 187.380867 202.610121 187.147421 203.025599 186.731943 
C 203.441078 186.316464 203.674524 185.752875 203.674524 185.1653 
C 203.674524 184.577725 203.441078 184.014136 203.025599 183.598657 
C 202.610121 183.183179 202.046532 182.949733 201.458957 182.949733 
C 200.871381 182.949733 200.307792 183.183179 199.892314 183.598657 
C 199.476835 184.014136 199.243389 184.577725 199.243389 185.1653 
C 199.243389 185.752875 199.476835 186.316464 199.892314 186.731943 
C 200.307792 187.147421 200.871381 187.380867 201.458957 187.380867 
z
" clip-path="url(#p25a2343b6c)" style="fill: #4682b4; stroke: #4682b4; stroke-width: 0.886227"/>
    <path d="M 219.522442 172.525454 
C 220.110018 172.525454 220.673607 172.292008 221.089085 171.876529 
C 221.504564 171.461051 221.73801 170.897462 221.73801 170.309887 
C 221.73801 169.722311 221.504564 169.158723 221.089085 168.743244 
C 220.673607 168.327766 220.110018 168.094319 219.522442 168.094319 
C 218.934867 168.094319 218.371278 168.327766 217.9558 168.743244 
C 217.540321 169.158723 217.306875 169.722311 217.306875 170.309887 
C 217.306875 170.897462 217.540321 171.461051 217.9558 171.876529 
C 218.371278 172.292008 218.934867 172.525454 219.522442 172.525454 
z
" clip-path="url(#p25a2343b6c)" style="fill: #4682b4; stroke: #4682b4; stroke-width: 0.886227"/>
    <path d="M 238.562333 150.959492 
C 239.149908 150.959492 239.713497 150.726046 240.128976 150.310567 
C 240.544454 149.895089 240.7779 149.3315 240.7779 148.743925 
C 240.7779 148.156349 240.544454 147.592761 240.128976 147.177282 
C 239.713497 146.761804 239.149908 146.528357 238.562333 146.528357 
C 237.974758 146.528357 237.411169 146.761804 236.99569 147.177282 
C 236.580212 147.592761 236.346766 148.156349 236.346766 148.743925 
C 236.346766 149.3315 236.580212 149.895089 236.99569 150.310567 
C 237.411169 150.726046 237.974758 150.959492 238.562333 150.959492 
z
" clip-path="url(#p25a2343b6c)" style="fill: #4682b4; stroke: #4682b4; stroke-width: 0.886227"/>
    <path d="M 258.578628 148.603116 
C 259.166204 148.603116 259.729793 148.36967 260.145271 147.954191 
C 260.56075 147.538713 260.794196 146.975124 260.794196 146.387549 
C 260.794196 145.799973 260.56075 145.236385 260.145271 144.820906 
C 259.729793 144.405428 259.166204 144.171981 258.578628 144.171981 
C 257.991053 144.171981 257.427464 144.405428 257.011986 144.820906 
C 256.596507 145.236385 256.363061 145.799973 256.363061 146.387549 
C 256.363061 146.975124 256.596507 147.538713 257.011986 147.954191 
C 257.427464 148.36967 257.991053 148.603116 258.578628 148.603116 
z
" clip-path="url(#p25a2343b6c)" style="fill: #4682b4; stroke: #4682b4; stroke-width: 0.886227"/>
    <path d="M 268.952928 144.797057 
C 269.540503 144.797057 270.104092 144.563611 270.51957 144.148132 
C 270.935049 143.732654 271.168495 143.169065 271.168495 142.581489 
C 271.168495 141.993914 270.935049 141.430325 270.51957 141.014847 
C 270.104092 140.599368 269.540503 140.365922 268.952928 140.365922 
C 268.365352 140.365922 267.801764 140.599368 267.386285 141.014847 
C 266.970807 141.430325 266.73736 141.993914 266.73736 142.581489 
C 266.73736 143.169065 266.970807 143.732654 267.386285 144.148132 
C 267.801764 144.563611 268.365352 144.797057 268.952928 144.797057 
z
" clip-path="url(#p25a2343b6c)" style="fill: #4682b4; stroke: #4682b4; stroke-width: 0.886227"/>
    <path d="M 279.571328 143.839139 
C 280.158904 143.839139 280.722493 143.605693 281.137971 143.190214 
C 281.55345 142.774736 281.786896 142.211147 281.786896 141.623571 
C 281.786896 141.035996 281.55345 140.472407 281.137971 140.056929 
C 280.722493 139.64145 280.158904 139.408004 279.571328 139.408004 
C 278.983753 139.408004 278.420164 139.64145 278.004686 140.056929 
C 277.589207 140.472407 277.355761 141.035996 277.355761 141.623571 
C 277.355761 142.211147 277.589207 142.774736 278.004686 143.190214 
C 278.420164 143.605693 278.983753 143.839139 279.571328 143.839139 
z
" clip-path="url(#p25a2343b6c)" style="fill: #4682b4; stroke: #4682b4; stroke-width: 0.886227"/>
    <path d="M 301.540433 113.564831 
C 302.128008 113.564831 302.691597 113.331385 303.107076 112.915906 
C 303.522554 112.500428 303.756 111.936839 303.756 111.349264 
C 303.756 110.761688 303.522554 110.1981 303.107076 109.782621 
C 302.691597 109.367143 302.128008 109.133696 301.540433 109.133696 
C 300.952858 109.133696 300.389269 109.367143 299.97379 109.782621 
C 299.558312 110.1981 299.324866 110.761688 299.324866 111.349264 
C 299.324866 111.936839 299.558312 112.500428 299.97379 112.915906 
C 300.389269 113.331385 300.952858 113.564831 301.540433 113.564831 
z
" clip-path="url(#p25a2343b6c)" style="fill: #4682b4; stroke: #4682b4; stroke-width: 0.886227"/>
    <path d="M 324.485942 100.963343 
C 325.073517 100.963343 325.637106 100.729896 326.052585 100.314418 
C 326.468063 99.898939 326.701509 99.335351 326.701509 98.747775 
C 326.701509 98.1602 326.468063 97.596611 326.052585 97.181133 
C 325.637106 96.765654 325.073517 96.532208 324.485942 96.532208 
C 323.898367 96.532208 323.334778 96.765654 322.919299 97.181133 
C 322.503821 97.596611 322.270375 98.1602 322.270375 98.747775 
C 322.270375 99.335351 322.503821 99.898939 322.919299 100.314418 
C 323.334778 100.729896 323.898367 100.963343 324.485942 100.963343 
z
" clip-path="url(#p25a2343b6c)" style="fill: #4682b4; stroke: #4682b4; stroke-width: 0.886227"/>
    <path d="M 348.407856 67.308148 
C 348.995431 67.308148 349.55902 67.074702 349.974499 66.659223 
C 350.389977 66.243745 350.623423 65.680156 350.623423 65.09258 
C 350.623423 64.505005 350.389977 63.941416 349.974499 63.525938 
C 349.55902 63.110459 348.995431 62.877013 348.407856 62.877013 
C 347.820281 62.877013 347.256692 63.110459 346.841213 63.525938 
C 346.425735 63.941416 346.192289 64.505005 346.192289 65.09258 
C 346.192289 65.680156 346.425735 66.243745 346.841213 66.659223 
C 347.256692 67.074702 347.820281 67.308148 348.407856 67.308148 
z
" clip-path="url(#p25a2343b6c)" style="fill: #4682b4; stroke: #4682b4; stroke-width: 0.886227"/>
    <path d="M 373.306175 63.261328 
C 373.89375 63.261328 374.457339 63.027882 374.872817 62.612404 
C 375.288296 62.196925 375.521742 61.633336 375.521742 61.045761 
C 375.521742 60.458186 375.288296 59.894597 374.872817 59.479118 
C 374.457339 59.06364 373.89375 58.830194 373.306175 58.830194 
C 372.718599 58.830194 372.15501 59.06364 371.739532 59.479118 
C 371.324053 59.894597 371.090607 60.458186 371.090607 61.045761 
C 371.090607 61.633336 371.324053 62.196925 371.739532 62.612404 
C 372.15501 63.027882 372.718599 63.261328 373.306175 63.261328 
z
" clip-path="url(#p25a2343b6c)" style="fill: #4682b4; stroke: #4682b4; stroke-width: 0.886227"/>
    <path d="M 386.121486 58.543454 
C 386.709061 58.543454 387.27265 58.310008 387.688128 57.894529 
C 388.103607 57.479051 388.337053 56.915462 388.337053 56.327887 
C 388.337053 55.740311 388.103607 55.176722 387.688128 54.761244 
C 387.27265 54.345765 386.709061 54.112319 386.121486 54.112319 
C 385.53391 54.112319 384.970321 54.345765 384.554843 54.761244 
C 384.139364 55.176722 383.905918 55.740311 383.905918 56.327887 
C 383.905918 56.915462 384.139364 57.479051 384.554843 57.894529 
C 384.970321 58.310008 385.53391 58.543454 386.121486 58.543454 
z
" clip-path="url(#p25a2343b6c)" style="fill: #4682b4; stroke: #4682b4; stroke-width: 0.886227"/>
    <path d="M 399.180898 56.499554 
C 399.768473 56.499554 400.332062 56.266108 400.74754 55.850629 
C 401.163019 55.435151 401.396465 54.871562 401.396465 54.283987 
C 401.396465 53.696411 401.163019 53.132823 400.74754 52.717344 
C 400.332062 52.301866 399.768473 52.068419 399.180898 52.068419 
C 398.593322 52.068419 398.029734 52.301866 397.614255 52.717344 
C 397.198777 53.132823 396.96533 53.696411 396.96533 54.283987 
C 396.96533 54.871562 397.198777 55.435151 397.614255 55.850629 
C 398.029734 56.266108 398.593322 56.499554 399.180898 56.499554 
z
" clip-path="url(#p25a2343b6c)" style="fill: #4682b4; stroke: #4682b4; stroke-width: 0.886227"/>
   </g>
  </g>
  <g id="text_11">
   <!-- nickel-plated steel -->
   <g transform="translate(170.604625 17.229938)scale(0.132 -0.132)">
    <defs>
     <path id="DejaVuSans-63" d="M 3122 3366 
L 3122 2828 
Q 2878 2963 2633 3030 
Q 2388 3097 2138 3097 
Q 1578 3097 1268 2742 
Q 959 2388 959 1747 
Q 959 1106 1268 751 
Q 1578 397 2138 397 
Q 2388 397 2633 464 
Q 2878 531 3122 666 
L 3122 134 
Q 2881 22 2623 -34 
Q 2366 -91 2075 -91 
Q 1284 -91 818 406 
Q 353 903 353 1747 
Q 353 2603 823 3093 
Q 1294 3584 2113 3584 
Q 2378 3584 2631 3529 
Q 2884 3475 3122 3366 
z
" transform="scale(0.015625)"/>
     <path id="DejaVuSans-6b" d="M 581 4863 
L 1159 4863 
L 1159 1991 
L 2875 3500 
L 3609 3500 
L 1753 1863 
L 3688 0 
L 2938 0 
L 1159 1709 
L 1159 0 
L 581 0 
L 581 4863 
z
" transform="scale(0.015625)"/>
     <path id="DejaVuSans-6c" d="M 603 4863 
L 1178 4863 
L 1178 0 
L 603 0 
L 603 4863 
z
" transform="scale(0.015625)"/>
     <path id="DejaVuSans-2d" d="M 313 2009 
L 1997 2009 
L 1997 1497 
L 313 1497 
L 313 2009 
z
" transform="scale(0.015625)"/>
     <path id="DejaVuSans-70" d="M 1159 525 
L 1159 -1331 
L 581 -1331 
L 581 3500 
L 1159 3500 
L 1159 2969 
Q 1341 3281 1617 3432 
Q 1894 3584 2278 3584 
Q 2916 3584 3314 3078 
Q 3713 2572 3713 1747 
Q 3713 922 3314 415 
Q 2916 -91 2278 -91 
Q 1894 -91 1617 61 
Q 1341 213 1159 525 
z
M 3116 1747 
Q 3116 2381 2855 2742 
Q 2594 3103 2138 3103 
Q 1681 3103 1420 2742 
Q 1159 2381 1159 1747 
Q 1159 1113 1420 752 
Q 1681 391 2138 391 
Q 2594 391 2855 752 
Q 3116 1113 3116 1747 
z
" transform="scale(0.015625)"/>
     <path id="DejaVuSans-64" d="M 2906 2969 
L 2906 4863 
L 3481 4863 
L 3481 0 
L 2906 0 
L 2906 525 
Q 2725 213 2448 61 
Q 2172 -91 1784 -91 
Q 1150 -91 751 415 
Q 353 922 353 1747 
Q 353 2572 751 3078 
Q 1150 3584 1784 3584 
Q 2172 3584 2448 3432 
Q 2725 3281 2906 2969 
z
M 947 1747 
Q 947 1113 1208 752 
Q 1469 391 1925 391 
Q 2381 391 2643 752 
Q 2906 1113 2906 1747 
Q 2906 2381 2643 2742 
Q 2381 3103 1925 3103 
Q 1469 3103 1208 2742 
Q 947 2381 947 1747 
z
" transform="scale(0.015625)"/>
     <path id="DejaVuSans-20" transform="scale(0.015625)"/>
    </defs>
    <use xlink:href="#DejaVuSans-6e"/>
    <use xlink:href="#DejaVuSans-69" x="63.378906"/>
    <use xlink:href="#DejaVuSans-63" x="91.162109"/>
    <use xlink:href="#DejaVuSans-6b" x="146.142578"/>
    <use xlink:href="#DejaVuSans-65" x="200.427734"/>
    <use xlink:href="#DejaVuSans-6c" x="261.951172"/>
    <use xlink:href="#DejaVuSans-2d" x="289.734375"/>
    <use xlink:href="#DejaVuSans-70" x="325.818359"/>
    <use xlink:href="#DejaVuSans-6c" x="389.294922"/>
    <use xlink:href="#DejaVuSans-61" x="417.078125"/>
    <use xlink:href="#DejaVuSans-74" x="478.357422"/>
    <use xlink:href="#DejaVuSans-65" x="517.566406"/>
    <use xlink:href="#DejaVuSans-64" x="579.089844"/>
    <use xlink:href="#DejaVuSans-20" x="642.566406"/>
    <use xlink:href="#DejaVuSans-73" x="674.353516"/>
    <use xlink:href="#DejaVuSans-74" x="726.453125"/>
    <use xlink:href="#DejaVuSans-65" x="765.662109"/>
    <use xlink:href="#DejaVuSans-65" x="827.185547"/>
    <use xlink:href="#DejaVuSans-6c" x="888.708984"/>
   </g>
  </g>
 </g>
 <defs>
  <clipPath id="p25a2343b6c">
   <rect x="58.293625" y="26.105371" width="357.12" height="266.112"/>
  </clipPath>
 </defs>
</svg>
