<?xml version="1.0" encoding="utf-8" standalone="no"?>
<!DOCTYPE svg PUBLIC "-//W3C//DTD SVG 1.1//EN"
  "http://www.w3.org/Graphics/SVG/1.1/DTD/svg11.dtd">
<svg xmlns:xlink="http://www.w3.org/1999/xlink" width="422.613625pt" height="327.930058pt" viewBox="0 0 422.613625 327.930058" xmlns="http://www.w3.org/2000/svg" version="1.1">
 <metadata>
  <rdf:RDF xmlns:dc="http://purl.org/dc/elements/1.1/" xmlns:cc="http://creativecommons.org/ns#" xmlns:rdf="http://www.w3.org/1999/02/22-rdf-syntax-ns#">
   <cc:Work>
    <dc:type rdf:resource="http://purl.org/dc/dcmitype/StillImage"/>
    <dc:date>2022-02-09T21:10:41.617804</dc:date>
    <dc:format>image/svg+xml</dc:format>
    <dc:creator>
     <cc:Agent>
      <dc:title>Matplotlib v3.5.1, https://matplotlib.org/</dc:title>
     </cc:Agent>
    </dc:creator>
   </cc:Work>
  </rdf:RDF>
 </metadata>
 <defs>
  <style type="text/css">*{stroke-linejoin: round; stroke-linecap: butt}</style>
 </defs>
 <g id="figure_1">
  <g id="patch_1">
   <path d="M 0 327.930058 
L 422.613625 327.930058 
L 422.613625 0 
L 0 0 
z
" style="fill: #ffffff; stroke: #ffffff; stroke-linejoin: miter"/>
  </g>
  <g id="axes_1">
   <g id="patch_2">
    <path d="M 58.293625 292.217371 
L 415.413625 292.217371 
L 415.413625 26.105371 
L 58.293625 26.105371 
z
" style="fill: #ebebeb"/>
   </g>
   <g id="matplotlib.axis_1">
    <g id="xtick_1">
     <g id="line2d_1">
      <path d="M 146.719271 292.217371 
L 146.719271 26.105371 
" clip-path="url(#p595e41bee3)" style="fill: none; stroke: #ffffff"/>
     </g>
     <g id="line2d_2">
      <path d="M 146.719271 292.217371 
" style="fill: none; stroke: #333333; stroke-width: 1.5"/>
      <defs>
       <path id="m3c76b1f70e" d="M 0 0 
L 0 2.75 
" style="stroke: #000000"/>
      </defs>
      <g>
       <use xlink:href="#m3c76b1f70e" x="146.719271" y="292.217371" style="fill: #333333; stroke: #000000"/>
      </g>
     </g>
     <g id="text_1">
      <!-- 0.001 -->
      <g style="fill: #4d4d4d" transform="translate(134.122896 303.853996)scale(0.088 -0.088)">
       <defs>
        <path id="DejaVuSans-30" d="M 2034 4250 
Q 1547 4250 1301 3770 
Q 1056 3291 1056 2328 
Q 1056 1369 1301 889 
Q 1547 409 2034 409 
Q 2525 409 2770 889 
Q 3016 1369 3016 2328 
Q 3016 3291 2770 3770 
Q 2525 4250 2034 4250 
z
M 2034 4750 
Q 2819 4750 3233 4129 
Q 3647 3509 3647 2328 
Q 3647 1150 3233 529 
Q 2819 -91 2034 -91 
Q 1250 -91 836 529 
Q 422 1150 422 2328 
Q 422 3509 836 4129 
Q 1250 4750 2034 4750 
z
" transform="scale(0.015625)"/>
        <path id="DejaVuSans-2e" d="M 684 794 
L 1344 794 
L 1344 0 
L 684 0 
L 684 794 
z
" transform="scale(0.015625)"/>
        <path id="DejaVuSans-31" d="M 794 531 
L 1825 531 
L 1825 4091 
L 703 3866 
L 703 4441 
L 1819 4666 
L 2450 4666 
L 2450 531 
L 3481 531 
L 3481 0 
L 794 0 
L 794 531 
z
" transform="scale(0.015625)"/>
       </defs>
       <use xlink:href="#DejaVuSans-30"/>
       <use xlink:href="#DejaVuSans-2e" x="63.623047"/>
       <use xlink:href="#DejaVuSans-30" x="95.410156"/>
       <use xlink:href="#DejaVuSans-30" x="159.033203"/>
       <use xlink:href="#DejaVuSans-31" x="222.65625"/>
      </g>
     </g>
    </g>
    <g id="xtick_2">
     <g id="line2d_3">
      <path d="M 253.513529 292.217371 
L 253.513529 26.105371 
" clip-path="url(#p595e41bee3)" style="fill: none; stroke: #ffffff"/>
     </g>
     <g id="line2d_4">
      <path d="M 253.513529 292.217371 
" style="fill: none; stroke: #333333; stroke-width: 1.5"/>
      <g>
       <use xlink:href="#m3c76b1f70e" x="253.513529" y="292.217371" style="fill: #333333; stroke: #000000"/>
      </g>
     </g>
     <g id="text_2">
      <!-- 0.002 -->
      <g style="fill: #4d4d4d" transform="translate(240.917154 303.853996)scale(0.088 -0.088)">
       <defs>
        <path id="DejaVuSans-32" d="M 1228 531 
L 3431 531 
L 3431 0 
L 469 0 
L 469 531 
Q 828 903 1448 1529 
Q 2069 2156 2228 2338 
Q 2531 2678 2651 2914 
Q 2772 3150 2772 3378 
Q 2772 3750 2511 3984 
Q 2250 4219 1831 4219 
Q 1534 4219 1204 4116 
Q 875 4013 500 3803 
L 500 4441 
Q 881 4594 1212 4672 
Q 1544 4750 1819 4750 
Q 2544 4750 2975 4387 
Q 3406 4025 3406 3419 
Q 3406 3131 3298 2873 
Q 3191 2616 2906 2266 
Q 2828 2175 2409 1742 
Q 1991 1309 1228 531 
z
" transform="scale(0.015625)"/>
       </defs>
       <use xlink:href="#DejaVuSans-30"/>
       <use xlink:href="#DejaVuSans-2e" x="63.623047"/>
       <use xlink:href="#DejaVuSans-30" x="95.410156"/>
       <use xlink:href="#DejaVuSans-30" x="159.033203"/>
       <use xlink:href="#DejaVuSans-32" x="222.65625"/>
      </g>
     </g>
    </g>
    <g id="xtick_3">
     <g id="line2d_5">
      <path d="M 360.307788 292.217371 
L 360.307788 26.105371 
" clip-path="url(#p595e41bee3)" style="fill: none; stroke: #ffffff"/>
     </g>
     <g id="line2d_6">
      <path d="M 360.307788 292.217371 
" style="fill: none; stroke: #333333; stroke-width: 1.5"/>
      <g>
       <use xlink:href="#m3c76b1f70e" x="360.307788" y="292.217371" style="fill: #333333; stroke: #000000"/>
      </g>
     </g>
     <g id="text_3">
      <!-- 0.003 -->
      <g style="fill: #4d4d4d" transform="translate(347.711413 303.853996)scale(0.088 -0.088)">
       <defs>
        <path id="DejaVuSans-33" d="M 2597 2516 
Q 3050 2419 3304 2112 
Q 3559 1806 3559 1356 
Q 3559 666 3084 287 
Q 2609 -91 1734 -91 
Q 1441 -91 1130 -33 
Q 819 25 488 141 
L 488 750 
Q 750 597 1062 519 
Q 1375 441 1716 441 
Q 2309 441 2620 675 
Q 2931 909 2931 1356 
Q 2931 1769 2642 2001 
Q 2353 2234 1838 2234 
L 1294 2234 
L 1294 2753 
L 1863 2753 
Q 2328 2753 2575 2939 
Q 2822 3125 2822 3475 
Q 2822 3834 2567 4026 
Q 2313 4219 1838 4219 
Q 1578 4219 1281 4162 
Q 984 4106 628 3988 
L 628 4550 
Q 988 4650 1302 4700 
Q 1616 4750 1894 4750 
Q 2613 4750 3031 4423 
Q 3450 4097 3450 3541 
Q 3450 3153 3228 2886 
Q 3006 2619 2597 2516 
z
" transform="scale(0.015625)"/>
       </defs>
       <use xlink:href="#DejaVuSans-30"/>
       <use xlink:href="#DejaVuSans-2e" x="63.623047"/>
       <use xlink:href="#DejaVuSans-30" x="95.410156"/>
       <use xlink:href="#DejaVuSans-30" x="159.033203"/>
       <use xlink:href="#DejaVuSans-33" x="222.65625"/>
      </g>
     </g>
    </g>
    <g id="xtick_4">
     <g id="line2d_7">
      <path d="M 93.322142 292.217371 
L 93.322142 26.105371 
" clip-path="url(#p595e41bee3)" style="fill: none; stroke: #ffffff; stroke-width: 0.5"/>
     </g>
    </g>
    <g id="xtick_5">
     <g id="line2d_8">
      <path d="M 200.1164 292.217371 
L 200.1164 26.105371 
" clip-path="url(#p595e41bee3)" style="fill: none; stroke: #ffffff; stroke-width: 0.5"/>
     </g>
    </g>
    <g id="xtick_6">
     <g id="line2d_9">
      <path d="M 306.910658 292.217371 
L 306.910658 26.105371 
" clip-path="url(#p595e41bee3)" style="fill: none; stroke: #ffffff; stroke-width: 0.5"/>
     </g>
    </g>
    <g id="xtick_7">
     <g id="line2d_10">
      <path d="M 413.704917 292.217371 
L 413.704917 26.105371 
" clip-path="url(#p595e41bee3)" style="fill: none; stroke: #ffffff; stroke-width: 0.5"/>
     </g>
    </g>
    <g id="text_4">
     <!-- gauge_sq -->
     <g transform="translate(204.763234 318.136464)scale(0.11 -0.11)">
      <defs>
       <path id="DejaVuSans-67" d="M 2906 1791 
Q 2906 2416 2648 2759 
Q 2391 3103 1925 3103 
Q 1463 3103 1205 2759 
Q 947 2416 947 1791 
Q 947 1169 1205 825 
Q 1463 481 1925 481 
Q 2391 481 2648 825 
Q 2906 1169 2906 1791 
z
M 3481 434 
Q 3481 -459 3084 -895 
Q 2688 -1331 1869 -1331 
Q 1566 -1331 1297 -1286 
Q 1028 -1241 775 -1147 
L 775 -588 
Q 1028 -725 1275 -790 
Q 1522 -856 1778 -856 
Q 2344 -856 2625 -561 
Q 2906 -266 2906 331 
L 2906 616 
Q 2728 306 2450 153 
Q 2172 0 1784 0 
Q 1141 0 747 490 
Q 353 981 353 1791 
Q 353 2603 747 3093 
Q 1141 3584 1784 3584 
Q 2172 3584 2450 3431 
Q 2728 3278 2906 2969 
L 2906 3500 
L 3481 3500 
L 3481 434 
z
" transform="scale(0.015625)"/>
       <path id="DejaVuSans-61" d="M 2194 1759 
Q 1497 1759 1228 1600 
Q 959 1441 959 1056 
Q 959 750 1161 570 
Q 1363 391 1709 391 
Q 2188 391 2477 730 
Q 2766 1069 2766 1631 
L 2766 1759 
L 2194 1759 
z
M 3341 1997 
L 3341 0 
L 2766 0 
L 2766 531 
Q 2569 213 2275 61 
Q 1981 -91 1556 -91 
Q 1019 -91 701 211 
Q 384 513 384 1019 
Q 384 1609 779 1909 
Q 1175 2209 1959 2209 
L 2766 2209 
L 2766 2266 
Q 2766 2663 2505 2880 
Q 2244 3097 1772 3097 
Q 1472 3097 1187 3025 
Q 903 2953 641 2809 
L 641 3341 
Q 956 3463 1253 3523 
Q 1550 3584 1831 3584 
Q 2591 3584 2966 3190 
Q 3341 2797 3341 1997 
z
" transform="scale(0.015625)"/>
       <path id="DejaVuSans-75" d="M 544 1381 
L 544 3500 
L 1119 3500 
L 1119 1403 
Q 1119 906 1312 657 
Q 1506 409 1894 409 
Q 2359 409 2629 706 
Q 2900 1003 2900 1516 
L 2900 3500 
L 3475 3500 
L 3475 0 
L 2900 0 
L 2900 538 
Q 2691 219 2414 64 
Q 2138 -91 1772 -91 
Q 1169 -91 856 284 
Q 544 659 544 1381 
z
M 1991 3584 
L 1991 3584 
z
" transform="scale(0.015625)"/>
       <path id="DejaVuSans-65" d="M 3597 1894 
L 3597 1613 
L 953 1613 
Q 991 1019 1311 708 
Q 1631 397 2203 397 
Q 2534 397 2845 478 
Q 3156 559 3463 722 
L 3463 178 
Q 3153 47 2828 -22 
Q 2503 -91 2169 -91 
Q 1331 -91 842 396 
Q 353 884 353 1716 
Q 353 2575 817 3079 
Q 1281 3584 2069 3584 
Q 2775 3584 3186 3129 
Q 3597 2675 3597 1894 
z
M 3022 2063 
Q 3016 2534 2758 2815 
Q 2500 3097 2075 3097 
Q 1594 3097 1305 2825 
Q 1016 2553 972 2059 
L 3022 2063 
z
" transform="scale(0.015625)"/>
       <path id="DejaVuSans-5f" d="M 3263 -1063 
L 3263 -1509 
L -63 -1509 
L -63 -1063 
L 3263 -1063 
z
" transform="scale(0.015625)"/>
       <path id="DejaVuSans-73" d="M 2834 3397 
L 2834 2853 
Q 2591 2978 2328 3040 
Q 2066 3103 1784 3103 
Q 1356 3103 1142 2972 
Q 928 2841 928 2578 
Q 928 2378 1081 2264 
Q 1234 2150 1697 2047 
L 1894 2003 
Q 2506 1872 2764 1633 
Q 3022 1394 3022 966 
Q 3022 478 2636 193 
Q 2250 -91 1575 -91 
Q 1294 -91 989 -36 
Q 684 19 347 128 
L 347 722 
Q 666 556 975 473 
Q 1284 391 1588 391 
Q 1994 391 2212 530 
Q 2431 669 2431 922 
Q 2431 1156 2273 1281 
Q 2116 1406 1581 1522 
L 1381 1569 
Q 847 1681 609 1914 
Q 372 2147 372 2553 
Q 372 3047 722 3315 
Q 1072 3584 1716 3584 
Q 2034 3584 2315 3537 
Q 2597 3491 2834 3397 
z
" transform="scale(0.015625)"/>
       <path id="DejaVuSans-71" d="M 947 1747 
Q 947 1113 1208 752 
Q 1469 391 1925 391 
Q 2381 391 2643 752 
Q 2906 1113 2906 1747 
Q 2906 2381 2643 2742 
Q 2381 3103 1925 3103 
Q 1469 3103 1208 2742 
Q 947 2381 947 1747 
z
M 2906 525 
Q 2725 213 2448 61 
Q 2172 -91 1784 -91 
Q 1150 -91 751 415 
Q 353 922 353 1747 
Q 353 2572 751 3078 
Q 1150 3584 1784 3584 
Q 2172 3584 2448 3432 
Q 2725 3281 2906 2969 
L 2906 3500 
L 3481 3500 
L 3481 -1331 
L 2906 -1331 
L 2906 525 
z
" transform="scale(0.015625)"/>
      </defs>
      <use xlink:href="#DejaVuSans-67"/>
      <use xlink:href="#DejaVuSans-61" x="63.476562"/>
      <use xlink:href="#DejaVuSans-75" x="124.755859"/>
      <use xlink:href="#DejaVuSans-67" x="188.134766"/>
      <use xlink:href="#DejaVuSans-65" x="251.611328"/>
      <use xlink:href="#DejaVuSans-5f" x="313.134766"/>
      <use xlink:href="#DejaVuSans-73" x="363.134766"/>
      <use xlink:href="#DejaVuSans-71" x="415.234375"/>
     </g>
    </g>
   </g>
   <g id="matplotlib.axis_2">
    <g id="ytick_1">
     <g id="line2d_11">
      <path d="M 58.293625 227.190671 
L 415.413625 227.190671 
" clip-path="url(#p595e41bee3)" style="fill: none; stroke: #ffffff"/>
     </g>
     <g id="line2d_12">
      <path d="M 58.293625 227.190671 
" style="fill: none; stroke: #333333; stroke-width: 1.5"/>
      <defs>
       <path id="m4c615d6647" d="M 0 0 
L -2.75 0 
" style="stroke: #000000"/>
      </defs>
      <g>
       <use xlink:href="#m4c615d6647" x="58.293625" y="227.190671" style="fill: #333333; stroke: #000000"/>
      </g>
     </g>
     <g id="text_5">
      <!-- 0.0002 -->
      <g style="fill: #4d4d4d" transform="translate(22.551875 229.618921)scale(0.088 -0.088)">
       <use xlink:href="#DejaVuSans-30"/>
       <use xlink:href="#DejaVuSans-2e" x="63.623047"/>
       <use xlink:href="#DejaVuSans-30" x="95.410156"/>
       <use xlink:href="#DejaVuSans-30" x="159.033203"/>
       <use xlink:href="#DejaVuSans-30" x="222.65625"/>
       <use xlink:href="#DejaVuSans-32" x="286.279297"/>
      </g>
     </g>
    </g>
    <g id="ytick_2">
     <g id="line2d_13">
      <path d="M 58.293625 147.995972 
L 415.413625 147.995972 
" clip-path="url(#p595e41bee3)" style="fill: none; stroke: #ffffff"/>
     </g>
     <g id="line2d_14">
      <path d="M 58.293625 147.995972 
" style="fill: none; stroke: #333333; stroke-width: 1.5"/>
      <g>
       <use xlink:href="#m4c615d6647" x="58.293625" y="147.995972" style="fill: #333333; stroke: #000000"/>
      </g>
     </g>
     <g id="text_6">
      <!-- 0.0004 -->
      <g style="fill: #4d4d4d" transform="translate(22.551875 150.424222)scale(0.088 -0.088)">
       <defs>
        <path id="DejaVuSans-34" d="M 2419 4116 
L 825 1625 
L 2419 1625 
L 2419 4116 
z
M 2253 4666 
L 3047 4666 
L 3047 1625 
L 3713 1625 
L 3713 1100 
L 3047 1100 
L 3047 0 
L 2419 0 
L 2419 1100 
L 313 1100 
L 313 1709 
L 2253 4666 
z
" transform="scale(0.015625)"/>
       </defs>
       <use xlink:href="#DejaVuSans-30"/>
       <use xlink:href="#DejaVuSans-2e" x="63.623047"/>
       <use xlink:href="#DejaVuSans-30" x="95.410156"/>
       <use xlink:href="#DejaVuSans-30" x="159.033203"/>
       <use xlink:href="#DejaVuSans-30" x="222.65625"/>
       <use xlink:href="#DejaVuSans-34" x="286.279297"/>
      </g>
     </g>
    </g>
    <g id="ytick_3">
     <g id="line2d_15">
      <path d="M 58.293625 68.801273 
L 415.413625 68.801273 
" clip-path="url(#p595e41bee3)" style="fill: none; stroke: #ffffff"/>
     </g>
     <g id="line2d_16">
      <path d="M 58.293625 68.801273 
" style="fill: none; stroke: #333333; stroke-width: 1.5"/>
      <g>
       <use xlink:href="#m4c615d6647" x="58.293625" y="68.801273" style="fill: #333333; stroke: #000000"/>
      </g>
     </g>
     <g id="text_7">
      <!-- 0.0006 -->
      <g style="fill: #4d4d4d" transform="translate(22.551875 71.229523)scale(0.088 -0.088)">
       <defs>
        <path id="DejaVuSans-36" d="M 2113 2584 
Q 1688 2584 1439 2293 
Q 1191 2003 1191 1497 
Q 1191 994 1439 701 
Q 1688 409 2113 409 
Q 2538 409 2786 701 
Q 3034 994 3034 1497 
Q 3034 2003 2786 2293 
Q 2538 2584 2113 2584 
z
M 3366 4563 
L 3366 3988 
Q 3128 4100 2886 4159 
Q 2644 4219 2406 4219 
Q 1781 4219 1451 3797 
Q 1122 3375 1075 2522 
Q 1259 2794 1537 2939 
Q 1816 3084 2150 3084 
Q 2853 3084 3261 2657 
Q 3669 2231 3669 1497 
Q 3669 778 3244 343 
Q 2819 -91 2113 -91 
Q 1303 -91 875 529 
Q 447 1150 447 2328 
Q 447 3434 972 4092 
Q 1497 4750 2381 4750 
Q 2619 4750 2861 4703 
Q 3103 4656 3366 4563 
z
" transform="scale(0.015625)"/>
       </defs>
       <use xlink:href="#DejaVuSans-30"/>
       <use xlink:href="#DejaVuSans-2e" x="63.623047"/>
       <use xlink:href="#DejaVuSans-30" x="95.410156"/>
       <use xlink:href="#DejaVuSans-30" x="159.033203"/>
       <use xlink:href="#DejaVuSans-30" x="222.65625"/>
       <use xlink:href="#DejaVuSans-36" x="286.279297"/>
      </g>
     </g>
    </g>
    <g id="ytick_4">
     <g id="line2d_17">
      <path d="M 58.293625 266.788021 
L 415.413625 266.788021 
" clip-path="url(#p595e41bee3)" style="fill: none; stroke: #ffffff; stroke-width: 0.5"/>
     </g>
    </g>
    <g id="ytick_5">
     <g id="line2d_18">
      <path d="M 58.293625 187.593322 
L 415.413625 187.593322 
" clip-path="url(#p595e41bee3)" style="fill: none; stroke: #ffffff; stroke-width: 0.5"/>
     </g>
    </g>
    <g id="ytick_6">
     <g id="line2d_19">
      <path d="M 58.293625 108.398623 
L 415.413625 108.398623 
" clip-path="url(#p595e41bee3)" style="fill: none; stroke: #ffffff; stroke-width: 0.5"/>
     </g>
    </g>
    <g id="ytick_7">
     <g id="line2d_20">
      <path d="M 58.293625 29.203924 
L 415.413625 29.203924 
" clip-path="url(#p595e41bee3)" style="fill: none; stroke: #ffffff; stroke-width: 0.5"/>
     </g>
    </g>
    <g id="text_8">
     <!-- unit_weight -->
     <g transform="translate(15.558281 189.382355)rotate(-90)scale(0.11 -0.11)">
      <defs>
       <path id="DejaVuSans-6e" d="M 3513 2113 
L 3513 0 
L 2938 0 
L 2938 2094 
Q 2938 2591 2744 2837 
Q 2550 3084 2163 3084 
Q 1697 3084 1428 2787 
Q 1159 2491 1159 1978 
L 1159 0 
L 581 0 
L 581 3500 
L 1159 3500 
L 1159 2956 
Q 1366 3272 1645 3428 
Q 1925 3584 2291 3584 
Q 2894 3584 3203 3211 
Q 3513 2838 3513 2113 
z
" transform="scale(0.015625)"/>
       <path id="DejaVuSans-69" d="M 603 3500 
L 1178 3500 
L 1178 0 
L 603 0 
L 603 3500 
z
M 603 4863 
L 1178 4863 
L 1178 4134 
L 603 4134 
L 603 4863 
z
" transform="scale(0.015625)"/>
       <path id="DejaVuSans-74" d="M 1172 4494 
L 1172 3500 
L 2356 3500 
L 2356 3053 
L 1172 3053 
L 1172 1153 
Q 1172 725 1289 603 
Q 1406 481 1766 481 
L 2356 481 
L 2356 0 
L 1766 0 
Q 1100 0 847 248 
Q 594 497 594 1153 
L 594 3053 
L 172 3053 
L 172 3500 
L 594 3500 
L 594 4494 
L 1172 4494 
z
" transform="scale(0.015625)"/>
       <path id="DejaVuSans-77" d="M 269 3500 
L 844 3500 
L 1563 769 
L 2278 3500 
L 2956 3500 
L 3675 769 
L 4391 3500 
L 4966 3500 
L 4050 0 
L 3372 0 
L 2619 2869 
L 1863 0 
L 1184 0 
L 269 3500 
z
" transform="scale(0.015625)"/>
       <path id="DejaVuSans-68" d="M 3513 2113 
L 3513 0 
L 2938 0 
L 2938 2094 
Q 2938 2591 2744 2837 
Q 2550 3084 2163 3084 
Q 1697 3084 1428 2787 
Q 1159 2491 1159 1978 
L 1159 0 
L 581 0 
L 581 4863 
L 1159 4863 
L 1159 2956 
Q 1366 3272 1645 3428 
Q 1925 3584 2291 3584 
Q 2894 3584 3203 3211 
Q 3513 2838 3513 2113 
z
" transform="scale(0.015625)"/>
      </defs>
      <use xlink:href="#DejaVuSans-75"/>
      <use xlink:href="#DejaVuSans-6e" x="63.378906"/>
      <use xlink:href="#DejaVuSans-69" x="126.757812"/>
      <use xlink:href="#DejaVuSans-74" x="154.541016"/>
      <use xlink:href="#DejaVuSans-5f" x="193.75"/>
      <use xlink:href="#DejaVuSans-77" x="243.75"/>
      <use xlink:href="#DejaVuSans-65" x="325.537109"/>
      <use xlink:href="#DejaVuSans-69" x="387.060547"/>
      <use xlink:href="#DejaVuSans-67" x="414.84375"/>
      <use xlink:href="#DejaVuSans-68" x="478.320312"/>
      <use xlink:href="#DejaVuSans-74" x="541.699219"/>
     </g>
    </g>
   </g>
   <g id="PolyCollection_1">
    <path d="M 74.526352 271.682883 
L 74.526352 280.121371 
L 78.635903 277.097706 
L 82.745455 274.074981 
L 86.855006 271.053256 
L 90.964557 268.032591 
L 95.074108 265.013054 
L 99.18366 261.994716 
L 103.293211 258.977653 
L 107.402762 255.961947 
L 111.512313 252.947684 
L 115.621864 249.934957 
L 119.731416 246.923863 
L 123.840967 243.914508 
L 127.950518 240.907001 
L 132.060069 237.90146 
L 136.16962 234.898008 
L 140.279172 231.896772 
L 144.388723 228.897888 
L 148.498274 225.901494 
L 152.607825 222.907736 
L 156.717376 219.916761 
L 160.826928 216.92872 
L 164.936479 213.943764 
L 169.04603 210.962045 
L 173.155581 207.983712 
L 177.265132 205.00891 
L 181.374684 202.037778 
L 185.484235 199.070446 
L 189.593786 196.107032 
L 193.703337 193.147641 
L 197.812889 190.192363 
L 201.92244 187.241269 
L 206.031991 184.29441 
L 210.141542 181.351818 
L 214.251093 178.413501 
L 218.360645 175.479447 
L 222.470196 172.549622 
L 226.579747 169.623969 
L 230.689298 166.702416 
L 234.798849 163.78487 
L 238.908401 160.871223 
L 243.017952 157.961355 
L 247.127503 155.055134 
L 251.237054 152.15242 
L 255.346605 149.253068 
L 259.456157 146.356927 
L 263.565708 143.463847 
L 267.675259 140.573675 
L 271.78481 137.686261 
L 275.894361 134.801458 
L 280.003913 131.919123 
L 284.113464 129.039116 
L 288.223015 126.161304 
L 292.332566 123.28556 
L 296.442118 120.411761 
L 300.551669 117.539793 
L 304.66122 114.669544 
L 308.770771 111.800913 
L 312.880322 108.933802 
L 316.989874 106.068119 
L 321.099425 103.203779 
L 325.208976 100.3407 
L 329.318527 97.478809 
L 333.428078 94.618033 
L 337.53763 91.758309 
L 341.647181 88.899572 
L 345.756732 86.041768 
L 349.866283 83.184841 
L 353.975834 80.328741 
L 358.085386 77.473422 
L 362.194937 74.618839 
L 366.304488 71.764953 
L 370.414039 68.911724 
L 374.52359 66.059117 
L 378.633142 63.207099 
L 382.742693 60.355638 
L 386.852244 57.504705 
L 390.961795 54.654272 
L 395.071347 51.804314 
L 399.180898 48.954808 
L 399.180898 38.201371 
L 399.180898 38.201371 
L 395.071347 41.233485 
L 390.961795 44.265149 
L 386.852244 47.296337 
L 382.742693 50.327026 
L 378.633142 53.357186 
L 374.52359 56.386788 
L 370.414039 59.415803 
L 366.304488 62.444195 
L 362.194937 65.47193 
L 358.085386 68.498969 
L 353.975834 71.525271 
L 349.866283 74.550792 
L 345.756732 77.575486 
L 341.647181 80.599303 
L 337.53763 83.622188 
L 333.428078 86.644084 
L 329.318527 89.66493 
L 325.208976 92.68466 
L 321.099425 95.703203 
L 316.989874 98.720484 
L 312.880322 101.736422 
L 308.770771 104.750932 
L 304.66122 107.763922 
L 300.551669 110.775295 
L 296.442118 113.784947 
L 292.332566 116.79277 
L 288.223015 119.798647 
L 284.113464 122.802456 
L 280.003913 125.804071 
L 275.894361 128.803356 
L 271.78481 131.800175 
L 267.675259 134.794382 
L 263.565708 137.785831 
L 259.456157 140.774372 
L 255.346605 143.759852 
L 251.237054 146.742122 
L 247.127503 149.721029 
L 243.017952 152.696429 
L 238.908401 155.668183 
L 234.798849 158.636157 
L 230.689298 161.600232 
L 226.579747 164.5603 
L 222.470196 167.516268 
L 218.360645 170.468064 
L 214.251093 173.415631 
L 210.141542 176.358936 
L 206.031991 179.297965 
L 201.92244 182.232727 
L 197.812889 185.163254 
L 193.703337 188.089598 
L 189.593786 191.011828 
L 185.484235 193.930035 
L 181.374684 196.844324 
L 177.265132 199.754813 
L 173.155581 202.661632 
L 169.04603 205.56492 
L 164.936479 208.464823 
L 160.826928 211.361488 
L 156.717376 214.255068 
L 152.607825 217.145714 
L 148.498274 220.033577 
L 144.388723 222.918805 
L 140.279172 225.801542 
L 136.16962 228.681928 
L 132.060069 231.560096 
L 127.950518 234.436176 
L 123.840967 237.310291 
L 119.731416 240.182557 
L 115.621864 243.053085 
L 111.512313 245.921979 
L 107.402762 248.789337 
L 103.293211 251.655251 
L 99.18366 254.51981 
L 95.074108 257.383093 
L 90.964557 260.245178 
L 86.855006 263.106134 
L 82.745455 265.96603 
L 78.635903 268.824926 
L 74.526352 271.682883 
z
" clip-path="url(#p595e41bee3)" style="fill: #a0522d; fill-opacity: 0.298039"/>
   </g>
   <g id="line2d_21">
    <path d="M 74.526352 275.902127 
L 78.635903 272.961316 
L 82.745455 270.020505 
L 86.855006 267.079695 
L 90.964557 264.138884 
L 95.074108 261.198074 
L 99.18366 258.257263 
L 103.293211 255.316452 
L 107.402762 252.375642 
L 111.512313 249.434831 
L 115.621864 246.494021 
L 119.731416 243.55321 
L 123.840967 240.612399 
L 127.950518 237.671589 
L 132.060069 234.730778 
L 136.16962 231.789968 
L 140.279172 228.849157 
L 144.388723 225.908346 
L 148.498274 222.967536 
L 152.607825 220.026725 
L 156.717376 217.085915 
L 160.826928 214.145104 
L 164.936479 211.204293 
L 169.04603 208.263483 
L 173.155581 205.322672 
L 177.265132 202.381862 
L 181.374684 199.441051 
L 185.484235 196.50024 
L 189.593786 193.55943 
L 193.703337 190.618619 
L 197.812889 187.677809 
L 201.92244 184.736998 
L 206.031991 181.796187 
L 210.141542 178.855377 
L 214.251093 175.914566 
L 218.360645 172.973756 
L 222.470196 170.032945 
L 226.579747 167.092134 
L 230.689298 164.151324 
L 234.798849 161.210513 
L 238.908401 158.269703 
L 243.017952 155.328892 
L 247.127503 152.388081 
L 251.237054 149.447271 
L 255.346605 146.50646 
L 259.456157 143.56565 
L 263.565708 140.624839 
L 267.675259 137.684028 
L 271.78481 134.743218 
L 275.894361 131.802407 
L 280.003913 128.861597 
L 284.113464 125.920786 
L 288.223015 122.979975 
L 292.332566 120.039165 
L 296.442118 117.098354 
L 300.551669 114.157544 
L 304.66122 111.216733 
L 308.770771 108.275922 
L 312.880322 105.335112 
L 316.989874 102.394301 
L 321.099425 99.453491 
L 325.208976 96.51268 
L 329.318527 93.571869 
L 333.428078 90.631059 
L 337.53763 87.690248 
L 341.647181 84.749438 
L 345.756732 81.808627 
L 349.866283 78.867816 
L 353.975834 75.927006 
L 358.085386 72.986195 
L 362.194937 70.045385 
L 366.304488 67.104574 
L 370.414039 64.163763 
L 374.52359 61.222953 
L 378.633142 58.282142 
L 382.742693 55.341332 
L 386.852244 52.400521 
L 390.961795 49.45971 
L 395.071347 46.5189 
L 399.180898 43.578089 
" clip-path="url(#p595e41bee3)" style="fill: none; stroke: #a0522d; stroke-width: 1.772454; stroke-linejoin: miter"/>
   </g>
   <g id="PathCollection_1">
    <path d="M 74.526352 279.322657 
C 75.113928 279.322657 75.677516 279.089211 76.092995 278.673732 
C 76.508473 278.258254 76.74192 277.694665 76.74192 277.10709 
C 76.74192 276.519514 76.508473 275.955926 76.092995 275.540447 
C 75.677516 275.124969 75.113928 274.891522 74.526352 274.891522 
C 73.938777 274.891522 73.375188 275.124969 72.95971 275.540447 
C 72.544231 275.955926 72.310785 276.519514 72.310785 277.10709 
C 72.310785 277.694665 72.544231 278.258254 72.95971 278.673732 
C 73.375188 279.089211 73.938777 279.322657 74.526352 279.322657 
z
" clip-path="url(#p595e41bee3)" style="fill: #8b4513; stroke: #8b4513; stroke-width: 0.886227"/>
    <path d="M 82.642716 274.919432 
C 83.230291 274.919432 83.79388 274.685986 84.209359 274.270507 
C 84.624837 273.855029 84.858283 273.29144 84.858283 272.703865 
C 84.858283 272.116289 84.624837 271.5527 84.209359 271.137222 
C 83.79388 270.721743 83.230291 270.488297 82.642716 270.488297 
C 82.055141 270.488297 81.491552 270.721743 81.076073 271.137222 
C 80.660595 271.5527 80.427149 272.116289 80.427149 272.703865 
C 80.427149 273.29144 80.660595 273.855029 81.076073 274.270507 
C 81.491552 274.685986 82.055141 274.919432 82.642716 274.919432 
z
" clip-path="url(#p595e41bee3)" style="fill: #8b4513; stroke: #8b4513; stroke-width: 0.886227"/>
    <path d="M 91.613434 269.11842 
C 92.201009 269.11842 92.764598 268.884974 93.180076 268.469496 
C 93.595555 268.054017 93.829001 267.490428 93.829001 266.902853 
C 93.829001 266.315278 93.595555 265.751689 93.180076 265.33621 
C 92.764598 264.920732 92.201009 264.687286 91.613434 264.687286 
C 91.025858 264.687286 90.462269 264.920732 90.046791 265.33621 
C 89.631312 265.751689 89.397866 266.315278 89.397866 266.902853 
C 89.397866 267.490428 89.631312 268.054017 90.046791 268.469496 
C 90.462269 268.884974 91.025858 269.11842 91.613434 269.11842 
z
" clip-path="url(#p595e41bee3)" style="fill: #8b4513; stroke: #8b4513; stroke-width: 0.886227"/>
    <path d="M 101.438505 259.223043 
C 102.026081 259.223043 102.58967 258.989596 103.005148 258.574118 
C 103.420627 258.158639 103.654073 257.595051 103.654073 257.007475 
C 103.654073 256.4199 103.420627 255.856311 103.005148 255.440833 
C 102.58967 255.025354 102.026081 254.791908 101.438505 254.791908 
C 100.85093 254.791908 100.287341 255.025354 99.871863 255.440833 
C 99.456384 255.856311 99.222938 256.4199 99.222938 257.007475 
C 99.222938 257.595051 99.456384 258.158639 99.871863 258.574118 
C 100.287341 258.989596 100.85093 259.223043 101.438505 259.223043 
z
" clip-path="url(#p595e41bee3)" style="fill: #8b4513; stroke: #8b4513; stroke-width: 0.886227"/>
    <path d="M 112.117931 246.987462 
C 112.705507 246.987462 113.269095 246.754015 113.684574 246.338537 
C 114.100052 245.923058 114.333499 245.35947 114.333499 244.771894 
C 114.333499 244.184319 114.100052 243.62073 113.684574 243.205252 
C 113.269095 242.789773 112.705507 242.556327 112.117931 242.556327 
C 111.530356 242.556327 110.966767 242.789773 110.551289 243.205252 
C 110.13581 243.62073 109.902364 244.184319 109.902364 244.771894 
C 109.902364 245.35947 110.13581 245.923058 110.551289 246.338537 
C 110.966767 246.754015 111.530356 246.987462 112.117931 246.987462 
z
" clip-path="url(#p595e41bee3)" style="fill: #8b4513; stroke: #8b4513; stroke-width: 0.886227"/>
    <path d="M 123.651711 243.502895 
C 124.239286 243.502895 124.802875 243.269449 125.218354 242.85397 
C 125.633832 242.438492 125.867278 241.874903 125.867278 241.287327 
C 125.867278 240.699752 125.633832 240.136163 125.218354 239.720685 
C 124.802875 239.305206 124.239286 239.07176 123.651711 239.07176 
C 123.064136 239.07176 122.500547 239.305206 122.085068 239.720685 
C 121.66959 240.136163 121.436144 240.699752 121.436144 241.287327 
C 121.436144 241.874903 121.66959 242.438492 122.085068 242.85397 
C 122.500547 243.269449 123.064136 243.502895 123.651711 243.502895 
z
" clip-path="url(#p595e41bee3)" style="fill: #8b4513; stroke: #8b4513; stroke-width: 0.886227"/>
    <path d="M 136.039845 226.951203 
C 136.62742 226.951203 137.191009 226.717757 137.606488 226.302278 
C 138.021966 225.8868 138.255412 225.323211 138.255412 224.735635 
C 138.255412 224.14806 138.021966 223.584471 137.606488 223.168993 
C 137.191009 222.753514 136.62742 222.520068 136.039845 222.520068 
C 135.45227 222.520068 134.888681 222.753514 134.473202 223.168993 
C 134.057724 223.584471 133.824278 224.14806 133.824278 224.735635 
C 133.824278 225.323211 134.057724 225.8868 134.473202 226.302278 
C 134.888681 226.717757 135.45227 226.951203 136.039845 226.951203 
z
" clip-path="url(#p595e41bee3)" style="fill: #8b4513; stroke: #8b4513; stroke-width: 0.886227"/>
    <path d="M 149.282333 223.902207 
C 149.869908 223.902207 150.433497 223.668761 150.848976 223.253282 
C 151.264454 222.837804 151.4979 222.274215 151.4979 221.686639 
C 151.4979 221.099064 151.264454 220.535475 150.848976 220.119997 
C 150.433497 219.704518 149.869908 219.471072 149.282333 219.471072 
C 148.694758 219.471072 148.131169 219.704518 147.71569 220.119997 
C 147.300212 220.535475 147.066766 221.099064 147.066766 221.686639 
C 147.066766 222.274215 147.300212 222.837804 147.71569 223.253282 
C 148.131169 223.668761 148.694758 223.902207 149.282333 223.902207 
z
" clip-path="url(#p595e41bee3)" style="fill: #8b4513; stroke: #8b4513; stroke-width: 0.886227"/>
    <path d="M 163.379175 212.339781 
C 163.966751 212.339781 164.530339 212.106335 164.945818 211.690856 
C 165.361296 211.275378 165.594743 210.711789 165.594743 210.124213 
C 165.594743 209.536638 165.361296 208.973049 164.945818 208.557571 
C 164.530339 208.142092 163.966751 207.908646 163.379175 207.908646 
C 162.7916 207.908646 162.228011 208.142092 161.812533 208.557571 
C 161.397054 208.973049 161.163608 209.536638 161.163608 210.124213 
C 161.163608 210.711789 161.397054 211.275378 161.812533 211.690856 
C 162.228011 212.106335 162.7916 212.339781 163.379175 212.339781 
z
" clip-path="url(#p595e41bee3)" style="fill: #8b4513; stroke: #8b4513; stroke-width: 0.886227"/>
    <path d="M 178.330371 205.212258 
C 178.917947 205.212258 179.481536 204.978812 179.897014 204.563333 
C 180.312493 204.147855 180.545939 203.584266 180.545939 202.996691 
C 180.545939 202.409115 180.312493 201.845526 179.897014 201.430048 
C 179.481536 201.014569 178.917947 200.781123 178.330371 200.781123 
C 177.742796 200.781123 177.179207 201.014569 176.763729 201.430048 
C 176.34825 201.845526 176.114804 202.409115 176.114804 202.996691 
C 176.114804 203.584266 176.34825 204.147855 176.763729 204.563333 
C 177.179207 204.978812 177.742796 205.212258 178.330371 205.212258 
z
" clip-path="url(#p595e41bee3)" style="fill: #8b4513; stroke: #8b4513; stroke-width: 0.886227"/>
    <path d="M 194.135922 192.541106 
C 194.723497 192.541106 195.287086 192.30766 195.702564 191.892181 
C 196.118043 191.476703 196.351489 190.913114 196.351489 190.325539 
C 196.351489 189.737963 196.118043 189.174375 195.702564 188.758896 
C 195.287086 188.343418 194.723497 188.109971 194.135922 188.109971 
C 193.548346 188.109971 192.984757 188.343418 192.569279 188.758896 
C 192.1538 189.174375 191.920354 189.737963 191.920354 190.325539 
C 191.920354 190.913114 192.1538 191.476703 192.569279 191.892181 
C 192.984757 192.30766 193.548346 192.541106 194.135922 192.541106 
z
" clip-path="url(#p595e41bee3)" style="fill: #8b4513; stroke: #8b4513; stroke-width: 0.886227"/>
    <path d="M 210.795826 184.027676 
C 211.383401 184.027676 211.94699 183.79423 212.362469 183.378751 
C 212.777947 182.963273 213.011393 182.399684 213.011393 181.812109 
C 213.011393 181.224533 212.777947 180.660944 212.362469 180.245466 
C 211.94699 179.829987 211.383401 179.596541 210.795826 179.596541 
C 210.208251 179.596541 209.644662 179.829987 209.229183 180.245466 
C 208.813705 180.660944 208.580259 181.224533 208.580259 181.812109 
C 208.580259 182.399684 208.813705 182.963273 209.229183 183.378751 
C 209.644662 183.79423 210.208251 184.027676 210.795826 184.027676 
z
" clip-path="url(#p595e41bee3)" style="fill: #8b4513; stroke: #8b4513; stroke-width: 0.886227"/>
    <path d="M 228.310084 166.446453 
C 228.89766 166.446453 229.461249 166.213007 229.876727 165.797528 
C 230.292205 165.38205 230.525652 164.818461 230.525652 164.230885 
C 230.525652 163.64331 230.292205 163.079721 229.876727 162.664243 
C 229.461249 162.248764 228.89766 162.015318 228.310084 162.015318 
C 227.722509 162.015318 227.15892 162.248764 226.743442 162.664243 
C 226.327963 163.079721 226.094517 163.64331 226.094517 164.230885 
C 226.094517 164.818461 226.327963 165.38205 226.743442 165.797528 
C 227.15892 166.213007 227.722509 166.446453 228.310084 166.446453 
z
" clip-path="url(#p595e41bee3)" style="fill: #8b4513; stroke: #8b4513; stroke-width: 0.886227"/>
    <path d="M 246.678697 155.43839 
C 247.266272 155.43839 247.829861 155.204943 248.245339 154.789465 
C 248.660818 154.373986 248.894264 153.810398 248.894264 153.222822 
C 248.894264 152.635247 248.660818 152.071658 248.245339 151.65618 
C 247.829861 151.240701 247.266272 151.007255 246.678697 151.007255 
C 246.091121 151.007255 245.527533 151.240701 245.112054 151.65618 
C 244.696576 152.071658 244.463129 152.635247 244.463129 153.222822 
C 244.463129 153.810398 244.696576 154.373986 245.112054 154.789465 
C 245.527533 155.204943 246.091121 155.43839 246.678697 155.43839 
z
" clip-path="url(#p595e41bee3)" style="fill: #8b4513; stroke: #8b4513; stroke-width: 0.886227"/>
    <path d="M 265.901663 150.726305 
C 266.489239 150.726305 267.052827 150.492859 267.468306 150.07738 
C 267.883784 149.661902 268.117231 149.098313 268.117231 148.510738 
C 268.117231 147.923162 267.883784 147.359574 267.468306 146.944095 
C 267.052827 146.528617 266.489239 146.29517 265.901663 146.29517 
C 265.314088 146.29517 264.750499 146.528617 264.335021 146.944095 
C 263.919542 147.359574 263.686096 147.923162 263.686096 148.510738 
C 263.686096 149.098313 263.919542 149.661902 264.335021 150.07738 
C 264.750499 150.492859 265.314088 150.726305 265.901663 150.726305 
z
" clip-path="url(#p595e41bee3)" style="fill: #8b4513; stroke: #8b4513; stroke-width: 0.886227"/>
    <path d="M 285.978984 121.859837 
C 286.566559 121.859837 287.130148 121.626391 287.545627 121.210913 
C 287.961105 120.795434 288.194551 120.231845 288.194551 119.64427 
C 288.194551 119.056695 287.961105 118.493106 287.545627 118.077627 
C 287.130148 117.662149 286.566559 117.428703 285.978984 117.428703 
C 285.391409 117.428703 284.82782 117.662149 284.412341 118.077627 
C 283.996863 118.493106 283.763417 119.056695 283.763417 119.64427 
C 283.763417 120.231845 283.996863 120.795434 284.412341 121.210913 
C 284.82782 121.626391 285.391409 121.859837 285.978984 121.859837 
z
" clip-path="url(#p595e41bee3)" style="fill: #8b4513; stroke: #8b4513; stroke-width: 0.886227"/>
    <path d="M 306.910658 110.416203 
C 307.498234 110.416203 308.061823 110.182757 308.477301 109.767279 
C 308.89278 109.3518 309.126226 108.788211 309.126226 108.200636 
C 309.126226 107.613061 308.89278 107.049472 308.477301 106.633993 
C 308.061823 106.218515 307.498234 105.985069 306.910658 105.985069 
C 306.323083 105.985069 305.759494 106.218515 305.344016 106.633993 
C 304.928537 107.049472 304.695091 107.613061 304.695091 108.200636 
C 304.695091 108.788211 304.928537 109.3518 305.344016 109.767279 
C 305.759494 110.182757 306.323083 110.416203 306.910658 110.416203 
z
" clip-path="url(#p595e41bee3)" style="fill: #8b4513; stroke: #8b4513; stroke-width: 0.886227"/>
    <path d="M 328.696687 106.456468 
C 329.284263 106.456468 329.847851 106.223022 330.26333 105.807544 
C 330.678808 105.392065 330.912255 104.828476 330.912255 104.240901 
C 330.912255 103.653326 330.678808 103.089737 330.26333 102.674258 
C 329.847851 102.25878 329.284263 102.025334 328.696687 102.025334 
C 328.109112 102.025334 327.545523 102.25878 327.130045 102.674258 
C 326.714566 103.089737 326.48112 103.653326 326.48112 104.240901 
C 326.48112 104.828476 326.714566 105.392065 327.130045 105.807544 
C 327.545523 106.223022 328.109112 106.456468 328.696687 106.456468 
z
" clip-path="url(#p595e41bee3)" style="fill: #8b4513; stroke: #8b4513; stroke-width: 0.886227"/>
    <path d="M 351.33707 66.423548 
C 351.924645 66.423548 352.488234 66.190102 352.903713 65.774623 
C 353.319191 65.359145 353.552637 64.795556 353.552637 64.207981 
C 353.552637 63.620405 353.319191 63.056817 352.903713 62.641338 
C 352.488234 62.22586 351.924645 61.992413 351.33707 61.992413 
C 350.749495 61.992413 350.185906 62.22586 349.770427 62.641338 
C 349.354949 63.056817 349.121503 63.620405 349.121503 64.207981 
C 349.121503 64.795556 349.354949 65.359145 349.770427 65.774623 
C 350.185906 66.190102 350.749495 66.423548 351.33707 66.423548 
z
" clip-path="url(#p595e41bee3)" style="fill: #8b4513; stroke: #8b4513; stroke-width: 0.886227"/>
    <path d="M 374.831807 59.810791 
C 375.419382 59.810791 375.982971 59.577344 376.398449 59.161866 
C 376.813928 58.746387 377.047374 58.182799 377.047374 57.595223 
C 377.047374 57.007648 376.813928 56.444059 376.398449 56.028581 
C 375.982971 55.613102 375.419382 55.379656 374.831807 55.379656 
C 374.244231 55.379656 373.680643 55.613102 373.265164 56.028581 
C 372.849686 56.444059 372.61624 57.007648 372.61624 57.595223 
C 372.61624 58.182799 372.849686 58.746387 373.265164 59.161866 
C 373.680643 59.577344 374.244231 59.810791 374.831807 59.810791 
z
" clip-path="url(#p595e41bee3)" style="fill: #8b4513; stroke: #8b4513; stroke-width: 0.886227"/>
    <path d="M 399.180898 52.010113 
C 399.768473 52.010113 400.332062 51.776667 400.74754 51.361188 
C 401.163019 50.94571 401.396465 50.382121 401.396465 49.794545 
C 401.396465 49.20697 401.163019 48.643381 400.74754 48.227903 
C 400.332062 47.812424 399.768473 47.578978 399.180898 47.578978 
C 398.593322 47.578978 398.029734 47.812424 397.614255 48.227903 
C 397.198777 48.643381 396.96533 49.20697 396.96533 49.794545 
C 396.96533 50.382121 397.198777 50.94571 397.614255 51.361188 
C 398.029734 51.776667 398.593322 52.010113 399.180898 52.010113 
z
" clip-path="url(#p595e41bee3)" style="fill: #8b4513; stroke: #8b4513; stroke-width: 0.886227"/>
   </g>
  </g>
  <g id="text_9">
   <!-- phosphor bronze -->
   <g transform="translate(175.521625 17.229938)scale(0.132 -0.132)">
    <defs>
     <path id="DejaVuSans-70" d="M 1159 525 
L 1159 -1331 
L 581 -1331 
L 581 3500 
L 1159 3500 
L 1159 2969 
Q 1341 3281 1617 3432 
Q 1894 3584 2278 3584 
Q 2916 3584 3314 3078 
Q 3713 2572 3713 1747 
Q 3713 922 3314 415 
Q 2916 -91 2278 -91 
Q 1894 -91 1617 61 
Q 1341 213 1159 525 
z
M 3116 1747 
Q 3116 2381 2855 2742 
Q 2594 3103 2138 3103 
Q 1681 3103 1420 2742 
Q 1159 2381 1159 1747 
Q 1159 1113 1420 752 
Q 1681 391 2138 391 
Q 2594 391 2855 752 
Q 3116 1113 3116 1747 
z
" transform="scale(0.015625)"/>
     <path id="DejaVuSans-6f" d="M 1959 3097 
Q 1497 3097 1228 2736 
Q 959 2375 959 1747 
Q 959 1119 1226 758 
Q 1494 397 1959 397 
Q 2419 397 2687 759 
Q 2956 1122 2956 1747 
Q 2956 2369 2687 2733 
Q 2419 3097 1959 3097 
z
M 1959 3584 
Q 2709 3584 3137 3096 
Q 3566 2609 3566 1747 
Q 3566 888 3137 398 
Q 2709 -91 1959 -91 
Q 1206 -91 779 398 
Q 353 888 353 1747 
Q 353 2609 779 3096 
Q 1206 3584 1959 3584 
z
" transform="scale(0.015625)"/>
     <path id="DejaVuSans-72" d="M 2631 2963 
Q 2534 3019 2420 3045 
Q 2306 3072 2169 3072 
Q 1681 3072 1420 2755 
Q 1159 2438 1159 1844 
L 1159 0 
L 581 0 
L 581 3500 
L 1159 3500 
L 1159 2956 
Q 1341 3275 1631 3429 
Q 1922 3584 2338 3584 
Q 2397 3584 2469 3576 
Q 2541 3569 2628 3553 
L 2631 2963 
z
" transform="scale(0.015625)"/>
     <path id="DejaVuSans-20" transform="scale(0.015625)"/>
     <path id="DejaVuSans-62" d="M 3116 1747 
Q 3116 2381 2855 2742 
Q 2594 3103 2138 3103 
Q 1681 3103 1420 2742 
Q 1159 2381 1159 1747 
Q 1159 1113 1420 752 
Q 1681 391 2138 391 
Q 2594 391 2855 752 
Q 3116 1113 3116 1747 
z
M 1159 2969 
Q 1341 3281 1617 3432 
Q 1894 3584 2278 3584 
Q 2916 3584 3314 3078 
Q 3713 2572 3713 1747 
Q 3713 922 3314 415 
Q 2916 -91 2278 -91 
Q 1894 -91 1617 61 
Q 1341 213 1159 525 
L 1159 0 
L 581 0 
L 581 4863 
L 1159 4863 
L 1159 2969 
z
" transform="scale(0.015625)"/>
     <path id="DejaVuSans-7a" d="M 353 3500 
L 3084 3500 
L 3084 2975 
L 922 459 
L 3084 459 
L 3084 0 
L 275 0 
L 275 525 
L 2438 3041 
L 353 3041 
L 353 3500 
z
" transform="scale(0.015625)"/>
    </defs>
    <use xlink:href="#DejaVuSans-70"/>
    <use xlink:href="#DejaVuSans-68" x="63.476562"/>
    <use xlink:href="#DejaVuSans-6f" x="126.855469"/>
    <use xlink:href="#DejaVuSans-73" x="188.037109"/>
    <use xlink:href="#DejaVuSans-70" x="240.136719"/>
    <use xlink:href="#DejaVuSans-68" x="303.613281"/>
    <use xlink:href="#DejaVuSans-6f" x="366.992188"/>
    <use xlink:href="#DejaVuSans-72" x="428.173828"/>
    <use xlink:href="#DejaVuSans-20" x="469.287109"/>
    <use xlink:href="#DejaVuSans-62" x="501.074219"/>
    <use xlink:href="#DejaVuSans-72" x="564.550781"/>
    <use xlink:href="#DejaVuSans-6f" x="603.414062"/>
    <use xlink:href="#DejaVuSans-6e" x="664.595703"/>
    <use xlink:href="#DejaVuSans-7a" x="727.974609"/>
    <use xlink:href="#DejaVuSans-65" x="780.464844"/>
   </g>
  </g>
 </g>
 <defs>
  <clipPath id="p595e41bee3">
   <rect x="58.293625" y="26.105371" width="357.12" height="266.112"/>
  </clipPath>
 </defs>
</svg>
