<?xml version="1.0" encoding="utf-8" standalone="no"?>
<!DOCTYPE svg PUBLIC "-//W3C//DTD SVG 1.1//EN"
  "http://www.w3.org/Graphics/SVG/1.1/DTD/svg11.dtd">
<svg xmlns:xlink="http://www.w3.org/1999/xlink" width="422.613625pt" height="327.930058pt" viewBox="0 0 422.613625 327.930058" xmlns="http://www.w3.org/2000/svg" version="1.1">
 <metadata>
  <rdf:RDF xmlns:dc="http://purl.org/dc/elements/1.1/" xmlns:cc="http://creativecommons.org/ns#" xmlns:rdf="http://www.w3.org/1999/02/22-rdf-syntax-ns#">
   <cc:Work>
    <dc:type rdf:resource="http://purl.org/dc/dcmitype/StillImage"/>
    <dc:date>2022-02-09T21:10:43.585659</dc:date>
    <dc:format>image/svg+xml</dc:format>
    <dc:creator>
     <cc:Agent>
      <dc:title>Matplotlib v3.5.1, https://matplotlib.org/</dc:title>
     </cc:Agent>
    </dc:creator>
   </cc:Work>
  </rdf:RDF>
 </metadata>
 <defs>
  <style type="text/css">*{stroke-linejoin: round; stroke-linecap: butt}</style>
 </defs>
 <g id="figure_1">
  <g id="patch_1">
   <path d="M 0 327.930058 
L 422.613625 327.930058 
L 422.613625 0 
L 0 0 
z
" style="fill: #ffffff; stroke: #ffffff; stroke-linejoin: miter"/>
  </g>
  <g id="axes_1">
   <g id="patch_2">
    <path d="M 58.293625 292.217371 
L 415.413625 292.217371 
L 415.413625 26.105371 
L 58.293625 26.105371 
z
" style="fill: #ebebeb"/>
   </g>
   <g id="matplotlib.axis_1">
    <g id="xtick_1">
     <g id="line2d_1">
      <path d="M 146.719271 292.217371 
L 146.719271 26.105371 
" clip-path="url(#pb3f049192d)" style="fill: none; stroke: #ffffff"/>
     </g>
     <g id="line2d_2">
      <path d="M 146.719271 292.217371 
" style="fill: none; stroke: #333333; stroke-width: 1.5"/>
      <defs>
       <path id="m02c86583cf" d="M 0 0 
L 0 2.75 
" style="stroke: #000000"/>
      </defs>
      <g>
       <use xlink:href="#m02c86583cf" x="146.719271" y="292.217371" style="fill: #333333; stroke: #000000"/>
      </g>
     </g>
     <g id="text_1">
      <!-- 0.001 -->
      <g style="fill: #4d4d4d" transform="translate(134.122896 303.853996)scale(0.088 -0.088)">
       <defs>
        <path id="DejaVuSans-30" d="M 2034 4250 
Q 1547 4250 1301 3770 
Q 1056 3291 1056 2328 
Q 1056 1369 1301 889 
Q 1547 409 2034 409 
Q 2525 409 2770 889 
Q 3016 1369 3016 2328 
Q 3016 3291 2770 3770 
Q 2525 4250 2034 4250 
z
M 2034 4750 
Q 2819 4750 3233 4129 
Q 3647 3509 3647 2328 
Q 3647 1150 3233 529 
Q 2819 -91 2034 -91 
Q 1250 -91 836 529 
Q 422 1150 422 2328 
Q 422 3509 836 4129 
Q 1250 4750 2034 4750 
z
" transform="scale(0.015625)"/>
        <path id="DejaVuSans-2e" d="M 684 794 
L 1344 794 
L 1344 0 
L 684 0 
L 684 794 
z
" transform="scale(0.015625)"/>
        <path id="DejaVuSans-31" d="M 794 531 
L 1825 531 
L 1825 4091 
L 703 3866 
L 703 4441 
L 1819 4666 
L 2450 4666 
L 2450 531 
L 3481 531 
L 3481 0 
L 794 0 
L 794 531 
z
" transform="scale(0.015625)"/>
       </defs>
       <use xlink:href="#DejaVuSans-30"/>
       <use xlink:href="#DejaVuSans-2e" x="63.623047"/>
       <use xlink:href="#DejaVuSans-30" x="95.410156"/>
       <use xlink:href="#DejaVuSans-30" x="159.033203"/>
       <use xlink:href="#DejaVuSans-31" x="222.65625"/>
      </g>
     </g>
    </g>
    <g id="xtick_2">
     <g id="line2d_3">
      <path d="M 253.513529 292.217371 
L 253.513529 26.105371 
" clip-path="url(#pb3f049192d)" style="fill: none; stroke: #ffffff"/>
     </g>
     <g id="line2d_4">
      <path d="M 253.513529 292.217371 
" style="fill: none; stroke: #333333; stroke-width: 1.5"/>
      <g>
       <use xlink:href="#m02c86583cf" x="253.513529" y="292.217371" style="fill: #333333; stroke: #000000"/>
      </g>
     </g>
     <g id="text_2">
      <!-- 0.002 -->
      <g style="fill: #4d4d4d" transform="translate(240.917154 303.853996)scale(0.088 -0.088)">
       <defs>
        <path id="DejaVuSans-32" d="M 1228 531 
L 3431 531 
L 3431 0 
L 469 0 
L 469 531 
Q 828 903 1448 1529 
Q 2069 2156 2228 2338 
Q 2531 2678 2651 2914 
Q 2772 3150 2772 3378 
Q 2772 3750 2511 3984 
Q 2250 4219 1831 4219 
Q 1534 4219 1204 4116 
Q 875 4013 500 3803 
L 500 4441 
Q 881 4594 1212 4672 
Q 1544 4750 1819 4750 
Q 2544 4750 2975 4387 
Q 3406 4025 3406 3419 
Q 3406 3131 3298 2873 
Q 3191 2616 2906 2266 
Q 2828 2175 2409 1742 
Q 1991 1309 1228 531 
z
" transform="scale(0.015625)"/>
       </defs>
       <use xlink:href="#DejaVuSans-30"/>
       <use xlink:href="#DejaVuSans-2e" x="63.623047"/>
       <use xlink:href="#DejaVuSans-30" x="95.410156"/>
       <use xlink:href="#DejaVuSans-30" x="159.033203"/>
       <use xlink:href="#DejaVuSans-32" x="222.65625"/>
      </g>
     </g>
    </g>
    <g id="xtick_3">
     <g id="line2d_5">
      <path d="M 360.307788 292.217371 
L 360.307788 26.105371 
" clip-path="url(#pb3f049192d)" style="fill: none; stroke: #ffffff"/>
     </g>
     <g id="line2d_6">
      <path d="M 360.307788 292.217371 
" style="fill: none; stroke: #333333; stroke-width: 1.5"/>
      <g>
       <use xlink:href="#m02c86583cf" x="360.307788" y="292.217371" style="fill: #333333; stroke: #000000"/>
      </g>
     </g>
     <g id="text_3">
      <!-- 0.003 -->
      <g style="fill: #4d4d4d" transform="translate(347.711413 303.853996)scale(0.088 -0.088)">
       <defs>
        <path id="DejaVuSans-33" d="M 2597 2516 
Q 3050 2419 3304 2112 
Q 3559 1806 3559 1356 
Q 3559 666 3084 287 
Q 2609 -91 1734 -91 
Q 1441 -91 1130 -33 
Q 819 25 488 141 
L 488 750 
Q 750 597 1062 519 
Q 1375 441 1716 441 
Q 2309 441 2620 675 
Q 2931 909 2931 1356 
Q 2931 1769 2642 2001 
Q 2353 2234 1838 2234 
L 1294 2234 
L 1294 2753 
L 1863 2753 
Q 2328 2753 2575 2939 
Q 2822 3125 2822 3475 
Q 2822 3834 2567 4026 
Q 2313 4219 1838 4219 
Q 1578 4219 1281 4162 
Q 984 4106 628 3988 
L 628 4550 
Q 988 4650 1302 4700 
Q 1616 4750 1894 4750 
Q 2613 4750 3031 4423 
Q 3450 4097 3450 3541 
Q 3450 3153 3228 2886 
Q 3006 2619 2597 2516 
z
" transform="scale(0.015625)"/>
       </defs>
       <use xlink:href="#DejaVuSans-30"/>
       <use xlink:href="#DejaVuSans-2e" x="63.623047"/>
       <use xlink:href="#DejaVuSans-30" x="95.410156"/>
       <use xlink:href="#DejaVuSans-30" x="159.033203"/>
       <use xlink:href="#DejaVuSans-33" x="222.65625"/>
      </g>
     </g>
    </g>
    <g id="xtick_4">
     <g id="line2d_7">
      <path d="M 93.322142 292.217371 
L 93.322142 26.105371 
" clip-path="url(#pb3f049192d)" style="fill: none; stroke: #ffffff; stroke-width: 0.5"/>
     </g>
    </g>
    <g id="xtick_5">
     <g id="line2d_8">
      <path d="M 200.1164 292.217371 
L 200.1164 26.105371 
" clip-path="url(#pb3f049192d)" style="fill: none; stroke: #ffffff; stroke-width: 0.5"/>
     </g>
    </g>
    <g id="xtick_6">
     <g id="line2d_9">
      <path d="M 306.910658 292.217371 
L 306.910658 26.105371 
" clip-path="url(#pb3f049192d)" style="fill: none; stroke: #ffffff; stroke-width: 0.5"/>
     </g>
    </g>
    <g id="xtick_7">
     <g id="line2d_10">
      <path d="M 413.704917 292.217371 
L 413.704917 26.105371 
" clip-path="url(#pb3f049192d)" style="fill: none; stroke: #ffffff; stroke-width: 0.5"/>
     </g>
    </g>
    <g id="text_4">
     <!-- gauge_sq -->
     <g transform="translate(204.763234 318.136464)scale(0.11 -0.11)">
      <defs>
       <path id="DejaVuSans-67" d="M 2906 1791 
Q 2906 2416 2648 2759 
Q 2391 3103 1925 3103 
Q 1463 3103 1205 2759 
Q 947 2416 947 1791 
Q 947 1169 1205 825 
Q 1463 481 1925 481 
Q 2391 481 2648 825 
Q 2906 1169 2906 1791 
z
M 3481 434 
Q 3481 -459 3084 -895 
Q 2688 -1331 1869 -1331 
Q 1566 -1331 1297 -1286 
Q 1028 -1241 775 -1147 
L 775 -588 
Q 1028 -725 1275 -790 
Q 1522 -856 1778 -856 
Q 2344 -856 2625 -561 
Q 2906 -266 2906 331 
L 2906 616 
Q 2728 306 2450 153 
Q 2172 0 1784 0 
Q 1141 0 747 490 
Q 353 981 353 1791 
Q 353 2603 747 3093 
Q 1141 3584 1784 3584 
Q 2172 3584 2450 3431 
Q 2728 3278 2906 2969 
L 2906 3500 
L 3481 3500 
L 3481 434 
z
" transform="scale(0.015625)"/>
       <path id="DejaVuSans-61" d="M 2194 1759 
Q 1497 1759 1228 1600 
Q 959 1441 959 1056 
Q 959 750 1161 570 
Q 1363 391 1709 391 
Q 2188 391 2477 730 
Q 2766 1069 2766 1631 
L 2766 1759 
L 2194 1759 
z
M 3341 1997 
L 3341 0 
L 2766 0 
L 2766 531 
Q 2569 213 2275 61 
Q 1981 -91 1556 -91 
Q 1019 -91 701 211 
Q 384 513 384 1019 
Q 384 1609 779 1909 
Q 1175 2209 1959 2209 
L 2766 2209 
L 2766 2266 
Q 2766 2663 2505 2880 
Q 2244 3097 1772 3097 
Q 1472 3097 1187 3025 
Q 903 2953 641 2809 
L 641 3341 
Q 956 3463 1253 3523 
Q 1550 3584 1831 3584 
Q 2591 3584 2966 3190 
Q 3341 2797 3341 1997 
z
" transform="scale(0.015625)"/>
       <path id="DejaVuSans-75" d="M 544 1381 
L 544 3500 
L 1119 3500 
L 1119 1403 
Q 1119 906 1312 657 
Q 1506 409 1894 409 
Q 2359 409 2629 706 
Q 2900 1003 2900 1516 
L 2900 3500 
L 3475 3500 
L 3475 0 
L 2900 0 
L 2900 538 
Q 2691 219 2414 64 
Q 2138 -91 1772 -91 
Q 1169 -91 856 284 
Q 544 659 544 1381 
z
M 1991 3584 
L 1991 3584 
z
" transform="scale(0.015625)"/>
       <path id="DejaVuSans-65" d="M 3597 1894 
L 3597 1613 
L 953 1613 
Q 991 1019 1311 708 
Q 1631 397 2203 397 
Q 2534 397 2845 478 
Q 3156 559 3463 722 
L 3463 178 
Q 3153 47 2828 -22 
Q 2503 -91 2169 -91 
Q 1331 -91 842 396 
Q 353 884 353 1716 
Q 353 2575 817 3079 
Q 1281 3584 2069 3584 
Q 2775 3584 3186 3129 
Q 3597 2675 3597 1894 
z
M 3022 2063 
Q 3016 2534 2758 2815 
Q 2500 3097 2075 3097 
Q 1594 3097 1305 2825 
Q 1016 2553 972 2059 
L 3022 2063 
z
" transform="scale(0.015625)"/>
       <path id="DejaVuSans-5f" d="M 3263 -1063 
L 3263 -1509 
L -63 -1509 
L -63 -1063 
L 3263 -1063 
z
" transform="scale(0.015625)"/>
       <path id="DejaVuSans-73" d="M 2834 3397 
L 2834 2853 
Q 2591 2978 2328 3040 
Q 2066 3103 1784 3103 
Q 1356 3103 1142 2972 
Q 928 2841 928 2578 
Q 928 2378 1081 2264 
Q 1234 2150 1697 2047 
L 1894 2003 
Q 2506 1872 2764 1633 
Q 3022 1394 3022 966 
Q 3022 478 2636 193 
Q 2250 -91 1575 -91 
Q 1294 -91 989 -36 
Q 684 19 347 128 
L 347 722 
Q 666 556 975 473 
Q 1284 391 1588 391 
Q 1994 391 2212 530 
Q 2431 669 2431 922 
Q 2431 1156 2273 1281 
Q 2116 1406 1581 1522 
L 1381 1569 
Q 847 1681 609 1914 
Q 372 2147 372 2553 
Q 372 3047 722 3315 
Q 1072 3584 1716 3584 
Q 2034 3584 2315 3537 
Q 2597 3491 2834 3397 
z
" transform="scale(0.015625)"/>
       <path id="DejaVuSans-71" d="M 947 1747 
Q 947 1113 1208 752 
Q 1469 391 1925 391 
Q 2381 391 2643 752 
Q 2906 1113 2906 1747 
Q 2906 2381 2643 2742 
Q 2381 3103 1925 3103 
Q 1469 3103 1208 2742 
Q 947 2381 947 1747 
z
M 2906 525 
Q 2725 213 2448 61 
Q 2172 -91 1784 -91 
Q 1150 -91 751 415 
Q 353 922 353 1747 
Q 353 2572 751 3078 
Q 1150 3584 1784 3584 
Q 2172 3584 2448 3432 
Q 2725 3281 2906 2969 
L 2906 3500 
L 3481 3500 
L 3481 -1331 
L 2906 -1331 
L 2906 525 
z
" transform="scale(0.015625)"/>
      </defs>
      <use xlink:href="#DejaVuSans-67"/>
      <use xlink:href="#DejaVuSans-61" x="63.476562"/>
      <use xlink:href="#DejaVuSans-75" x="124.755859"/>
      <use xlink:href="#DejaVuSans-67" x="188.134766"/>
      <use xlink:href="#DejaVuSans-65" x="251.611328"/>
      <use xlink:href="#DejaVuSans-5f" x="313.134766"/>
      <use xlink:href="#DejaVuSans-73" x="363.134766"/>
      <use xlink:href="#DejaVuSans-71" x="415.234375"/>
     </g>
    </g>
   </g>
   <g id="matplotlib.axis_2">
    <g id="ytick_1">
     <g id="line2d_11">
      <path d="M 58.293625 230.516897 
L 415.413625 230.516897 
" clip-path="url(#pb3f049192d)" style="fill: none; stroke: #ffffff"/>
     </g>
     <g id="line2d_12">
      <path d="M 58.293625 230.516897 
" style="fill: none; stroke: #333333; stroke-width: 1.5"/>
      <defs>
       <path id="m7b09296d9d" d="M 0 0 
L -2.75 0 
" style="stroke: #000000"/>
      </defs>
      <g>
       <use xlink:href="#m7b09296d9d" x="58.293625" y="230.516897" style="fill: #333333; stroke: #000000"/>
      </g>
     </g>
     <g id="text_5">
      <!-- 0.0002 -->
      <g style="fill: #4d4d4d" transform="translate(22.551875 232.945147)scale(0.088 -0.088)">
       <use xlink:href="#DejaVuSans-30"/>
       <use xlink:href="#DejaVuSans-2e" x="63.623047"/>
       <use xlink:href="#DejaVuSans-30" x="95.410156"/>
       <use xlink:href="#DejaVuSans-30" x="159.033203"/>
       <use xlink:href="#DejaVuSans-30" x="222.65625"/>
       <use xlink:href="#DejaVuSans-32" x="286.279297"/>
      </g>
     </g>
    </g>
    <g id="ytick_2">
     <g id="line2d_13">
      <path d="M 58.293625 161.709911 
L 415.413625 161.709911 
" clip-path="url(#pb3f049192d)" style="fill: none; stroke: #ffffff"/>
     </g>
     <g id="line2d_14">
      <path d="M 58.293625 161.709911 
" style="fill: none; stroke: #333333; stroke-width: 1.5"/>
      <g>
       <use xlink:href="#m7b09296d9d" x="58.293625" y="161.709911" style="fill: #333333; stroke: #000000"/>
      </g>
     </g>
     <g id="text_6">
      <!-- 0.0004 -->
      <g style="fill: #4d4d4d" transform="translate(22.551875 164.138161)scale(0.088 -0.088)">
       <defs>
        <path id="DejaVuSans-34" d="M 2419 4116 
L 825 1625 
L 2419 1625 
L 2419 4116 
z
M 2253 4666 
L 3047 4666 
L 3047 1625 
L 3713 1625 
L 3713 1100 
L 3047 1100 
L 3047 0 
L 2419 0 
L 2419 1100 
L 313 1100 
L 313 1709 
L 2253 4666 
z
" transform="scale(0.015625)"/>
       </defs>
       <use xlink:href="#DejaVuSans-30"/>
       <use xlink:href="#DejaVuSans-2e" x="63.623047"/>
       <use xlink:href="#DejaVuSans-30" x="95.410156"/>
       <use xlink:href="#DejaVuSans-30" x="159.033203"/>
       <use xlink:href="#DejaVuSans-30" x="222.65625"/>
       <use xlink:href="#DejaVuSans-34" x="286.279297"/>
      </g>
     </g>
    </g>
    <g id="ytick_3">
     <g id="line2d_15">
      <path d="M 58.293625 92.902925 
L 415.413625 92.902925 
" clip-path="url(#pb3f049192d)" style="fill: none; stroke: #ffffff"/>
     </g>
     <g id="line2d_16">
      <path d="M 58.293625 92.902925 
" style="fill: none; stroke: #333333; stroke-width: 1.5"/>
      <g>
       <use xlink:href="#m7b09296d9d" x="58.293625" y="92.902925" style="fill: #333333; stroke: #000000"/>
      </g>
     </g>
     <g id="text_7">
      <!-- 0.0006 -->
      <g style="fill: #4d4d4d" transform="translate(22.551875 95.331175)scale(0.088 -0.088)">
       <defs>
        <path id="DejaVuSans-36" d="M 2113 2584 
Q 1688 2584 1439 2293 
Q 1191 2003 1191 1497 
Q 1191 994 1439 701 
Q 1688 409 2113 409 
Q 2538 409 2786 701 
Q 3034 994 3034 1497 
Q 3034 2003 2786 2293 
Q 2538 2584 2113 2584 
z
M 3366 4563 
L 3366 3988 
Q 3128 4100 2886 4159 
Q 2644 4219 2406 4219 
Q 1781 4219 1451 3797 
Q 1122 3375 1075 2522 
Q 1259 2794 1537 2939 
Q 1816 3084 2150 3084 
Q 2853 3084 3261 2657 
Q 3669 2231 3669 1497 
Q 3669 778 3244 343 
Q 2819 -91 2113 -91 
Q 1303 -91 875 529 
Q 447 1150 447 2328 
Q 447 3434 972 4092 
Q 1497 4750 2381 4750 
Q 2619 4750 2861 4703 
Q 3103 4656 3366 4563 
z
" transform="scale(0.015625)"/>
       </defs>
       <use xlink:href="#DejaVuSans-30"/>
       <use xlink:href="#DejaVuSans-2e" x="63.623047"/>
       <use xlink:href="#DejaVuSans-30" x="95.410156"/>
       <use xlink:href="#DejaVuSans-30" x="159.033203"/>
       <use xlink:href="#DejaVuSans-30" x="222.65625"/>
       <use xlink:href="#DejaVuSans-36" x="286.279297"/>
      </g>
     </g>
    </g>
    <g id="ytick_4">
     <g id="line2d_17">
      <path d="M 58.293625 264.92039 
L 415.413625 264.92039 
" clip-path="url(#pb3f049192d)" style="fill: none; stroke: #ffffff; stroke-width: 0.5"/>
     </g>
    </g>
    <g id="ytick_5">
     <g id="line2d_18">
      <path d="M 58.293625 196.113404 
L 415.413625 196.113404 
" clip-path="url(#pb3f049192d)" style="fill: none; stroke: #ffffff; stroke-width: 0.5"/>
     </g>
    </g>
    <g id="ytick_6">
     <g id="line2d_19">
      <path d="M 58.293625 127.306418 
L 415.413625 127.306418 
" clip-path="url(#pb3f049192d)" style="fill: none; stroke: #ffffff; stroke-width: 0.5"/>
     </g>
    </g>
    <g id="ytick_7">
     <g id="line2d_20">
      <path d="M 58.293625 58.499432 
L 415.413625 58.499432 
" clip-path="url(#pb3f049192d)" style="fill: none; stroke: #ffffff; stroke-width: 0.5"/>
     </g>
    </g>
    <g id="text_8">
     <!-- unit_weight -->
     <g transform="translate(15.558281 189.382355)rotate(-90)scale(0.11 -0.11)">
      <defs>
       <path id="DejaVuSans-6e" d="M 3513 2113 
L 3513 0 
L 2938 0 
L 2938 2094 
Q 2938 2591 2744 2837 
Q 2550 3084 2163 3084 
Q 1697 3084 1428 2787 
Q 1159 2491 1159 1978 
L 1159 0 
L 581 0 
L 581 3500 
L 1159 3500 
L 1159 2956 
Q 1366 3272 1645 3428 
Q 1925 3584 2291 3584 
Q 2894 3584 3203 3211 
Q 3513 2838 3513 2113 
z
" transform="scale(0.015625)"/>
       <path id="DejaVuSans-69" d="M 603 3500 
L 1178 3500 
L 1178 0 
L 603 0 
L 603 3500 
z
M 603 4863 
L 1178 4863 
L 1178 4134 
L 603 4134 
L 603 4863 
z
" transform="scale(0.015625)"/>
       <path id="DejaVuSans-74" d="M 1172 4494 
L 1172 3500 
L 2356 3500 
L 2356 3053 
L 1172 3053 
L 1172 1153 
Q 1172 725 1289 603 
Q 1406 481 1766 481 
L 2356 481 
L 2356 0 
L 1766 0 
Q 1100 0 847 248 
Q 594 497 594 1153 
L 594 3053 
L 172 3053 
L 172 3500 
L 594 3500 
L 594 4494 
L 1172 4494 
z
" transform="scale(0.015625)"/>
       <path id="DejaVuSans-77" d="M 269 3500 
L 844 3500 
L 1563 769 
L 2278 3500 
L 2956 3500 
L 3675 769 
L 4391 3500 
L 4966 3500 
L 4050 0 
L 3372 0 
L 2619 2869 
L 1863 0 
L 1184 0 
L 269 3500 
z
" transform="scale(0.015625)"/>
       <path id="DejaVuSans-68" d="M 3513 2113 
L 3513 0 
L 2938 0 
L 2938 2094 
Q 2938 2591 2744 2837 
Q 2550 3084 2163 3084 
Q 1697 3084 1428 2787 
Q 1159 2491 1159 1978 
L 1159 0 
L 581 0 
L 581 4863 
L 1159 4863 
L 1159 2956 
Q 1366 3272 1645 3428 
Q 1925 3584 2291 3584 
Q 2894 3584 3203 3211 
Q 3513 2838 3513 2113 
z
" transform="scale(0.015625)"/>
      </defs>
      <use xlink:href="#DejaVuSans-75"/>
      <use xlink:href="#DejaVuSans-6e" x="63.378906"/>
      <use xlink:href="#DejaVuSans-69" x="126.757812"/>
      <use xlink:href="#DejaVuSans-74" x="154.541016"/>
      <use xlink:href="#DejaVuSans-5f" x="193.75"/>
      <use xlink:href="#DejaVuSans-77" x="243.75"/>
      <use xlink:href="#DejaVuSans-65" x="325.537109"/>
      <use xlink:href="#DejaVuSans-69" x="387.060547"/>
      <use xlink:href="#DejaVuSans-67" x="414.84375"/>
      <use xlink:href="#DejaVuSans-68" x="478.320312"/>
      <use xlink:href="#DejaVuSans-74" x="541.699219"/>
     </g>
    </g>
   </g>
   <g id="PolyCollection_1">
    <path d="M 74.526352 272.725239 
L 74.526352 280.121371 
L 78.635903 277.196225 
L 82.745455 274.2718 
L 86.855006 271.34814 
L 90.964557 268.425294 
L 95.074108 265.503312 
L 99.18366 262.582249 
L 103.293211 259.662164 
L 107.402762 256.74312 
L 111.512313 253.825185 
L 115.621864 250.90843 
L 119.731416 247.992932 
L 123.840967 245.078774 
L 127.950518 242.166042 
L 132.060069 239.254831 
L 136.16962 236.345237 
L 140.279172 233.437365 
L 144.388723 230.531325 
L 148.498274 227.627232 
L 152.607825 224.725204 
L 156.717376 221.825368 
L 160.826928 218.927852 
L 164.936479 216.032786 
L 169.04603 213.140306 
L 173.155581 210.250546 
L 177.265132 207.36364 
L 181.374684 204.47972 
L 185.484235 201.598913 
L 189.593786 198.721339 
L 193.703337 195.847112 
L 197.812889 192.976332 
L 201.92244 190.109089 
L 206.031991 187.245454 
L 210.141542 184.385486 
L 214.251093 181.529221 
L 218.360645 178.676679 
L 222.470196 175.82786 
L 226.579747 172.982743 
L 230.689298 170.141287 
L 234.798849 167.303437 
L 238.908401 164.469116 
L 243.017952 161.638236 
L 247.127503 158.810694 
L 251.237054 155.986378 
L 255.346605 153.165166 
L 259.456157 150.34693 
L 263.565708 147.531538 
L 267.675259 144.718857 
L 271.78481 141.908751 
L 275.894361 139.101087 
L 280.003913 136.295733 
L 284.113464 133.49256 
L 288.223015 130.691446 
L 292.332566 127.892269 
L 296.442118 125.094916 
L 300.551669 122.299277 
L 304.66122 119.505249 
L 308.770771 116.712733 
L 312.880322 113.921638 
L 316.989874 111.131876 
L 321.099425 108.343366 
L 325.208976 105.55603 
L 329.318527 102.769799 
L 333.428078 99.984603 
L 337.53763 97.200381 
L 341.647181 94.417074 
L 345.756732 91.634628 
L 349.866283 88.852991 
L 353.975834 86.072117 
L 358.085386 83.29196 
L 362.194937 80.512479 
L 366.304488 77.733637 
L 370.414039 74.955396 
L 374.52359 72.177723 
L 378.633142 69.400587 
L 382.742693 66.623959 
L 386.852244 63.847811 
L 390.961795 61.072117 
L 395.071347 58.296855 
L 399.180898 55.522 
L 399.180898 46.601692 
L 399.180898 46.601692 
L 395.071347 49.53219 
L 390.961795 52.462281 
L 386.852244 55.391941 
L 382.742693 58.321146 
L 378.633142 61.249871 
L 374.52359 64.178089 
L 370.414039 67.10577 
L 366.304488 70.032882 
L 362.194937 72.959393 
L 358.085386 75.885266 
L 353.975834 78.810462 
L 349.866283 81.734941 
L 345.756732 84.658658 
L 341.647181 87.581565 
L 337.53763 90.503611 
L 333.428078 93.424743 
L 329.318527 96.344901 
L 325.208976 99.264022 
L 321.099425 102.18204 
L 316.989874 105.098883 
L 312.880322 108.014475 
L 308.770771 110.928733 
L 304.66122 113.841571 
L 300.551669 116.752896 
L 296.442118 119.66261 
L 292.332566 122.570611 
L 288.223015 125.476787 
L 284.113464 128.381026 
L 280.003913 131.283207 
L 275.894361 134.183206 
L 271.78481 137.080896 
L 267.675259 139.976143 
L 263.565708 142.868815 
L 259.456157 145.758777 
L 255.346605 148.645894 
L 251.237054 151.530035 
L 247.127503 154.411072 
L 243.017952 157.288884 
L 238.908401 160.163358 
L 234.798849 163.03439 
L 230.689298 165.901893 
L 226.579747 168.765791 
L 222.470196 171.626027 
L 218.360645 174.482561 
L 214.251093 177.335373 
L 210.141542 180.184462 
L 206.031991 183.029846 
L 201.92244 185.871565 
L 197.812889 188.709675 
L 193.703337 191.544249 
L 189.593786 194.375375 
L 185.484235 197.203155 
L 181.374684 200.027701 
L 177.265132 202.849134 
L 173.155581 205.667581 
L 169.04603 208.483175 
L 164.936479 211.296048 
L 160.826928 214.106336 
L 156.717376 216.914173 
L 152.607825 219.71969 
L 148.498274 222.523017 
L 144.388723 225.324276 
L 140.279172 228.12359 
L 136.16962 230.921071 
L 132.060069 233.716831 
L 127.950518 236.510973 
L 123.840967 239.303595 
L 119.731416 242.09479 
L 115.621864 244.884646 
L 111.512313 247.673244 
L 107.402762 250.460662 
L 103.293211 253.246972 
L 99.18366 256.03224 
L 95.074108 258.816531 
L 90.964557 261.599902 
L 86.855006 264.382409 
L 82.745455 267.164103 
L 78.635903 269.945031 
L 74.526352 272.725239 
z
" clip-path="url(#pb3f049192d)" style="fill: #778899; fill-opacity: 0.298039"/>
   </g>
   <g id="line2d_21">
    <path d="M 74.526352 276.423305 
L 78.635903 273.570628 
L 82.745455 270.717951 
L 86.855006 267.865275 
L 90.964557 265.012598 
L 95.074108 262.159921 
L 99.18366 259.307244 
L 103.293211 256.454568 
L 107.402762 253.601891 
L 111.512313 250.749214 
L 115.621864 247.896538 
L 119.731416 245.043861 
L 123.840967 242.191184 
L 127.950518 239.338508 
L 132.060069 236.485831 
L 136.16962 233.633154 
L 140.279172 230.780478 
L 144.388723 227.927801 
L 148.498274 225.075124 
L 152.607825 222.222447 
L 156.717376 219.369771 
L 160.826928 216.517094 
L 164.936479 213.664417 
L 169.04603 210.811741 
L 173.155581 207.959064 
L 177.265132 205.106387 
L 181.374684 202.253711 
L 185.484235 199.401034 
L 189.593786 196.548357 
L 193.703337 193.69568 
L 197.812889 190.843004 
L 201.92244 187.990327 
L 206.031991 185.13765 
L 210.141542 182.284974 
L 214.251093 179.432297 
L 218.360645 176.57962 
L 222.470196 173.726944 
L 226.579747 170.874267 
L 230.689298 168.02159 
L 234.798849 165.168914 
L 238.908401 162.316237 
L 243.017952 159.46356 
L 247.127503 156.610883 
L 251.237054 153.758207 
L 255.346605 150.90553 
L 259.456157 148.052853 
L 263.565708 145.200177 
L 267.675259 142.3475 
L 271.78481 139.494823 
L 275.894361 136.642147 
L 280.003913 133.78947 
L 284.113464 130.936793 
L 288.223015 128.084116 
L 292.332566 125.23144 
L 296.442118 122.378763 
L 300.551669 119.526086 
L 304.66122 116.67341 
L 308.770771 113.820733 
L 312.880322 110.968056 
L 316.989874 108.11538 
L 321.099425 105.262703 
L 325.208976 102.410026 
L 329.318527 99.55735 
L 333.428078 96.704673 
L 337.53763 93.851996 
L 341.647181 90.999319 
L 345.756732 88.146643 
L 349.866283 85.293966 
L 353.975834 82.441289 
L 358.085386 79.588613 
L 362.194937 76.735936 
L 366.304488 73.883259 
L 370.414039 71.030583 
L 374.52359 68.177906 
L 378.633142 65.325229 
L 382.742693 62.472553 
L 386.852244 59.619876 
L 390.961795 56.767199 
L 395.071347 53.914522 
L 399.180898 51.061846 
" clip-path="url(#pb3f049192d)" style="fill: none; stroke: #778899; stroke-width: 1.772454; stroke-linejoin: miter"/>
   </g>
   <g id="PathCollection_1">
    <path d="M 74.526352 275.998298 
C 75.113928 275.998298 75.677516 275.764851 76.092995 275.349373 
C 76.508473 274.933894 76.74192 274.370306 76.74192 273.78273 
C 76.74192 273.195155 76.508473 272.631566 76.092995 272.216088 
C 75.677516 271.800609 75.113928 271.567163 74.526352 271.567163 
C 73.938777 271.567163 73.375188 271.800609 72.95971 272.216088 
C 72.544231 272.631566 72.310785 273.195155 72.310785 273.78273 
C 72.310785 274.370306 72.544231 274.933894 72.95971 275.349373 
C 73.375188 275.764851 73.938777 275.998298 74.526352 275.998298 
z
" clip-path="url(#pb3f049192d)" style="fill: #708090; stroke: #708090; stroke-width: 0.886227"/>
    <path d="M 91.613434 266.310274 
C 92.201009 266.310274 92.764598 266.076828 93.180076 265.661349 
C 93.595555 265.245871 93.829001 264.682282 93.829001 264.094707 
C 93.829001 263.507131 93.595555 262.943542 93.180076 262.528064 
C 92.764598 262.112585 92.201009 261.879139 91.613434 261.879139 
C 91.025858 261.879139 90.462269 262.112585 90.046791 262.528064 
C 89.631312 262.943542 89.397866 263.507131 89.397866 264.094707 
C 89.397866 264.682282 89.631312 265.245871 90.046791 265.661349 
C 90.462269 266.076828 91.025858 266.310274 91.613434 266.310274 
z
" clip-path="url(#pb3f049192d)" style="fill: #708090; stroke: #708090; stroke-width: 0.886227"/>
    <path d="M 101.438505 260.186452 
C 102.026081 260.186452 102.58967 259.953006 103.005148 259.537528 
C 103.420627 259.122049 103.654073 258.55846 103.654073 257.970885 
C 103.654073 257.38331 103.420627 256.819721 103.005148 256.404242 
C 102.58967 255.988764 102.026081 255.755318 101.438505 255.755318 
C 100.85093 255.755318 100.287341 255.988764 99.871863 256.404242 
C 99.456384 256.819721 99.222938 257.38331 99.222938 257.970885 
C 99.222938 258.55846 99.456384 259.122049 99.871863 259.537528 
C 100.287341 259.953006 100.85093 260.186452 101.438505 260.186452 
z
" clip-path="url(#pb3f049192d)" style="fill: #708090; stroke: #708090; stroke-width: 0.886227"/>
    <path d="M 112.117931 248.970913 
C 112.705507 248.970913 113.269095 248.737467 113.684574 248.321989 
C 114.100052 247.90651 114.333499 247.342921 114.333499 246.755346 
C 114.333499 246.167771 114.100052 245.604182 113.684574 245.188703 
C 113.269095 244.773225 112.705507 244.539779 112.117931 244.539779 
C 111.530356 244.539779 110.966767 244.773225 110.551289 245.188703 
C 110.13581 245.604182 109.902364 246.167771 109.902364 246.755346 
C 109.902364 247.342921 110.13581 247.90651 110.551289 248.321989 
C 110.966767 248.737467 111.530356 248.970913 112.117931 248.970913 
z
" clip-path="url(#pb3f049192d)" style="fill: #708090; stroke: #708090; stroke-width: 0.886227"/>
    <path d="M 123.651711 243.22553 
C 124.239286 243.22553 124.802875 242.992084 125.218354 242.576605 
C 125.633832 242.161127 125.867278 241.597538 125.867278 241.009963 
C 125.867278 240.422387 125.633832 239.858799 125.218354 239.44332 
C 124.802875 239.027842 124.239286 238.794395 123.651711 238.794395 
C 123.064136 238.794395 122.500547 239.027842 122.085068 239.44332 
C 121.66959 239.858799 121.436144 240.422387 121.436144 241.009963 
C 121.436144 241.597538 121.66959 242.161127 122.085068 242.576605 
C 122.500547 242.992084 123.064136 243.22553 123.651711 243.22553 
z
" clip-path="url(#pb3f049192d)" style="fill: #708090; stroke: #708090; stroke-width: 0.886227"/>
    <path d="M 136.039845 238.615462 
C 136.62742 238.615462 137.191009 238.382016 137.606488 237.966537 
C 138.021966 237.551059 138.255412 236.98747 138.255412 236.399895 
C 138.255412 235.812319 138.021966 235.24873 137.606488 234.833252 
C 137.191009 234.417774 136.62742 234.184327 136.039845 234.184327 
C 135.45227 234.184327 134.888681 234.417774 134.473202 234.833252 
C 134.057724 235.24873 133.824278 235.812319 133.824278 236.399895 
C 133.824278 236.98747 134.057724 237.551059 134.473202 237.966537 
C 134.888681 238.382016 135.45227 238.615462 136.039845 238.615462 
z
" clip-path="url(#pb3f049192d)" style="fill: #708090; stroke: #708090; stroke-width: 0.886227"/>
    <path d="M 149.282333 226.333415 
C 149.869908 226.333415 150.433497 226.099969 150.848976 225.68449 
C 151.264454 225.269012 151.4979 224.705423 151.4979 224.117848 
C 151.4979 223.530272 151.264454 222.966683 150.848976 222.551205 
C 150.433497 222.135726 149.869908 221.90228 149.282333 221.90228 
C 148.694758 221.90228 148.131169 222.135726 147.71569 222.551205 
C 147.300212 222.966683 147.066766 223.530272 147.066766 224.117848 
C 147.066766 224.705423 147.300212 225.269012 147.71569 225.68449 
C 148.131169 226.099969 148.694758 226.333415 149.282333 226.333415 
z
" clip-path="url(#pb3f049192d)" style="fill: #708090; stroke: #708090; stroke-width: 0.886227"/>
    <path d="M 163.379175 216.04677 
C 163.966751 216.04677 164.530339 215.813324 164.945818 215.397846 
C 165.361296 214.982367 165.594743 214.418778 165.594743 213.831203 
C 165.594743 213.243628 165.361296 212.680039 164.945818 212.264561 
C 164.530339 211.849082 163.966751 211.615636 163.379175 211.615636 
C 162.7916 211.615636 162.228011 211.849082 161.812533 212.264561 
C 161.397054 212.680039 161.163608 213.243628 161.163608 213.831203 
C 161.163608 214.418778 161.397054 214.982367 161.812533 215.397846 
C 162.228011 215.813324 162.7916 216.04677 163.379175 216.04677 
z
" clip-path="url(#pb3f049192d)" style="fill: #708090; stroke: #708090; stroke-width: 0.886227"/>
    <path d="M 178.330371 205.691319 
C 178.917947 205.691319 179.481536 205.457873 179.897014 205.042394 
C 180.312493 204.626916 180.545939 204.063327 180.545939 203.475752 
C 180.545939 202.888176 180.312493 202.324588 179.897014 201.909109 
C 179.481536 201.493631 178.917947 201.260184 178.330371 201.260184 
C 177.742796 201.260184 177.179207 201.493631 176.763729 201.909109 
C 176.34825 202.324588 176.114804 202.888176 176.114804 203.475752 
C 176.114804 204.063327 176.34825 204.626916 176.763729 205.042394 
C 177.179207 205.457873 177.742796 205.691319 178.330371 205.691319 
z
" clip-path="url(#pb3f049192d)" style="fill: #708090; stroke: #708090; stroke-width: 0.886227"/>
    <path d="M 194.135922 193.925324 
C 194.723497 193.925324 195.287086 193.691878 195.702564 193.2764 
C 196.118043 192.860921 196.351489 192.297332 196.351489 191.709757 
C 196.351489 191.122182 196.118043 190.558593 195.702564 190.143114 
C 195.287086 189.727636 194.723497 189.49419 194.135922 189.49419 
C 193.548346 189.49419 192.984757 189.727636 192.569279 190.143114 
C 192.1538 190.558593 191.920354 191.122182 191.920354 191.709757 
C 191.920354 192.297332 192.1538 192.860921 192.569279 193.2764 
C 192.984757 193.691878 193.548346 193.925324 194.135922 193.925324 
z
" clip-path="url(#pb3f049192d)" style="fill: #708090; stroke: #708090; stroke-width: 0.886227"/>
    <path d="M 210.795826 190.278554 
C 211.383401 190.278554 211.94699 190.045108 212.362469 189.629629 
C 212.777947 189.214151 213.011393 188.650562 213.011393 188.062987 
C 213.011393 187.475411 212.777947 186.911823 212.362469 186.496344 
C 211.94699 186.080866 211.383401 185.84742 210.795826 185.84742 
C 210.208251 185.84742 209.644662 186.080866 209.229183 186.496344 
C 208.813705 186.911823 208.580259 187.475411 208.580259 188.062987 
C 208.580259 188.650562 208.813705 189.214151 209.229183 189.629629 
C 209.644662 190.045108 210.208251 190.278554 210.795826 190.278554 
z
" clip-path="url(#pb3f049192d)" style="fill: #708090; stroke: #708090; stroke-width: 0.886227"/>
    <path d="M 228.310084 174.212123 
C 228.89766 174.212123 229.461249 173.978677 229.876727 173.563198 
C 230.292205 173.14772 230.525652 172.584131 230.525652 171.996556 
C 230.525652 171.40898 230.292205 170.845391 229.876727 170.429913 
C 229.461249 170.014434 228.89766 169.780988 228.310084 169.780988 
C 227.722509 169.780988 227.15892 170.014434 226.743442 170.429913 
C 226.327963 170.845391 226.094517 171.40898 226.094517 171.996556 
C 226.094517 172.584131 226.327963 173.14772 226.743442 173.563198 
C 227.15892 173.978677 227.722509 174.212123 228.310084 174.212123 
z
" clip-path="url(#pb3f049192d)" style="fill: #708090; stroke: #708090; stroke-width: 0.886227"/>
    <path d="M 246.678697 157.939271 
C 247.266272 157.939271 247.829861 157.705824 248.245339 157.290346 
C 248.660818 156.874867 248.894264 156.311279 248.894264 155.723703 
C 248.894264 155.136128 248.660818 154.572539 248.245339 154.157061 
C 247.829861 153.741582 247.266272 153.508136 246.678697 153.508136 
C 246.091121 153.508136 245.527533 153.741582 245.112054 154.157061 
C 244.696576 154.572539 244.463129 155.136128 244.463129 155.723703 
C 244.463129 156.311279 244.696576 156.874867 245.112054 157.290346 
C 245.527533 157.705824 246.091121 157.939271 246.678697 157.939271 
z
" clip-path="url(#pb3f049192d)" style="fill: #708090; stroke: #708090; stroke-width: 0.886227"/>
    <path d="M 265.901663 150.026467 
C 266.489239 150.026467 267.052827 149.793021 267.468306 149.377543 
C 267.883784 148.962064 268.117231 148.398475 268.117231 147.8109 
C 268.117231 147.223325 267.883784 146.659736 267.468306 146.244257 
C 267.052827 145.828779 266.489239 145.595333 265.901663 145.595333 
C 265.314088 145.595333 264.750499 145.828779 264.335021 146.244257 
C 263.919542 146.659736 263.686096 147.223325 263.686096 147.8109 
C 263.686096 148.398475 263.919542 148.962064 264.335021 149.377543 
C 264.750499 149.793021 265.314088 150.026467 265.901663 150.026467 
z
" clip-path="url(#pb3f049192d)" style="fill: #708090; stroke: #708090; stroke-width: 0.886227"/>
    <path d="M 285.978984 129.556389 
C 286.566559 129.556389 287.130148 129.322943 287.545627 128.907464 
C 287.961105 128.491986 288.194551 127.928397 288.194551 127.340821 
C 288.194551 126.753246 287.961105 126.189657 287.545627 125.774179 
C 287.130148 125.3587 286.566559 125.125254 285.978984 125.125254 
C 285.391409 125.125254 284.82782 125.3587 284.412341 125.774179 
C 283.996863 126.189657 283.763417 126.753246 283.763417 127.340821 
C 283.763417 127.928397 283.996863 128.491986 284.412341 128.907464 
C 284.82782 129.322943 285.391409 129.556389 285.978984 129.556389 
z
" clip-path="url(#pb3f049192d)" style="fill: #708090; stroke: #708090; stroke-width: 0.886227"/>
    <path d="M 306.910658 118.100026 
C 307.498234 118.100026 308.061823 117.866579 308.477301 117.451101 
C 308.89278 117.035622 309.126226 116.472034 309.126226 115.884458 
C 309.126226 115.296883 308.89278 114.733294 308.477301 114.317816 
C 308.061823 113.902337 307.498234 113.668891 306.910658 113.668891 
C 306.323083 113.668891 305.759494 113.902337 305.344016 114.317816 
C 304.928537 114.733294 304.695091 115.296883 304.695091 115.884458 
C 304.695091 116.472034 304.928537 117.035622 305.344016 117.451101 
C 305.759494 117.866579 306.323083 118.100026 306.910658 118.100026 
z
" clip-path="url(#pb3f049192d)" style="fill: #708090; stroke: #708090; stroke-width: 0.886227"/>
    <path d="M 328.696687 107.50375 
C 329.284263 107.50375 329.847851 107.270303 330.26333 106.854825 
C 330.678808 106.439347 330.912255 105.875758 330.912255 105.288182 
C 330.912255 104.700607 330.678808 104.137018 330.26333 103.72154 
C 329.847851 103.306061 329.284263 103.072615 328.696687 103.072615 
C 328.109112 103.072615 327.545523 103.306061 327.130045 103.72154 
C 326.714566 104.137018 326.48112 104.700607 326.48112 105.288182 
C 326.48112 105.875758 326.714566 106.439347 327.130045 106.854825 
C 327.545523 107.270303 328.109112 107.50375 328.696687 107.50375 
z
" clip-path="url(#pb3f049192d)" style="fill: #708090; stroke: #708090; stroke-width: 0.886227"/>
    <path d="M 351.33707 94.258405 
C 351.924645 94.258405 352.488234 94.024959 352.903713 93.60948 
C 353.319191 93.194002 353.552637 92.630413 353.552637 92.042837 
C 353.552637 91.455262 353.319191 90.891673 352.903713 90.476195 
C 352.488234 90.060716 351.924645 89.82727 351.33707 89.82727 
C 350.749495 89.82727 350.185906 90.060716 349.770427 90.476195 
C 349.354949 90.891673 349.121503 91.455262 349.121503 92.042837 
C 349.121503 92.630413 349.354949 93.194002 349.770427 93.60948 
C 350.185906 94.024959 350.749495 94.258405 351.33707 94.258405 
z
" clip-path="url(#pb3f049192d)" style="fill: #708090; stroke: #708090; stroke-width: 0.886227"/>
    <path d="M 374.831807 68.90303 
C 375.419382 68.90303 375.982971 68.669584 376.398449 68.254106 
C 376.813928 67.838627 377.047374 67.275038 377.047374 66.687463 
C 377.047374 66.099888 376.813928 65.536299 376.398449 65.12082 
C 375.982971 64.705342 375.419382 64.471896 374.831807 64.471896 
C 374.244231 64.471896 373.680643 64.705342 373.265164 65.12082 
C 372.849686 65.536299 372.61624 66.099888 372.61624 66.687463 
C 372.61624 67.275038 372.849686 67.838627 373.265164 68.254106 
C 373.680643 68.669584 374.244231 68.90303 374.831807 68.90303 
z
" clip-path="url(#pb3f049192d)" style="fill: #708090; stroke: #708090; stroke-width: 0.886227"/>
    <path d="M 399.180898 40.416938 
C 399.768473 40.416938 400.332062 40.183492 400.74754 39.768013 
C 401.163019 39.352535 401.396465 38.788946 401.396465 38.201371 
C 401.396465 37.613795 401.163019 37.050207 400.74754 36.634728 
C 400.332062 36.21925 399.768473 35.985803 399.180898 35.985803 
C 398.593322 35.985803 398.029734 36.21925 397.614255 36.634728 
C 397.198777 37.050207 396.96533 37.613795 396.96533 38.201371 
C 396.96533 38.788946 397.198777 39.352535 397.614255 39.768013 
C 398.029734 40.183492 398.593322 40.416938 399.180898 40.416938 
z
" clip-path="url(#pb3f049192d)" style="fill: #708090; stroke: #708090; stroke-width: 0.886227"/>
   </g>
  </g>
  <g id="text_9">
   <!-- pure nickel -->
   <g transform="translate(194.875094 17.229938)scale(0.132 -0.132)">
    <defs>
     <path id="DejaVuSans-70" d="M 1159 525 
L 1159 -1331 
L 581 -1331 
L 581 3500 
L 1159 3500 
L 1159 2969 
Q 1341 3281 1617 3432 
Q 1894 3584 2278 3584 
Q 2916 3584 3314 3078 
Q 3713 2572 3713 1747 
Q 3713 922 3314 415 
Q 2916 -91 2278 -91 
Q 1894 -91 1617 61 
Q 1341 213 1159 525 
z
M 3116 1747 
Q 3116 2381 2855 2742 
Q 2594 3103 2138 3103 
Q 1681 3103 1420 2742 
Q 1159 2381 1159 1747 
Q 1159 1113 1420 752 
Q 1681 391 2138 391 
Q 2594 391 2855 752 
Q 3116 1113 3116 1747 
z
" transform="scale(0.015625)"/>
     <path id="DejaVuSans-72" d="M 2631 2963 
Q 2534 3019 2420 3045 
Q 2306 3072 2169 3072 
Q 1681 3072 1420 2755 
Q 1159 2438 1159 1844 
L 1159 0 
L 581 0 
L 581 3500 
L 1159 3500 
L 1159 2956 
Q 1341 3275 1631 3429 
Q 1922 3584 2338 3584 
Q 2397 3584 2469 3576 
Q 2541 3569 2628 3553 
L 2631 2963 
z
" transform="scale(0.015625)"/>
     <path id="DejaVuSans-20" transform="scale(0.015625)"/>
     <path id="DejaVuSans-63" d="M 3122 3366 
L 3122 2828 
Q 2878 2963 2633 3030 
Q 2388 3097 2138 3097 
Q 1578 3097 1268 2742 
Q 959 2388 959 1747 
Q 959 1106 1268 751 
Q 1578 397 2138 397 
Q 2388 397 2633 464 
Q 2878 531 3122 666 
L 3122 134 
Q 2881 22 2623 -34 
Q 2366 -91 2075 -91 
Q 1284 -91 818 406 
Q 353 903 353 1747 
Q 353 2603 823 3093 
Q 1294 3584 2113 3584 
Q 2378 3584 2631 3529 
Q 2884 3475 3122 3366 
z
" transform="scale(0.015625)"/>
     <path id="DejaVuSans-6b" d="M 581 4863 
L 1159 4863 
L 1159 1991 
L 2875 3500 
L 3609 3500 
L 1753 1863 
L 3688 0 
L 2938 0 
L 1159 1709 
L 1159 0 
L 581 0 
L 581 4863 
z
" transform="scale(0.015625)"/>
     <path id="DejaVuSans-6c" d="M 603 4863 
L 1178 4863 
L 1178 0 
L 603 0 
L 603 4863 
z
" transform="scale(0.015625)"/>
    </defs>
    <use xlink:href="#DejaVuSans-70"/>
    <use xlink:href="#DejaVuSans-75" x="63.476562"/>
    <use xlink:href="#DejaVuSans-72" x="126.855469"/>
    <use xlink:href="#DejaVuSans-65" x="165.71875"/>
    <use xlink:href="#DejaVuSans-20" x="227.242188"/>
    <use xlink:href="#DejaVuSans-6e" x="259.029297"/>
    <use xlink:href="#DejaVuSans-69" x="322.408203"/>
    <use xlink:href="#DejaVuSans-63" x="350.191406"/>
    <use xlink:href="#DejaVuSans-6b" x="405.171875"/>
    <use xlink:href="#DejaVuSans-65" x="459.457031"/>
    <use xlink:href="#DejaVuSans-6c" x="520.980469"/>
   </g>
  </g>
 </g>
 <defs>
  <clipPath id="pb3f049192d">
   <rect x="58.293625" y="26.105371" width="357.12" height="266.112"/>
  </clipPath>
 </defs>
</svg>
