<?xml version="1.0" encoding="utf-8" standalone="no"?>
<!DOCTYPE svg PUBLIC "-//W3C//DTD SVG 1.1//EN"
  "http://www.w3.org/Graphics/SVG/1.1/DTD/svg11.dtd">
<svg xmlns:xlink="http://www.w3.org/1999/xlink" width="428.212625pt" height="327.930058pt" viewBox="0 0 428.212625 327.930058" xmlns="http://www.w3.org/2000/svg" version="1.1">
 <metadata>
  <rdf:RDF xmlns:dc="http://purl.org/dc/elements/1.1/" xmlns:cc="http://creativecommons.org/ns#" xmlns:rdf="http://www.w3.org/1999/02/22-rdf-syntax-ns#">
   <cc:Work>
    <dc:type rdf:resource="http://purl.org/dc/dcmitype/StillImage"/>
    <dc:date>2022-02-09T21:10:40.636672</dc:date>
    <dc:format>image/svg+xml</dc:format>
    <dc:creator>
     <cc:Agent>
      <dc:title>Matplotlib v3.5.1, https://matplotlib.org/</dc:title>
     </cc:Agent>
    </dc:creator>
   </cc:Work>
  </rdf:RDF>
 </metadata>
 <defs>
  <style type="text/css">*{stroke-linejoin: round; stroke-linecap: butt}</style>
 </defs>
 <g id="figure_1">
  <g id="patch_1">
   <path d="M 0 327.930058 
L 428.212625 327.930058 
L 428.212625 0 
L 0 0 
z
" style="fill: #ffffff; stroke: #ffffff; stroke-linejoin: miter"/>
  </g>
  <g id="axes_1">
   <g id="patch_2">
    <path d="M 63.892625 292.217371 
L 421.012625 292.217371 
L 421.012625 26.105371 
L 63.892625 26.105371 
z
" style="fill: #ebebeb"/>
   </g>
   <g id="matplotlib.axis_1">
    <g id="xtick_1">
     <g id="line2d_1">
      <path d="M 152.270807 292.217371 
L 152.270807 26.105371 
" clip-path="url(#p84927add9f)" style="fill: none; stroke: #ffffff"/>
     </g>
     <g id="line2d_2">
      <path d="M 152.270807 292.217371 
" style="fill: none; stroke: #333333; stroke-width: 1.5"/>
      <defs>
       <path id="m1d91944ce7" d="M 0 0 
L 0 2.75 
" style="stroke: #000000"/>
      </defs>
      <g>
       <use xlink:href="#m1d91944ce7" x="152.270807" y="292.217371" style="fill: #333333; stroke: #000000"/>
      </g>
     </g>
     <g id="text_1">
      <!-- 0.0002 -->
      <g style="fill: #4d4d4d" transform="translate(136.874932 303.853996)scale(0.088 -0.088)">
       <defs>
        <path id="DejaVuSans-30" d="M 2034 4250 
Q 1547 4250 1301 3770 
Q 1056 3291 1056 2328 
Q 1056 1369 1301 889 
Q 1547 409 2034 409 
Q 2525 409 2770 889 
Q 3016 1369 3016 2328 
Q 3016 3291 2770 3770 
Q 2525 4250 2034 4250 
z
M 2034 4750 
Q 2819 4750 3233 4129 
Q 3647 3509 3647 2328 
Q 3647 1150 3233 529 
Q 2819 -91 2034 -91 
Q 1250 -91 836 529 
Q 422 1150 422 2328 
Q 422 3509 836 4129 
Q 1250 4750 2034 4750 
z
" transform="scale(0.015625)"/>
        <path id="DejaVuSans-2e" d="M 684 794 
L 1344 794 
L 1344 0 
L 684 0 
L 684 794 
z
" transform="scale(0.015625)"/>
        <path id="DejaVuSans-32" d="M 1228 531 
L 3431 531 
L 3431 0 
L 469 0 
L 469 531 
Q 828 903 1448 1529 
Q 2069 2156 2228 2338 
Q 2531 2678 2651 2914 
Q 2772 3150 2772 3378 
Q 2772 3750 2511 3984 
Q 2250 4219 1831 4219 
Q 1534 4219 1204 4116 
Q 875 4013 500 3803 
L 500 4441 
Q 881 4594 1212 4672 
Q 1544 4750 1819 4750 
Q 2544 4750 2975 4387 
Q 3406 4025 3406 3419 
Q 3406 3131 3298 2873 
Q 3191 2616 2906 2266 
Q 2828 2175 2409 1742 
Q 1991 1309 1228 531 
z
" transform="scale(0.015625)"/>
       </defs>
       <use xlink:href="#DejaVuSans-30"/>
       <use xlink:href="#DejaVuSans-2e" x="63.623047"/>
       <use xlink:href="#DejaVuSans-30" x="95.410156"/>
       <use xlink:href="#DejaVuSans-30" x="159.033203"/>
       <use xlink:href="#DejaVuSans-30" x="222.65625"/>
       <use xlink:href="#DejaVuSans-32" x="286.279297"/>
      </g>
     </g>
    </g>
    <g id="xtick_2">
     <g id="line2d_3">
      <path d="M 258.367064 292.217371 
L 258.367064 26.105371 
" clip-path="url(#p84927add9f)" style="fill: none; stroke: #ffffff"/>
     </g>
     <g id="line2d_4">
      <path d="M 258.367064 292.217371 
" style="fill: none; stroke: #333333; stroke-width: 1.5"/>
      <g>
       <use xlink:href="#m1d91944ce7" x="258.367064" y="292.217371" style="fill: #333333; stroke: #000000"/>
      </g>
     </g>
     <g id="text_2">
      <!-- 0.0004 -->
      <g style="fill: #4d4d4d" transform="translate(242.971189 303.853996)scale(0.088 -0.088)">
       <defs>
        <path id="DejaVuSans-34" d="M 2419 4116 
L 825 1625 
L 2419 1625 
L 2419 4116 
z
M 2253 4666 
L 3047 4666 
L 3047 1625 
L 3713 1625 
L 3713 1100 
L 3047 1100 
L 3047 0 
L 2419 0 
L 2419 1100 
L 313 1100 
L 313 1709 
L 2253 4666 
z
" transform="scale(0.015625)"/>
       </defs>
       <use xlink:href="#DejaVuSans-30"/>
       <use xlink:href="#DejaVuSans-2e" x="63.623047"/>
       <use xlink:href="#DejaVuSans-30" x="95.410156"/>
       <use xlink:href="#DejaVuSans-30" x="159.033203"/>
       <use xlink:href="#DejaVuSans-30" x="222.65625"/>
       <use xlink:href="#DejaVuSans-34" x="286.279297"/>
      </g>
     </g>
    </g>
    <g id="xtick_3">
     <g id="line2d_5">
      <path d="M 364.46332 292.217371 
L 364.46332 26.105371 
" clip-path="url(#p84927add9f)" style="fill: none; stroke: #ffffff"/>
     </g>
     <g id="line2d_6">
      <path d="M 364.46332 292.217371 
" style="fill: none; stroke: #333333; stroke-width: 1.5"/>
      <g>
       <use xlink:href="#m1d91944ce7" x="364.46332" y="292.217371" style="fill: #333333; stroke: #000000"/>
      </g>
     </g>
     <g id="text_3">
      <!-- 0.0006 -->
      <g style="fill: #4d4d4d" transform="translate(349.067445 303.853996)scale(0.088 -0.088)">
       <defs>
        <path id="DejaVuSans-36" d="M 2113 2584 
Q 1688 2584 1439 2293 
Q 1191 2003 1191 1497 
Q 1191 994 1439 701 
Q 1688 409 2113 409 
Q 2538 409 2786 701 
Q 3034 994 3034 1497 
Q 3034 2003 2786 2293 
Q 2538 2584 2113 2584 
z
M 3366 4563 
L 3366 3988 
Q 3128 4100 2886 4159 
Q 2644 4219 2406 4219 
Q 1781 4219 1451 3797 
Q 1122 3375 1075 2522 
Q 1259 2794 1537 2939 
Q 1816 3084 2150 3084 
Q 2853 3084 3261 2657 
Q 3669 2231 3669 1497 
Q 3669 778 3244 343 
Q 2819 -91 2113 -91 
Q 1303 -91 875 529 
Q 447 1150 447 2328 
Q 447 3434 972 4092 
Q 1497 4750 2381 4750 
Q 2619 4750 2861 4703 
Q 3103 4656 3366 4563 
z
" transform="scale(0.015625)"/>
       </defs>
       <use xlink:href="#DejaVuSans-30"/>
       <use xlink:href="#DejaVuSans-2e" x="63.623047"/>
       <use xlink:href="#DejaVuSans-30" x="95.410156"/>
       <use xlink:href="#DejaVuSans-30" x="159.033203"/>
       <use xlink:href="#DejaVuSans-30" x="222.65625"/>
       <use xlink:href="#DejaVuSans-36" x="286.279297"/>
      </g>
     </g>
    </g>
    <g id="xtick_4">
     <g id="line2d_7">
      <path d="M 99.222678 292.217371 
L 99.222678 26.105371 
" clip-path="url(#p84927add9f)" style="fill: none; stroke: #ffffff; stroke-width: 0.5"/>
     </g>
    </g>
    <g id="xtick_5">
     <g id="line2d_8">
      <path d="M 205.318935 292.217371 
L 205.318935 26.105371 
" clip-path="url(#p84927add9f)" style="fill: none; stroke: #ffffff; stroke-width: 0.5"/>
     </g>
    </g>
    <g id="xtick_6">
     <g id="line2d_9">
      <path d="M 311.415192 292.217371 
L 311.415192 26.105371 
" clip-path="url(#p84927add9f)" style="fill: none; stroke: #ffffff; stroke-width: 0.5"/>
     </g>
    </g>
    <g id="xtick_7">
     <g id="line2d_10">
      <path d="M 417.511449 292.217371 
L 417.511449 26.105371 
" clip-path="url(#p84927add9f)" style="fill: none; stroke: #ffffff; stroke-width: 0.5"/>
     </g>
    </g>
    <g id="text_4">
     <!-- gauge_sq -->
     <g transform="translate(210.362234 318.136464)scale(0.11 -0.11)">
      <defs>
       <path id="DejaVuSans-67" d="M 2906 1791 
Q 2906 2416 2648 2759 
Q 2391 3103 1925 3103 
Q 1463 3103 1205 2759 
Q 947 2416 947 1791 
Q 947 1169 1205 825 
Q 1463 481 1925 481 
Q 2391 481 2648 825 
Q 2906 1169 2906 1791 
z
M 3481 434 
Q 3481 -459 3084 -895 
Q 2688 -1331 1869 -1331 
Q 1566 -1331 1297 -1286 
Q 1028 -1241 775 -1147 
L 775 -588 
Q 1028 -725 1275 -790 
Q 1522 -856 1778 -856 
Q 2344 -856 2625 -561 
Q 2906 -266 2906 331 
L 2906 616 
Q 2728 306 2450 153 
Q 2172 0 1784 0 
Q 1141 0 747 490 
Q 353 981 353 1791 
Q 353 2603 747 3093 
Q 1141 3584 1784 3584 
Q 2172 3584 2450 3431 
Q 2728 3278 2906 2969 
L 2906 3500 
L 3481 3500 
L 3481 434 
z
" transform="scale(0.015625)"/>
       <path id="DejaVuSans-61" d="M 2194 1759 
Q 1497 1759 1228 1600 
Q 959 1441 959 1056 
Q 959 750 1161 570 
Q 1363 391 1709 391 
Q 2188 391 2477 730 
Q 2766 1069 2766 1631 
L 2766 1759 
L 2194 1759 
z
M 3341 1997 
L 3341 0 
L 2766 0 
L 2766 531 
Q 2569 213 2275 61 
Q 1981 -91 1556 -91 
Q 1019 -91 701 211 
Q 384 513 384 1019 
Q 384 1609 779 1909 
Q 1175 2209 1959 2209 
L 2766 2209 
L 2766 2266 
Q 2766 2663 2505 2880 
Q 2244 3097 1772 3097 
Q 1472 3097 1187 3025 
Q 903 2953 641 2809 
L 641 3341 
Q 956 3463 1253 3523 
Q 1550 3584 1831 3584 
Q 2591 3584 2966 3190 
Q 3341 2797 3341 1997 
z
" transform="scale(0.015625)"/>
       <path id="DejaVuSans-75" d="M 544 1381 
L 544 3500 
L 1119 3500 
L 1119 1403 
Q 1119 906 1312 657 
Q 1506 409 1894 409 
Q 2359 409 2629 706 
Q 2900 1003 2900 1516 
L 2900 3500 
L 3475 3500 
L 3475 0 
L 2900 0 
L 2900 538 
Q 2691 219 2414 64 
Q 2138 -91 1772 -91 
Q 1169 -91 856 284 
Q 544 659 544 1381 
z
M 1991 3584 
L 1991 3584 
z
" transform="scale(0.015625)"/>
       <path id="DejaVuSans-65" d="M 3597 1894 
L 3597 1613 
L 953 1613 
Q 991 1019 1311 708 
Q 1631 397 2203 397 
Q 2534 397 2845 478 
Q 3156 559 3463 722 
L 3463 178 
Q 3153 47 2828 -22 
Q 2503 -91 2169 -91 
Q 1331 -91 842 396 
Q 353 884 353 1716 
Q 353 2575 817 3079 
Q 1281 3584 2069 3584 
Q 2775 3584 3186 3129 
Q 3597 2675 3597 1894 
z
M 3022 2063 
Q 3016 2534 2758 2815 
Q 2500 3097 2075 3097 
Q 1594 3097 1305 2825 
Q 1016 2553 972 2059 
L 3022 2063 
z
" transform="scale(0.015625)"/>
       <path id="DejaVuSans-5f" d="M 3263 -1063 
L 3263 -1509 
L -63 -1509 
L -63 -1063 
L 3263 -1063 
z
" transform="scale(0.015625)"/>
       <path id="DejaVuSans-73" d="M 2834 3397 
L 2834 2853 
Q 2591 2978 2328 3040 
Q 2066 3103 1784 3103 
Q 1356 3103 1142 2972 
Q 928 2841 928 2578 
Q 928 2378 1081 2264 
Q 1234 2150 1697 2047 
L 1894 2003 
Q 2506 1872 2764 1633 
Q 3022 1394 3022 966 
Q 3022 478 2636 193 
Q 2250 -91 1575 -91 
Q 1294 -91 989 -36 
Q 684 19 347 128 
L 347 722 
Q 666 556 975 473 
Q 1284 391 1588 391 
Q 1994 391 2212 530 
Q 2431 669 2431 922 
Q 2431 1156 2273 1281 
Q 2116 1406 1581 1522 
L 1381 1569 
Q 847 1681 609 1914 
Q 372 2147 372 2553 
Q 372 3047 722 3315 
Q 1072 3584 1716 3584 
Q 2034 3584 2315 3537 
Q 2597 3491 2834 3397 
z
" transform="scale(0.015625)"/>
       <path id="DejaVuSans-71" d="M 947 1747 
Q 947 1113 1208 752 
Q 1469 391 1925 391 
Q 2381 391 2643 752 
Q 2906 1113 2906 1747 
Q 2906 2381 2643 2742 
Q 2381 3103 1925 3103 
Q 1469 3103 1208 2742 
Q 947 2381 947 1747 
z
M 2906 525 
Q 2725 213 2448 61 
Q 2172 -91 1784 -91 
Q 1150 -91 751 415 
Q 353 922 353 1747 
Q 353 2572 751 3078 
Q 1150 3584 1784 3584 
Q 2172 3584 2448 3432 
Q 2725 3281 2906 2969 
L 2906 3500 
L 3481 3500 
L 3481 -1331 
L 2906 -1331 
L 2906 525 
z
" transform="scale(0.015625)"/>
      </defs>
      <use xlink:href="#DejaVuSans-67"/>
      <use xlink:href="#DejaVuSans-61" x="63.476562"/>
      <use xlink:href="#DejaVuSans-75" x="124.755859"/>
      <use xlink:href="#DejaVuSans-67" x="188.134766"/>
      <use xlink:href="#DejaVuSans-65" x="251.611328"/>
      <use xlink:href="#DejaVuSans-5f" x="313.134766"/>
      <use xlink:href="#DejaVuSans-73" x="363.134766"/>
      <use xlink:href="#DejaVuSans-71" x="415.234375"/>
     </g>
    </g>
   </g>
   <g id="matplotlib.axis_2">
    <g id="ytick_1">
     <g id="line2d_11">
      <path d="M 63.892625 234.508749 
L 421.012625 234.508749 
" clip-path="url(#p84927add9f)" style="fill: none; stroke: #ffffff"/>
     </g>
     <g id="line2d_12">
      <path d="M 63.892625 234.508749 
" style="fill: none; stroke: #333333; stroke-width: 1.5"/>
      <defs>
       <path id="m2cc817a7f4" d="M 0 0 
L -2.75 0 
" style="stroke: #000000"/>
      </defs>
      <g>
       <use xlink:href="#m2cc817a7f4" x="63.892625" y="234.508749" style="fill: #333333; stroke: #000000"/>
      </g>
     </g>
     <g id="text_5">
      <!-- 0.00004 -->
      <g style="fill: #4d4d4d" transform="translate(22.551875 236.936999)scale(0.088 -0.088)">
       <use xlink:href="#DejaVuSans-30"/>
       <use xlink:href="#DejaVuSans-2e" x="63.623047"/>
       <use xlink:href="#DejaVuSans-30" x="95.410156"/>
       <use xlink:href="#DejaVuSans-30" x="159.033203"/>
       <use xlink:href="#DejaVuSans-30" x="222.65625"/>
       <use xlink:href="#DejaVuSans-30" x="286.279297"/>
       <use xlink:href="#DejaVuSans-34" x="349.902344"/>
      </g>
     </g>
    </g>
    <g id="ytick_2">
     <g id="line2d_13">
      <path d="M 63.892625 169.54227 
L 421.012625 169.54227 
" clip-path="url(#p84927add9f)" style="fill: none; stroke: #ffffff"/>
     </g>
     <g id="line2d_14">
      <path d="M 63.892625 169.54227 
" style="fill: none; stroke: #333333; stroke-width: 1.5"/>
      <g>
       <use xlink:href="#m2cc817a7f4" x="63.892625" y="169.54227" style="fill: #333333; stroke: #000000"/>
      </g>
     </g>
     <g id="text_6">
      <!-- 0.00008 -->
      <g style="fill: #4d4d4d" transform="translate(22.551875 171.97052)scale(0.088 -0.088)">
       <defs>
        <path id="DejaVuSans-38" d="M 2034 2216 
Q 1584 2216 1326 1975 
Q 1069 1734 1069 1313 
Q 1069 891 1326 650 
Q 1584 409 2034 409 
Q 2484 409 2743 651 
Q 3003 894 3003 1313 
Q 3003 1734 2745 1975 
Q 2488 2216 2034 2216 
z
M 1403 2484 
Q 997 2584 770 2862 
Q 544 3141 544 3541 
Q 544 4100 942 4425 
Q 1341 4750 2034 4750 
Q 2731 4750 3128 4425 
Q 3525 4100 3525 3541 
Q 3525 3141 3298 2862 
Q 3072 2584 2669 2484 
Q 3125 2378 3379 2068 
Q 3634 1759 3634 1313 
Q 3634 634 3220 271 
Q 2806 -91 2034 -91 
Q 1263 -91 848 271 
Q 434 634 434 1313 
Q 434 1759 690 2068 
Q 947 2378 1403 2484 
z
M 1172 3481 
Q 1172 3119 1398 2916 
Q 1625 2713 2034 2713 
Q 2441 2713 2670 2916 
Q 2900 3119 2900 3481 
Q 2900 3844 2670 4047 
Q 2441 4250 2034 4250 
Q 1625 4250 1398 4047 
Q 1172 3844 1172 3481 
z
" transform="scale(0.015625)"/>
       </defs>
       <use xlink:href="#DejaVuSans-30"/>
       <use xlink:href="#DejaVuSans-2e" x="63.623047"/>
       <use xlink:href="#DejaVuSans-30" x="95.410156"/>
       <use xlink:href="#DejaVuSans-30" x="159.033203"/>
       <use xlink:href="#DejaVuSans-30" x="222.65625"/>
       <use xlink:href="#DejaVuSans-30" x="286.279297"/>
       <use xlink:href="#DejaVuSans-38" x="349.902344"/>
      </g>
     </g>
    </g>
    <g id="ytick_3">
     <g id="line2d_15">
      <path d="M 63.892625 104.57579 
L 421.012625 104.57579 
" clip-path="url(#p84927add9f)" style="fill: none; stroke: #ffffff"/>
     </g>
     <g id="line2d_16">
      <path d="M 63.892625 104.57579 
" style="fill: none; stroke: #333333; stroke-width: 1.5"/>
      <g>
       <use xlink:href="#m2cc817a7f4" x="63.892625" y="104.57579" style="fill: #333333; stroke: #000000"/>
      </g>
     </g>
     <g id="text_7">
      <!-- 0.00012 -->
      <g style="fill: #4d4d4d" transform="translate(22.551875 107.00404)scale(0.088 -0.088)">
       <defs>
        <path id="DejaVuSans-31" d="M 794 531 
L 1825 531 
L 1825 4091 
L 703 3866 
L 703 4441 
L 1819 4666 
L 2450 4666 
L 2450 531 
L 3481 531 
L 3481 0 
L 794 0 
L 794 531 
z
" transform="scale(0.015625)"/>
       </defs>
       <use xlink:href="#DejaVuSans-30"/>
       <use xlink:href="#DejaVuSans-2e" x="63.623047"/>
       <use xlink:href="#DejaVuSans-30" x="95.410156"/>
       <use xlink:href="#DejaVuSans-30" x="159.033203"/>
       <use xlink:href="#DejaVuSans-30" x="222.65625"/>
       <use xlink:href="#DejaVuSans-31" x="286.279297"/>
       <use xlink:href="#DejaVuSans-32" x="349.902344"/>
      </g>
     </g>
    </g>
    <g id="ytick_4">
     <g id="line2d_17">
      <path d="M 63.892625 39.60931 
L 421.012625 39.60931 
" clip-path="url(#p84927add9f)" style="fill: none; stroke: #ffffff"/>
     </g>
     <g id="line2d_18">
      <path d="M 63.892625 39.60931 
" style="fill: none; stroke: #333333; stroke-width: 1.5"/>
      <g>
       <use xlink:href="#m2cc817a7f4" x="63.892625" y="39.60931" style="fill: #333333; stroke: #000000"/>
      </g>
     </g>
     <g id="text_8">
      <!-- 0.00016 -->
      <g style="fill: #4d4d4d" transform="translate(22.551875 42.03756)scale(0.088 -0.088)">
       <use xlink:href="#DejaVuSans-30"/>
       <use xlink:href="#DejaVuSans-2e" x="63.623047"/>
       <use xlink:href="#DejaVuSans-30" x="95.410156"/>
       <use xlink:href="#DejaVuSans-30" x="159.033203"/>
       <use xlink:href="#DejaVuSans-30" x="222.65625"/>
       <use xlink:href="#DejaVuSans-31" x="286.279297"/>
       <use xlink:href="#DejaVuSans-36" x="349.902344"/>
      </g>
     </g>
    </g>
    <g id="ytick_5">
     <g id="line2d_19">
      <path d="M 63.892625 266.991989 
L 421.012625 266.991989 
" clip-path="url(#p84927add9f)" style="fill: none; stroke: #ffffff; stroke-width: 0.5"/>
     </g>
    </g>
    <g id="ytick_6">
     <g id="line2d_20">
      <path d="M 63.892625 202.025509 
L 421.012625 202.025509 
" clip-path="url(#p84927add9f)" style="fill: none; stroke: #ffffff; stroke-width: 0.5"/>
     </g>
    </g>
    <g id="ytick_7">
     <g id="line2d_21">
      <path d="M 63.892625 137.05903 
L 421.012625 137.05903 
" clip-path="url(#p84927add9f)" style="fill: none; stroke: #ffffff; stroke-width: 0.5"/>
     </g>
    </g>
    <g id="ytick_8">
     <g id="line2d_22">
      <path d="M 63.892625 72.09255 
L 421.012625 72.09255 
" clip-path="url(#p84927add9f)" style="fill: none; stroke: #ffffff; stroke-width: 0.5"/>
     </g>
    </g>
    <g id="text_9">
     <!-- unit_weight -->
     <g transform="translate(15.558281 189.382355)rotate(-90)scale(0.11 -0.11)">
      <defs>
       <path id="DejaVuSans-6e" d="M 3513 2113 
L 3513 0 
L 2938 0 
L 2938 2094 
Q 2938 2591 2744 2837 
Q 2550 3084 2163 3084 
Q 1697 3084 1428 2787 
Q 1159 2491 1159 1978 
L 1159 0 
L 581 0 
L 581 3500 
L 1159 3500 
L 1159 2956 
Q 1366 3272 1645 3428 
Q 1925 3584 2291 3584 
Q 2894 3584 3203 3211 
Q 3513 2838 3513 2113 
z
" transform="scale(0.015625)"/>
       <path id="DejaVuSans-69" d="M 603 3500 
L 1178 3500 
L 1178 0 
L 603 0 
L 603 3500 
z
M 603 4863 
L 1178 4863 
L 1178 4134 
L 603 4134 
L 603 4863 
z
" transform="scale(0.015625)"/>
       <path id="DejaVuSans-74" d="M 1172 4494 
L 1172 3500 
L 2356 3500 
L 2356 3053 
L 1172 3053 
L 1172 1153 
Q 1172 725 1289 603 
Q 1406 481 1766 481 
L 2356 481 
L 2356 0 
L 1766 0 
Q 1100 0 847 248 
Q 594 497 594 1153 
L 594 3053 
L 172 3053 
L 172 3500 
L 594 3500 
L 594 4494 
L 1172 4494 
z
" transform="scale(0.015625)"/>
       <path id="DejaVuSans-77" d="M 269 3500 
L 844 3500 
L 1563 769 
L 2278 3500 
L 2956 3500 
L 3675 769 
L 4391 3500 
L 4966 3500 
L 4050 0 
L 3372 0 
L 2619 2869 
L 1863 0 
L 1184 0 
L 269 3500 
z
" transform="scale(0.015625)"/>
       <path id="DejaVuSans-68" d="M 3513 2113 
L 3513 0 
L 2938 0 
L 2938 2094 
Q 2938 2591 2744 2837 
Q 2550 3084 2163 3084 
Q 1697 3084 1428 2787 
Q 1159 2491 1159 1978 
L 1159 0 
L 581 0 
L 581 4863 
L 1159 4863 
L 1159 2956 
Q 1366 3272 1645 3428 
Q 1925 3584 2291 3584 
Q 2894 3584 3203 3211 
Q 3513 2838 3513 2113 
z
" transform="scale(0.015625)"/>
      </defs>
      <use xlink:href="#DejaVuSans-75"/>
      <use xlink:href="#DejaVuSans-6e" x="63.378906"/>
      <use xlink:href="#DejaVuSans-69" x="126.757812"/>
      <use xlink:href="#DejaVuSans-74" x="154.541016"/>
      <use xlink:href="#DejaVuSans-5f" x="193.75"/>
      <use xlink:href="#DejaVuSans-77" x="243.75"/>
      <use xlink:href="#DejaVuSans-65" x="325.537109"/>
      <use xlink:href="#DejaVuSans-69" x="387.060547"/>
      <use xlink:href="#DejaVuSans-67" x="414.84375"/>
      <use xlink:href="#DejaVuSans-68" x="478.320312"/>
      <use xlink:href="#DejaVuSans-74" x="541.699219"/>
     </g>
    </g>
   </g>
   <g id="PolyCollection_1">
    <path d="M 80.125352 271.958283 
L 80.125352 280.121371 
L 84.234903 277.114286 
L 88.344455 274.109179 
L 92.454006 271.106189 
L 96.563557 268.105469 
L 100.673108 265.107181 
L 104.78266 262.111498 
L 108.892211 259.118602 
L 113.001762 256.128688 
L 117.111313 253.14196 
L 121.220864 250.158628 
L 125.330416 247.178916 
L 129.439967 244.20305 
L 133.549518 241.231261 
L 137.659069 238.263783 
L 141.76862 235.300849 
L 145.878172 232.342685 
L 149.987723 229.389509 
L 154.097274 226.441526 
L 158.206825 223.498922 
L 162.316376 220.561862 
L 166.425928 217.630481 
L 170.535479 214.704887 
L 174.64503 211.78515 
L 178.754581 208.871307 
L 182.864132 205.963356 
L 186.973684 203.061257 
L 191.083235 200.164935 
L 195.192786 197.274281 
L 199.302337 194.389155 
L 203.411889 191.509392 
L 207.52144 188.634803 
L 211.630991 185.765181 
L 215.740542 182.900307 
L 219.850093 180.039955 
L 223.959645 177.18389 
L 228.069196 174.331881 
L 232.178747 171.483695 
L 236.288298 168.639106 
L 240.397849 165.797894 
L 244.507401 162.959847 
L 248.616952 160.124762 
L 252.726503 157.292447 
L 256.836054 154.462719 
L 260.945605 151.635407 
L 265.055157 148.810349 
L 269.164708 145.987395 
L 273.274259 143.166405 
L 277.38381 140.347246 
L 281.493361 137.529798 
L 285.602913 134.713947 
L 289.712464 131.899588 
L 293.822015 129.086624 
L 297.931566 126.274964 
L 302.041118 123.464524 
L 306.150669 120.655227 
L 310.26022 117.847001 
L 314.369771 115.039779 
L 318.479322 112.233499 
L 322.588874 109.428105 
L 326.698425 106.623543 
L 330.807976 103.819763 
L 334.917527 101.016721 
L 339.027078 98.214372 
L 343.13663 95.412679 
L 347.246181 92.611602 
L 351.355732 89.81111 
L 355.465283 87.011169 
L 359.574834 84.211749 
L 363.684386 81.412823 
L 367.793937 78.614366 
L 371.903488 75.816351 
L 376.013039 73.018757 
L 380.12259 70.221563 
L 384.232142 67.424748 
L 388.341693 64.628295 
L 392.451244 61.832184 
L 396.560795 59.0364 
L 400.670347 56.240928 
L 404.779898 53.445753 
L 404.779898 38.201371 
L 404.779898 38.201371 
L 400.670347 41.234455 
L 396.560795 44.267243 
L 392.451244 47.299719 
L 388.341693 50.331868 
L 384.232142 53.363674 
L 380.12259 56.39512 
L 376.013039 59.426185 
L 371.903488 62.456851 
L 367.793937 65.487097 
L 363.684386 68.516899 
L 359.574834 71.546233 
L 355.465283 74.575073 
L 351.355732 77.603392 
L 347.246181 80.631159 
L 343.13663 83.658343 
L 339.027078 86.684909 
L 334.917527 89.710821 
L 330.807976 92.736038 
L 326.698425 95.760518 
L 322.588874 98.784216 
L 318.479322 101.807081 
L 314.369771 104.829062 
L 310.26022 107.8501 
L 306.150669 110.870134 
L 302.041118 113.889096 
L 297.931566 116.906916 
L 293.822015 119.923516 
L 289.712464 122.938811 
L 285.602913 125.952712 
L 281.493361 128.965121 
L 277.38381 131.975933 
L 273.274259 134.985035 
L 269.164708 137.992304 
L 265.055157 140.99761 
L 260.945605 144.000813 
L 256.836054 147.00176 
L 252.726503 150.000292 
L 248.616952 152.996236 
L 244.507401 155.989411 
L 240.397849 158.979624 
L 236.288298 161.966672 
L 232.178747 164.950343 
L 228.069196 167.930417 
L 223.959645 170.906668 
L 219.850093 173.878863 
L 215.740542 176.84677 
L 211.630991 179.810157 
L 207.52144 182.768795 
L 203.411889 185.722465 
L 199.302337 188.670962 
L 195.192786 191.614096 
L 191.083235 194.551702 
L 186.973684 197.48364 
L 182.864132 200.409801 
L 178.754581 203.330109 
L 174.64503 206.244526 
L 170.535479 209.153049 
L 166.425928 212.055715 
L 162.316376 214.952595 
L 158.206825 217.843794 
L 154.097274 220.72945 
L 149.987723 223.609727 
L 145.878172 226.484811 
L 141.76862 229.354907 
L 137.659069 232.220232 
L 133.549518 235.081014 
L 129.439967 237.937485 
L 125.330416 240.789879 
L 121.220864 243.638426 
L 117.111313 246.483355 
L 113.001762 249.324886 
L 108.892211 252.163232 
L 104.78266 254.998597 
L 100.673108 257.831173 
L 96.563557 260.661145 
L 92.454006 263.488685 
L 88.344455 266.313955 
L 84.234903 269.137107 
L 80.125352 271.958283 
z
" clip-path="url(#p84927add9f)" style="fill: #808080; fill-opacity: 0.298039"/>
   </g>
   <g id="line2d_23">
    <path d="M 80.125352 276.039827 
L 84.234903 273.125697 
L 88.344455 270.211567 
L 92.454006 267.297437 
L 96.563557 264.383307 
L 100.673108 261.469177 
L 104.78266 258.555047 
L 108.892211 255.640917 
L 113.001762 252.726787 
L 117.111313 249.812657 
L 121.220864 246.898527 
L 125.330416 243.984397 
L 129.439967 241.070268 
L 133.549518 238.156138 
L 137.659069 235.242008 
L 141.76862 232.327878 
L 145.878172 229.413748 
L 149.987723 226.499618 
L 154.097274 223.585488 
L 158.206825 220.671358 
L 162.316376 217.757228 
L 166.425928 214.843098 
L 170.535479 211.928968 
L 174.64503 209.014838 
L 178.754581 206.100708 
L 182.864132 203.186578 
L 186.973684 200.272448 
L 191.083235 197.358318 
L 195.192786 194.444189 
L 199.302337 191.530059 
L 203.411889 188.615929 
L 207.52144 185.701799 
L 211.630991 182.787669 
L 215.740542 179.873539 
L 219.850093 176.959409 
L 223.959645 174.045279 
L 228.069196 171.131149 
L 232.178747 168.217019 
L 236.288298 165.302889 
L 240.397849 162.388759 
L 244.507401 159.474629 
L 248.616952 156.560499 
L 252.726503 153.646369 
L 256.836054 150.732239 
L 260.945605 147.81811 
L 265.055157 144.90398 
L 269.164708 141.98985 
L 273.274259 139.07572 
L 277.38381 136.16159 
L 281.493361 133.24746 
L 285.602913 130.33333 
L 289.712464 127.4192 
L 293.822015 124.50507 
L 297.931566 121.59094 
L 302.041118 118.67681 
L 306.150669 115.76268 
L 310.26022 112.84855 
L 314.369771 109.93442 
L 318.479322 107.02029 
L 322.588874 104.10616 
L 326.698425 101.192031 
L 330.807976 98.277901 
L 334.917527 95.363771 
L 339.027078 92.449641 
L 343.13663 89.535511 
L 347.246181 86.621381 
L 351.355732 83.707251 
L 355.465283 80.793121 
L 359.574834 77.878991 
L 363.684386 74.964861 
L 367.793937 72.050731 
L 371.903488 69.136601 
L 376.013039 66.222471 
L 380.12259 63.308341 
L 384.232142 60.394211 
L 388.341693 57.480081 
L 392.451244 54.565951 
L 396.560795 51.651822 
L 400.670347 48.737692 
L 404.779898 45.823562 
" clip-path="url(#p84927add9f)" style="fill: none; stroke: #808080; stroke-width: 1.772454; stroke-linejoin: miter"/>
   </g>
   <g id="PathCollection_1">
    <path d="M 80.125352 275.55803 
C 80.712928 275.55803 81.276516 275.324584 81.691995 274.909105 
C 82.107473 274.493627 82.34092 273.930038 82.34092 273.342463 
C 82.34092 272.754887 82.107473 272.191299 81.691995 271.77582 
C 81.276516 271.360342 80.712928 271.126895 80.125352 271.126895 
C 79.537777 271.126895 78.974188 271.360342 78.55871 271.77582 
C 78.143231 272.191299 77.909785 272.754887 77.909785 273.342463 
C 77.909785 273.930038 78.143231 274.493627 78.55871 274.909105 
C 78.974188 275.324584 79.537777 275.55803 80.125352 275.55803 
z
" clip-path="url(#p84927add9f)" style="fill: #696969; stroke: #696969; stroke-width: 0.886227"/>
    <path d="M 84.501823 273.933868 
C 85.089398 273.933868 85.652987 273.700422 86.068466 273.284943 
C 86.483944 272.869465 86.71739 272.305876 86.71739 271.718301 
C 86.71739 271.130725 86.483944 270.567137 86.068466 270.151658 
C 85.652987 269.73618 85.089398 269.502733 84.501823 269.502733 
C 83.914248 269.502733 83.350659 269.73618 82.93518 270.151658 
C 82.519702 270.567137 82.286256 271.130725 82.286256 271.718301 
C 82.286256 272.305876 82.519702 272.869465 82.93518 273.284943 
C 83.350659 273.700422 83.914248 273.933868 84.501823 273.933868 
z
" clip-path="url(#p84927add9f)" style="fill: #696969; stroke: #696969; stroke-width: 0.886227"/>
    <path d="M 89.143534 272.293464 
C 89.731109 272.293464 90.294698 272.060018 90.710177 271.64454 
C 91.125655 271.229061 91.359101 270.665472 91.359101 270.077897 
C 91.359101 269.490322 91.125655 268.926733 90.710177 268.511254 
C 90.294698 268.095776 89.731109 267.86233 89.143534 267.86233 
C 88.555959 267.86233 87.99237 268.095776 87.576891 268.511254 
C 87.161413 268.926733 86.927967 269.490322 86.927967 270.077897 
C 86.927967 270.665472 87.161413 271.229061 87.576891 271.64454 
C 87.99237 272.060018 88.555959 272.293464 89.143534 272.293464 
z
" clip-path="url(#p84927add9f)" style="fill: #696969; stroke: #696969; stroke-width: 0.886227"/>
    <path d="M 94.050486 266.625139 
C 94.638061 266.625139 95.20165 266.391693 95.617129 265.976214 
C 96.032607 265.560736 96.266053 264.997147 96.266053 264.409572 
C 96.266053 263.821996 96.032607 263.258408 95.617129 262.842929 
C 95.20165 262.427451 94.638061 262.194004 94.050486 262.194004 
C 93.462911 262.194004 92.899322 262.427451 92.483843 262.842929 
C 92.068365 263.258408 91.834919 263.821996 91.834919 264.409572 
C 91.834919 264.997147 92.068365 265.560736 92.483843 265.976214 
C 92.899322 266.391693 93.462911 266.625139 94.050486 266.625139 
z
" clip-path="url(#p84927add9f)" style="fill: #696969; stroke: #696969; stroke-width: 0.886227"/>
    <path d="M 99.222678 264.822319 
C 99.810254 264.822319 100.373843 264.588873 100.789321 264.173395 
C 101.2048 263.757916 101.438246 263.194327 101.438246 262.606752 
C 101.438246 262.019177 101.2048 261.455588 100.789321 261.040109 
C 100.373843 260.624631 99.810254 260.391185 99.222678 260.391185 
C 98.635103 260.391185 98.071514 260.624631 97.656036 261.040109 
C 97.240557 261.455588 97.007111 262.019177 97.007111 262.606752 
C 97.007111 263.194327 97.240557 263.757916 97.656036 264.173395 
C 98.071514 264.588873 98.635103 264.822319 99.222678 264.822319 
z
" clip-path="url(#p84927add9f)" style="fill: #696969; stroke: #696969; stroke-width: 0.886227"/>
    <path d="M 104.660112 261.086747 
C 105.247687 261.086747 105.811276 260.853301 106.226754 260.437822 
C 106.642233 260.022344 106.875679 259.458755 106.875679 258.871179 
C 106.875679 258.283604 106.642233 257.720015 106.226754 257.304537 
C 105.811276 256.889058 105.247687 256.655612 104.660112 256.655612 
C 104.072536 256.655612 103.508947 256.889058 103.093469 257.304537 
C 102.67799 257.720015 102.444544 258.283604 102.444544 258.871179 
C 102.444544 259.458755 102.67799 260.022344 103.093469 260.437822 
C 103.508947 260.853301 104.072536 261.086747 104.660112 261.086747 
z
" clip-path="url(#p84927add9f)" style="fill: #696969; stroke: #696969; stroke-width: 0.886227"/>
    <path d="M 110.362785 253.778018 
C 110.950361 253.778018 111.51395 253.544572 111.929428 253.129093 
C 112.344907 252.713615 112.578353 252.150026 112.578353 251.56245 
C 112.578353 250.974875 112.344907 250.411286 111.929428 249.995808 
C 111.51395 249.580329 110.950361 249.346883 110.362785 249.346883 
C 109.77521 249.346883 109.211621 249.580329 108.796143 249.995808 
C 108.380664 250.411286 108.147218 250.974875 108.147218 251.56245 
C 108.147218 252.150026 108.380664 252.713615 108.796143 253.129093 
C 109.211621 253.544572 109.77521 253.778018 110.362785 253.778018 
z
" clip-path="url(#p84927add9f)" style="fill: #696969; stroke: #696969; stroke-width: 0.886227"/>
    <path d="M 116.3307 251.666607 
C 116.918275 251.666607 117.481864 251.433161 117.897343 251.017682 
C 118.312821 250.602204 118.546267 250.038615 118.546267 249.45104 
C 118.546267 248.863464 118.312821 248.299876 117.897343 247.884397 
C 117.481864 247.468919 116.918275 247.235472 116.3307 247.235472 
C 115.743125 247.235472 115.179536 247.468919 114.764057 247.884397 
C 114.348579 248.299876 114.115133 248.863464 114.115133 249.45104 
C 114.115133 250.038615 114.348579 250.602204 114.764057 251.017682 
C 115.179536 251.433161 115.743125 251.666607 116.3307 251.666607 
z
" clip-path="url(#p84927add9f)" style="fill: #696969; stroke: #696969; stroke-width: 0.886227"/>
    <path d="M 122.563855 246.469289 
C 123.15143 246.469289 123.715019 246.235843 124.130498 245.820364 
C 124.545976 245.404886 124.779422 244.841297 124.779422 244.253721 
C 124.779422 243.666146 124.545976 243.102557 124.130498 242.687079 
C 123.715019 242.2716 123.15143 242.038154 122.563855 242.038154 
C 121.97628 242.038154 121.412691 242.2716 120.997212 242.687079 
C 120.581734 243.102557 120.348288 243.666146 120.348288 244.253721 
C 120.348288 244.841297 120.581734 245.404886 120.997212 245.820364 
C 121.412691 246.235843 121.97628 246.469289 122.563855 246.469289 
z
" clip-path="url(#p84927add9f)" style="fill: #696969; stroke: #696969; stroke-width: 0.886227"/>
    <path d="M 129.062251 244.195462 
C 129.649826 244.195462 130.213415 243.962016 130.628893 243.546537 
C 131.044372 243.131059 131.277818 242.56747 131.277818 241.979895 
C 131.277818 241.392319 131.044372 240.82873 130.628893 240.413252 
C 130.213415 239.997773 129.649826 239.764327 129.062251 239.764327 
C 128.474675 239.764327 127.911086 239.997773 127.495608 240.413252 
C 127.08013 240.82873 126.846683 241.392319 126.846683 241.979895 
C 126.846683 242.56747 127.08013 243.131059 127.495608 243.546537 
C 127.911086 243.962016 128.474675 244.195462 129.062251 244.195462 
z
" clip-path="url(#p84927add9f)" style="fill: #696969; stroke: #696969; stroke-width: 0.886227"/>
    <path d="M 135.825887 238.998144 
C 136.413462 238.998144 136.977051 238.764697 137.39253 238.349219 
C 137.808008 237.93374 138.041454 237.370152 138.041454 236.782576 
C 138.041454 236.195001 137.808008 235.631412 137.39253 235.215934 
C 136.977051 234.800455 136.413462 234.567009 135.825887 234.567009 
C 135.238312 234.567009 134.674723 234.800455 134.259244 235.215934 
C 133.843766 235.631412 133.61032 236.195001 133.61032 236.782576 
C 133.61032 237.370152 133.843766 237.93374 134.259244 238.349219 
C 134.674723 238.764697 135.238312 238.998144 135.825887 238.998144 
z
" clip-path="url(#p84927add9f)" style="fill: #696969; stroke: #696969; stroke-width: 0.886227"/>
    <path d="M 142.854764 236.594384 
C 143.442339 236.594384 144.005928 236.360938 144.421407 235.945459 
C 144.836885 235.529981 145.070331 234.966392 145.070331 234.378816 
C 145.070331 233.791241 144.836885 233.227652 144.421407 232.812174 
C 144.005928 232.396695 143.442339 232.163249 142.854764 232.163249 
C 142.267189 232.163249 141.7036 232.396695 141.288121 232.812174 
C 140.872643 233.227652 140.639197 233.791241 140.639197 234.378816 
C 140.639197 234.966392 140.872643 235.529981 141.288121 235.945459 
C 141.7036 236.360938 142.267189 236.594384 142.854764 236.594384 
z
" clip-path="url(#p84927add9f)" style="fill: #696969; stroke: #696969; stroke-width: 0.886227"/>
    <path d="M 150.148882 224.218269 
C 150.736457 224.218269 151.300046 223.984823 151.715524 223.569345 
C 152.131003 223.153866 152.364449 222.590277 152.364449 222.002702 
C 152.364449 221.415127 152.131003 220.851538 151.715524 220.436059 
C 151.300046 220.020581 150.736457 219.787135 150.148882 219.787135 
C 149.561306 219.787135 148.997718 220.020581 148.582239 220.436059 
C 148.166761 220.851538 147.933314 221.415127 147.933314 222.002702 
C 147.933314 222.590277 148.166761 223.153866 148.582239 223.569345 
C 148.997718 223.984823 149.561306 224.218269 150.148882 224.218269 
z
" clip-path="url(#p84927add9f)" style="fill: #696969; stroke: #696969; stroke-width: 0.886227"/>
    <path d="M 165.532839 215.935043 
C 166.120414 215.935043 166.684003 215.701597 167.099482 215.286119 
C 167.51496 214.87064 167.748406 214.307051 167.748406 213.719476 
C 167.748406 213.131901 167.51496 212.568312 167.099482 212.152833 
C 166.684003 211.737355 166.120414 211.503909 165.532839 211.503909 
C 164.945264 211.503909 164.381675 211.737355 163.966196 212.152833 
C 163.550718 212.568312 163.317272 213.131901 163.317272 213.719476 
C 163.317272 214.307051 163.550718 214.87064 163.966196 215.286119 
C 164.381675 215.701597 164.945264 215.935043 165.532839 215.935043 
z
" clip-path="url(#p84927add9f)" style="fill: #696969; stroke: #696969; stroke-width: 0.886227"/>
    <path d="M 181.977759 205.865239 
C 182.565334 205.865239 183.128923 205.631793 183.544401 205.216314 
C 183.95988 204.800836 184.193326 204.237247 184.193326 203.649671 
C 184.193326 203.062096 183.95988 202.498507 183.544401 202.083029 
C 183.128923 201.66755 182.565334 201.434104 181.977759 201.434104 
C 181.390183 201.434104 180.826595 201.66755 180.411116 202.083029 
C 179.995638 202.498507 179.762191 203.062096 179.762191 203.649671 
C 179.762191 204.237247 179.995638 204.800836 180.411116 205.216314 
C 180.826595 205.631793 181.390183 205.865239 181.977759 205.865239 
z
" clip-path="url(#p84927add9f)" style="fill: #696969; stroke: #696969; stroke-width: 0.886227"/>
    <path d="M 199.483641 191.085365 
C 200.071216 191.085365 200.634805 190.851918 201.050284 190.43644 
C 201.465762 190.020962 201.699208 189.457373 201.699208 188.869797 
C 201.699208 188.282222 201.465762 187.718633 201.050284 187.303155 
C 200.634805 186.887676 200.071216 186.65423 199.483641 186.65423 
C 198.896066 186.65423 198.332477 186.887676 197.916998 187.303155 
C 197.50152 187.718633 197.268074 188.282222 197.268074 188.869797 
C 197.268074 189.457373 197.50152 190.020962 197.916998 190.43644 
C 198.332477 190.851918 198.896066 191.085365 199.483641 191.085365 
z
" clip-path="url(#p84927add9f)" style="fill: #696969; stroke: #696969; stroke-width: 0.886227"/>
    <path d="M 218.050486 183.614219 
C 218.638061 183.614219 219.20165 183.380773 219.617129 182.965295 
C 220.032607 182.549816 220.266053 181.986227 220.266053 181.398652 
C 220.266053 180.811077 220.032607 180.247488 219.617129 179.832009 
C 219.20165 179.416531 218.638061 179.183085 218.050486 179.183085 
C 217.462911 179.183085 216.899322 179.416531 216.483843 179.832009 
C 216.068365 180.247488 215.834919 180.811077 215.834919 181.398652 
C 215.834919 181.986227 216.068365 182.549816 216.483843 182.965295 
C 216.899322 183.380773 217.462911 183.614219 218.050486 183.614219 
z
" clip-path="url(#p84927add9f)" style="fill: #696969; stroke: #696969; stroke-width: 0.886227"/>
    <path d="M 237.678293 176.30549 
C 238.265869 176.30549 238.829458 176.072044 239.244936 175.656566 
C 239.660415 175.241087 239.893861 174.677498 239.893861 174.089923 
C 239.893861 173.502348 239.660415 172.938759 239.244936 172.52328 
C 238.829458 172.107802 238.265869 171.874356 237.678293 171.874356 
C 237.090718 171.874356 236.527129 172.107802 236.111651 172.52328 
C 235.696172 172.938759 235.462726 173.502348 235.462726 174.089923 
C 235.462726 174.677498 235.696172 175.241087 236.111651 175.656566 
C 236.527129 176.072044 237.090718 176.30549 237.678293 176.30549 
z
" clip-path="url(#p84927add9f)" style="fill: #696969; stroke: #696969; stroke-width: 0.886227"/>
    <path d="M 258.367064 165.098773 
C 258.954639 165.098773 259.518228 164.865327 259.933706 164.449848 
C 260.349185 164.03437 260.582631 163.470781 260.582631 162.883205 
C 260.582631 162.29563 260.349185 161.732041 259.933706 161.316563 
C 259.518228 160.901084 258.954639 160.667638 258.367064 160.667638 
C 257.779488 160.667638 257.215899 160.901084 256.800421 161.316563 
C 256.384942 161.732041 256.151496 162.29563 256.151496 162.883205 
C 256.151496 163.470781 256.384942 164.03437 256.800421 164.449848 
C 257.215899 164.865327 257.779488 165.098773 258.367064 165.098773 
z
" clip-path="url(#p84927add9f)" style="fill: #696969; stroke: #696969; stroke-width: 0.886227"/>
    <path d="M 280.116796 150.318899 
C 280.704371 150.318899 281.26796 150.085452 281.683439 149.669974 
C 282.098917 149.254495 282.332363 148.690907 282.332363 148.103331 
C 282.332363 147.515756 282.098917 146.952167 281.683439 146.536689 
C 281.26796 146.12121 280.704371 145.887764 280.116796 145.887764 
C 279.529221 145.887764 278.965632 146.12121 278.550153 146.536689 
C 278.134675 146.952167 277.901229 147.515756 277.901229 148.103331 
C 277.901229 148.690907 278.134675 149.254495 278.550153 149.669974 
C 278.965632 150.085452 279.529221 150.318899 280.116796 150.318899 
z
" clip-path="url(#p84927add9f)" style="fill: #696969; stroke: #696969; stroke-width: 0.886227"/>
    <path d="M 302.927491 113.450421 
C 303.515067 113.450421 304.078655 113.216975 304.494134 112.801497 
C 304.909612 112.386018 305.143059 111.822429 305.143059 111.234854 
C 305.143059 110.647279 304.909612 110.08369 304.494134 109.668211 
C 304.078655 109.252733 303.515067 109.019287 302.927491 109.019287 
C 302.339916 109.019287 301.776327 109.252733 301.360849 109.668211 
C 300.94537 110.08369 300.711924 110.647279 300.711924 111.234854 
C 300.711924 111.822429 300.94537 112.386018 301.360849 112.801497 
C 301.776327 113.216975 302.339916 113.450421 302.927491 113.450421 
z
" clip-path="url(#p84927add9f)" style="fill: #696969; stroke: #696969; stroke-width: 0.886227"/>
    <path d="M 351.731769 69.110799 
C 352.319345 69.110799 352.882934 68.877353 353.298412 68.461874 
C 353.713891 68.046396 353.947337 67.482807 353.947337 66.895231 
C 353.947337 66.307656 353.713891 65.744067 353.298412 65.328589 
C 352.882934 64.91311 352.319345 64.679664 351.731769 64.679664 
C 351.144194 64.679664 350.580605 64.91311 350.165127 65.328589 
C 349.749648 65.744067 349.516202 66.307656 349.516202 66.895231 
C 349.516202 67.482807 349.749648 68.046396 350.165127 68.461874 
C 350.580605 68.877353 351.144194 69.110799 351.731769 69.110799 
z
" clip-path="url(#p84927add9f)" style="fill: #696969; stroke: #696969; stroke-width: 0.886227"/>
    <path d="M 404.779898 47.022196 
C 405.367473 47.022196 405.931062 46.788749 406.34654 46.373271 
C 406.762019 45.957792 406.995465 45.394204 406.995465 44.806628 
C 406.995465 44.219053 406.762019 43.655464 406.34654 43.239986 
C 405.931062 42.824507 405.367473 42.591061 404.779898 42.591061 
C 404.192322 42.591061 403.628734 42.824507 403.213255 43.239986 
C 402.797777 43.655464 402.56433 44.219053 402.56433 44.806628 
C 402.56433 45.394204 402.797777 45.957792 403.213255 46.373271 
C 403.628734 46.788749 404.192322 47.022196 404.779898 47.022196 
z
" clip-path="url(#p84927add9f)" style="fill: #696969; stroke: #696969; stroke-width: 0.886227"/>
   </g>
  </g>
  <g id="text_10">
   <!-- plain steel -->
   <g transform="translate(202.529375 17.229938)scale(0.132 -0.132)">
    <defs>
     <path id="DejaVuSans-70" d="M 1159 525 
L 1159 -1331 
L 581 -1331 
L 581 3500 
L 1159 3500 
L 1159 2969 
Q 1341 3281 1617 3432 
Q 1894 3584 2278 3584 
Q 2916 3584 3314 3078 
Q 3713 2572 3713 1747 
Q 3713 922 3314 415 
Q 2916 -91 2278 -91 
Q 1894 -91 1617 61 
Q 1341 213 1159 525 
z
M 3116 1747 
Q 3116 2381 2855 2742 
Q 2594 3103 2138 3103 
Q 1681 3103 1420 2742 
Q 1159 2381 1159 1747 
Q 1159 1113 1420 752 
Q 1681 391 2138 391 
Q 2594 391 2855 752 
Q 3116 1113 3116 1747 
z
" transform="scale(0.015625)"/>
     <path id="DejaVuSans-6c" d="M 603 4863 
L 1178 4863 
L 1178 0 
L 603 0 
L 603 4863 
z
" transform="scale(0.015625)"/>
     <path id="DejaVuSans-20" transform="scale(0.015625)"/>
    </defs>
    <use xlink:href="#DejaVuSans-70"/>
    <use xlink:href="#DejaVuSans-6c" x="63.476562"/>
    <use xlink:href="#DejaVuSans-61" x="91.259766"/>
    <use xlink:href="#DejaVuSans-69" x="152.539062"/>
    <use xlink:href="#DejaVuSans-6e" x="180.322266"/>
    <use xlink:href="#DejaVuSans-20" x="243.701172"/>
    <use xlink:href="#DejaVuSans-73" x="275.488281"/>
    <use xlink:href="#DejaVuSans-74" x="327.587891"/>
    <use xlink:href="#DejaVuSans-65" x="366.796875"/>
    <use xlink:href="#DejaVuSans-65" x="428.320312"/>
    <use xlink:href="#DejaVuSans-6c" x="489.84375"/>
   </g>
  </g>
 </g>
 <defs>
  <clipPath id="p84927add9f">
   <rect x="63.892625" y="26.105371" width="357.12" height="266.112"/>
  </clipPath>
 </defs>
</svg>
