<?xml version="1.0" encoding="utf-8" standalone="no"?>
<!DOCTYPE svg PUBLIC "-//W3C//DTD SVG 1.1//EN"
  "http://www.w3.org/Graphics/SVG/1.1/DTD/svg11.dtd">
<svg xmlns:xlink="http://www.w3.org/1999/xlink" width="422.613625pt" height="327.930058pt" viewBox="0 0 422.613625 327.930058" xmlns="http://www.w3.org/2000/svg" version="1.1">
 <metadata>
  <rdf:RDF xmlns:dc="http://purl.org/dc/elements/1.1/" xmlns:cc="http://creativecommons.org/ns#" xmlns:rdf="http://www.w3.org/1999/02/22-rdf-syntax-ns#">
   <cc:Work>
    <dc:type rdf:resource="http://purl.org/dc/dcmitype/StillImage"/>
    <dc:date>2022-02-09T21:10:43.108150</dc:date>
    <dc:format>image/svg+xml</dc:format>
    <dc:creator>
     <cc:Agent>
      <dc:title>Matplotlib v3.5.1, https://matplotlib.org/</dc:title>
     </cc:Agent>
    </dc:creator>
   </cc:Work>
  </rdf:RDF>
 </metadata>
 <defs>
  <style type="text/css">*{stroke-linejoin: round; stroke-linecap: butt}</style>
 </defs>
 <g id="figure_1">
  <g id="patch_1">
   <path d="M 0 327.930058 
L 422.613625 327.930058 
L 422.613625 0 
L 0 0 
z
" style="fill: #ffffff; stroke: #ffffff; stroke-linejoin: miter"/>
  </g>
  <g id="axes_1">
   <g id="patch_2">
    <path d="M 58.293625 292.217371 
L 415.413625 292.217371 
L 415.413625 26.105371 
L 58.293625 26.105371 
z
" style="fill: #ebebeb"/>
   </g>
   <g id="matplotlib.axis_1">
    <g id="xtick_1">
     <g id="line2d_1">
      <path d="M 146.719271 292.217371 
L 146.719271 26.105371 
" clip-path="url(#pf96ddbc8a2)" style="fill: none; stroke: #ffffff"/>
     </g>
     <g id="line2d_2">
      <path d="M 146.719271 292.217371 
" style="fill: none; stroke: #333333; stroke-width: 1.5"/>
      <defs>
       <path id="m5bb08e8c34" d="M 0 0 
L 0 2.75 
" style="stroke: #000000"/>
      </defs>
      <g>
       <use xlink:href="#m5bb08e8c34" x="146.719271" y="292.217371" style="fill: #333333; stroke: #000000"/>
      </g>
     </g>
     <g id="text_1">
      <!-- 0.001 -->
      <g style="fill: #4d4d4d" transform="translate(134.122896 303.853996)scale(0.088 -0.088)">
       <defs>
        <path id="DejaVuSans-30" d="M 2034 4250 
Q 1547 4250 1301 3770 
Q 1056 3291 1056 2328 
Q 1056 1369 1301 889 
Q 1547 409 2034 409 
Q 2525 409 2770 889 
Q 3016 1369 3016 2328 
Q 3016 3291 2770 3770 
Q 2525 4250 2034 4250 
z
M 2034 4750 
Q 2819 4750 3233 4129 
Q 3647 3509 3647 2328 
Q 3647 1150 3233 529 
Q 2819 -91 2034 -91 
Q 1250 -91 836 529 
Q 422 1150 422 2328 
Q 422 3509 836 4129 
Q 1250 4750 2034 4750 
z
" transform="scale(0.015625)"/>
        <path id="DejaVuSans-2e" d="M 684 794 
L 1344 794 
L 1344 0 
L 684 0 
L 684 794 
z
" transform="scale(0.015625)"/>
        <path id="DejaVuSans-31" d="M 794 531 
L 1825 531 
L 1825 4091 
L 703 3866 
L 703 4441 
L 1819 4666 
L 2450 4666 
L 2450 531 
L 3481 531 
L 3481 0 
L 794 0 
L 794 531 
z
" transform="scale(0.015625)"/>
       </defs>
       <use xlink:href="#DejaVuSans-30"/>
       <use xlink:href="#DejaVuSans-2e" x="63.623047"/>
       <use xlink:href="#DejaVuSans-30" x="95.410156"/>
       <use xlink:href="#DejaVuSans-30" x="159.033203"/>
       <use xlink:href="#DejaVuSans-31" x="222.65625"/>
      </g>
     </g>
    </g>
    <g id="xtick_2">
     <g id="line2d_3">
      <path d="M 253.513529 292.217371 
L 253.513529 26.105371 
" clip-path="url(#pf96ddbc8a2)" style="fill: none; stroke: #ffffff"/>
     </g>
     <g id="line2d_4">
      <path d="M 253.513529 292.217371 
" style="fill: none; stroke: #333333; stroke-width: 1.5"/>
      <g>
       <use xlink:href="#m5bb08e8c34" x="253.513529" y="292.217371" style="fill: #333333; stroke: #000000"/>
      </g>
     </g>
     <g id="text_2">
      <!-- 0.002 -->
      <g style="fill: #4d4d4d" transform="translate(240.917154 303.853996)scale(0.088 -0.088)">
       <defs>
        <path id="DejaVuSans-32" d="M 1228 531 
L 3431 531 
L 3431 0 
L 469 0 
L 469 531 
Q 828 903 1448 1529 
Q 2069 2156 2228 2338 
Q 2531 2678 2651 2914 
Q 2772 3150 2772 3378 
Q 2772 3750 2511 3984 
Q 2250 4219 1831 4219 
Q 1534 4219 1204 4116 
Q 875 4013 500 3803 
L 500 4441 
Q 881 4594 1212 4672 
Q 1544 4750 1819 4750 
Q 2544 4750 2975 4387 
Q 3406 4025 3406 3419 
Q 3406 3131 3298 2873 
Q 3191 2616 2906 2266 
Q 2828 2175 2409 1742 
Q 1991 1309 1228 531 
z
" transform="scale(0.015625)"/>
       </defs>
       <use xlink:href="#DejaVuSans-30"/>
       <use xlink:href="#DejaVuSans-2e" x="63.623047"/>
       <use xlink:href="#DejaVuSans-30" x="95.410156"/>
       <use xlink:href="#DejaVuSans-30" x="159.033203"/>
       <use xlink:href="#DejaVuSans-32" x="222.65625"/>
      </g>
     </g>
    </g>
    <g id="xtick_3">
     <g id="line2d_5">
      <path d="M 360.307788 292.217371 
L 360.307788 26.105371 
" clip-path="url(#pf96ddbc8a2)" style="fill: none; stroke: #ffffff"/>
     </g>
     <g id="line2d_6">
      <path d="M 360.307788 292.217371 
" style="fill: none; stroke: #333333; stroke-width: 1.5"/>
      <g>
       <use xlink:href="#m5bb08e8c34" x="360.307788" y="292.217371" style="fill: #333333; stroke: #000000"/>
      </g>
     </g>
     <g id="text_3">
      <!-- 0.003 -->
      <g style="fill: #4d4d4d" transform="translate(347.711413 303.853996)scale(0.088 -0.088)">
       <defs>
        <path id="DejaVuSans-33" d="M 2597 2516 
Q 3050 2419 3304 2112 
Q 3559 1806 3559 1356 
Q 3559 666 3084 287 
Q 2609 -91 1734 -91 
Q 1441 -91 1130 -33 
Q 819 25 488 141 
L 488 750 
Q 750 597 1062 519 
Q 1375 441 1716 441 
Q 2309 441 2620 675 
Q 2931 909 2931 1356 
Q 2931 1769 2642 2001 
Q 2353 2234 1838 2234 
L 1294 2234 
L 1294 2753 
L 1863 2753 
Q 2328 2753 2575 2939 
Q 2822 3125 2822 3475 
Q 2822 3834 2567 4026 
Q 2313 4219 1838 4219 
Q 1578 4219 1281 4162 
Q 984 4106 628 3988 
L 628 4550 
Q 988 4650 1302 4700 
Q 1616 4750 1894 4750 
Q 2613 4750 3031 4423 
Q 3450 4097 3450 3541 
Q 3450 3153 3228 2886 
Q 3006 2619 2597 2516 
z
" transform="scale(0.015625)"/>
       </defs>
       <use xlink:href="#DejaVuSans-30"/>
       <use xlink:href="#DejaVuSans-2e" x="63.623047"/>
       <use xlink:href="#DejaVuSans-30" x="95.410156"/>
       <use xlink:href="#DejaVuSans-30" x="159.033203"/>
       <use xlink:href="#DejaVuSans-33" x="222.65625"/>
      </g>
     </g>
    </g>
    <g id="xtick_4">
     <g id="line2d_7">
      <path d="M 93.322142 292.217371 
L 93.322142 26.105371 
" clip-path="url(#pf96ddbc8a2)" style="fill: none; stroke: #ffffff; stroke-width: 0.5"/>
     </g>
    </g>
    <g id="xtick_5">
     <g id="line2d_8">
      <path d="M 200.1164 292.217371 
L 200.1164 26.105371 
" clip-path="url(#pf96ddbc8a2)" style="fill: none; stroke: #ffffff; stroke-width: 0.5"/>
     </g>
    </g>
    <g id="xtick_6">
     <g id="line2d_9">
      <path d="M 306.910658 292.217371 
L 306.910658 26.105371 
" clip-path="url(#pf96ddbc8a2)" style="fill: none; stroke: #ffffff; stroke-width: 0.5"/>
     </g>
    </g>
    <g id="xtick_7">
     <g id="line2d_10">
      <path d="M 413.704917 292.217371 
L 413.704917 26.105371 
" clip-path="url(#pf96ddbc8a2)" style="fill: none; stroke: #ffffff; stroke-width: 0.5"/>
     </g>
    </g>
    <g id="text_4">
     <!-- gauge_sq -->
     <g transform="translate(204.763234 318.136464)scale(0.11 -0.11)">
      <defs>
       <path id="DejaVuSans-67" d="M 2906 1791 
Q 2906 2416 2648 2759 
Q 2391 3103 1925 3103 
Q 1463 3103 1205 2759 
Q 947 2416 947 1791 
Q 947 1169 1205 825 
Q 1463 481 1925 481 
Q 2391 481 2648 825 
Q 2906 1169 2906 1791 
z
M 3481 434 
Q 3481 -459 3084 -895 
Q 2688 -1331 1869 -1331 
Q 1566 -1331 1297 -1286 
Q 1028 -1241 775 -1147 
L 775 -588 
Q 1028 -725 1275 -790 
Q 1522 -856 1778 -856 
Q 2344 -856 2625 -561 
Q 2906 -266 2906 331 
L 2906 616 
Q 2728 306 2450 153 
Q 2172 0 1784 0 
Q 1141 0 747 490 
Q 353 981 353 1791 
Q 353 2603 747 3093 
Q 1141 3584 1784 3584 
Q 2172 3584 2450 3431 
Q 2728 3278 2906 2969 
L 2906 3500 
L 3481 3500 
L 3481 434 
z
" transform="scale(0.015625)"/>
       <path id="DejaVuSans-61" d="M 2194 1759 
Q 1497 1759 1228 1600 
Q 959 1441 959 1056 
Q 959 750 1161 570 
Q 1363 391 1709 391 
Q 2188 391 2477 730 
Q 2766 1069 2766 1631 
L 2766 1759 
L 2194 1759 
z
M 3341 1997 
L 3341 0 
L 2766 0 
L 2766 531 
Q 2569 213 2275 61 
Q 1981 -91 1556 -91 
Q 1019 -91 701 211 
Q 384 513 384 1019 
Q 384 1609 779 1909 
Q 1175 2209 1959 2209 
L 2766 2209 
L 2766 2266 
Q 2766 2663 2505 2880 
Q 2244 3097 1772 3097 
Q 1472 3097 1187 3025 
Q 903 2953 641 2809 
L 641 3341 
Q 956 3463 1253 3523 
Q 1550 3584 1831 3584 
Q 2591 3584 2966 3190 
Q 3341 2797 3341 1997 
z
" transform="scale(0.015625)"/>
       <path id="DejaVuSans-75" d="M 544 1381 
L 544 3500 
L 1119 3500 
L 1119 1403 
Q 1119 906 1312 657 
Q 1506 409 1894 409 
Q 2359 409 2629 706 
Q 2900 1003 2900 1516 
L 2900 3500 
L 3475 3500 
L 3475 0 
L 2900 0 
L 2900 538 
Q 2691 219 2414 64 
Q 2138 -91 1772 -91 
Q 1169 -91 856 284 
Q 544 659 544 1381 
z
M 1991 3584 
L 1991 3584 
z
" transform="scale(0.015625)"/>
       <path id="DejaVuSans-65" d="M 3597 1894 
L 3597 1613 
L 953 1613 
Q 991 1019 1311 708 
Q 1631 397 2203 397 
Q 2534 397 2845 478 
Q 3156 559 3463 722 
L 3463 178 
Q 3153 47 2828 -22 
Q 2503 -91 2169 -91 
Q 1331 -91 842 396 
Q 353 884 353 1716 
Q 353 2575 817 3079 
Q 1281 3584 2069 3584 
Q 2775 3584 3186 3129 
Q 3597 2675 3597 1894 
z
M 3022 2063 
Q 3016 2534 2758 2815 
Q 2500 3097 2075 3097 
Q 1594 3097 1305 2825 
Q 1016 2553 972 2059 
L 3022 2063 
z
" transform="scale(0.015625)"/>
       <path id="DejaVuSans-5f" d="M 3263 -1063 
L 3263 -1509 
L -63 -1509 
L -63 -1063 
L 3263 -1063 
z
" transform="scale(0.015625)"/>
       <path id="DejaVuSans-73" d="M 2834 3397 
L 2834 2853 
Q 2591 2978 2328 3040 
Q 2066 3103 1784 3103 
Q 1356 3103 1142 2972 
Q 928 2841 928 2578 
Q 928 2378 1081 2264 
Q 1234 2150 1697 2047 
L 1894 2003 
Q 2506 1872 2764 1633 
Q 3022 1394 3022 966 
Q 3022 478 2636 193 
Q 2250 -91 1575 -91 
Q 1294 -91 989 -36 
Q 684 19 347 128 
L 347 722 
Q 666 556 975 473 
Q 1284 391 1588 391 
Q 1994 391 2212 530 
Q 2431 669 2431 922 
Q 2431 1156 2273 1281 
Q 2116 1406 1581 1522 
L 1381 1569 
Q 847 1681 609 1914 
Q 372 2147 372 2553 
Q 372 3047 722 3315 
Q 1072 3584 1716 3584 
Q 2034 3584 2315 3537 
Q 2597 3491 2834 3397 
z
" transform="scale(0.015625)"/>
       <path id="DejaVuSans-71" d="M 947 1747 
Q 947 1113 1208 752 
Q 1469 391 1925 391 
Q 2381 391 2643 752 
Q 2906 1113 2906 1747 
Q 2906 2381 2643 2742 
Q 2381 3103 1925 3103 
Q 1469 3103 1208 2742 
Q 947 2381 947 1747 
z
M 2906 525 
Q 2725 213 2448 61 
Q 2172 -91 1784 -91 
Q 1150 -91 751 415 
Q 353 922 353 1747 
Q 353 2572 751 3078 
Q 1150 3584 1784 3584 
Q 2172 3584 2448 3432 
Q 2725 3281 2906 2969 
L 2906 3500 
L 3481 3500 
L 3481 -1331 
L 2906 -1331 
L 2906 525 
z
" transform="scale(0.015625)"/>
      </defs>
      <use xlink:href="#DejaVuSans-67"/>
      <use xlink:href="#DejaVuSans-61" x="63.476562"/>
      <use xlink:href="#DejaVuSans-75" x="124.755859"/>
      <use xlink:href="#DejaVuSans-67" x="188.134766"/>
      <use xlink:href="#DejaVuSans-65" x="251.611328"/>
      <use xlink:href="#DejaVuSans-5f" x="313.134766"/>
      <use xlink:href="#DejaVuSans-73" x="363.134766"/>
      <use xlink:href="#DejaVuSans-71" x="415.234375"/>
     </g>
    </g>
   </g>
   <g id="matplotlib.axis_2">
    <g id="ytick_1">
     <g id="line2d_11">
      <path d="M 58.293625 225.623484 
L 415.413625 225.623484 
" clip-path="url(#pf96ddbc8a2)" style="fill: none; stroke: #ffffff"/>
     </g>
     <g id="line2d_12">
      <path d="M 58.293625 225.623484 
" style="fill: none; stroke: #333333; stroke-width: 1.5"/>
      <defs>
       <path id="m2bf46f0408" d="M 0 0 
L -2.75 0 
" style="stroke: #000000"/>
      </defs>
      <g>
       <use xlink:href="#m2bf46f0408" x="58.293625" y="225.623484" style="fill: #333333; stroke: #000000"/>
      </g>
     </g>
     <g id="text_5">
      <!-- 0.0002 -->
      <g style="fill: #4d4d4d" transform="translate(22.551875 228.051734)scale(0.088 -0.088)">
       <use xlink:href="#DejaVuSans-30"/>
       <use xlink:href="#DejaVuSans-2e" x="63.623047"/>
       <use xlink:href="#DejaVuSans-30" x="95.410156"/>
       <use xlink:href="#DejaVuSans-30" x="159.033203"/>
       <use xlink:href="#DejaVuSans-30" x="222.65625"/>
       <use xlink:href="#DejaVuSans-32" x="286.279297"/>
      </g>
     </g>
    </g>
    <g id="ytick_2">
     <g id="line2d_13">
      <path d="M 58.293625 147.530937 
L 415.413625 147.530937 
" clip-path="url(#pf96ddbc8a2)" style="fill: none; stroke: #ffffff"/>
     </g>
     <g id="line2d_14">
      <path d="M 58.293625 147.530937 
" style="fill: none; stroke: #333333; stroke-width: 1.5"/>
      <g>
       <use xlink:href="#m2bf46f0408" x="58.293625" y="147.530937" style="fill: #333333; stroke: #000000"/>
      </g>
     </g>
     <g id="text_6">
      <!-- 0.0004 -->
      <g style="fill: #4d4d4d" transform="translate(22.551875 149.959187)scale(0.088 -0.088)">
       <defs>
        <path id="DejaVuSans-34" d="M 2419 4116 
L 825 1625 
L 2419 1625 
L 2419 4116 
z
M 2253 4666 
L 3047 4666 
L 3047 1625 
L 3713 1625 
L 3713 1100 
L 3047 1100 
L 3047 0 
L 2419 0 
L 2419 1100 
L 313 1100 
L 313 1709 
L 2253 4666 
z
" transform="scale(0.015625)"/>
       </defs>
       <use xlink:href="#DejaVuSans-30"/>
       <use xlink:href="#DejaVuSans-2e" x="63.623047"/>
       <use xlink:href="#DejaVuSans-30" x="95.410156"/>
       <use xlink:href="#DejaVuSans-30" x="159.033203"/>
       <use xlink:href="#DejaVuSans-30" x="222.65625"/>
       <use xlink:href="#DejaVuSans-34" x="286.279297"/>
      </g>
     </g>
    </g>
    <g id="ytick_3">
     <g id="line2d_15">
      <path d="M 58.293625 69.43839 
L 415.413625 69.43839 
" clip-path="url(#pf96ddbc8a2)" style="fill: none; stroke: #ffffff"/>
     </g>
     <g id="line2d_16">
      <path d="M 58.293625 69.43839 
" style="fill: none; stroke: #333333; stroke-width: 1.5"/>
      <g>
       <use xlink:href="#m2bf46f0408" x="58.293625" y="69.43839" style="fill: #333333; stroke: #000000"/>
      </g>
     </g>
     <g id="text_7">
      <!-- 0.0006 -->
      <g style="fill: #4d4d4d" transform="translate(22.551875 71.86664)scale(0.088 -0.088)">
       <defs>
        <path id="DejaVuSans-36" d="M 2113 2584 
Q 1688 2584 1439 2293 
Q 1191 2003 1191 1497 
Q 1191 994 1439 701 
Q 1688 409 2113 409 
Q 2538 409 2786 701 
Q 3034 994 3034 1497 
Q 3034 2003 2786 2293 
Q 2538 2584 2113 2584 
z
M 3366 4563 
L 3366 3988 
Q 3128 4100 2886 4159 
Q 2644 4219 2406 4219 
Q 1781 4219 1451 3797 
Q 1122 3375 1075 2522 
Q 1259 2794 1537 2939 
Q 1816 3084 2150 3084 
Q 2853 3084 3261 2657 
Q 3669 2231 3669 1497 
Q 3669 778 3244 343 
Q 2819 -91 2113 -91 
Q 1303 -91 875 529 
Q 447 1150 447 2328 
Q 447 3434 972 4092 
Q 1497 4750 2381 4750 
Q 2619 4750 2861 4703 
Q 3103 4656 3366 4563 
z
" transform="scale(0.015625)"/>
       </defs>
       <use xlink:href="#DejaVuSans-30"/>
       <use xlink:href="#DejaVuSans-2e" x="63.623047"/>
       <use xlink:href="#DejaVuSans-30" x="95.410156"/>
       <use xlink:href="#DejaVuSans-30" x="159.033203"/>
       <use xlink:href="#DejaVuSans-30" x="222.65625"/>
       <use xlink:href="#DejaVuSans-36" x="286.279297"/>
      </g>
     </g>
    </g>
    <g id="ytick_4">
     <g id="line2d_17">
      <path d="M 58.293625 264.669758 
L 415.413625 264.669758 
" clip-path="url(#pf96ddbc8a2)" style="fill: none; stroke: #ffffff; stroke-width: 0.5"/>
     </g>
    </g>
    <g id="ytick_5">
     <g id="line2d_18">
      <path d="M 58.293625 186.577211 
L 415.413625 186.577211 
" clip-path="url(#pf96ddbc8a2)" style="fill: none; stroke: #ffffff; stroke-width: 0.5"/>
     </g>
    </g>
    <g id="ytick_6">
     <g id="line2d_19">
      <path d="M 58.293625 108.484663 
L 415.413625 108.484663 
" clip-path="url(#pf96ddbc8a2)" style="fill: none; stroke: #ffffff; stroke-width: 0.5"/>
     </g>
    </g>
    <g id="ytick_7">
     <g id="line2d_20">
      <path d="M 58.293625 30.392116 
L 415.413625 30.392116 
" clip-path="url(#pf96ddbc8a2)" style="fill: none; stroke: #ffffff; stroke-width: 0.5"/>
     </g>
    </g>
    <g id="text_8">
     <!-- unit_weight -->
     <g transform="translate(15.558281 189.382355)rotate(-90)scale(0.11 -0.11)">
      <defs>
       <path id="DejaVuSans-6e" d="M 3513 2113 
L 3513 0 
L 2938 0 
L 2938 2094 
Q 2938 2591 2744 2837 
Q 2550 3084 2163 3084 
Q 1697 3084 1428 2787 
Q 1159 2491 1159 1978 
L 1159 0 
L 581 0 
L 581 3500 
L 1159 3500 
L 1159 2956 
Q 1366 3272 1645 3428 
Q 1925 3584 2291 3584 
Q 2894 3584 3203 3211 
Q 3513 2838 3513 2113 
z
" transform="scale(0.015625)"/>
       <path id="DejaVuSans-69" d="M 603 3500 
L 1178 3500 
L 1178 0 
L 603 0 
L 603 3500 
z
M 603 4863 
L 1178 4863 
L 1178 4134 
L 603 4134 
L 603 4863 
z
" transform="scale(0.015625)"/>
       <path id="DejaVuSans-74" d="M 1172 4494 
L 1172 3500 
L 2356 3500 
L 2356 3053 
L 1172 3053 
L 1172 1153 
Q 1172 725 1289 603 
Q 1406 481 1766 481 
L 2356 481 
L 2356 0 
L 1766 0 
Q 1100 0 847 248 
Q 594 497 594 1153 
L 594 3053 
L 172 3053 
L 172 3500 
L 594 3500 
L 594 4494 
L 1172 4494 
z
" transform="scale(0.015625)"/>
       <path id="DejaVuSans-77" d="M 269 3500 
L 844 3500 
L 1563 769 
L 2278 3500 
L 2956 3500 
L 3675 769 
L 4391 3500 
L 4966 3500 
L 4050 0 
L 3372 0 
L 2619 2869 
L 1863 0 
L 1184 0 
L 269 3500 
z
" transform="scale(0.015625)"/>
       <path id="DejaVuSans-68" d="M 3513 2113 
L 3513 0 
L 2938 0 
L 2938 2094 
Q 2938 2591 2744 2837 
Q 2550 3084 2163 3084 
Q 1697 3084 1428 2787 
Q 1159 2491 1159 1978 
L 1159 0 
L 581 0 
L 581 4863 
L 1159 4863 
L 1159 2956 
Q 1366 3272 1645 3428 
Q 1925 3584 2291 3584 
Q 2894 3584 3203 3211 
Q 3513 2838 3513 2113 
z
" transform="scale(0.015625)"/>
      </defs>
      <use xlink:href="#DejaVuSans-75"/>
      <use xlink:href="#DejaVuSans-6e" x="63.378906"/>
      <use xlink:href="#DejaVuSans-69" x="126.757812"/>
      <use xlink:href="#DejaVuSans-74" x="154.541016"/>
      <use xlink:href="#DejaVuSans-5f" x="193.75"/>
      <use xlink:href="#DejaVuSans-77" x="243.75"/>
      <use xlink:href="#DejaVuSans-65" x="325.537109"/>
      <use xlink:href="#DejaVuSans-69" x="387.060547"/>
      <use xlink:href="#DejaVuSans-67" x="414.84375"/>
      <use xlink:href="#DejaVuSans-68" x="478.320312"/>
      <use xlink:href="#DejaVuSans-74" x="541.699219"/>
     </g>
    </g>
   </g>
   <g id="PolyCollection_1">
    <path d="M 74.526352 267.649695 
L 74.526352 280.121371 
L 78.635903 277.154175 
L 82.745455 274.188369 
L 86.855006 271.224039 
L 90.964557 268.261278 
L 95.074108 265.300183 
L 99.18366 262.34086 
L 103.293211 259.383422 
L 107.402762 256.427989 
L 111.512313 253.474688 
L 115.621864 250.523657 
L 119.731416 247.575042 
L 123.840967 244.628995 
L 127.950518 241.68568 
L 132.060069 238.745271 
L 136.16962 235.807948 
L 140.279172 232.873901 
L 144.388723 229.94333 
L 148.498274 227.01644 
L 152.607825 224.093445 
L 156.717376 221.174564 
L 160.826928 218.260018 
L 164.936479 215.350032 
L 169.04603 212.44483 
L 173.155581 209.544633 
L 177.265132 206.649654 
L 181.374684 203.760099 
L 185.484235 200.87616 
L 189.593786 197.998012 
L 193.703337 195.12581 
L 197.812889 192.259687 
L 201.92244 189.399747 
L 206.031991 186.546068 
L 210.141542 183.698693 
L 214.251093 180.857638 
L 218.360645 178.022883 
L 222.470196 175.194377 
L 226.579747 172.372039 
L 230.689298 169.555759 
L 234.798849 166.745401 
L 238.908401 163.940807 
L 243.017952 161.141797 
L 247.127503 158.348178 
L 251.237054 155.559742 
L 255.346605 152.776275 
L 259.456157 149.997554 
L 263.565708 147.223355 
L 267.675259 144.453455 
L 271.78481 141.687632 
L 275.894361 138.925668 
L 280.003913 136.16735 
L 284.113464 133.412474 
L 288.223015 130.660842 
L 292.332566 127.912266 
L 296.442118 125.166565 
L 300.551669 122.423569 
L 304.66122 119.683115 
L 308.770771 116.945052 
L 312.880322 114.209235 
L 316.989874 111.475529 
L 321.099425 108.743807 
L 325.208976 106.01395 
L 329.318527 103.285847 
L 333.428078 100.559395 
L 337.53763 97.834494 
L 341.647181 95.111055 
L 345.756732 92.388993 
L 349.866283 89.668227 
L 353.975834 86.948685 
L 358.085386 84.230296 
L 362.194937 81.512996 
L 366.304488 78.796724 
L 370.414039 76.081425 
L 374.52359 73.367044 
L 378.633142 70.653534 
L 382.742693 67.940847 
L 386.852244 65.22894 
L 390.961795 62.517773 
L 395.071347 59.807309 
L 399.180898 57.09751 
L 399.180898 41.204453 
L 399.180898 41.204453 
L 395.071347 44.184136 
L 390.961795 47.163154 
L 386.852244 50.141469 
L 382.742693 53.119045 
L 378.633142 56.09584 
L 374.52359 59.071812 
L 370.414039 62.046914 
L 366.304488 65.021097 
L 362.194937 67.994308 
L 358.085386 70.96649 
L 353.975834 73.937583 
L 349.866283 76.907523 
L 345.756732 79.87624 
L 341.647181 82.84366 
L 337.53763 85.809703 
L 333.428078 88.774285 
L 329.318527 91.737315 
L 325.208976 94.698694 
L 321.099425 97.65832 
L 316.989874 100.61608 
L 312.880322 103.571857 
L 308.770771 106.525522 
L 304.66122 109.476941 
L 300.551669 112.425969 
L 296.442118 115.372455 
L 292.332566 118.316237 
L 288.223015 121.257143 
L 284.113464 124.194994 
L 280.003913 127.1296 
L 275.894361 130.060765 
L 271.78481 132.988282 
L 267.675259 135.911941 
L 263.565708 138.831524 
L 259.456157 141.746808 
L 255.346605 144.657569 
L 251.237054 147.563584 
L 247.127503 150.46463 
L 243.017952 153.360494 
L 238.908401 156.250966 
L 234.798849 159.135854 
L 230.689298 162.014979 
L 226.579747 164.888181 
L 222.470196 167.755325 
L 218.360645 170.616302 
L 214.251093 173.471029 
L 210.141542 176.319456 
L 206.031991 179.161564 
L 201.92244 181.997367 
L 197.812889 184.826909 
L 193.703337 187.650268 
L 189.593786 190.467549 
L 185.484235 193.278883 
L 181.374684 196.084426 
L 177.265132 198.884354 
L 173.155581 201.678857 
L 169.04603 204.468142 
L 164.936479 207.252422 
L 160.826928 210.031919 
L 156.717376 212.806856 
L 152.607825 215.577456 
L 148.498274 218.343944 
L 144.388723 221.106537 
L 140.279172 223.865448 
L 136.16962 226.620883 
L 132.060069 229.373043 
L 127.950518 232.122115 
L 123.840967 234.868283 
L 119.731416 237.611719 
L 115.621864 240.352585 
L 111.512313 243.091037 
L 107.402762 245.827219 
L 103.293211 248.561268 
L 99.18366 251.293312 
L 95.074108 254.023471 
L 90.964557 256.751859 
L 86.855006 259.47858 
L 82.745455 262.203732 
L 78.635903 264.927409 
L 74.526352 267.649695 
z
" clip-path="url(#pf96ddbc8a2)" style="fill: #1e90ff; fill-opacity: 0.298039"/>
   </g>
   <g id="line2d_21">
    <path d="M 74.526352 273.885533 
L 78.635903 271.040792 
L 82.745455 268.196051 
L 86.855006 265.351309 
L 90.964557 262.506568 
L 95.074108 259.661827 
L 99.18366 256.817086 
L 103.293211 253.972345 
L 107.402762 251.127604 
L 111.512313 248.282862 
L 115.621864 245.438121 
L 119.731416 242.59338 
L 123.840967 239.748639 
L 127.950518 236.903898 
L 132.060069 234.059157 
L 136.16962 231.214416 
L 140.279172 228.369674 
L 144.388723 225.524933 
L 148.498274 222.680192 
L 152.607825 219.835451 
L 156.717376 216.99071 
L 160.826928 214.145969 
L 164.936479 211.301227 
L 169.04603 208.456486 
L 173.155581 205.611745 
L 177.265132 202.767004 
L 181.374684 199.922263 
L 185.484235 197.077522 
L 189.593786 194.23278 
L 193.703337 191.388039 
L 197.812889 188.543298 
L 201.92244 185.698557 
L 206.031991 182.853816 
L 210.141542 180.009075 
L 214.251093 177.164333 
L 218.360645 174.319592 
L 222.470196 171.474851 
L 226.579747 168.63011 
L 230.689298 165.785369 
L 234.798849 162.940628 
L 238.908401 160.095887 
L 243.017952 157.251145 
L 247.127503 154.406404 
L 251.237054 151.561663 
L 255.346605 148.716922 
L 259.456157 145.872181 
L 263.565708 143.02744 
L 267.675259 140.182698 
L 271.78481 137.337957 
L 275.894361 134.493216 
L 280.003913 131.648475 
L 284.113464 128.803734 
L 288.223015 125.958993 
L 292.332566 123.114251 
L 296.442118 120.26951 
L 300.551669 117.424769 
L 304.66122 114.580028 
L 308.770771 111.735287 
L 312.880322 108.890546 
L 316.989874 106.045804 
L 321.099425 103.201063 
L 325.208976 100.356322 
L 329.318527 97.511581 
L 333.428078 94.66684 
L 337.53763 91.822099 
L 341.647181 88.977357 
L 345.756732 86.132616 
L 349.866283 83.287875 
L 353.975834 80.443134 
L 358.085386 77.598393 
L 362.194937 74.753652 
L 366.304488 71.908911 
L 370.414039 69.064169 
L 374.52359 66.219428 
L 378.633142 63.374687 
L 382.742693 60.529946 
L 386.852244 57.685205 
L 390.961795 54.840464 
L 395.071347 51.995722 
L 399.180898 49.150981 
" clip-path="url(#pf96ddbc8a2)" style="fill: none; stroke: #1e90ff; stroke-width: 1.772454; stroke-linejoin: miter"/>
   </g>
   <g id="PathCollection_1">
    <path d="M 74.526352 266.182493 
C 75.113928 266.182493 75.677516 265.949046 76.092995 265.533568 
C 76.508473 265.118089 76.74192 264.554501 76.74192 263.966925 
C 76.74192 263.37935 76.508473 262.815761 76.092995 262.400283 
C 75.677516 261.984804 75.113928 261.751358 74.526352 261.751358 
C 73.938777 261.751358 73.375188 261.984804 72.95971 262.400283 
C 72.544231 262.815761 72.310785 263.37935 72.310785 263.966925 
C 72.310785 264.554501 72.544231 265.118089 72.95971 265.533568 
C 73.375188 265.949046 73.938777 266.182493 74.526352 266.182493 
z
" clip-path="url(#pf96ddbc8a2)" style="fill: #4169e1; stroke: #4169e1; stroke-width: 0.886227"/>
    <path d="M 82.642716 265.79203 
C 83.230291 265.79203 83.79388 265.558584 84.209359 265.143105 
C 84.624837 264.727627 84.858283 264.164038 84.858283 263.576463 
C 84.858283 262.988887 84.624837 262.425298 84.209359 262.00982 
C 83.79388 261.594341 83.230291 261.360895 82.642716 261.360895 
C 82.055141 261.360895 81.491552 261.594341 81.076073 262.00982 
C 80.660595 262.425298 80.427149 262.988887 80.427149 263.576463 
C 80.427149 264.164038 80.660595 264.727627 81.076073 265.143105 
C 81.491552 265.558584 82.055141 265.79203 82.642716 265.79203 
z
" clip-path="url(#pf96ddbc8a2)" style="fill: #4169e1; stroke: #4169e1; stroke-width: 0.886227"/>
    <path d="M 91.613434 263.722577 
C 92.201009 263.722577 92.764598 263.489131 93.180076 263.073653 
C 93.595555 262.658174 93.829001 262.094585 93.829001 261.50701 
C 93.829001 260.919435 93.595555 260.355846 93.180076 259.940367 
C 92.764598 259.524889 92.201009 259.291443 91.613434 259.291443 
C 91.025858 259.291443 90.462269 259.524889 90.046791 259.940367 
C 89.631312 260.355846 89.397866 260.919435 89.397866 261.50701 
C 89.397866 262.094585 89.631312 262.658174 90.046791 263.073653 
C 90.462269 263.489131 91.025858 263.722577 91.613434 263.722577 
z
" clip-path="url(#pf96ddbc8a2)" style="fill: #4169e1; stroke: #4169e1; stroke-width: 0.886227"/>
    <path d="M 101.438505 261.067431 
C 102.026081 261.067431 102.58967 260.833985 103.005148 260.418506 
C 103.420627 260.003028 103.654073 259.439439 103.654073 258.851863 
C 103.654073 258.264288 103.420627 257.700699 103.005148 257.285221 
C 102.58967 256.869742 102.026081 256.636296 101.438505 256.636296 
C 100.85093 256.636296 100.287341 256.869742 99.871863 257.285221 
C 99.456384 257.700699 99.222938 258.264288 99.222938 258.851863 
C 99.222938 259.439439 99.456384 260.003028 99.871863 260.418506 
C 100.287341 260.833985 100.85093 261.067431 101.438505 261.067431 
z
" clip-path="url(#pf96ddbc8a2)" style="fill: #4169e1; stroke: #4169e1; stroke-width: 0.886227"/>
    <path d="M 112.117931 251.423001 
C 112.705507 251.423001 113.269095 251.189555 113.684574 250.774076 
C 114.100052 250.358598 114.333499 249.795009 114.333499 249.207434 
C 114.333499 248.619858 114.100052 248.05627 113.684574 247.640791 
C 113.269095 247.225313 112.705507 246.991866 112.117931 246.991866 
C 111.530356 246.991866 110.966767 247.225313 110.551289 247.640791 
C 110.13581 248.05627 109.902364 248.619858 109.902364 249.207434 
C 109.902364 249.795009 110.13581 250.358598 110.551289 250.774076 
C 110.966767 251.189555 111.530356 251.423001 112.117931 251.423001 
z
" clip-path="url(#pf96ddbc8a2)" style="fill: #4169e1; stroke: #4169e1; stroke-width: 0.886227"/>
    <path d="M 123.651711 250.368752 
C 124.239286 250.368752 124.802875 250.135306 125.218354 249.719827 
C 125.633832 249.304349 125.867278 248.74076 125.867278 248.153184 
C 125.867278 247.565609 125.633832 247.00202 125.218354 246.586542 
C 124.802875 246.171063 124.239286 245.937617 123.651711 245.937617 
C 123.064136 245.937617 122.500547 246.171063 122.085068 246.586542 
C 121.66959 247.00202 121.436144 247.565609 121.436144 248.153184 
C 121.436144 248.74076 121.66959 249.304349 122.085068 249.719827 
C 122.500547 250.135306 123.064136 250.368752 123.651711 250.368752 
z
" clip-path="url(#pf96ddbc8a2)" style="fill: #4169e1; stroke: #4169e1; stroke-width: 0.886227"/>
    <path d="M 136.039845 230.845615 
C 136.62742 230.845615 137.191009 230.612169 137.606488 230.19669 
C 138.021966 229.781212 138.255412 229.217623 138.255412 228.630048 
C 138.255412 228.042472 138.021966 227.478883 137.606488 227.063405 
C 137.191009 226.647926 136.62742 226.41448 136.039845 226.41448 
C 135.45227 226.41448 134.888681 226.647926 134.473202 227.063405 
C 134.057724 227.478883 133.824278 228.042472 133.824278 228.630048 
C 133.824278 229.217623 134.057724 229.781212 134.473202 230.19669 
C 134.888681 230.612169 135.45227 230.845615 136.039845 230.845615 
z
" clip-path="url(#pf96ddbc8a2)" style="fill: #4169e1; stroke: #4169e1; stroke-width: 0.886227"/>
    <path d="M 149.282333 224.676304 
C 149.869908 224.676304 150.433497 224.442857 150.848976 224.027379 
C 151.264454 223.6119 151.4979 223.048312 151.4979 222.460736 
C 151.4979 221.873161 151.264454 221.309572 150.848976 220.894094 
C 150.433497 220.478615 149.869908 220.245169 149.282333 220.245169 
C 148.694758 220.245169 148.131169 220.478615 147.71569 220.894094 
C 147.300212 221.309572 147.066766 221.873161 147.066766 222.460736 
C 147.066766 223.048312 147.300212 223.6119 147.71569 224.027379 
C 148.131169 224.442857 148.694758 224.676304 149.282333 224.676304 
z
" clip-path="url(#pf96ddbc8a2)" style="fill: #4169e1; stroke: #4169e1; stroke-width: 0.886227"/>
    <path d="M 163.379175 218.506992 
C 163.966751 218.506992 164.530339 218.273546 164.945818 217.858068 
C 165.361296 217.442589 165.594743 216.879 165.594743 216.291425 
C 165.594743 215.70385 165.361296 215.140261 164.945818 214.724782 
C 164.530339 214.309304 163.966751 214.075858 163.379175 214.075858 
C 162.7916 214.075858 162.228011 214.309304 161.812533 214.724782 
C 161.397054 215.140261 161.163608 215.70385 161.163608 216.291425 
C 161.163608 216.879 161.397054 217.442589 161.812533 217.858068 
C 162.228011 218.273546 162.7916 218.506992 163.379175 218.506992 
z
" clip-path="url(#pf96ddbc8a2)" style="fill: #4169e1; stroke: #4169e1; stroke-width: 0.886227"/>
    <path d="M 178.330371 207.417851 
C 178.917947 207.417851 179.481536 207.184405 179.897014 206.768926 
C 180.312493 206.353448 180.545939 205.789859 180.545939 205.202283 
C 180.545939 204.614708 180.312493 204.051119 179.897014 203.635641 
C 179.481536 203.220162 178.917947 202.986716 178.330371 202.986716 
C 177.742796 202.986716 177.179207 203.220162 176.763729 203.635641 
C 176.34825 204.051119 176.114804 204.614708 176.114804 205.202283 
C 176.114804 205.789859 176.34825 206.353448 176.763729 206.768926 
C 177.179207 207.184405 177.742796 207.417851 178.330371 207.417851 
z
" clip-path="url(#pf96ddbc8a2)" style="fill: #4169e1; stroke: #4169e1; stroke-width: 0.886227"/>
    <path d="M 194.135922 188.909917 
C 194.723497 188.909917 195.287086 188.676471 195.702564 188.260992 
C 196.118043 187.845514 196.351489 187.281925 196.351489 186.69435 
C 196.351489 186.106774 196.118043 185.543185 195.702564 185.127707 
C 195.287086 184.712228 194.723497 184.478782 194.135922 184.478782 
C 193.548346 184.478782 192.984757 184.712228 192.569279 185.127707 
C 192.1538 185.543185 191.920354 186.106774 191.920354 186.69435 
C 191.920354 187.281925 192.1538 187.845514 192.569279 188.260992 
C 192.984757 188.676471 193.548346 188.909917 194.135922 188.909917 
z
" clip-path="url(#pf96ddbc8a2)" style="fill: #4169e1; stroke: #4169e1; stroke-width: 0.886227"/>
    <path d="M 210.795826 177.625544 
C 211.383401 177.625544 211.94699 177.392098 212.362469 176.976619 
C 212.777947 176.561141 213.011393 175.997552 213.011393 175.409977 
C 213.011393 174.822401 212.777947 174.258812 212.362469 173.843334 
C 211.94699 173.427855 211.383401 173.194409 210.795826 173.194409 
C 210.208251 173.194409 209.644662 173.427855 209.229183 173.843334 
C 208.813705 174.258812 208.580259 174.822401 208.580259 175.409977 
C 208.580259 175.997552 208.813705 176.561141 209.229183 176.976619 
C 209.644662 177.392098 210.208251 177.625544 210.795826 177.625544 
z
" clip-path="url(#pf96ddbc8a2)" style="fill: #4169e1; stroke: #4169e1; stroke-width: 0.886227"/>
    <path d="M 228.310084 161.42134 
C 228.89766 161.42134 229.461249 161.187894 229.876727 160.772416 
C 230.292205 160.356937 230.525652 159.793348 230.525652 159.205773 
C 230.525652 158.618198 230.292205 158.054609 229.876727 157.63913 
C 229.461249 157.223652 228.89766 156.990206 228.310084 156.990206 
C 227.722509 156.990206 227.15892 157.223652 226.743442 157.63913 
C 226.327963 158.054609 226.094517 158.618198 226.094517 159.205773 
C 226.094517 159.793348 226.327963 160.356937 226.743442 160.772416 
C 227.15892 161.187894 227.722509 161.42134 228.310084 161.42134 
z
" clip-path="url(#pf96ddbc8a2)" style="fill: #4169e1; stroke: #4169e1; stroke-width: 0.886227"/>
    <path d="M 246.678697 155.564399 
C 247.266272 155.564399 247.829861 155.330953 248.245339 154.915475 
C 248.660818 154.499996 248.894264 153.936407 248.894264 153.348832 
C 248.894264 152.761257 248.660818 152.197668 248.245339 151.782189 
C 247.829861 151.366711 247.266272 151.133265 246.678697 151.133265 
C 246.091121 151.133265 245.527533 151.366711 245.112054 151.782189 
C 244.696576 152.197668 244.463129 152.761257 244.463129 153.348832 
C 244.463129 153.936407 244.696576 154.499996 245.112054 154.915475 
C 245.527533 155.330953 246.091121 155.564399 246.678697 155.564399 
z
" clip-path="url(#pf96ddbc8a2)" style="fill: #4169e1; stroke: #4169e1; stroke-width: 0.886227"/>
    <path d="M 265.901663 154.236826 
C 266.489239 154.236826 267.052827 154.00338 267.468306 153.587901 
C 267.883784 153.172423 268.117231 152.608834 268.117231 152.021259 
C 268.117231 151.433683 267.883784 150.870094 267.468306 150.454616 
C 267.052827 150.039137 266.489239 149.805691 265.901663 149.805691 
C 265.314088 149.805691 264.750499 150.039137 264.335021 150.454616 
C 263.919542 150.870094 263.686096 151.433683 263.686096 152.021259 
C 263.686096 152.608834 263.919542 153.172423 264.335021 153.587901 
C 264.750499 154.00338 265.314088 154.236826 265.901663 154.236826 
z
" clip-path="url(#pf96ddbc8a2)" style="fill: #4169e1; stroke: #4169e1; stroke-width: 0.886227"/>
    <path d="M 285.978984 136.431725 
C 286.566559 136.431725 287.130148 136.198279 287.545627 135.7828 
C 287.961105 135.367322 288.194551 134.803733 288.194551 134.216158 
C 288.194551 133.628582 287.961105 133.064994 287.545627 132.649515 
C 287.130148 132.234037 286.566559 132.00059 285.978984 132.00059 
C 285.391409 132.00059 284.82782 132.234037 284.412341 132.649515 
C 283.996863 133.064994 283.763417 133.628582 283.763417 134.216158 
C 283.763417 134.803733 283.996863 135.367322 284.412341 135.7828 
C 284.82782 136.198279 285.391409 136.431725 285.978984 136.431725 
z
" clip-path="url(#pf96ddbc8a2)" style="fill: #4169e1; stroke: #4169e1; stroke-width: 0.886227"/>
    <path d="M 306.910658 119.993244 
C 307.498234 119.993244 308.061823 119.759798 308.477301 119.344319 
C 308.89278 118.928841 309.126226 118.365252 309.126226 117.777677 
C 309.126226 117.190101 308.89278 116.626512 308.477301 116.211034 
C 308.061823 115.795555 307.498234 115.562109 306.910658 115.562109 
C 306.323083 115.562109 305.759494 115.795555 305.344016 116.211034 
C 304.928537 116.626512 304.695091 117.190101 304.695091 117.777677 
C 304.695091 118.365252 304.928537 118.928841 305.344016 119.344319 
C 305.759494 119.759798 306.323083 119.993244 306.910658 119.993244 
z
" clip-path="url(#pf96ddbc8a2)" style="fill: #4169e1; stroke: #4169e1; stroke-width: 0.886227"/>
    <path d="M 328.696687 108.669824 
C 329.284263 108.669824 329.847851 108.436378 330.26333 108.0209 
C 330.678808 107.605421 330.912255 107.041832 330.912255 106.454257 
C 330.912255 105.866682 330.678808 105.303093 330.26333 104.887614 
C 329.847851 104.472136 329.284263 104.23869 328.696687 104.23869 
C 328.109112 104.23869 327.545523 104.472136 327.130045 104.887614 
C 326.714566 105.303093 326.48112 105.866682 326.48112 106.454257 
C 326.48112 107.041832 326.714566 107.605421 327.130045 108.0209 
C 327.545523 108.436378 328.109112 108.669824 328.696687 108.669824 
z
" clip-path="url(#pf96ddbc8a2)" style="fill: #4169e1; stroke: #4169e1; stroke-width: 0.886227"/>
    <path d="M 351.33707 98.400654 
C 351.924645 98.400654 352.488234 98.167208 352.903713 97.75173 
C 353.319191 97.336251 353.552637 96.772662 353.552637 96.185087 
C 353.552637 95.597512 353.319191 95.033923 352.903713 94.618444 
C 352.488234 94.202966 351.924645 93.96952 351.33707 93.96952 
C 350.749495 93.96952 350.185906 94.202966 349.770427 94.618444 
C 349.354949 95.033923 349.121503 95.597512 349.121503 96.185087 
C 349.121503 96.772662 349.354949 97.336251 349.770427 97.75173 
C 350.185906 98.167208 350.749495 98.400654 351.33707 98.400654 
z
" clip-path="url(#pf96ddbc8a2)" style="fill: #4169e1; stroke: #4169e1; stroke-width: 0.886227"/>
    <path d="M 374.831807 50.022321 
C 375.419382 50.022321 375.982971 49.788875 376.398449 49.373397 
C 376.813928 48.957918 377.047374 48.394329 377.047374 47.806754 
C 377.047374 47.219179 376.813928 46.65559 376.398449 46.240111 
C 375.982971 45.824633 375.419382 45.591187 374.831807 45.591187 
C 374.244231 45.591187 373.680643 45.824633 373.265164 46.240111 
C 372.849686 46.65559 372.61624 47.219179 372.61624 47.806754 
C 372.61624 48.394329 372.849686 48.957918 373.265164 49.373397 
C 373.680643 49.788875 374.244231 50.022321 374.831807 50.022321 
z
" clip-path="url(#pf96ddbc8a2)" style="fill: #4169e1; stroke: #4169e1; stroke-width: 0.886227"/>
    <path d="M 399.180898 40.416938 
C 399.768473 40.416938 400.332062 40.183492 400.74754 39.768013 
C 401.163019 39.352535 401.396465 38.788946 401.396465 38.201371 
C 401.396465 37.613795 401.163019 37.050207 400.74754 36.634728 
C 400.332062 36.21925 399.768473 35.985803 399.180898 35.985803 
C 398.593322 35.985803 398.029734 36.21925 397.614255 36.634728 
C 397.198777 37.050207 396.96533 37.613795 396.96533 38.201371 
C 396.96533 38.788946 397.198777 39.352535 397.614255 39.768013 
C 398.029734 40.183492 398.593322 40.416938 399.180898 40.416938 
z
" clip-path="url(#pf96ddbc8a2)" style="fill: #4169e1; stroke: #4169e1; stroke-width: 0.886227"/>
   </g>
  </g>
  <g id="text_9">
   <!-- stainless steel roundwound -->
   <g transform="translate(140.909781 17.229938)scale(0.132 -0.132)">
    <defs>
     <path id="DejaVuSans-6c" d="M 603 4863 
L 1178 4863 
L 1178 0 
L 603 0 
L 603 4863 
z
" transform="scale(0.015625)"/>
     <path id="DejaVuSans-20" transform="scale(0.015625)"/>
     <path id="DejaVuSans-72" d="M 2631 2963 
Q 2534 3019 2420 3045 
Q 2306 3072 2169 3072 
Q 1681 3072 1420 2755 
Q 1159 2438 1159 1844 
L 1159 0 
L 581 0 
L 581 3500 
L 1159 3500 
L 1159 2956 
Q 1341 3275 1631 3429 
Q 1922 3584 2338 3584 
Q 2397 3584 2469 3576 
Q 2541 3569 2628 3553 
L 2631 2963 
z
" transform="scale(0.015625)"/>
     <path id="DejaVuSans-6f" d="M 1959 3097 
Q 1497 3097 1228 2736 
Q 959 2375 959 1747 
Q 959 1119 1226 758 
Q 1494 397 1959 397 
Q 2419 397 2687 759 
Q 2956 1122 2956 1747 
Q 2956 2369 2687 2733 
Q 2419 3097 1959 3097 
z
M 1959 3584 
Q 2709 3584 3137 3096 
Q 3566 2609 3566 1747 
Q 3566 888 3137 398 
Q 2709 -91 1959 -91 
Q 1206 -91 779 398 
Q 353 888 353 1747 
Q 353 2609 779 3096 
Q 1206 3584 1959 3584 
z
" transform="scale(0.015625)"/>
     <path id="DejaVuSans-64" d="M 2906 2969 
L 2906 4863 
L 3481 4863 
L 3481 0 
L 2906 0 
L 2906 525 
Q 2725 213 2448 61 
Q 2172 -91 1784 -91 
Q 1150 -91 751 415 
Q 353 922 353 1747 
Q 353 2572 751 3078 
Q 1150 3584 1784 3584 
Q 2172 3584 2448 3432 
Q 2725 3281 2906 2969 
z
M 947 1747 
Q 947 1113 1208 752 
Q 1469 391 1925 391 
Q 2381 391 2643 752 
Q 2906 1113 2906 1747 
Q 2906 2381 2643 2742 
Q 2381 3103 1925 3103 
Q 1469 3103 1208 2742 
Q 947 2381 947 1747 
z
" transform="scale(0.015625)"/>
    </defs>
    <use xlink:href="#DejaVuSans-73"/>
    <use xlink:href="#DejaVuSans-74" x="52.099609"/>
    <use xlink:href="#DejaVuSans-61" x="91.308594"/>
    <use xlink:href="#DejaVuSans-69" x="152.587891"/>
    <use xlink:href="#DejaVuSans-6e" x="180.371094"/>
    <use xlink:href="#DejaVuSans-6c" x="243.75"/>
    <use xlink:href="#DejaVuSans-65" x="271.533203"/>
    <use xlink:href="#DejaVuSans-73" x="333.056641"/>
    <use xlink:href="#DejaVuSans-73" x="385.15625"/>
    <use xlink:href="#DejaVuSans-20" x="437.255859"/>
    <use xlink:href="#DejaVuSans-73" x="469.042969"/>
    <use xlink:href="#DejaVuSans-74" x="521.142578"/>
    <use xlink:href="#DejaVuSans-65" x="560.351562"/>
    <use xlink:href="#DejaVuSans-65" x="621.875"/>
    <use xlink:href="#DejaVuSans-6c" x="683.398438"/>
    <use xlink:href="#DejaVuSans-20" x="711.181641"/>
    <use xlink:href="#DejaVuSans-72" x="742.96875"/>
    <use xlink:href="#DejaVuSans-6f" x="781.832031"/>
    <use xlink:href="#DejaVuSans-75" x="843.013672"/>
    <use xlink:href="#DejaVuSans-6e" x="906.392578"/>
    <use xlink:href="#DejaVuSans-64" x="969.771484"/>
    <use xlink:href="#DejaVuSans-77" x="1033.248047"/>
    <use xlink:href="#DejaVuSans-6f" x="1115.035156"/>
    <use xlink:href="#DejaVuSans-75" x="1176.216797"/>
    <use xlink:href="#DejaVuSans-6e" x="1239.595703"/>
    <use xlink:href="#DejaVuSans-64" x="1302.974609"/>
   </g>
  </g>
 </g>
 <defs>
  <clipPath id="pf96ddbc8a2">
   <rect x="58.293625" y="26.105371" width="357.12" height="266.112"/>
  </clipPath>
 </defs>
</svg>
